<svg xmlns="http://www.w3.org/2000/svg" xmlns:xlink="http://www.w3.org/1999/xlink" width="500" zoomAndPan="magnify" viewBox="0 0 375 374.999991" height="500" preserveAspectRatio="xMidYMid meet" version="1.0"><defs><clipPath id="598aa50156"><path d="M 45.074219 8.347656 L 330 8.347656 L 330 366.847656 L 45.074219 366.847656 Z M 45.074219 8.347656 " clip-rule="nonzero"/></clipPath></defs><rect x="-37.5" width="450" fill="#ffffff" y="-37.499999" height="449.999989" fill-opacity="1"/><rect x="-37.5" width="450" fill="#ffffff" y="-37.499999" height="449.999989" fill-opacity="1"/><g clip-path="url(#598aa50156)"><path fill="#595959" d="M 326.632812 30 L 329.714844 30 L 329.714844 8.347656 L 308.0625 8.347656 L 308.0625 11.429688 C 308.0625 16.519531 303.90625 20.679688 298.8125 20.679688 C 293.722656 20.679688 289.566406 16.519531 289.566406 11.429688 L 289.566406 8.347656 L 270.996094 8.347656 L 270.996094 11.429688 C 270.996094 16.519531 266.835938 20.679688 261.746094 20.679688 C 256.65625 20.679688 252.496094 16.519531 252.496094 11.429688 L 252.496094 8.347656 L 233.925781 8.347656 L 233.925781 11.429688 C 233.925781 16.519531 229.769531 20.679688 224.675781 20.679688 C 219.585938 20.679688 215.429688 16.519531 215.429688 11.429688 L 215.429688 8.347656 L 196.859375 8.347656 L 196.859375 11.429688 C 196.859375 16.519531 192.699219 20.679688 187.609375 20.679688 C 182.519531 20.679688 178.359375 16.519531 178.359375 11.429688 L 178.359375 8.347656 L 159.789062 8.347656 L 159.789062 11.429688 C 159.789062 16.519531 155.632812 20.679688 150.542969 20.679688 C 145.449219 20.679688 141.292969 16.519531 141.292969 11.429688 L 141.292969 8.347656 L 122.722656 8.347656 L 122.722656 11.429688 C 122.722656 16.519531 118.5625 20.679688 113.472656 20.679688 C 108.382812 20.679688 104.222656 16.519531 104.222656 11.429688 L 104.222656 8.347656 L 85.582031 8.347656 L 85.582031 11.429688 C 85.582031 16.519531 81.425781 20.679688 76.332031 20.679688 C 71.242188 20.679688 67.085938 16.519531 67.085938 11.429688 L 67.085938 8.347656 L 45.429688 8.347656 L 45.429688 30 L 48.515625 30 C 53.605469 30 57.761719 34.160156 57.761719 39.25 C 57.761719 44.339844 53.605469 48.5 48.515625 48.5 L 45.429688 48.5 L 45.429688 67.070312 L 48.515625 67.070312 C 53.605469 67.070312 57.761719 71.226562 57.761719 76.320312 C 57.761719 81.410156 53.605469 85.566406 48.515625 85.566406 L 45.429688 85.566406 L 45.429688 104.136719 L 48.515625 104.136719 C 53.605469 104.136719 57.761719 108.296875 57.761719 113.386719 C 57.761719 118.480469 53.605469 122.636719 48.515625 122.636719 L 45.429688 122.636719 L 45.429688 141.207031 L 48.515625 141.207031 C 53.605469 141.207031 57.761719 145.367188 57.761719 150.457031 C 57.761719 155.546875 53.605469 159.707031 48.515625 159.707031 L 45.429688 159.707031 L 45.429688 178.277344 L 48.515625 178.277344 C 53.605469 178.277344 57.761719 182.433594 57.761719 187.527344 C 57.761719 192.617188 53.605469 196.773438 48.515625 196.773438 L 45.429688 196.773438 L 45.429688 215.34375 L 48.515625 215.34375 C 53.605469 215.34375 57.761719 219.503906 57.761719 224.59375 C 57.761719 229.683594 53.605469 233.84375 48.515625 233.84375 L 45.429688 233.84375 L 45.429688 252.414062 L 48.515625 252.414062 C 53.605469 252.414062 57.761719 256.574219 57.761719 261.664062 C 57.761719 266.753906 53.605469 270.914062 48.515625 270.914062 L 45.429688 270.914062 L 45.429688 289.484375 L 48.515625 289.484375 C 53.605469 289.484375 57.761719 293.640625 57.761719 298.730469 C 57.761719 303.824219 53.605469 307.980469 48.515625 307.980469 L 45.429688 307.980469 L 45.429688 326.695312 L 48.515625 326.695312 C 53.605469 326.695312 57.761719 330.855469 57.761719 335.945312 C 57.761719 341.035156 53.605469 345.195312 48.515625 345.195312 L 45.429688 345.195312 L 45.429688 366.847656 L 67.085938 366.847656 L 67.085938 363.765625 C 67.085938 358.671875 71.242188 354.515625 76.332031 354.515625 C 81.425781 354.515625 85.582031 358.671875 85.582031 363.765625 L 85.582031 366.847656 L 104.152344 366.847656 L 104.152344 363.765625 C 104.152344 358.671875 108.3125 354.515625 113.402344 354.515625 C 118.492188 354.515625 122.652344 358.671875 122.652344 363.765625 L 122.652344 366.847656 L 141.21875 366.847656 L 141.21875 363.765625 C 141.21875 358.671875 145.378906 354.515625 150.46875 354.515625 C 155.558594 354.515625 159.71875 358.671875 159.71875 363.765625 L 159.71875 366.847656 L 178.289062 366.847656 L 178.289062 363.765625 C 178.289062 358.671875 182.445312 354.515625 187.539062 354.515625 C 192.628906 354.515625 196.785156 358.671875 196.785156 363.765625 L 196.785156 366.847656 L 215.355469 366.847656 L 215.355469 363.765625 C 215.355469 358.671875 219.515625 354.515625 224.605469 354.515625 C 229.695312 354.515625 233.855469 358.671875 233.855469 363.765625 L 233.855469 366.847656 L 252.425781 366.847656 L 252.425781 363.765625 C 252.425781 358.671875 256.582031 354.515625 261.675781 354.515625 C 266.765625 354.515625 270.921875 358.671875 270.921875 363.765625 L 270.921875 366.847656 L 289.492188 366.847656 L 289.492188 363.765625 C 289.492188 358.671875 293.652344 354.515625 298.742188 354.515625 C 303.832031 354.515625 307.992188 358.671875 307.992188 363.765625 L 307.992188 366.847656 L 329.644531 366.847656 L 329.644531 345.195312 L 326.5625 345.195312 C 321.46875 345.195312 317.3125 341.035156 317.3125 335.945312 C 317.3125 330.855469 321.46875 326.695312 326.5625 326.695312 L 329.644531 326.695312 L 329.644531 308.125 L 326.5625 308.125 C 321.46875 308.125 317.3125 303.964844 317.3125 298.875 C 317.3125 293.785156 321.46875 289.625 326.5625 289.625 L 329.644531 289.625 L 329.644531 271.054688 L 326.5625 271.054688 C 321.46875 271.054688 317.3125 266.898438 317.3125 261.808594 C 317.3125 256.714844 321.46875 252.558594 326.5625 252.558594 L 329.644531 252.558594 L 329.644531 233.988281 L 326.5625 233.988281 C 321.46875 233.988281 317.3125 229.828125 317.3125 224.738281 C 317.3125 219.648438 321.46875 215.488281 326.5625 215.488281 L 329.644531 215.488281 L 329.644531 196.917969 L 326.5625 196.917969 C 321.46875 196.917969 317.3125 192.761719 317.3125 187.667969 C 317.3125 182.578125 321.46875 178.417969 326.5625 178.417969 L 329.644531 178.417969 L 329.644531 159.847656 L 326.5625 159.847656 C 321.46875 159.847656 317.3125 155.691406 317.3125 150.601562 C 317.3125 145.507812 321.46875 141.351562 326.5625 141.351562 L 329.644531 141.351562 L 329.644531 122.78125 L 326.5625 122.78125 C 321.46875 122.78125 317.3125 118.621094 317.3125 113.53125 C 317.3125 108.441406 321.46875 104.28125 326.5625 104.28125 L 329.644531 104.28125 L 329.644531 85.710938 L 326.5625 85.710938 C 321.46875 85.710938 317.3125 81.554688 317.3125 76.460938 C 317.3125 71.371094 321.46875 67.214844 326.5625 67.214844 L 329.644531 67.214844 L 329.644531 48.5 L 326.5625 48.5 C 321.46875 48.5 317.3125 44.339844 317.3125 39.25 C 317.3125 34.160156 321.542969 30 326.632812 30 Z M 323.550781 54.378906 L 323.550781 61.191406 C 316.523438 62.625 311.21875 68.863281 311.21875 76.320312 C 311.21875 83.777344 316.523438 90.011719 323.550781 91.449219 L 323.550781 98.257812 C 316.523438 99.691406 311.21875 105.929688 311.21875 113.386719 C 311.21875 120.84375 316.523438 127.082031 323.550781 128.515625 L 323.550781 135.328125 C 316.523438 136.761719 311.21875 143 311.21875 150.457031 C 311.21875 157.914062 316.523438 164.152344 323.550781 165.585938 L 323.550781 172.398438 C 316.523438 173.832031 311.21875 180.070312 311.21875 187.527344 C 311.21875 194.984375 316.523438 201.21875 323.550781 202.65625 L 323.550781 209.464844 C 316.523438 210.898438 311.21875 217.136719 311.21875 224.59375 C 311.21875 232.050781 316.523438 238.289062 323.550781 239.722656 L 323.550781 246.535156 C 316.523438 247.96875 311.21875 254.207031 311.21875 261.664062 C 311.21875 269.121094 316.523438 275.359375 323.550781 276.792969 L 323.550781 283.605469 C 316.523438 285.039062 311.21875 291.277344 311.21875 298.730469 C 311.21875 306.1875 316.523438 312.425781 323.550781 313.859375 L 323.550781 320.671875 C 316.523438 322.105469 311.21875 328.34375 311.21875 335.800781 C 311.21875 343.257812 316.523438 349.496094 323.550781 350.929688 L 323.550781 360.539062 L 313.941406 360.539062 C 312.507812 353.511719 306.269531 348.207031 298.8125 348.207031 C 291.355469 348.207031 285.121094 353.511719 283.683594 360.539062 L 276.875 360.539062 C 275.441406 353.511719 269.203125 348.207031 261.746094 348.207031 C 254.289062 348.207031 248.050781 353.511719 246.617188 360.539062 L 239.804688 360.539062 C 238.371094 353.511719 232.132812 348.207031 224.675781 348.207031 C 217.222656 348.207031 210.984375 353.511719 209.550781 360.539062 L 202.738281 360.539062 C 201.304688 353.511719 195.066406 348.207031 187.609375 348.207031 C 180.152344 348.207031 173.914062 353.511719 172.480469 360.539062 L 165.667969 360.539062 C 164.234375 353.511719 157.996094 348.207031 150.542969 348.207031 C 143.085938 348.207031 136.847656 353.511719 135.414062 360.539062 L 128.601562 360.539062 C 127.167969 353.511719 120.929688 348.207031 113.472656 348.207031 C 106.015625 348.207031 99.777344 353.511719 98.34375 360.539062 L 91.535156 360.539062 C 90.097656 353.511719 83.863281 348.207031 76.40625 348.207031 C 68.949219 348.207031 62.640625 353.65625 61.203125 360.679688 L 51.597656 360.679688 L 51.597656 351.074219 C 58.625 349.640625 63.929688 343.402344 63.929688 335.945312 C 63.929688 328.488281 58.625 322.25 51.597656 320.816406 L 51.597656 314.003906 C 58.625 312.570312 63.929688 306.332031 63.929688 298.875 C 63.929688 291.417969 58.625 285.179688 51.597656 283.746094 L 51.597656 276.933594 C 58.625 275.5 63.929688 269.261719 63.929688 261.808594 C 63.929688 254.351562 58.625 248.113281 51.597656 246.679688 L 51.597656 239.867188 C 58.625 238.433594 63.929688 232.195312 63.929688 224.738281 C 63.929688 217.28125 58.625 211.042969 51.597656 209.609375 L 51.597656 202.796875 C 58.625 201.363281 63.929688 195.125 63.929688 187.667969 C 63.929688 180.210938 58.625 173.972656 51.597656 172.539062 L 51.597656 165.730469 C 58.625 164.292969 63.929688 158.058594 63.929688 150.601562 C 63.929688 143.144531 58.625 136.90625 51.597656 135.472656 L 51.597656 128.660156 C 58.625 127.226562 63.929688 120.988281 63.929688 113.53125 C 63.929688 106.074219 58.625 99.835938 51.597656 98.402344 L 51.597656 91.589844 C 58.625 90.15625 63.929688 83.917969 63.929688 76.460938 C 63.929688 69.003906 58.625 62.625 51.597656 61.191406 L 51.597656 54.378906 C 58.625 52.945312 63.929688 46.707031 63.929688 39.25 C 63.929688 31.792969 58.625 25.554688 51.597656 24.121094 L 51.597656 14.511719 L 61.203125 14.511719 C 62.640625 21.539062 68.875 26.847656 76.332031 26.847656 C 83.789062 26.847656 90.027344 21.539062 91.460938 14.511719 L 98.273438 14.511719 C 99.707031 21.539062 105.945312 26.847656 113.402344 26.847656 C 120.859375 26.847656 127.097656 21.539062 128.53125 14.511719 L 135.339844 14.511719 C 136.773438 21.539062 143.011719 26.847656 150.46875 26.847656 C 157.925781 26.847656 164.164062 21.539062 165.597656 14.511719 L 172.410156 14.511719 C 173.84375 21.539062 180.082031 26.847656 187.539062 26.847656 C 194.996094 26.847656 201.230469 21.539062 202.667969 14.511719 L 209.476562 14.511719 C 210.910156 21.539062 217.148438 26.847656 224.605469 26.847656 C 232.0625 26.847656 238.300781 21.539062 239.734375 14.511719 L 246.546875 14.511719 C 247.980469 21.539062 254.21875 26.847656 261.675781 26.847656 C 269.128906 26.847656 275.367188 21.539062 276.800781 14.511719 L 283.613281 14.511719 C 285.046875 21.539062 291.285156 26.847656 298.742188 26.847656 C 306.199219 26.847656 312.4375 21.539062 313.871094 14.511719 L 323.476562 14.511719 L 323.476562 24.121094 C 316.453125 25.554688 311.144531 31.792969 311.144531 39.25 C 311.144531 46.707031 316.523438 52.945312 323.550781 54.378906 Z M 82.5 329.777344 L 292.648438 329.777344 L 292.648438 45.417969 L 82.5 45.417969 Z M 88.664062 51.582031 L 286.480469 51.582031 L 286.480469 323.539062 L 88.664062 323.539062 Z M 88.664062 51.582031 " fill-opacity="1" fill-rule="nonzero"/></g></svg>