<svg xmlns="http://www.w3.org/2000/svg" xmlns:xlink="http://www.w3.org/1999/xlink" width="500" zoomAndPan="magnify" viewBox="0 0 375 374.999991" height="500" preserveAspectRatio="xMidYMid meet" version="1.0"><defs><clipPath id="dab7a73aad"><path d="M 38 24.417969 L 333.75 24.417969 L 333.75 350.667969 L 38 350.667969 Z M 38 24.417969 " clip-rule="nonzero"/></clipPath></defs><g clip-path="url(#dab7a73aad)"><path fill="#000000" d="M 231.8125 187.542969 L 332.507812 36.386719 C 334.015625 34.117188 334.164062 31.203125 332.878906 28.800781 C 331.59375 26.398438 329.089844 24.890625 326.363281 24.890625 L 272.136719 24.890625 C 269.71875 24.890625 267.453125 26.074219 266.070312 28.0625 L 185.996094 143.183594 L 105.910156 28.0625 C 104.53125 26.074219 102.269531 24.890625 99.851562 24.890625 L 45.625 24.890625 C 42.902344 24.890625 40.394531 26.390625 39.109375 28.792969 C 37.824219 31.195312 37.972656 34.117188 39.480469 36.378906 L 140.175781 187.542969 L 39.480469 338.703125 C 37.972656 340.972656 37.824219 343.886719 39.109375 346.289062 C 40.394531 348.691406 42.902344 350.199219 45.625 350.199219 L 99.851562 350.199219 C 102.269531 350.199219 104.535156 349.015625 105.917969 347.027344 L 185.996094 231.90625 L 266.078125 347.027344 C 267.460938 349.015625 269.71875 350.199219 272.136719 350.199219 L 326.363281 350.199219 C 329.089844 350.199219 331.59375 348.699219 332.878906 346.296875 C 334.164062 343.894531 334.015625 340.972656 332.507812 338.710938 Z M 231.8125 187.542969 " fill-opacity="1" fill-rule="nonzero"/></g></svg>