<svg xmlns="http://www.w3.org/2000/svg" xmlns:xlink="http://www.w3.org/1999/xlink" width="500" zoomAndPan="magnify" viewBox="0 0 375 74.999997" height="100" preserveAspectRatio="xMidYMid meet" version="1.0"><path fill="#ffbe0d" d="M 60.390625 44.789062 C 59.230469 45.910156 58.699219 47.53125 58.976562 49.128906 L 61.582031 64.265625 C 62.273438 68.269531 58.050781 71.316406 54.449219 69.425781 L 40.804688 62.273438 C 39.371094 61.527344 37.65625 61.527344 36.222656 62.273438 L 22.578125 69.425781 C 19.335938 71.128906 15.589844 68.832031 15.390625 65.433594 C 15.355469 65.058594 15.378906 64.667969 15.445312 64.265625 L 18.054688 49.128906 C 18.320312 47.53125 17.792969 45.910156 16.636719 44.789062 L 5.597656 34.0625 C 2.675781 31.226562 4.292969 26.289062 8.324219 25.703125 L 23.578125 23.5 C 25.179688 23.261719 26.558594 22.265625 27.273438 20.820312 L 34.105469 7.039062 C 35.90625 3.394531 41.109375 3.394531 42.921875 7.039062 L 49.742188 20.820312 C 50.457031 22.261719 51.839844 23.261719 53.4375 23.5 L 68.699219 25.703125 C 69.085938 25.761719 69.449219 25.859375 69.789062 25.988281 C 73.003906 27.210938 74.066406 31.492188 71.421875 34.0625 Z M 60.390625 44.789062 " fill-opacity="1" fill-rule="nonzero"/><path fill="#ffbe0d" d="M 133.675781 44.789062 C 132.511719 45.910156 131.980469 47.53125 132.257812 49.128906 L 134.863281 64.265625 C 135.554688 68.269531 131.332031 71.316406 127.730469 69.425781 L 114.085938 62.273438 C 112.652344 61.527344 110.9375 61.527344 109.503906 62.273438 L 95.859375 69.425781 C 92.617188 71.128906 88.871094 68.832031 88.671875 65.433594 C 88.636719 65.058594 88.660156 64.667969 88.726562 64.265625 L 91.335938 49.128906 C 91.601562 47.53125 91.074219 45.910156 89.921875 44.789062 L 78.878906 34.0625 C 75.957031 31.226562 77.574219 26.289062 81.609375 25.703125 L 96.859375 23.5 C 98.460938 23.261719 99.839844 22.265625 100.554688 20.820312 L 107.386719 7.039062 C 109.1875 3.394531 114.390625 3.394531 116.203125 7.039062 L 123.023438 20.820312 C 123.738281 22.261719 125.121094 23.261719 126.71875 23.5 L 141.980469 25.703125 C 142.367188 25.761719 142.730469 25.859375 143.070312 25.988281 C 146.289062 27.210938 147.347656 31.492188 144.703125 34.0625 Z M 133.675781 44.789062 " fill-opacity="1" fill-rule="nonzero"/><path fill="#ffbe0d" d="M 206.949219 44.789062 C 205.789062 45.910156 205.257812 47.53125 205.535156 49.128906 L 208.140625 64.265625 C 208.832031 68.269531 204.609375 71.316406 201.007812 69.425781 L 187.363281 62.273438 C 185.929688 61.527344 184.214844 61.527344 182.78125 62.273438 L 169.136719 69.425781 C 165.894531 71.128906 162.148438 68.832031 161.949219 65.433594 C 161.914062 65.058594 161.9375 64.667969 162.003906 64.265625 L 164.613281 49.128906 C 164.878906 47.53125 164.351562 45.910156 163.195312 44.789062 L 152.15625 34.0625 C 149.234375 31.226562 150.851562 26.289062 154.882812 25.703125 L 170.136719 23.5 C 171.738281 23.261719 173.117188 22.265625 173.832031 20.820312 L 180.664062 7.039062 C 182.464844 3.394531 187.667969 3.394531 189.480469 7.039062 L 196.300781 20.820312 C 197.015625 22.261719 198.398438 23.261719 199.996094 23.5 L 215.257812 25.703125 C 215.644531 25.761719 216.007812 25.859375 216.347656 25.988281 C 219.5625 27.210938 220.625 31.492188 217.980469 34.0625 Z M 206.949219 44.789062 " fill-opacity="1" fill-rule="nonzero"/><path fill="#ffbe0d" d="M 280.230469 44.789062 C 279.070312 45.910156 278.539062 47.53125 278.816406 49.128906 L 281.421875 64.265625 C 282.113281 68.269531 277.890625 71.316406 274.289062 69.425781 L 260.644531 62.273438 C 259.210938 61.527344 257.496094 61.527344 256.0625 62.273438 L 242.417969 69.425781 C 239.175781 71.128906 235.429688 68.832031 235.230469 65.433594 C 235.195312 65.058594 235.21875 64.667969 235.285156 64.265625 L 237.894531 49.128906 C 238.160156 47.53125 237.632812 45.910156 236.476562 44.789062 L 225.4375 34.0625 C 222.515625 31.226562 224.132812 26.289062 228.164062 25.703125 L 243.417969 23.5 C 245.019531 23.261719 246.398438 22.265625 247.113281 20.820312 L 253.945312 7.039062 C 255.746094 3.394531 260.949219 3.394531 262.761719 7.039062 L 269.582031 20.820312 C 270.296875 22.261719 271.679688 23.261719 273.277344 23.5 L 288.539062 25.703125 C 288.925781 25.761719 289.289062 25.859375 289.628906 25.988281 C 292.84375 27.210938 293.90625 31.492188 291.261719 34.0625 Z M 280.230469 44.789062 " fill-opacity="1" fill-rule="nonzero"/><path fill="#ffbe0d" d="M 331.632812 7.664062 C 331.921875 7.664062 332.636719 7.746094 333.023438 8.527344 L 339.84375 22.308594 C 341.050781 24.738281 343.378906 26.425781 346.078125 26.824219 L 361.316406 29.023438 C 361.492188 29.050781 361.601562 29.085938 361.660156 29.109375 C 361.675781 29.113281 361.691406 29.121094 361.707031 29.125 C 362.179688 29.304688 362.527344 29.730469 362.636719 30.253906 C 362.714844 30.625 362.699219 31.167969 362.191406 31.660156 L 351.164062 42.382812 C 349.199219 44.28125 348.308594 47.015625 348.773438 49.695312 L 351.378906 64.839844 C 351.460938 65.308594 351.351562 65.726562 351.058594 66.070312 C 350.75 66.433594 350.304688 66.648438 349.855469 66.648438 C 349.617188 66.648438 349.375 66.585938 349.132812 66.460938 L 335.484375 59.308594 C 334.300781 58.691406 332.96875 58.363281 331.632812 58.363281 C 330.296875 58.363281 328.960938 58.691406 327.773438 59.3125 L 314.125 66.464844 C 313.890625 66.589844 313.648438 66.652344 313.40625 66.652344 C 312.707031 66.652344 311.921875 66.082031 311.867188 65.242188 C 311.867188 65.207031 311.863281 65.175781 311.859375 65.140625 C 311.855469 65.109375 311.855469 65.011719 311.882812 64.839844 L 314.496094 49.6875 C 314.945312 47.011719 314.054688 44.28125 312.109375 42.386719 L 301.066406 31.660156 C 300.464844 31.078125 300.5625 30.421875 300.671875 30.082031 C 300.757812 29.808594 301.0625 29.152344 301.925781 29.023438 L 317.183594 26.820312 C 319.875 26.421875 322.203125 24.734375 323.40625 22.304688 L 330.238281 8.519531 C 330.617188 7.777344 331.273438 7.664062 331.632812 7.664062 M 331.632812 4.308594 C 329.878906 4.308594 328.128906 5.21875 327.226562 7.039062 L 320.394531 20.820312 C 319.679688 22.261719 318.300781 23.261719 316.699219 23.5 L 301.449219 25.703125 C 297.414062 26.289062 295.796875 31.226562 298.71875 34.0625 L 309.761719 44.789062 C 310.914062 45.910156 311.441406 47.53125 311.175781 49.128906 L 308.566406 64.265625 C 308.5 64.667969 308.476562 65.058594 308.511719 65.433594 C 308.664062 68.042969 310.910156 70.003906 313.410156 70.003906 C 314.171875 70.003906 314.949219 69.824219 315.703125 69.425781 L 329.347656 62.273438 C 330.0625 61.902344 330.851562 61.714844 331.636719 61.714844 C 332.421875 61.714844 333.210938 61.902344 333.925781 62.273438 L 347.570312 69.425781 C 348.324219 69.820312 349.101562 70 349.855469 70 C 352.71875 70 355.246094 67.429688 354.703125 64.261719 L 352.097656 49.121094 C 351.820312 47.527344 352.351562 45.90625 353.515625 44.785156 L 364.542969 34.058594 C 367.1875 31.488281 366.128906 27.210938 362.910156 25.984375 C 362.570312 25.847656 362.210938 25.757812 361.820312 25.699219 L 346.558594 23.492188 C 344.960938 23.257812 343.578125 22.261719 342.863281 20.816406 L 336.042969 7.035156 C 335.136719 5.21875 333.382812 4.308594 331.632812 4.308594 Z M 331.632812 4.308594 " fill-opacity="1" fill-rule="nonzero"/><path fill="#ffce00" d="M 69.792969 25.988281 C 57.714844 45.425781 38.296875 59.863281 15.390625 65.433594 C 15.355469 65.058594 15.378906 64.667969 15.445312 64.265625 L 18.054688 49.128906 C 18.320312 47.53125 17.792969 45.910156 16.636719 44.789062 L 5.597656 34.0625 C 2.675781 31.226562 4.292969 26.289062 8.324219 25.703125 L 23.578125 23.5 C 25.179688 23.261719 26.558594 22.265625 27.273438 20.820312 L 34.105469 7.039062 C 35.90625 3.394531 41.109375 3.394531 42.921875 7.039062 L 49.742188 20.820312 C 50.457031 22.261719 51.839844 23.261719 53.4375 23.5 L 68.699219 25.703125 C 69.09375 25.761719 69.453125 25.859375 69.792969 25.988281 Z M 69.792969 25.988281 " fill-opacity="1" fill-rule="nonzero"/><path fill="#ffce00" d="M 143.074219 25.988281 C 130.996094 45.425781 111.578125 59.863281 88.671875 65.433594 C 88.636719 65.058594 88.660156 64.667969 88.726562 64.265625 L 91.335938 49.128906 C 91.601562 47.53125 91.074219 45.910156 89.921875 44.789062 L 78.878906 34.0625 C 75.957031 31.226562 77.574219 26.289062 81.609375 25.703125 L 96.859375 23.5 C 98.460938 23.261719 99.839844 22.265625 100.554688 20.820312 L 107.386719 7.039062 C 109.1875 3.394531 114.390625 3.394531 116.203125 7.039062 L 123.023438 20.820312 C 123.738281 22.261719 125.121094 23.261719 126.71875 23.5 L 141.980469 25.703125 C 142.371094 25.761719 142.734375 25.859375 143.074219 25.988281 Z M 143.074219 25.988281 " fill-opacity="1" fill-rule="nonzero"/><path fill="#ffce00" d="M 216.351562 25.988281 C 204.273438 45.425781 184.855469 59.863281 161.949219 65.433594 C 161.914062 65.058594 161.9375 64.667969 162.003906 64.265625 L 164.613281 49.128906 C 164.878906 47.53125 164.351562 45.910156 163.195312 44.789062 L 152.15625 34.0625 C 149.234375 31.226562 150.851562 26.289062 154.882812 25.703125 L 170.136719 23.5 C 171.738281 23.261719 173.117188 22.265625 173.832031 20.820312 L 180.664062 7.039062 C 182.464844 3.394531 187.667969 3.394531 189.480469 7.039062 L 196.300781 20.820312 C 197.015625 22.261719 198.398438 23.261719 199.996094 23.5 L 215.257812 25.703125 C 215.648438 25.761719 216.011719 25.859375 216.351562 25.988281 Z M 216.351562 25.988281 " fill-opacity="1" fill-rule="nonzero"/><path fill="#ffce00" d="M 289.628906 25.988281 C 277.550781 45.425781 258.132812 59.863281 235.222656 65.433594 C 235.1875 65.058594 235.214844 64.667969 235.28125 64.265625 L 237.890625 49.128906 C 238.15625 47.53125 237.628906 45.910156 236.472656 44.789062 L 225.433594 34.0625 C 222.511719 31.226562 224.128906 26.289062 228.160156 25.703125 L 243.414062 23.5 C 245.015625 23.261719 246.394531 22.265625 247.109375 20.820312 L 253.941406 7.039062 C 255.742188 3.394531 260.945312 3.394531 262.757812 7.039062 L 269.578125 20.820312 C 270.292969 22.261719 271.675781 23.261719 273.273438 23.5 L 288.539062 25.703125 C 288.929688 25.761719 289.289062 25.859375 289.628906 25.988281 Z M 289.628906 25.988281 " fill-opacity="1" fill-rule="nonzero"/></svg>