<svg xmlns="http://www.w3.org/2000/svg" xmlns:xlink="http://www.w3.org/1999/xlink" width="500" zoomAndPan="magnify" viewBox="0 0 375 374.999991" height="500" preserveAspectRatio="xMidYMid meet" version="1.0"><defs><clipPath id="652908d2b8"><path d="M 37.5 168 L 125 168 L 125 331 L 37.5 331 Z M 37.5 168 " clip-rule="nonzero"/></clipPath></defs><g clip-path="url(#652908d2b8)"><path fill="#ffffff" d="M 124.636719 324.355469 C 119.421875 328.289062 112.972656 330.652344 105.964844 330.652344 L 68.621094 330.652344 C 51.46875 330.652344 37.5 316.6875 37.5 299.53125 L 37.5 199.949219 C 37.5 182.792969 51.46875 168.828125 68.621094 168.828125 L 124.636719 168.828125 Z M 124.636719 324.355469 " fill-opacity="1" fill-rule="nonzero"/></g><path fill="#ffffff" d="M 336.253906 215.507812 C 336.253906 226.300781 330.082031 235.773438 320.882812 240.40625 C 322.796875 244.226562 323.808594 248.445312 323.808594 252.851562 C 323.808594 263.65625 317.621094 273.128906 308.421875 277.761719 C 311.273438 283.4375 312.105469 289.972656 310.675781 296.457031 C 307.886719 309.070312 296.023438 318.207031 282.464844 318.207031 L 168.207031 318.207031 C 160.039062 318.207031 147.21875 315.628906 137.085938 310.847656 L 137.085938 177.429688 L 138.578125 176.671875 L 174.429688 99.007812 L 174.429688 56.792969 C 174.429688 54.902344 175.289062 53.109375 176.757812 51.925781 C 177.15625 51.628906 186.390625 44.347656 199.324219 44.347656 C 213.726562 44.347656 236.671875 67.140625 236.671875 94.140625 C 236.671875 111.167969 230.570312 132.367188 226.761719 143.929688 L 303.652344 143.929688 C 320.410156 143.929688 334.660156 156.328125 336.117188 172.152344 C 336.925781 181.027344 333.964844 189.554688 328.152344 195.914062 C 333.292969 201.054688 336.253906 208.027344 336.253906 215.507812 Z M 336.253906 215.507812 " fill-opacity="1" fill-rule="nonzero"/></svg>