<?xml version="1.0" standalone="no"?>
<!DOCTYPE svg PUBLIC "-//W3C//DTD SVG 20010904//EN"
 "http://www.w3.org/TR/2001/REC-SVG-20010904/DTD/svg10.dtd">
<svg version="1.0" xmlns="http://www.w3.org/2000/svg"
 width="300.000000pt" height="59.000000pt" viewBox="0 0 300.000000 59.000000"
 preserveAspectRatio="xMidYMid meet">
<metadata>
Created by potrace 1.10, written by Peter Selinger 2001-2011
</metadata>
<g transform="translate(0.000000,59.000000) scale(0.100000,-0.100000)"
fill="#000000" stroke="none">
<path d="M320 538 c-6 -7 -26 -40 -43 -73 l-32 -60 -79 -15 c-112 -21 -116
-34 -41 -110 l59 -60 -13 -75 c-19 -113 2 -129 100 -75 30 16 62 30 72 30 9 0
41 -13 70 -30 99 -56 125 -38 102 71 l-16 73 62 62 c54 55 60 64 50 83 -7 11
-18 22 -26 22 -8 1 -18 2 -22 3 -5 1 -34 5 -65 10 l-58 7 -37 72 c-38 72 -61
90 -83 65z m64 -79 c34 -72 52 -85 134 -94 34 -4 65 -11 68 -16 3 -5 -20 -33
-50 -62 -61 -58 -63 -65 -45 -161 6 -32 8 -60 6 -62 -3 -3 -38 12 -79 32 l-75
37 -72 -37 c-40 -20 -76 -34 -80 -32 -4 3 -2 33 5 68 8 35 14 69 14 76 0 8
-26 40 -57 73 -34 36 -53 63 -47 68 5 5 36 12 69 16 32 3 67 10 76 15 9 5 32
39 50 75 19 36 39 65 45 65 6 0 23 -27 38 -61z"/>
<path d="M899 534 c-8 -9 -27 -42 -44 -72 -32 -59 -41 -64 -130 -75 -92 -12
-96 -38 -19 -110 61 -56 61 -58 39 -170 -8 -40 3 -67 26 -67 11 0 46 14 79 30
33 17 66 30 75 30 8 0 39 -13 68 -30 62 -35 92 -38 106 -11 6 10 9 20 7 22 -2
2 -6 23 -9 46 -4 22 -9 52 -12 65 -5 18 5 34 50 78 52 52 69 90 46 105 -6 3
-29 8 -53 11 -102 13 -110 18 -148 91 -36 71 -57 85 -81 57z m60 -70 c32 -72
56 -90 136 -99 36 -3 67 -11 71 -16 3 -5 -20 -33 -50 -62 -61 -58 -64 -66 -45
-161 7 -31 9 -59 6 -62 -3 -4 -40 11 -80 32 l-75 38 -72 -38 c-40 -21 -76 -34
-81 -29 -5 5 -5 24 0 43 27 105 27 105 -34 170 -32 32 -54 63 -51 68 3 6 34
13 68 17 35 4 71 12 81 17 11 5 32 39 49 74 16 35 35 64 42 64 6 0 22 -25 35
-56z"/>
<path d="M1479 534 c-8 -9 -27 -42 -44 -72 -32 -59 -41 -64 -130 -75 -50 -6
-75 -21 -75 -43 0 -7 26 -38 57 -68 l57 -55 -13 -76 c-10 -59 -10 -79 -1 -91
18 -20 33 -18 100 16 33 17 66 30 75 30 8 0 39 -13 68 -30 59 -33 95 -38 104
-14 3 8 1 48 -5 87 l-10 72 55 56 c83 86 72 109 -59 124 l-58 6 -37 72 c-39
75 -60 90 -84 61z m63 -74 c33 -71 54 -86 136 -95 34 -4 64 -11 67 -15 3 -5
-20 -34 -51 -64 l-57 -55 6 -53 c4 -30 10 -68 13 -86 8 -41 1 -40 -76 3 -34
19 -67 35 -72 35 -6 0 -42 -16 -80 -35 -38 -20 -73 -33 -77 -31 -5 3 -1 40 7
81 l15 76 -56 57 c-32 32 -57 63 -57 69 0 6 29 14 68 18 37 4 75 11 84 16 9 5
30 38 47 74 17 36 37 65 44 65 7 0 24 -27 39 -60z"/>
<path d="M2060 538 c-6 -7 -26 -40 -43 -72 -34 -64 -42 -68 -132 -79 -91 -12
-96 -38 -20 -109 59 -55 63 -67 44 -143 -14 -57 -5 -95 21 -95 12 0 47 14 80
30 33 17 66 30 75 30 8 0 39 -13 68 -30 97 -55 121 -38 100 72 l-13 71 60 63
c53 55 60 66 50 84 -6 11 -17 21 -25 21 -8 1 -18 2 -22 3 -5 1 -34 5 -65 10
l-58 7 -37 72 c-38 72 -61 90 -83 65z m59 -74 c31 -72 56 -90 136 -99 36 -3
68 -11 71 -17 3 -5 -19 -32 -50 -60 -62 -55 -64 -63 -45 -162 7 -31 9 -59 6
-62 -3 -4 -40 11 -80 32 l-75 38 -72 -37 c-73 -38 -95 -40 -85 -7 3 10 7 27 9
37 2 10 6 35 10 56 7 36 4 41 -54 101 -34 35 -57 66 -53 69 5 3 38 9 73 13 36
3 72 10 80 15 9 4 31 37 49 73 18 36 38 66 44 66 7 0 23 -25 36 -56z"/>
<path d="M2639 534 c-8 -9 -27 -42 -44 -72 -32 -59 -41 -64 -130 -75 -92 -12
-97 -39 -18 -112 l56 -53 -12 -76 c-10 -60 -10 -80 -1 -92 18 -20 33 -18 100
16 33 17 66 30 75 30 8 0 40 -14 70 -31 94 -53 121 -28 95 90 l-12 53 56 57
c52 53 70 91 47 105 -5 3 -43 11 -85 17 l-76 11 -38 72 c-38 74 -59 89 -83 60z
m62 -74 c38 -73 57 -86 134 -95 35 -3 67 -11 71 -16 3 -5 -20 -32 -50 -60 -62
-56 -66 -72 -45 -169 6 -28 9 -54 6 -57 -3 -2 -40 12 -81 33 l-76 37 -71 -37
c-78 -41 -93 -38 -79 18 26 102 26 101 -40 170 -34 35 -58 66 -53 69 4 3 37 8
73 12 36 4 73 11 82 16 9 5 30 39 48 75 17 36 36 64 41 62 6 -2 24 -28 40 -58z"/>
</g>
</svg>
