<svg xmlns="http://www.w3.org/2000/svg" xmlns:xlink="http://www.w3.org/1999/xlink" width="200" zoomAndPan="magnify" viewBox="0 0 150 149.999998" height="200" preserveAspectRatio="xMidYMid meet" version="1.0"><defs><clipPath id="c8821dd0ff"><path d="M 41 25 L 111.6875 25 L 111.6875 123 L 41 123 Z M 41 25 " clip-rule="nonzero"/></clipPath></defs><g clip-path="url(#c8821dd0ff)"><path fill="#000000" d="M 111.691406 85.257812 C 111.671875 84.863281 111.613281 84.476562 111.515625 84.089844 C 111.417969 83.707031 111.285156 83.335938 111.117188 82.980469 C 110.945312 82.625 110.742188 82.285156 110.507812 81.96875 C 110.269531 81.652344 110.003906 81.363281 109.710938 81.097656 C 109.417969 80.832031 109.101562 80.601562 108.757812 80.398438 C 108.417969 80.195312 108.0625 80.03125 107.691406 79.898438 C 107.316406 79.769531 106.933594 79.675781 106.542969 79.621094 C 106.152344 79.5625 105.757812 79.546875 105.363281 79.570312 C 104.96875 79.59375 104.578125 79.652344 104.195312 79.753906 C 103.8125 79.851562 103.445312 79.988281 103.089844 80.160156 C 102.730469 80.332031 102.398438 80.539062 102.082031 80.777344 C 101.765625 81.015625 101.476562 81.285156 101.214844 81.582031 C 100.953125 81.875 100.722656 82.195312 100.523438 82.535156 C 100.324219 82.878906 100.160156 83.238281 100.03125 83.609375 C 99.90625 83.984375 99.8125 84.367188 99.761719 84.761719 C 99.710938 85.152344 99.695312 85.546875 99.722656 85.941406 C 99.746094 86.375 99.757812 86.820312 99.757812 87.265625 C 99.757812 88.1875 99.703125 89.101562 99.597656 90.015625 C 99.488281 90.929688 99.328125 91.835938 99.113281 92.730469 C 98.898438 93.625 98.632812 94.503906 98.3125 95.367188 C 97.996094 96.230469 97.625 97.074219 97.207031 97.894531 C 96.789062 98.714844 96.324219 99.503906 95.8125 100.269531 C 95.300781 101.035156 94.746094 101.769531 94.148438 102.46875 C 93.550781 103.167969 92.914062 103.828125 92.238281 104.453125 C 91.5625 105.078125 90.851562 105.660156 90.105469 106.199219 C 89.359375 106.738281 88.585938 107.234375 87.78125 107.683594 C 86.980469 108.132812 86.152344 108.53125 85.300781 108.882812 C 84.449219 109.234375 83.582031 109.53125 82.695312 109.78125 C 81.808594 110.03125 80.914062 110.226562 80.003906 110.367188 C 79.09375 110.507812 78.179688 110.597656 77.257812 110.632812 C 76.339844 110.664062 75.421875 110.644531 74.503906 110.570312 C 73.585938 110.496094 72.675781 110.367188 71.773438 110.1875 C 70.871094 110.003906 69.984375 109.769531 69.109375 109.484375 C 68.234375 109.195312 67.382812 108.859375 66.546875 108.472656 C 65.710938 108.082031 64.902344 107.648438 64.121094 107.164062 C 63.335938 106.679688 62.585938 106.152344 61.863281 105.582031 C 61.144531 105.007812 60.457031 104.394531 59.808594 103.742188 C 59.160156 103.089844 58.554688 102.402344 57.988281 101.675781 C 57.421875 100.949219 56.898438 100.195312 56.421875 99.410156 C 55.941406 98.621094 55.511719 97.808594 55.132812 96.972656 C 54.75 96.136719 54.417969 95.277344 54.136719 94.402344 C 53.859375 93.523438 53.628906 92.636719 53.457031 91.730469 C 53.28125 90.828125 53.160156 89.917969 53.089844 89 C 53.023438 88.082031 53.011719 87.164062 53.050781 86.242188 C 53.09375 85.324219 53.1875 84.410156 53.335938 83.503906 C 53.484375 82.59375 53.6875 81.699219 53.941406 80.8125 C 54.195312 79.929688 54.503906 79.0625 54.859375 78.214844 C 55.21875 77.367188 55.621094 76.542969 56.078125 75.742188 C 56.53125 74.941406 57.03125 74.171875 57.578125 73.429688 C 58.125 72.6875 58.710938 71.984375 59.339844 71.3125 C 59.96875 70.640625 60.636719 70.007812 61.339844 69.414062 C 62.042969 68.820312 62.78125 68.273438 63.546875 67.765625 C 64.316406 67.261719 65.113281 66.800781 65.9375 66.390625 C 66.757812 65.976562 67.605469 65.617188 68.46875 65.304688 C 69.335938 64.992188 70.214844 64.730469 71.113281 64.523438 C 72.007812 64.316406 72.914062 64.160156 73.828125 64.058594 C 74.746094 63.960938 75.664062 63.914062 76.582031 63.921875 C 77.503906 63.925781 78.417969 63.988281 79.332031 64.105469 C 80.246094 64.222656 81.148438 64.390625 82.042969 64.613281 C 82.933594 64.835938 83.8125 65.109375 84.671875 65.433594 C 85.53125 65.761719 86.371094 66.136719 87.1875 66.5625 C 88.003906 66.988281 88.792969 67.460938 89.550781 67.976562 C 90.3125 68.496094 91.039062 69.058594 91.734375 69.660156 C 92.429688 70.265625 93.085938 70.910156 93.703125 71.589844 C 94.320312 72.273438 94.894531 72.988281 95.429688 73.738281 C 95.65625 74.058594 95.914062 74.355469 96.203125 74.625 C 96.488281 74.894531 96.796875 75.132812 97.132812 75.34375 C 97.464844 75.550781 97.816406 75.726562 98.183594 75.867188 C 98.550781 76.003906 98.929688 76.109375 99.316406 76.171875 C 99.707031 76.238281 100.097656 76.265625 100.488281 76.253906 C 100.882812 76.242188 101.269531 76.191406 101.65625 76.105469 C 102.039062 76.015625 102.410156 75.890625 102.769531 75.730469 C 103.128906 75.570312 103.46875 75.375 103.789062 75.144531 C 104.109375 74.917969 104.40625 74.660156 104.675781 74.375 C 104.945312 74.089844 105.183594 73.777344 105.394531 73.445312 C 105.601562 73.113281 105.777344 72.761719 105.917969 72.394531 C 106.054688 72.027344 106.160156 71.648438 106.226562 71.257812 C 106.289062 70.871094 106.316406 70.480469 106.304688 70.085938 C 106.292969 69.695312 106.246094 69.304688 106.15625 68.921875 C 106.070312 68.539062 105.945312 68.167969 105.785156 67.808594 C 105.621094 67.449219 105.429688 67.109375 105.199219 66.789062 C 103.941406 65.023438 102.535156 63.390625 100.980469 61.882812 C 99.421875 60.378906 97.742188 59.027344 95.9375 57.828125 C 94.132812 56.632812 92.234375 55.609375 90.242188 54.757812 C 88.25 53.910156 86.195312 53.246094 84.082031 52.773438 L 93.824219 33.003906 C 93.980469 32.691406 94.101562 32.363281 94.195312 32.027344 C 94.285156 31.6875 94.339844 31.34375 94.363281 30.996094 C 94.386719 30.644531 94.375 30.296875 94.332031 29.949219 C 94.285156 29.605469 94.207031 29.265625 94.09375 28.933594 C 93.980469 28.601562 93.835938 28.285156 93.664062 27.980469 C 93.488281 27.675781 93.285156 27.394531 93.054688 27.128906 C 92.824219 26.867188 92.570312 26.628906 92.292969 26.414062 C 92.011719 26.203125 91.71875 26.019531 91.402344 25.863281 C 91.089844 25.707031 90.765625 25.585938 90.425781 25.496094 C 90.085938 25.40625 89.742188 25.347656 89.394531 25.324219 C 89.046875 25.300781 88.695312 25.3125 88.351562 25.359375 C 88.003906 25.402344 87.664062 25.484375 87.332031 25.59375 C 87 25.707031 86.683594 25.851562 86.378906 26.027344 C 86.078125 26.199219 85.792969 26.402344 85.53125 26.632812 C 85.265625 26.867188 85.027344 27.121094 84.816406 27.398438 C 84.601562 27.675781 84.417969 27.972656 84.261719 28.285156 L 70.292969 52.460938 L 70.074219 52.5 L 74.859375 33.808594 C 74.96875 33.46875 75.046875 33.121094 75.089844 32.765625 C 75.132812 32.410156 75.140625 32.050781 75.109375 31.695312 C 75.082031 31.339844 75.015625 30.988281 74.917969 30.644531 C 74.816406 30.300781 74.683594 29.96875 74.515625 29.652344 C 74.351562 29.335938 74.152344 29.039062 73.925781 28.761719 C 73.699219 28.484375 73.449219 28.234375 73.171875 28.003906 C 72.894531 27.777344 72.597656 27.582031 72.28125 27.414062 C 71.964844 27.25 71.632812 27.117188 71.289062 27.015625 C 70.945312 26.914062 70.597656 26.851562 70.238281 26.820312 C 69.882812 26.789062 69.527344 26.796875 69.171875 26.839844 C 68.816406 26.882812 68.46875 26.957031 68.128906 27.070312 C 67.789062 27.183594 67.460938 27.328125 67.152344 27.507812 C 66.839844 27.683594 66.550781 27.890625 66.28125 28.128906 C 66.011719 28.363281 65.769531 28.625 65.554688 28.910156 C 65.335938 29.195312 65.152344 29.5 64.996094 29.820312 C 64.839844 30.144531 64.71875 30.476562 64.632812 30.824219 L 55.738281 58.011719 L 55.738281 39.480469 C 55.757812 39.125 55.742188 38.769531 55.691406 38.421875 C 55.636719 38.070312 55.550781 37.726562 55.433594 37.390625 C 55.3125 37.058594 55.160156 36.738281 54.976562 36.433594 C 54.792969 36.128906 54.582031 35.847656 54.339844 35.585938 C 54.101562 35.324219 53.835938 35.089844 53.550781 34.878906 C 53.261719 34.671875 52.957031 34.492188 52.632812 34.347656 C 52.3125 34.199219 51.976562 34.082031 51.628906 34.003906 C 51.285156 33.921875 50.933594 33.875 50.578125 33.863281 C 50.222656 33.855469 49.871094 33.878906 49.523438 33.9375 C 49.171875 33.996094 48.832031 34.089844 48.5 34.21875 C 48.167969 34.347656 47.851562 34.507812 47.554688 34.695312 C 47.253906 34.886719 46.976562 35.105469 46.71875 35.351562 C 46.464844 35.597656 46.234375 35.867188 46.03125 36.160156 C 45.832031 36.453125 45.660156 36.761719 45.519531 37.085938 C 45.378906 37.414062 45.273438 37.75 45.199219 38.097656 C 45.125 38.445312 45.089844 38.796875 45.085938 39.152344 L 44.042969 73.007812 C 43.78125 73.605469 43.53125 74.210938 43.300781 74.824219 C 43.070312 75.4375 42.859375 76.058594 42.660156 76.683594 C 42.464844 77.308594 42.285156 77.9375 42.125 78.574219 C 41.964844 79.207031 41.820312 79.847656 41.695312 80.492188 C 41.570312 81.132812 41.460938 81.78125 41.371094 82.429688 C 41.28125 83.078125 41.210938 83.726562 41.15625 84.382812 C 41.105469 85.035156 41.070312 85.6875 41.050781 86.34375 C 41.035156 86.996094 41.035156 87.652344 41.054688 88.308594 C 41.074219 88.960938 41.109375 89.617188 41.167969 90.269531 C 41.222656 90.921875 41.296875 91.574219 41.386719 92.222656 C 41.480469 92.871094 41.589844 93.515625 41.714844 94.15625 C 41.84375 94.800781 41.988281 95.4375 42.152344 96.074219 C 42.316406 96.707031 42.496094 97.335938 42.695312 97.960938 C 42.894531 98.585938 43.109375 99.203125 43.339844 99.816406 C 43.574219 100.429688 43.820312 101.035156 44.089844 101.632812 C 44.355469 102.234375 44.636719 102.824219 44.9375 103.40625 C 45.234375 103.988281 45.550781 104.5625 45.882812 105.128906 C 46.210938 105.695312 46.558594 106.25 46.921875 106.796875 C 47.28125 107.34375 47.660156 107.878906 48.050781 108.402344 C 48.441406 108.929688 48.847656 109.441406 49.269531 109.945312 C 49.6875 110.449219 50.121094 110.9375 50.570312 111.417969 C 51.015625 111.894531 51.476562 112.359375 51.949219 112.8125 C 52.425781 113.265625 52.910156 113.707031 53.40625 114.132812 C 53.90625 114.558594 54.414062 114.96875 54.933594 115.367188 C 55.457031 115.765625 55.988281 116.148438 56.527344 116.515625 C 57.070312 116.882812 57.621094 117.238281 58.183594 117.574219 C 58.746094 117.910156 59.316406 118.234375 59.894531 118.539062 C 60.476562 118.84375 61.0625 119.132812 61.65625 119.40625 C 62.253906 119.679688 62.855469 119.9375 63.464844 120.175781 C 64.074219 120.414062 64.691406 120.636719 65.3125 120.84375 C 65.9375 121.046875 66.5625 121.234375 67.195312 121.40625 C 67.828125 121.578125 68.464844 121.730469 69.105469 121.863281 C 69.746094 122 70.390625 122.117188 71.039062 122.214844 C 71.6875 122.316406 72.335938 122.394531 72.988281 122.460938 C 73.640625 122.523438 74.292969 122.566406 74.949219 122.59375 C 75.601562 122.621094 76.257812 122.628906 76.914062 122.621094 C 77.566406 122.609375 78.222656 122.582031 78.875 122.535156 C 79.53125 122.492188 80.179688 122.425781 80.832031 122.34375 C 81.480469 122.261719 82.128906 122.160156 82.773438 122.042969 C 83.417969 121.925781 84.058594 121.789062 84.695312 121.636719 C 85.332031 121.480469 85.964844 121.308594 86.589844 121.121094 C 87.21875 120.933594 87.839844 120.726562 88.457031 120.503906 C 89.070312 120.277344 89.679688 120.039062 90.28125 119.78125 C 90.886719 119.523438 91.480469 119.25 92.066406 118.957031 C 92.65625 118.667969 93.234375 118.363281 93.804688 118.039062 C 94.375 117.714844 94.933594 117.378906 95.484375 117.023438 C 96.035156 116.671875 96.578125 116.300781 97.109375 115.917969 C 97.640625 115.535156 98.160156 115.136719 98.667969 114.722656 C 99.175781 114.308594 99.671875 113.882812 100.160156 113.441406 C 100.644531 113.003906 101.117188 112.550781 101.574219 112.082031 C 102.035156 111.617188 102.480469 111.136719 102.914062 110.644531 C 103.347656 110.152344 103.769531 109.648438 104.171875 109.136719 C 104.578125 108.621094 104.96875 108.09375 105.34375 107.558594 C 105.71875 107.023438 106.082031 106.476562 106.425781 105.917969 C 106.773438 105.363281 107.101562 104.796875 107.417969 104.222656 C 107.730469 103.648438 108.027344 103.0625 108.308594 102.472656 C 108.59375 101.878906 108.855469 101.28125 109.105469 100.675781 C 109.355469 100.070312 109.585938 99.457031 109.800781 98.835938 C 110.015625 98.21875 110.210938 97.59375 110.390625 96.964844 C 110.570312 96.335938 110.730469 95.699219 110.875 95.0625 C 111.019531 94.421875 111.148438 93.777344 111.253906 93.132812 C 111.363281 92.488281 111.457031 91.839844 111.527344 91.1875 C 111.601562 90.535156 111.65625 89.882812 111.691406 89.230469 C 111.726562 88.574219 111.746094 87.921875 111.746094 87.265625 C 111.746094 86.59375 111.730469 85.925781 111.691406 85.257812 Z M 111.691406 85.257812 " fill-opacity="1" fill-rule="nonzero"/></g><path fill="#e61f93" d="M 76.386719 65.832031 C 74.828125 65.835938 73.285156 66.007812 71.761719 66.347656 L 74.550781 70.902344 L 69.042969 99.617188 L 76.390625 106.277344 L 83.738281 99.617188 L 78.234375 70.902344 L 81.023438 66.347656 C 79.496094 66.007812 77.953125 65.835938 76.386719 65.832031 Z M 76.386719 65.832031 " fill-opacity="1" fill-rule="nonzero"/></svg>