<svg xmlns="http://www.w3.org/2000/svg" xmlns:xlink="http://www.w3.org/1999/xlink" width="500" zoomAndPan="magnify" viewBox="0 0 375 225" height="300" preserveAspectRatio="xMidYMid meet" version="1.0"><defs><g/><clipPath id="691f680981"><path d="M 228.082031 78.484375 L 247.375 78.484375 L 247.375 97.777344 L 228.082031 97.777344 Z M 228.082031 78.484375 " clip-rule="nonzero"/></clipPath><clipPath id="e89aa311ee"><path d="M 237.726562 78.484375 C 232.398438 78.484375 228.082031 82.800781 228.082031 88.128906 C 228.082031 93.460938 232.398438 97.777344 237.726562 97.777344 C 243.058594 97.777344 247.375 93.460938 247.375 88.128906 C 247.375 82.800781 243.058594 78.484375 237.726562 78.484375 Z M 237.726562 78.484375 " clip-rule="nonzero"/></clipPath><clipPath id="b25ce3de35"><path d="M 243 88 L 257 88 L 257 103 L 243 103 Z M 243 88 " clip-rule="nonzero"/></clipPath><clipPath id="21e223b82e"><path d="M 240.699219 93.59375 L 252.066406 86.1875 L 259.472656 97.558594 L 248.105469 104.964844 Z M 240.699219 93.59375 " clip-rule="nonzero"/></clipPath><clipPath id="ce90c29425"><path d="M 246.382812 89.890625 C 243.242188 91.9375 242.355469 96.140625 244.402344 99.28125 C 246.445312 102.417969 250.648438 103.304688 253.789062 101.261719 C 256.929688 99.214844 257.816406 95.011719 255.769531 91.871094 C 253.722656 88.734375 249.523438 87.847656 246.382812 89.890625 Z M 246.382812 89.890625 " clip-rule="nonzero"/></clipPath><clipPath id="144e0dd7c0"><path d="M 149.089844 61.128906 L 184.636719 61.128906 L 184.636719 88.128906 L 149.089844 88.128906 Z M 149.089844 61.128906 " clip-rule="nonzero"/></clipPath><clipPath id="f33c2d18dd"><path d="M 166.816406 61.128906 C 157.027344 61.128906 149.089844 67.171875 149.089844 74.628906 C 149.089844 82.085938 157.027344 88.128906 166.816406 88.128906 C 176.605469 88.128906 184.539062 82.085938 184.539062 74.628906 C 184.539062 67.171875 176.605469 61.128906 166.816406 61.128906 Z M 166.816406 61.128906 " clip-rule="nonzero"/></clipPath><clipPath id="3b5533b9e2"><path d="M 149.089844 69.265625 L 167.363281 69.265625 L 167.363281 87.539062 L 149.089844 87.539062 Z M 149.089844 69.265625 " clip-rule="nonzero"/></clipPath><clipPath id="459562ffff"><path d="M 259.472656 127 L 269 127 L 269 137 L 259.472656 137 Z M 259.472656 127 " clip-rule="nonzero"/></clipPath><clipPath id="faedd90615"><path d="M 265 140 L 277 140 L 277 149.5 L 265 149.5 Z M 265 140 " clip-rule="nonzero"/></clipPath></defs><g fill="#000000" fill-opacity="1"><g transform="translate(96.186148, 139.793336)"><g><path d="M 0.484375 -4.375 C 0.484375 -5.6875 0.585938 -6.800781 0.796875 -7.71875 C 1.015625 -8.644531 1.304688 -9.566406 1.671875 -10.484375 C 2.035156 -11.398438 2.421875 -12.484375 2.828125 -13.734375 C 3.234375 -14.984375 3.632812 -16.554688 4.03125 -18.453125 C 4.425781 -20.359375 4.78125 -22.757812 5.09375 -25.65625 C 5.40625 -28.5625 5.628906 -32.148438 5.765625 -36.421875 C 5.765625 -39.796875 5.539062 -42.898438 5.09375 -45.734375 C 4.644531 -48.578125 4.117188 -51.203125 3.515625 -53.609375 C 2.910156 -56.023438 2.382812 -58.289062 1.9375 -60.40625 C 1.5 -62.53125 1.28125 -64.5625 1.28125 -66.5 C 1.28125 -67.675781 1.566406 -68.566406 2.140625 -69.171875 C 2.710938 -69.785156 3.414062 -70.210938 4.25 -70.453125 C 5.09375 -70.703125 5.921875 -70.832031 6.734375 -70.84375 C 7.554688 -70.863281 8.234375 -70.875 8.765625 -70.875 L 21.40625 -70.875 C 21.9375 -70.875 22.609375 -70.863281 23.421875 -70.84375 C 24.242188 -70.832031 25.070312 -70.703125 25.90625 -70.453125 C 26.75 -70.210938 27.457031 -69.785156 28.03125 -69.171875 C 28.601562 -68.566406 28.890625 -67.675781 28.890625 -66.5 C 28.890625 -64.65625 28.675781 -62.851562 28.25 -61.09375 C 27.820312 -59.34375 27.320312 -57.628906 26.75 -55.953125 C 26.175781 -54.285156 25.675781 -52.660156 25.25 -51.078125 C 24.820312 -49.503906 24.609375 -47.984375 24.609375 -46.515625 C 24.609375 -45.660156 24.613281 -45.097656 24.625 -44.828125 C 24.644531 -44.566406 24.785156 -44.4375 25.046875 -44.4375 C 25.316406 -44.4375 25.738281 -44.71875 26.3125 -45.28125 C 26.882812 -45.84375 27.644531 -46.484375 28.59375 -47.203125 C 29.539062 -47.921875 30.71875 -48.554688 32.125 -49.109375 C 33.539062 -49.671875 35.203125 -49.953125 37.109375 -49.953125 C 41.804688 -49.953125 45.515625 -47.835938 48.234375 -43.609375 C 50.953125 -39.378906 52.3125 -33.046875 52.3125 -24.609375 C 52.3125 -19.160156 51.539062 -14.550781 50 -10.78125 C 48.457031 -7.007812 46.304688 -4.144531 43.546875 -2.1875 C 40.796875 -0.238281 37.582031 0.734375 33.90625 0.734375 C 32.101562 0.734375 30.578125 0.632812 29.328125 0.4375 C 28.085938 0.238281 26.957031 0.00390625 25.9375 -0.265625 C 24.914062 -0.546875 23.851562 -0.785156 22.75 -0.984375 C 21.65625 -1.179688 20.335938 -1.28125 18.796875 -1.28125 C 17.390625 -1.28125 16.09375 -1.171875 14.90625 -0.953125 C 13.726562 -0.742188 12.585938 -0.53125 11.484375 -0.3125 C 10.390625 -0.101562 9.21875 0 7.96875 0 C 7.445312 0 6.773438 -0.00390625 5.953125 -0.015625 C 5.128906 -0.0351562 4.300781 -0.164062 3.46875 -0.40625 C 2.632812 -0.65625 1.925781 -1.082031 1.34375 -1.6875 C 0.769531 -2.300781 0.484375 -3.195312 0.484375 -4.375 Z M 24.609375 -24.515625 C 24.609375 -20.835938 25.007812 -17.863281 25.8125 -15.59375 C 26.613281 -13.332031 27.671875 -12.203125 28.984375 -12.203125 C 30.296875 -12.203125 31.351562 -13.332031 32.15625 -15.59375 C 32.96875 -17.863281 33.375 -20.835938 33.375 -24.515625 C 33.375 -28.222656 32.96875 -31.207031 32.15625 -33.46875 C 31.351562 -35.726562 30.296875 -36.859375 28.984375 -36.859375 C 27.671875 -36.859375 26.613281 -35.726562 25.8125 -33.46875 C 25.007812 -31.207031 24.609375 -28.222656 24.609375 -24.515625 Z M 24.609375 -24.515625 "/></g></g></g><g fill="#000000" fill-opacity="1"><g transform="translate(149.73327, 139.793336)"><g><path d="M 5.3125 -24.609375 C 5.3125 -26.773438 5.144531 -28.613281 4.8125 -30.125 C 4.488281 -31.632812 4.085938 -32.929688 3.609375 -34.015625 C 3.140625 -35.097656 2.664062 -36.0625 2.1875 -36.90625 C 1.707031 -37.757812 1.300781 -38.601562 0.96875 -39.4375 C 0.644531 -40.28125 0.484375 -41.226562 0.484375 -42.28125 C 0.484375 -43.425781 0.941406 -44.316406 1.859375 -44.953125 C 2.785156 -45.597656 3.953125 -46.125 5.359375 -46.53125 C 6.773438 -46.945312 8.222656 -47.347656 9.703125 -47.734375 C 10.285156 -47.898438 11.023438 -48.101562 11.921875 -48.34375 C 12.828125 -48.59375 13.75 -48.84375 14.6875 -49.09375 C 15.625 -49.34375 16.460938 -49.546875 17.203125 -49.703125 C 17.941406 -49.867188 18.472656 -49.953125 18.796875 -49.953125 C 19.617188 -49.953125 20.429688 -49.65625 21.234375 -49.0625 C 22.035156 -48.476562 22.695312 -47.453125 23.21875 -45.984375 C 23.75 -44.523438 24.015625 -42.484375 24.015625 -39.859375 C 24.015625 -38.128906 24.019531 -36.3125 24.03125 -34.40625 C 24.050781 -32.5 24.0625 -30.691406 24.0625 -28.984375 C 24.0625 -27.285156 24.0625 -25.828125 24.0625 -24.609375 C 24.0625 -22.503906 24.28125 -20.46875 24.71875 -18.5 C 25.164062 -16.53125 25.691406 -14.675781 26.296875 -12.9375 C 26.910156 -11.195312 27.4375 -9.601562 27.875 -8.15625 C 28.320312 -6.71875 28.546875 -5.457031 28.546875 -4.375 C 28.546875 -3.195312 28.296875 -2.300781 27.796875 -1.6875 C 27.304688 -1.082031 26.691406 -0.65625 25.953125 -0.40625 C 25.222656 -0.164062 24.488281 -0.0351562 23.75 -0.015625 C 23.007812 -0.00390625 22.378906 0 21.859375 0 L 7.578125 0 C 7.054688 0 6.425781 -0.00390625 5.6875 -0.015625 C 4.945312 -0.0351562 4.207031 -0.164062 3.46875 -0.40625 C 2.726562 -0.65625 2.113281 -1.082031 1.625 -1.6875 C 1.132812 -2.300781 0.890625 -3.195312 0.890625 -4.375 C 0.890625 -5.6875 1.109375 -7.054688 1.546875 -8.484375 C 1.992188 -9.910156 2.507812 -11.441406 3.09375 -13.078125 C 3.6875 -14.722656 4.203125 -16.488281 4.640625 -18.375 C 5.085938 -20.269531 5.3125 -22.347656 5.3125 -24.609375 Z M 14.5625 -52.90625 C 14.007812 -52.90625 13.210938 -53.117188 12.171875 -53.546875 C 11.140625 -53.972656 10.039062 -54.5625 8.875 -55.3125 C 7.71875 -56.070312 6.601562 -56.953125 5.53125 -57.953125 C 4.46875 -58.953125 3.597656 -60.050781 2.921875 -61.25 C 2.253906 -62.445312 1.921875 -63.703125 1.921875 -65.015625 C 1.921875 -66.328125 2.207031 -67.472656 2.78125 -68.453125 C 3.351562 -69.441406 4.097656 -70.210938 5.015625 -70.765625 C 5.929688 -71.328125 6.929688 -71.609375 8.015625 -71.609375 C 9.523438 -71.609375 10.8125 -71.179688 11.875 -70.328125 C 12.945312 -69.472656 13.84375 -68.601562 14.5625 -67.71875 C 15.320312 -68.601562 16.234375 -69.472656 17.296875 -70.328125 C 18.367188 -71.179688 19.65625 -71.609375 21.15625 -71.609375 C 22.238281 -71.609375 23.25 -71.328125 24.1875 -70.765625 C 25.125 -70.210938 25.867188 -69.441406 26.421875 -68.453125 C 26.984375 -67.472656 27.265625 -66.328125 27.265625 -65.015625 C 27.265625 -63.703125 26.925781 -62.445312 26.25 -61.25 C 25.582031 -60.050781 24.710938 -58.953125 23.640625 -57.953125 C 22.578125 -56.953125 21.453125 -56.070312 20.265625 -55.3125 C 19.085938 -54.5625 17.988281 -53.972656 16.96875 -53.546875 C 15.957031 -53.117188 15.15625 -52.90625 14.5625 -52.90625 Z M 14.5625 -52.90625 "/></g></g></g><g fill="#000000" fill-opacity="1"><g transform="translate(178.77077, 139.793336)"><g><path d="M 16.875 0.734375 C 13.820312 0.734375 11.054688 0.0859375 8.578125 -1.203125 C 6.109375 -2.503906 4.140625 -4.390625 2.671875 -6.859375 C 1.210938 -9.335938 0.484375 -12.332031 0.484375 -15.84375 C 0.484375 -18.175781 0.78125 -20.40625 1.375 -22.53125 C 1.96875 -24.664062 2.707031 -26.6875 3.59375 -28.59375 C 4.476562 -30.5 5.351562 -32.269531 6.21875 -33.90625 C 7.09375 -35.550781 7.820312 -37.050781 8.40625 -38.40625 C 9 -39.769531 9.296875 -40.992188 9.296875 -42.078125 C 9.296875 -42.929688 9.179688 -43.503906 8.953125 -43.796875 C 8.722656 -44.097656 8.378906 -44.25 7.921875 -44.25 C 7.492188 -44.25 6.96875 -44.164062 6.34375 -44 C 5.71875 -43.832031 5.046875 -43.75 4.328125 -43.75 C 2.953125 -43.75 1.976562 -44.035156 1.40625 -44.609375 C 0.832031 -45.191406 0.546875 -45.988281 0.546875 -47 C 0.546875 -48.25 1.332031 -49.742188 2.90625 -51.484375 C 4.476562 -53.222656 6.507812 -55.238281 9 -57.53125 C 10.476562 -58.914062 11.898438 -60.28125 13.265625 -61.625 C 14.628906 -62.96875 15.84375 -64.082031 16.90625 -64.96875 C 17.96875 -65.851562 18.78125 -66.296875 19.34375 -66.296875 C 20 -66.296875 20.484375 -66.070312 20.796875 -65.625 C 21.109375 -65.1875 21.320312 -64.640625 21.4375 -63.984375 C 21.550781 -63.328125 21.609375 -62.703125 21.609375 -62.109375 L 21.609375 -49.21875 L 23.625 -49.21875 C 24.414062 -49.21875 25.054688 -48.96875 25.546875 -48.46875 C 26.035156 -47.976562 26.28125 -47.34375 26.28125 -46.5625 L 26.28125 -46.40625 C 26.28125 -45.625 26.035156 -44.984375 25.546875 -44.484375 C 25.054688 -43.992188 24.414062 -43.75 23.625 -43.75 L 21.609375 -43.75 L 21.609375 -24.609375 C 21.609375 -21.585938 21.835938 -19.125 22.296875 -17.21875 C 22.753906 -15.320312 23.328125 -13.804688 24.015625 -12.671875 C 24.703125 -11.535156 25.390625 -10.625 26.078125 -9.9375 C 26.773438 -9.25 27.351562 -8.632812 27.8125 -8.09375 C 28.269531 -7.550781 28.5 -6.890625 28.5 -6.109375 C 28.5 -5.023438 28.144531 -4.054688 27.4375 -3.203125 C 26.726562 -2.347656 25.800781 -1.625 24.65625 -1.03125 C 23.507812 -0.4375 22.253906 0.00390625 20.890625 0.296875 C 19.523438 0.585938 18.1875 0.734375 16.875 0.734375 Z M 16.875 0.734375 "/></g></g></g><g fill="#000000" fill-opacity="1"><g transform="translate(207.759057, 139.793336)"><g><path d="M 1.234375 -24.609375 C 1.234375 -27.722656 1.765625 -30.789062 2.828125 -33.8125 C 3.890625 -36.832031 5.507812 -39.554688 7.6875 -41.984375 C 9.875 -44.410156 12.632812 -46.34375 15.96875 -47.78125 C 19.300781 -49.226562 23.25 -49.953125 27.8125 -49.953125 C 30.332031 -49.953125 32.757812 -49.628906 35.09375 -48.984375 C 37.425781 -48.347656 39.5 -47.382812 41.3125 -46.09375 C 43.132812 -44.800781 44.578125 -43.1875 45.640625 -41.25 C 46.710938 -39.3125 47.25 -37.046875 47.25 -34.453125 C 47.25 -31.597656 46.8125 -29.117188 45.9375 -27.015625 C 45.070312 -24.921875 43.910156 -23.148438 42.453125 -21.703125 C 40.992188 -20.265625 39.375 -19.078125 37.59375 -18.140625 C 35.820312 -17.203125 34.035156 -16.453125 32.234375 -15.890625 C 30.523438 -15.367188 29.023438 -15.125 27.734375 -15.15625 C 26.441406 -15.1875 25.414062 -15.203125 24.65625 -15.203125 C 24.226562 -15.203125 23.90625 -15.160156 23.6875 -15.078125 C 23.476562 -15.003906 23.375 -14.816406 23.375 -14.515625 C 23.375 -13.992188 23.660156 -13.566406 24.234375 -13.234375 C 24.804688 -12.910156 25.492188 -12.671875 26.296875 -12.515625 C 27.109375 -12.367188 27.84375 -12.296875 28.5 -12.296875 C 30.269531 -12.296875 31.757812 -12.519531 32.96875 -12.96875 C 34.1875 -13.414062 35.253906 -13.914062 36.171875 -14.46875 C 37.085938 -15.03125 37.972656 -15.53125 38.828125 -15.96875 C 39.679688 -16.414062 40.617188 -16.640625 41.640625 -16.640625 C 42.753906 -16.640625 43.710938 -16.367188 44.515625 -15.828125 C 45.316406 -15.285156 45.972656 -14.59375 46.484375 -13.75 C 46.992188 -12.914062 47.367188 -12.054688 47.609375 -11.171875 C 47.859375 -10.285156 47.984375 -9.484375 47.984375 -8.765625 C 47.984375 -7.285156 47.269531 -5.816406 45.84375 -4.359375 C 44.414062 -2.898438 42.21875 -1.6875 39.25 -0.71875 C 36.28125 0.25 32.46875 0.734375 27.8125 0.734375 C 23.476562 0.734375 19.660156 0.0195312 16.359375 -1.40625 C 13.066406 -2.832031 10.296875 -4.757812 8.046875 -7.1875 C 5.796875 -9.613281 4.097656 -12.335938 2.953125 -15.359375 C 1.804688 -18.378906 1.234375 -21.460938 1.234375 -24.609375 Z M 20.234375 -29.828125 C 19.410156 -27.722656 19.113281 -26.019531 19.34375 -24.71875 C 19.570312 -23.425781 20.296875 -22.78125 21.515625 -22.78125 C 22.753906 -22.78125 24.003906 -23.425781 25.265625 -24.71875 C 26.535156 -26.019531 27.582031 -27.722656 28.40625 -29.828125 C 29.25 -31.960938 29.546875 -33.675781 29.296875 -34.96875 C 29.054688 -36.257812 28.3125 -36.90625 27.0625 -36.90625 C 25.851562 -36.90625 24.625 -36.257812 23.375 -34.96875 C 22.132812 -33.675781 21.085938 -31.960938 20.234375 -29.828125 Z M 20.234375 -29.828125 "/></g></g></g><g clip-path="url(#691f680981)"><g clip-path="url(#e89aa311ee)"><path fill="#ffffff" d="M 228.082031 78.484375 L 247.375 78.484375 L 247.375 97.777344 L 228.082031 97.777344 Z M 228.082031 78.484375 " fill-opacity="1" fill-rule="nonzero"/></g></g><g clip-path="url(#b25ce3de35)"><g clip-path="url(#21e223b82e)"><g clip-path="url(#ce90c29425)"><path fill="#ffffff" d="M 240.699219 93.59375 L 252.066406 86.1875 L 259.472656 97.558594 L 248.105469 104.964844 Z M 240.699219 93.59375 " fill-opacity="1" fill-rule="nonzero"/></g></g></g><g clip-path="url(#144e0dd7c0)"><g clip-path="url(#f33c2d18dd)"><path fill="#ffffff" d="M 149.089844 61.128906 L 184.53125 61.128906 L 184.53125 88.128906 L 149.089844 88.128906 Z M 149.089844 61.128906 " fill-opacity="1" fill-rule="nonzero"/></g></g><g clip-path="url(#3b5533b9e2)"><path fill="#000000" d="M 167.269531 80.386719 C 167.300781 80.238281 167.332031 80.082031 167.351562 79.925781 C 167.289062 79.929688 167.234375 79.9375 167.171875 79.9375 C 165.859375 79.9375 164.789062 78.890625 164.789062 77.605469 C 164.789062 77.515625 164.792969 77.417969 164.808594 77.332031 C 163.304688 77.203125 162.125 75.96875 162.125 74.460938 C 162.125 74.019531 162.226562 73.601562 162.410156 73.230469 C 161.582031 72.871094 161 72.050781 161 71.109375 C 161 70.734375 161.085938 70.382812 161.25 70.070312 C 160.933594 69.96875 160.609375 69.878906 160.28125 69.804688 C 160.285156 69.789062 160.285156 69.773438 160.285156 69.757812 C 160.292969 69.605469 160.1875 69.472656 160.035156 69.441406 C 159.476562 69.328125 158.902344 69.273438 158.273438 69.273438 C 156.714844 69.273438 155.167969 69.652344 153.800781 70.367188 C 153.660156 70.441406 153.597656 70.601562 153.648438 70.746094 C 153.65625 70.761719 153.664062 70.777344 153.667969 70.792969 C 150.929688 72.339844 149.089844 75.238281 149.089844 78.554688 C 149.089844 83.511719 153.199219 87.53125 158.273438 87.53125 C 162.710938 87.53125 166.402344 84.464844 167.269531 80.386719 Z M 167.269531 80.386719 " fill-opacity="1" fill-rule="nonzero"/></g><g clip-path="url(#459562ffff)"><path fill="#000000" d="M 259.472656 134.40625 C 259.472656 134.40625 260.4375 139.101562 267.496094 135.527344 C 267.496094 135.527344 270.5625 133.273438 266.433594 130.285156 C 266.433594 130.285156 260.941406 122.460938 259.472656 134.40625 Z M 259.472656 134.40625 " fill-opacity="1" fill-rule="nonzero"/></g><path fill="#000000" d="M 272.769531 132.171875 C 272.769531 132.171875 273.238281 134.472656 276.699219 132.722656 C 276.699219 132.722656 278.203125 131.613281 276.183594 130.148438 C 276.183594 130.148438 273.492188 126.316406 272.769531 132.171875 Z M 272.769531 132.171875 " fill-opacity="1" fill-rule="nonzero"/><g clip-path="url(#faedd90615)"><path fill="#000000" d="M 270.898438 140.113281 C 270.898438 140.113281 263 142.679688 266.796875 145.464844 C 270.589844 148.242188 272.496094 149.222656 272.496094 149.222656 C 272.496094 149.222656 278.820312 140.425781 274.855469 140.269531 C 270.898438 140.113281 270.898438 140.113281 270.898438 140.113281 Z M 270.898438 140.113281 " fill-opacity="1" fill-rule="nonzero"/></g><g fill="#ff914d" fill-opacity="1"><g transform="translate(100.123332, 158.744499)"><g><path d="M 1.078125 -0.484375 L 1.078125 -7.78125 C 1.078125 -8.695312 1.316406 -9.375 1.796875 -9.8125 C 2.273438 -10.25 2.878906 -10.484375 3.609375 -10.515625 C 3.671875 -10.515625 3.769531 -10.507812 3.90625 -10.5 C 4.050781 -10.5 4.203125 -10.476562 4.359375 -10.4375 C 4.515625 -10.394531 4.648438 -10.328125 4.765625 -10.234375 C 4.878906 -10.148438 4.9375 -10.023438 4.9375 -9.859375 C 4.9375 -9.691406 4.878906 -9.5625 4.765625 -9.46875 C 4.648438 -9.375 4.519531 -9.328125 4.375 -9.328125 C 4.25 -9.328125 4.117188 -9.34375 3.984375 -9.375 C 3.859375 -9.40625 3.695312 -9.421875 3.5 -9.421875 C 3.070312 -9.421875 2.75 -9.269531 2.53125 -8.96875 C 2.3125 -8.675781 2.203125 -8.320312 2.203125 -7.90625 L 2.203125 -7 L 3.71875 -7 C 3.851562 -7 3.972656 -6.945312 4.078125 -6.84375 C 4.179688 -6.75 4.234375 -6.625 4.234375 -6.46875 C 4.234375 -6.3125 4.179688 -6.179688 4.078125 -6.078125 C 3.972656 -5.984375 3.851562 -5.9375 3.71875 -5.9375 L 2.203125 -5.9375 L 2.203125 -0.484375 C 2.203125 -0.328125 2.148438 -0.191406 2.046875 -0.078125 C 1.953125 0.0234375 1.816406 0.078125 1.640625 0.078125 C 1.453125 0.078125 1.3125 0.0234375 1.21875 -0.078125 C 1.125 -0.191406 1.078125 -0.328125 1.078125 -0.484375 Z M 1.078125 -0.484375 "/></g></g></g><g fill="#ff914d" fill-opacity="1"><g transform="translate(109.242781, 158.744499)"><g><path d="M 3.359375 0.109375 C 2.773438 0.109375 2.28125 0 1.875 -0.21875 C 1.476562 -0.445312 1.175781 -0.753906 0.96875 -1.140625 C 0.757812 -1.535156 0.65625 -1.976562 0.65625 -2.46875 L 0.65625 -4.890625 C 0.65625 -5.367188 0.757812 -5.800781 0.96875 -6.1875 C 1.175781 -6.582031 1.476562 -6.894531 1.875 -7.125 C 2.28125 -7.351562 2.773438 -7.46875 3.359375 -7.46875 C 3.953125 -7.46875 4.445312 -7.351562 4.84375 -7.125 C 5.25 -6.894531 5.554688 -6.582031 5.765625 -6.1875 C 5.972656 -5.800781 6.078125 -5.367188 6.078125 -4.890625 L 6.078125 -2.46875 C 6.078125 -1.976562 5.972656 -1.535156 5.765625 -1.140625 C 5.554688 -0.753906 5.25 -0.445312 4.84375 -0.21875 C 4.445312 0 3.953125 0.109375 3.359375 0.109375 Z M 3.359375 -0.921875 C 3.878906 -0.921875 4.269531 -1.054688 4.53125 -1.328125 C 4.800781 -1.609375 4.9375 -1.988281 4.9375 -2.46875 L 4.9375 -4.90625 C 4.9375 -5.375 4.800781 -5.742188 4.53125 -6.015625 C 4.269531 -6.285156 3.878906 -6.421875 3.359375 -6.421875 C 2.835938 -6.421875 2.441406 -6.285156 2.171875 -6.015625 C 1.910156 -5.742188 1.78125 -5.375 1.78125 -4.90625 L 1.78125 -2.46875 C 1.78125 -1.988281 1.910156 -1.609375 2.171875 -1.328125 C 2.441406 -1.054688 2.835938 -0.921875 3.359375 -0.921875 Z M 3.359375 -0.921875 "/></g></g></g><g fill="#ff914d" fill-opacity="1"><g transform="translate(120.318739, 158.744499)"><g><path d="M 3.359375 0.109375 C 2.773438 0.109375 2.28125 0 1.875 -0.21875 C 1.476562 -0.445312 1.175781 -0.753906 0.96875 -1.140625 C 0.757812 -1.535156 0.65625 -1.976562 0.65625 -2.46875 L 0.65625 -4.890625 C 0.65625 -5.367188 0.757812 -5.800781 0.96875 -6.1875 C 1.175781 -6.582031 1.476562 -6.894531 1.875 -7.125 C 2.28125 -7.351562 2.773438 -7.46875 3.359375 -7.46875 C 3.953125 -7.46875 4.445312 -7.351562 4.84375 -7.125 C 5.25 -6.894531 5.554688 -6.582031 5.765625 -6.1875 C 5.972656 -5.800781 6.078125 -5.367188 6.078125 -4.890625 L 6.078125 -2.46875 C 6.078125 -1.976562 5.972656 -1.535156 5.765625 -1.140625 C 5.554688 -0.753906 5.25 -0.445312 4.84375 -0.21875 C 4.445312 0 3.953125 0.109375 3.359375 0.109375 Z M 3.359375 -0.921875 C 3.878906 -0.921875 4.269531 -1.054688 4.53125 -1.328125 C 4.800781 -1.609375 4.9375 -1.988281 4.9375 -2.46875 L 4.9375 -4.90625 C 4.9375 -5.375 4.800781 -5.742188 4.53125 -6.015625 C 4.269531 -6.285156 3.878906 -6.421875 3.359375 -6.421875 C 2.835938 -6.421875 2.441406 -6.285156 2.171875 -6.015625 C 1.910156 -5.742188 1.78125 -5.375 1.78125 -4.90625 L 1.78125 -2.46875 C 1.78125 -1.988281 1.910156 -1.609375 2.171875 -1.328125 C 2.441406 -1.054688 2.835938 -0.921875 3.359375 -0.921875 Z M 3.359375 -0.921875 "/></g></g></g><g fill="#ff914d" fill-opacity="1"><g transform="translate(131.394698, 158.744499)"><g><path d="M 3.078125 -7.390625 C 3.597656 -7.390625 4.132812 -7.300781 4.6875 -7.125 L 4.6875 -9.96875 C 4.6875 -10.113281 4.734375 -10.238281 4.828125 -10.34375 C 4.921875 -10.457031 5.0625 -10.515625 5.25 -10.515625 C 5.4375 -10.515625 5.578125 -10.457031 5.671875 -10.34375 C 5.765625 -10.238281 5.8125 -10.113281 5.8125 -9.96875 L 5.8125 -1.65625 C 5.8125 -1.445312 5.835938 -1.273438 5.890625 -1.140625 C 5.941406 -1.003906 6.039062 -0.882812 6.1875 -0.78125 C 6.21875 -0.738281 6.242188 -0.695312 6.265625 -0.65625 C 6.285156 -0.613281 6.296875 -0.5625 6.296875 -0.5 C 6.296875 -0.34375 6.238281 -0.21875 6.125 -0.125 C 6.019531 -0.03125 5.90625 0.015625 5.78125 0.015625 C 5.613281 0.015625 5.460938 -0.0234375 5.328125 -0.109375 C 5.203125 -0.203125 5.097656 -0.316406 5.015625 -0.453125 C 4.691406 -0.296875 4.359375 -0.160156 4.015625 -0.046875 C 3.679688 0.0546875 3.328125 0.109375 2.953125 0.109375 C 2.191406 0.109375 1.617188 -0.140625 1.234375 -0.640625 C 0.847656 -1.148438 0.65625 -1.8125 0.65625 -2.625 L 0.65625 -4.46875 C 0.65625 -5.050781 0.726562 -5.5625 0.875 -6 C 1.03125 -6.4375 1.28125 -6.773438 1.625 -7.015625 C 1.976562 -7.265625 2.460938 -7.390625 3.078125 -7.390625 Z M 4.6875 -1.65625 L 4.6875 -6.109375 C 4.445312 -6.210938 4.1875 -6.285156 3.90625 -6.328125 C 3.625 -6.378906 3.394531 -6.40625 3.21875 -6.40625 C 2.6875 -6.40625 2.3125 -6.25 2.09375 -5.9375 C 1.882812 -5.632812 1.78125 -5.144531 1.78125 -4.46875 L 1.78125 -2.625 C 1.78125 -1.476562 2.25 -0.90625 3.1875 -0.90625 C 3.414062 -0.90625 3.664062 -0.941406 3.9375 -1.015625 C 4.207031 -1.085938 4.46875 -1.1875 4.71875 -1.3125 C 4.707031 -1.375 4.695312 -1.429688 4.6875 -1.484375 C 4.6875 -1.546875 4.6875 -1.601562 4.6875 -1.65625 Z M 4.6875 -1.65625 "/></g></g></g><g fill="#ff914d" fill-opacity="1"><g transform="translate(142.818481, 158.744499)"><g/></g></g><g fill="#ff914d" fill-opacity="1"><g transform="translate(151.517643, 158.744499)"><g><path d="M 8.625 -0.4375 C 8.625 -0.28125 8.570312 -0.144531 8.46875 -0.03125 C 8.375 0.0820312 8.242188 0.140625 8.078125 0.140625 C 7.960938 0.140625 7.867188 0.113281 7.796875 0.0625 C 7.722656 0.0078125 7.644531 -0.0625 7.5625 -0.15625 L 6.640625 -1.265625 C 6.285156 -0.890625 5.867188 -0.5625 5.390625 -0.28125 C 4.910156 0 4.34375 0.140625 3.6875 0.140625 C 3.09375 0.140625 2.566406 0.0195312 2.109375 -0.21875 C 1.660156 -0.457031 1.3125 -0.785156 1.0625 -1.203125 C 0.8125 -1.617188 0.6875 -2.085938 0.6875 -2.609375 C 0.6875 -3.128906 0.789062 -3.578125 1 -3.953125 C 1.21875 -4.335938 1.492188 -4.671875 1.828125 -4.953125 C 2.160156 -5.234375 2.503906 -5.484375 2.859375 -5.703125 C 2.492188 -6.085938 2.203125 -6.472656 1.984375 -6.859375 C 1.773438 -7.253906 1.671875 -7.660156 1.671875 -8.078125 C 1.671875 -8.546875 1.785156 -8.945312 2.015625 -9.28125 C 2.242188 -9.613281 2.546875 -9.875 2.921875 -10.0625 C 3.304688 -10.25 3.707031 -10.34375 4.125 -10.34375 C 4.5625 -10.34375 4.957031 -10.25 5.3125 -10.0625 C 5.675781 -9.875 5.960938 -9.640625 6.171875 -9.359375 C 6.378906 -9.078125 6.484375 -8.773438 6.484375 -8.453125 C 6.484375 -8.296875 6.425781 -8.164062 6.3125 -8.0625 C 6.195312 -7.957031 6.070312 -7.90625 5.9375 -7.90625 C 5.800781 -7.90625 5.6875 -7.945312 5.59375 -8.03125 C 5.507812 -8.113281 5.445312 -8.21875 5.40625 -8.34375 C 5.34375 -8.582031 5.203125 -8.800781 4.984375 -9 C 4.773438 -9.207031 4.503906 -9.3125 4.171875 -9.3125 C 3.816406 -9.3125 3.5 -9.195312 3.21875 -8.96875 C 2.9375 -8.75 2.796875 -8.441406 2.796875 -8.046875 C 2.796875 -7.722656 2.921875 -7.394531 3.171875 -7.0625 C 3.429688 -6.738281 3.6875 -6.425781 3.9375 -6.125 L 6.625 -3.03125 C 6.800781 -3.300781 6.957031 -3.582031 7.09375 -3.875 C 7.238281 -4.164062 7.375 -4.445312 7.5 -4.71875 C 7.570312 -4.882812 7.644531 -4.984375 7.71875 -5.015625 C 7.789062 -5.054688 7.882812 -5.078125 8 -5.078125 C 8.132812 -5.078125 8.257812 -5.019531 8.375 -4.90625 C 8.488281 -4.800781 8.546875 -4.675781 8.546875 -4.53125 C 8.546875 -4.332031 8.476562 -4.085938 8.34375 -3.796875 C 8.21875 -3.515625 8.066406 -3.226562 7.890625 -2.9375 C 7.710938 -2.644531 7.535156 -2.375 7.359375 -2.125 L 8.5 -0.78125 C 8.582031 -0.6875 8.625 -0.570312 8.625 -0.4375 Z M 5.9375 -2.109375 L 3.53125 -4.875 C 3.25 -4.71875 2.972656 -4.539062 2.703125 -4.34375 C 2.441406 -4.144531 2.222656 -3.910156 2.046875 -3.640625 C 1.878906 -3.378906 1.796875 -3.070312 1.796875 -2.71875 C 1.796875 -2.40625 1.867188 -2.109375 2.015625 -1.828125 C 2.171875 -1.546875 2.382812 -1.320312 2.65625 -1.15625 C 2.925781 -0.988281 3.238281 -0.90625 3.59375 -0.90625 C 4.09375 -0.90625 4.53125 -1.019531 4.90625 -1.25 C 5.28125 -1.476562 5.625 -1.765625 5.9375 -2.109375 Z M 5.9375 -2.109375 "/></g></g></g><g fill="#ff914d" fill-opacity="1"><g transform="translate(165.173303, 158.744499)"><g/></g></g><g fill="#ff914d" fill-opacity="1"><g transform="translate(173.872468, 158.744499)"><g><path d="M 2.203125 -5.734375 L 2.203125 -2.171875 C 2.203125 -1.785156 2.335938 -1.476562 2.609375 -1.25 C 2.878906 -1.03125 3.25 -0.921875 3.71875 -0.921875 C 4.25 -0.921875 4.632812 -1.054688 4.875 -1.328125 C 5.125 -1.609375 5.25 -1.988281 5.25 -2.46875 L 5.25 -5.1875 C 5.25 -5.582031 5.132812 -5.894531 4.90625 -6.125 C 4.6875 -6.351562 4.335938 -6.46875 3.859375 -6.46875 C 3.503906 -6.46875 3.191406 -6.398438 2.921875 -6.265625 C 2.648438 -6.140625 2.410156 -5.960938 2.203125 -5.734375 Z M 1.078125 -2.171875 L 1.078125 -9.96875 C 1.078125 -10.101562 1.125 -10.226562 1.21875 -10.34375 C 1.3125 -10.457031 1.453125 -10.515625 1.640625 -10.515625 C 1.816406 -10.515625 1.953125 -10.457031 2.046875 -10.34375 C 2.148438 -10.226562 2.203125 -10.101562 2.203125 -9.96875 L 2.203125 -6.859375 C 2.472656 -7.054688 2.765625 -7.203125 3.078125 -7.296875 C 3.390625 -7.398438 3.738281 -7.453125 4.125 -7.453125 C 4.675781 -7.453125 5.113281 -7.351562 5.4375 -7.15625 C 5.769531 -6.957031 6.007812 -6.6875 6.15625 -6.34375 C 6.300781 -6 6.375 -5.613281 6.375 -5.1875 L 6.375 -2.46875 C 6.375 -1.976562 6.273438 -1.535156 6.078125 -1.140625 C 5.878906 -0.753906 5.582031 -0.445312 5.1875 -0.21875 C 4.800781 0 4.3125 0.109375 3.71875 0.109375 C 3.164062 0.109375 2.691406 0.0078125 2.296875 -0.1875 C 1.898438 -0.394531 1.597656 -0.671875 1.390625 -1.015625 C 1.179688 -1.359375 1.078125 -1.742188 1.078125 -2.171875 Z M 1.078125 -2.171875 "/></g></g></g><g fill="#ff914d" fill-opacity="1"><g transform="translate(185.25278, 158.744499)"><g><path d="M 3.359375 -0.890625 C 3.671875 -0.890625 3.9375 -0.925781 4.15625 -1 C 4.382812 -1.070312 4.625 -1.171875 4.875 -1.296875 C 4.894531 -1.304688 4.921875 -1.3125 4.953125 -1.3125 C 4.984375 -1.320312 5.023438 -1.328125 5.078125 -1.328125 C 5.222656 -1.328125 5.34375 -1.273438 5.4375 -1.171875 C 5.53125 -1.078125 5.578125 -0.960938 5.578125 -0.828125 C 5.578125 -0.648438 5.492188 -0.5 5.328125 -0.375 C 5.160156 -0.257812 4.953125 -0.164062 4.703125 -0.09375 C 4.453125 -0.0195312 4.191406 0.03125 3.921875 0.0625 C 3.660156 0.09375 3.429688 0.109375 3.234375 0.109375 C 2.410156 0.109375 1.773438 -0.117188 1.328125 -0.578125 C 0.878906 -1.046875 0.65625 -1.617188 0.65625 -2.296875 L 0.65625 -5 C 0.65625 -5.695312 0.878906 -6.28125 1.328125 -6.75 C 1.785156 -7.21875 2.445312 -7.453125 3.3125 -7.453125 C 4.113281 -7.453125 4.710938 -7.234375 5.109375 -6.796875 C 5.515625 -6.367188 5.71875 -5.800781 5.71875 -5.09375 C 5.71875 -4.425781 5.519531 -3.898438 5.125 -3.515625 C 4.738281 -3.128906 4.117188 -2.9375 3.265625 -2.9375 C 3.046875 -2.9375 2.804688 -2.945312 2.546875 -2.96875 C 2.285156 -3 2.03125 -3.035156 1.78125 -3.078125 L 1.78125 -2.21875 C 1.78125 -1.8125 1.910156 -1.488281 2.171875 -1.25 C 2.441406 -1.007812 2.835938 -0.890625 3.359375 -0.890625 Z M 4.59375 -5.09375 C 4.59375 -5.5625 4.476562 -5.898438 4.25 -6.109375 C 4.03125 -6.316406 3.707031 -6.421875 3.28125 -6.421875 C 2.800781 -6.421875 2.429688 -6.300781 2.171875 -6.0625 C 1.910156 -5.832031 1.78125 -5.515625 1.78125 -5.109375 L 1.78125 -4 C 2.050781 -3.957031 2.335938 -3.929688 2.640625 -3.921875 C 2.941406 -3.910156 3.164062 -3.90625 3.3125 -3.90625 C 3.675781 -3.90625 3.945312 -3.960938 4.125 -4.078125 C 4.3125 -4.191406 4.4375 -4.335938 4.5 -4.515625 C 4.5625 -4.703125 4.59375 -4.894531 4.59375 -5.09375 Z M 4.59375 -5.09375 "/></g></g></g><g fill="#ff914d" fill-opacity="1"><g transform="translate(195.908455, 158.744499)"><g><path d="M 5.859375 -6.703125 L 3.890625 -0.5625 C 3.804688 -0.320312 3.707031 -0.148438 3.59375 -0.046875 C 3.488281 0.0546875 3.335938 0.109375 3.140625 0.109375 C 2.953125 0.109375 2.800781 0.0546875 2.6875 -0.046875 C 2.570312 -0.148438 2.476562 -0.316406 2.40625 -0.546875 L 0.390625 -6.75 C 0.328125 -6.914062 0.363281 -7.066406 0.5 -7.203125 C 0.632812 -7.335938 0.78125 -7.40625 0.9375 -7.40625 C 1.1875 -7.40625 1.359375 -7.28125 1.453125 -7.03125 L 3.140625 -1.5625 L 4.8125 -7.03125 C 4.851562 -7.132812 4.921875 -7.222656 5.015625 -7.296875 C 5.109375 -7.367188 5.210938 -7.40625 5.328125 -7.40625 C 5.492188 -7.40625 5.632812 -7.332031 5.75 -7.1875 C 5.875 -7.050781 5.910156 -6.890625 5.859375 -6.703125 Z M 5.859375 -6.703125 "/></g></g></g><g fill="#ff914d" fill-opacity="1"><g transform="translate(206.491668, 158.744499)"><g><path d="M 3.359375 -0.890625 C 3.671875 -0.890625 3.9375 -0.925781 4.15625 -1 C 4.382812 -1.070312 4.625 -1.171875 4.875 -1.296875 C 4.894531 -1.304688 4.921875 -1.3125 4.953125 -1.3125 C 4.984375 -1.320312 5.023438 -1.328125 5.078125 -1.328125 C 5.222656 -1.328125 5.34375 -1.273438 5.4375 -1.171875 C 5.53125 -1.078125 5.578125 -0.960938 5.578125 -0.828125 C 5.578125 -0.648438 5.492188 -0.5 5.328125 -0.375 C 5.160156 -0.257812 4.953125 -0.164062 4.703125 -0.09375 C 4.453125 -0.0195312 4.191406 0.03125 3.921875 0.0625 C 3.660156 0.09375 3.429688 0.109375 3.234375 0.109375 C 2.410156 0.109375 1.773438 -0.117188 1.328125 -0.578125 C 0.878906 -1.046875 0.65625 -1.617188 0.65625 -2.296875 L 0.65625 -5 C 0.65625 -5.695312 0.878906 -6.28125 1.328125 -6.75 C 1.785156 -7.21875 2.445312 -7.453125 3.3125 -7.453125 C 4.113281 -7.453125 4.710938 -7.234375 5.109375 -6.796875 C 5.515625 -6.367188 5.71875 -5.800781 5.71875 -5.09375 C 5.71875 -4.425781 5.519531 -3.898438 5.125 -3.515625 C 4.738281 -3.128906 4.117188 -2.9375 3.265625 -2.9375 C 3.046875 -2.9375 2.804688 -2.945312 2.546875 -2.96875 C 2.285156 -3 2.03125 -3.035156 1.78125 -3.078125 L 1.78125 -2.21875 C 1.78125 -1.8125 1.910156 -1.488281 2.171875 -1.25 C 2.441406 -1.007812 2.835938 -0.890625 3.359375 -0.890625 Z M 4.59375 -5.09375 C 4.59375 -5.5625 4.476562 -5.898438 4.25 -6.109375 C 4.03125 -6.316406 3.707031 -6.421875 3.28125 -6.421875 C 2.800781 -6.421875 2.429688 -6.300781 2.171875 -6.0625 C 1.910156 -5.832031 1.78125 -5.515625 1.78125 -5.109375 L 1.78125 -4 C 2.050781 -3.957031 2.335938 -3.929688 2.640625 -3.921875 C 2.941406 -3.910156 3.164062 -3.90625 3.3125 -3.90625 C 3.675781 -3.90625 3.945312 -3.960938 4.125 -4.078125 C 4.3125 -4.191406 4.4375 -4.335938 4.5 -4.515625 C 4.5625 -4.703125 4.59375 -4.894531 4.59375 -5.09375 Z M 4.59375 -5.09375 "/></g></g></g><g fill="#ff914d" fill-opacity="1"><g transform="translate(217.147343, 158.744499)"><g><path d="M 2.25 -5.34375 L 2.25 -0.453125 C 2.25 -0.296875 2.191406 -0.160156 2.078125 -0.046875 C 1.972656 0.0546875 1.84375 0.109375 1.6875 0.109375 C 1.53125 0.109375 1.394531 0.0546875 1.28125 -0.046875 C 1.164062 -0.160156 1.109375 -0.296875 1.109375 -0.453125 L 1.109375 -5.34375 C 1.109375 -5.789062 1.035156 -6.128906 0.890625 -6.359375 C 0.859375 -6.410156 0.832031 -6.453125 0.8125 -6.484375 C 0.789062 -6.523438 0.78125 -6.582031 0.78125 -6.65625 C 0.78125 -6.8125 0.832031 -6.929688 0.9375 -7.015625 C 1.050781 -7.109375 1.175781 -7.15625 1.3125 -7.15625 C 1.425781 -7.15625 1.53125 -7.117188 1.625 -7.046875 C 1.726562 -6.984375 1.816406 -6.890625 1.890625 -6.765625 C 2.191406 -6.960938 2.53125 -7.113281 2.90625 -7.21875 C 3.28125 -7.332031 3.601562 -7.390625 3.875 -7.390625 C 4.164062 -7.390625 4.363281 -7.335938 4.46875 -7.234375 C 4.570312 -7.128906 4.625 -7 4.625 -6.84375 C 4.625 -6.65625 4.566406 -6.507812 4.453125 -6.40625 C 4.347656 -6.300781 4.21875 -6.253906 4.0625 -6.265625 C 3.757812 -6.273438 3.46875 -6.253906 3.1875 -6.203125 C 2.90625 -6.160156 2.582031 -6.003906 2.21875 -5.734375 C 2.226562 -5.671875 2.234375 -5.601562 2.234375 -5.53125 C 2.242188 -5.46875 2.25 -5.40625 2.25 -5.34375 Z M 2.25 -5.34375 "/></g></g></g><g fill="#ff914d" fill-opacity="1"><g transform="translate(226.382739, 158.744499)"><g><path d="M 4.671875 -4.078125 L 4.671875 -4.90625 C 4.671875 -5.9375 4.15625 -6.453125 3.125 -6.453125 C 2.863281 -6.453125 2.65625 -6.421875 2.5 -6.359375 C 2.34375 -6.304688 2.179688 -6.234375 2.015625 -6.140625 C 1.992188 -6.140625 1.941406 -6.117188 1.859375 -6.078125 C 1.785156 -6.046875 1.710938 -6.03125 1.640625 -6.03125 C 1.503906 -6.03125 1.40625 -6.082031 1.34375 -6.1875 C 1.28125 -6.289062 1.242188 -6.398438 1.234375 -6.515625 C 1.210938 -6.734375 1.300781 -6.910156 1.5 -7.046875 C 1.707031 -7.191406 1.96875 -7.296875 2.28125 -7.359375 C 2.601562 -7.421875 2.929688 -7.453125 3.265625 -7.453125 C 4.171875 -7.453125 4.816406 -7.203125 5.203125 -6.703125 C 5.597656 -6.203125 5.796875 -5.476562 5.796875 -4.53125 L 5.796875 -1.328125 C 5.796875 -1.046875 5.882812 -0.90625 6.0625 -0.90625 C 6.082031 -0.90625 6.097656 -0.90625 6.109375 -0.90625 C 6.128906 -0.90625 6.148438 -0.90625 6.171875 -0.90625 C 6.304688 -0.90625 6.410156 -0.851562 6.484375 -0.75 C 6.554688 -0.65625 6.59375 -0.546875 6.59375 -0.421875 C 6.59375 -0.234375 6.523438 -0.101562 6.390625 -0.03125 C 6.253906 0.0390625 6.101562 0.078125 5.9375 0.078125 C 5.695312 0.078125 5.484375 0.015625 5.296875 -0.109375 C 5.109375 -0.242188 4.960938 -0.425781 4.859375 -0.65625 C 4.296875 -0.144531 3.632812 0.109375 2.875 0.109375 C 2.125 0.109375 1.566406 -0.09375 1.203125 -0.5 C 0.835938 -0.90625 0.65625 -1.429688 0.65625 -2.078125 L 0.65625 -2.125 C 0.65625 -3.5625 1.503906 -4.28125 3.203125 -4.28125 C 3.710938 -4.28125 4.203125 -4.210938 4.671875 -4.078125 Z M 3.1875 -3.328125 C 2.789062 -3.328125 2.488281 -3.269531 2.28125 -3.15625 C 2.082031 -3.039062 1.945312 -2.894531 1.875 -2.71875 C 1.800781 -2.539062 1.765625 -2.335938 1.765625 -2.109375 L 1.765625 -2.0625 C 1.765625 -1.71875 1.851562 -1.4375 2.03125 -1.21875 C 2.21875 -1.007812 2.554688 -0.90625 3.046875 -0.90625 C 3.628906 -0.90625 4.171875 -1.113281 4.671875 -1.53125 L 4.671875 -3.109375 C 4.429688 -3.179688 4.179688 -3.234375 3.921875 -3.265625 C 3.660156 -3.304688 3.414062 -3.328125 3.1875 -3.328125 Z M 3.1875 -3.328125 "/></g></g></g><g fill="#ff914d" fill-opacity="1"><g transform="translate(237.719566, 158.744499)"><g><path d="M 3.34375 -7.453125 C 4.039062 -7.453125 4.675781 -7.285156 5.25 -6.953125 C 5.414062 -7.253906 5.609375 -7.46875 5.828125 -7.59375 C 6.054688 -7.726562 6.25 -7.796875 6.40625 -7.796875 C 6.5625 -7.796875 6.691406 -7.75 6.796875 -7.65625 C 6.898438 -7.5625 6.953125 -7.441406 6.953125 -7.296875 C 6.953125 -7.222656 6.9375 -7.160156 6.90625 -7.109375 C 6.882812 -7.054688 6.863281 -7.019531 6.84375 -7 C 6.65625 -6.832031 6.503906 -6.6875 6.390625 -6.5625 C 6.273438 -6.4375 6.191406 -6.300781 6.140625 -6.15625 C 6.085938 -6.019531 6.0625 -5.832031 6.0625 -5.59375 L 6.0625 -4.703125 C 6.0625 -4.203125 5.960938 -3.753906 5.765625 -3.359375 C 5.578125 -2.972656 5.285156 -2.664062 4.890625 -2.4375 C 4.503906 -2.207031 4.019531 -2.09375 3.4375 -2.09375 C 2.988281 -2.09375 2.609375 -2.15625 2.296875 -2.28125 C 2.222656 -2.15625 2.171875 -2.03125 2.140625 -1.90625 C 2.117188 -1.789062 2.109375 -1.691406 2.109375 -1.609375 C 2.109375 -1.359375 2.203125 -1.1875 2.390625 -1.09375 C 2.578125 -1.007812 2.75 -0.96875 2.90625 -0.96875 L 3.515625 -0.96875 C 4.054688 -0.96875 4.546875 -0.890625 4.984375 -0.734375 C 5.421875 -0.578125 5.765625 -0.34375 6.015625 -0.03125 C 6.273438 0.28125 6.40625 0.675781 6.40625 1.15625 C 6.40625 1.644531 6.273438 2.066406 6.015625 2.421875 C 5.765625 2.773438 5.414062 3.046875 4.96875 3.234375 C 4.519531 3.429688 4.007812 3.53125 3.4375 3.53125 C 2.613281 3.53125 1.941406 3.332031 1.421875 2.9375 C 0.910156 2.539062 0.65625 1.992188 0.65625 1.296875 C 0.65625 0.929688 0.722656 0.609375 0.859375 0.328125 C 0.992188 0.046875 1.179688 -0.210938 1.421875 -0.453125 C 1.253906 -0.617188 1.140625 -0.800781 1.078125 -1 C 1.015625 -1.207031 0.984375 -1.394531 0.984375 -1.5625 C 0.984375 -1.738281 1.019531 -1.929688 1.09375 -2.140625 C 1.175781 -2.359375 1.320312 -2.5625 1.53125 -2.75 C 1.007812 -3.25 0.75 -3.929688 0.75 -4.796875 C 0.75 -5.296875 0.84375 -5.742188 1.03125 -6.140625 C 1.226562 -6.546875 1.519531 -6.863281 1.90625 -7.09375 C 2.289062 -7.332031 2.769531 -7.453125 3.34375 -7.453125 Z M 4.9375 -5.578125 C 4.9375 -5.660156 4.9375 -5.734375 4.9375 -5.796875 C 4.9375 -5.867188 4.941406 -5.9375 4.953125 -6 C 4.734375 -6.132812 4.503906 -6.238281 4.265625 -6.3125 C 4.023438 -6.394531 3.769531 -6.4375 3.5 -6.4375 C 2.96875 -6.4375 2.566406 -6.289062 2.296875 -6 C 2.023438 -5.71875 1.890625 -5.304688 1.890625 -4.765625 C 1.890625 -4.273438 2.007812 -3.878906 2.25 -3.578125 C 2.5 -3.273438 2.894531 -3.125 3.4375 -3.125 C 3.945312 -3.125 4.320312 -3.257812 4.5625 -3.53125 C 4.8125 -3.8125 4.9375 -4.191406 4.9375 -4.671875 Z M 2.921875 0.078125 C 2.796875 0.078125 2.679688 0.0664062 2.578125 0.046875 C 2.472656 0.0351562 2.375 0.0195312 2.28125 0 C 1.945312 0.289062 1.78125 0.664062 1.78125 1.125 C 1.78125 2.03125 2.34375 2.484375 3.46875 2.484375 C 3.988281 2.484375 4.421875 2.375 4.765625 2.15625 C 5.109375 1.945312 5.28125 1.625 5.28125 1.1875 C 5.28125 0.445312 4.695312 0.078125 3.53125 0.078125 Z M 2.921875 0.078125 "/></g></g></g><g fill="#ff914d" fill-opacity="1"><g transform="translate(249.215812, 158.744499)"><g><path d="M 3.359375 -0.890625 C 3.671875 -0.890625 3.9375 -0.925781 4.15625 -1 C 4.382812 -1.070312 4.625 -1.171875 4.875 -1.296875 C 4.894531 -1.304688 4.921875 -1.3125 4.953125 -1.3125 C 4.984375 -1.320312 5.023438 -1.328125 5.078125 -1.328125 C 5.222656 -1.328125 5.34375 -1.273438 5.4375 -1.171875 C 5.53125 -1.078125 5.578125 -0.960938 5.578125 -0.828125 C 5.578125 -0.648438 5.492188 -0.5 5.328125 -0.375 C 5.160156 -0.257812 4.953125 -0.164062 4.703125 -0.09375 C 4.453125 -0.0195312 4.191406 0.03125 3.921875 0.0625 C 3.660156 0.09375 3.429688 0.109375 3.234375 0.109375 C 2.410156 0.109375 1.773438 -0.117188 1.328125 -0.578125 C 0.878906 -1.046875 0.65625 -1.617188 0.65625 -2.296875 L 0.65625 -5 C 0.65625 -5.695312 0.878906 -6.28125 1.328125 -6.75 C 1.785156 -7.21875 2.445312 -7.453125 3.3125 -7.453125 C 4.113281 -7.453125 4.710938 -7.234375 5.109375 -6.796875 C 5.515625 -6.367188 5.71875 -5.800781 5.71875 -5.09375 C 5.71875 -4.425781 5.519531 -3.898438 5.125 -3.515625 C 4.738281 -3.128906 4.117188 -2.9375 3.265625 -2.9375 C 3.046875 -2.9375 2.804688 -2.945312 2.546875 -2.96875 C 2.285156 -3 2.03125 -3.035156 1.78125 -3.078125 L 1.78125 -2.21875 C 1.78125 -1.8125 1.910156 -1.488281 2.171875 -1.25 C 2.441406 -1.007812 2.835938 -0.890625 3.359375 -0.890625 Z M 4.59375 -5.09375 C 4.59375 -5.5625 4.476562 -5.898438 4.25 -6.109375 C 4.03125 -6.316406 3.707031 -6.421875 3.28125 -6.421875 C 2.800781 -6.421875 2.429688 -6.300781 2.171875 -6.0625 C 1.910156 -5.832031 1.78125 -5.515625 1.78125 -5.109375 L 1.78125 -4 C 2.050781 -3.957031 2.335938 -3.929688 2.640625 -3.921875 C 2.941406 -3.910156 3.164062 -3.90625 3.3125 -3.90625 C 3.675781 -3.90625 3.945312 -3.960938 4.125 -4.078125 C 4.3125 -4.191406 4.4375 -4.335938 4.5 -4.515625 C 4.5625 -4.703125 4.59375 -4.894531 4.59375 -5.09375 Z M 4.59375 -5.09375 "/></g></g></g></svg>