<svg xmlns="http://www.w3.org/2000/svg" xmlns:xlink="http://www.w3.org/1999/xlink" width="500" zoomAndPan="magnify" viewBox="0 0 375 74.999997" height="100" preserveAspectRatio="xMidYMid meet" version="1.0"><defs><clipPath id="4e0d733329"><path d="M 7.5 7.5 L 70 7.5 L 70 66.75 L 7.5 66.75 Z M 7.5 7.5 " clip-rule="nonzero"/></clipPath><clipPath id="72cf3fdbfa"><path d="M 82 7.5 L 145 7.5 L 145 66.75 L 82 66.75 Z M 82 7.5 " clip-rule="nonzero"/></clipPath><clipPath id="9ff088839c"><path d="M 156 7.5 L 218 7.5 L 218 66.75 L 156 66.75 Z M 156 7.5 " clip-rule="nonzero"/></clipPath><clipPath id="40b63e0281"><path d="M 231 7.5 L 293 7.5 L 293 66.75 L 231 66.75 Z M 231 7.5 " clip-rule="nonzero"/></clipPath><clipPath id="554ca1a51c"><path d="M 305 7.5 L 367.5 7.5 L 367.5 66.75 L 305 66.75 Z M 305 7.5 " clip-rule="nonzero"/></clipPath></defs><g clip-path="url(#4e0d733329)"><path fill="#fffefe" d="M 51.78125 63.757812 C 49.765625 62.820312 47.746094 61.957031 45.589844 61.019531 C 43.210938 60.011719 40.835938 58.933594 38.316406 57.78125 C 35.796875 58.933594 33.421875 59.941406 31.117188 60.949219 C 28.957031 61.882812 26.867188 62.820312 24.851562 63.757812 L 19.164062 66.347656 L 19.597656 60.085938 C 19.882812 55.546875 20.386719 50.507812 21.035156 45.539062 C 17.578125 42.085938 14.269531 38.195312 10.957031 34.09375 L 7.5 29.773438 L 12.898438 28.261719 C 16.5 27.253906 21.539062 26.171875 27.445312 25.164062 C 30.179688 20.050781 32.914062 15.371094 35.21875 12.0625 L 38.316406 7.597656 L 41.410156 12.0625 C 43.714844 15.371094 46.453125 20.050781 49.1875 25.164062 C 55.09375 26.171875 60.058594 27.253906 63.730469 28.261719 L 69.132812 29.773438 L 65.605469 34.164062 C 62.363281 38.269531 58.980469 42.15625 55.667969 45.613281 C 56.316406 50.582031 56.820312 55.621094 57.109375 60.15625 L 57.539062 66.421875 Z M 51.78125 63.757812 " fill-opacity="1" fill-rule="nonzero"/></g><g clip-path="url(#72cf3fdbfa)"><path fill="#fffefe" d="M 126.515625 63.757812 C 124.5 62.820312 122.484375 61.957031 120.324219 61.019531 C 117.949219 60.011719 115.570312 58.933594 113.050781 57.78125 C 110.53125 58.933594 108.15625 59.941406 105.851562 60.949219 C 103.691406 61.882812 101.605469 62.820312 99.589844 63.757812 L 93.898438 66.347656 L 94.332031 60.085938 C 94.621094 55.546875 95.125 50.507812 95.773438 45.539062 C 92.460938 42.011719 89.074219 38.195312 85.835938 34.09375 L 82.378906 29.773438 L 87.78125 28.261719 C 91.378906 27.253906 96.421875 26.171875 102.324219 25.164062 C 105.058594 20.050781 107.796875 15.371094 110.101562 12.0625 L 113.195312 7.597656 L 116.292969 12.0625 C 118.597656 15.371094 121.332031 20.050781 124.066406 25.164062 C 129.972656 26.171875 134.941406 27.253906 138.613281 28.261719 L 144.011719 29.773438 L 140.484375 34.164062 C 137.242188 38.269531 133.859375 42.15625 130.546875 45.613281 C 131.195312 50.582031 131.699219 55.621094 131.988281 60.15625 L 132.421875 66.421875 Z M 126.515625 63.757812 " fill-opacity="1" fill-rule="nonzero"/></g><g clip-path="url(#9ff088839c)"><path fill="#fffefe" d="M 200.386719 63.757812 C 198.371094 62.820312 196.355469 61.957031 194.195312 61.019531 C 191.820312 60.011719 189.445312 58.933594 186.925781 57.78125 C 184.402344 58.933594 182.027344 59.941406 179.722656 60.949219 C 177.5625 61.882812 175.476562 62.820312 173.460938 63.757812 L 167.773438 66.347656 L 168.203125 60.085938 C 168.492188 55.546875 168.996094 50.507812 169.644531 45.539062 C 166.332031 42.011719 162.949219 38.195312 159.707031 34.09375 L 156.253906 29.699219 L 161.652344 28.1875 C 165.253906 27.179688 170.292969 26.101562 176.195312 25.09375 C 178.933594 19.980469 181.667969 15.300781 183.972656 11.988281 L 187.066406 7.523438 L 190.164062 11.988281 C 192.46875 15.300781 195.203125 19.980469 197.941406 25.09375 C 203.84375 26.101562 208.8125 27.179688 212.484375 28.1875 L 217.882812 29.699219 L 214.355469 34.09375 C 211.117188 38.195312 207.730469 42.085938 204.421875 45.539062 C 205.066406 50.507812 205.570312 55.546875 205.859375 60.085938 L 206.292969 66.347656 Z M 200.386719 63.757812 " fill-opacity="1" fill-rule="nonzero"/></g><g clip-path="url(#40b63e0281)"><path fill="#fffefe" d="M 275.269531 63.757812 C 273.253906 62.820312 271.234375 61.957031 269.074219 61.019531 C 266.699219 60.011719 264.324219 58.933594 261.804688 57.78125 C 259.285156 58.933594 256.90625 59.941406 254.605469 60.949219 C 252.445312 61.882812 250.355469 62.820312 248.339844 63.757812 L 242.652344 66.347656 L 243.082031 60.085938 C 243.371094 55.546875 243.875 50.507812 244.523438 45.539062 C 241.210938 42.011719 237.828125 38.195312 234.589844 34.09375 L 231.132812 29.699219 L 236.53125 28.1875 C 240.132812 27.179688 245.171875 26.101562 251.074219 25.09375 C 253.8125 19.980469 256.546875 15.300781 258.851562 11.988281 L 261.949219 7.523438 L 265.042969 11.988281 C 267.347656 15.300781 270.082031 19.980469 272.820312 25.09375 C 278.722656 26.101562 283.691406 27.179688 287.363281 28.1875 L 292.765625 29.699219 L 289.234375 34.09375 C 285.996094 38.195312 282.613281 42.085938 279.300781 45.539062 C 279.949219 50.507812 280.453125 55.546875 280.738281 60.085938 L 281.171875 66.347656 Z M 275.269531 63.757812 " fill-opacity="1" fill-rule="nonzero"/></g><g clip-path="url(#554ca1a51c)"><path fill="#fffefe" d="M 350.003906 63.757812 C 347.988281 62.820312 345.972656 61.957031 343.8125 61.019531 C 341.4375 60.011719 339.058594 58.933594 336.539062 57.78125 C 334.019531 58.933594 331.644531 59.941406 329.339844 60.949219 C 327.179688 61.882812 325.09375 62.820312 323.074219 63.757812 L 317.386719 66.347656 L 317.820312 60.085938 C 318.109375 55.546875 318.613281 50.507812 319.261719 45.539062 C 315.949219 42.011719 312.5625 38.195312 309.324219 34.09375 L 305.867188 29.699219 L 311.269531 28.1875 C 314.867188 27.179688 319.90625 26.101562 325.8125 25.09375 C 328.546875 19.980469 331.285156 15.300781 333.589844 11.988281 L 336.683594 7.523438 L 339.78125 11.988281 C 342.085938 15.300781 344.820312 19.980469 347.554688 25.09375 C 353.460938 26.101562 358.429688 27.179688 362.101562 28.1875 L 367.5 29.699219 L 363.972656 34.09375 C 360.730469 38.195312 357.347656 42.085938 354.035156 45.539062 C 354.683594 50.507812 355.1875 55.546875 355.476562 60.085938 L 355.90625 66.347656 Z M 350.003906 63.757812 " fill-opacity="1" fill-rule="nonzero"/></g></svg>