<svg xmlns="http://www.w3.org/2000/svg" xmlns:xlink="http://www.w3.org/1999/xlink" width="500" zoomAndPan="magnify" viewBox="0 0 375 74.999997" height="100" preserveAspectRatio="xMidYMid meet" version="1.0"><defs><clipPath id="367e7eb669"><path d="M 0 6.09375 L 65 6.09375 L 65 67.59375 L 0 67.59375 Z M 0 6.09375 " clip-rule="nonzero"/></clipPath><clipPath id="10687428ab"><path d="M 78 6.09375 L 143 6.09375 L 143 67.59375 L 78 67.59375 Z M 78 6.09375 " clip-rule="nonzero"/></clipPath><clipPath id="5308ed7ec5"><path d="M 154 6.09375 L 220 6.09375 L 220 67.59375 L 154 67.59375 Z M 154 6.09375 " clip-rule="nonzero"/></clipPath><clipPath id="2d3db37cb0"><path d="M 232 6.09375 L 298 6.09375 L 298 67.59375 L 232 67.59375 Z M 232 6.09375 " clip-rule="nonzero"/></clipPath><clipPath id="853dc9a7aa"><path d="M 310 6.09375 L 375 6.09375 L 375 67.59375 L 310 67.59375 Z M 310 6.09375 " clip-rule="nonzero"/></clipPath></defs><g clip-path="url(#367e7eb669)"><path fill="#fffefe" d="M 46.125 64.695312 C 44.023438 63.722656 41.925781 62.820312 39.675781 61.847656 C 37.199219 60.796875 34.726562 59.671875 32.101562 58.472656 C 29.476562 59.671875 27 60.722656 24.601562 61.773438 C 22.351562 62.746094 20.175781 63.722656 18.074219 64.695312 L 12.148438 67.398438 L 12.601562 60.871094 C 12.898438 56.148438 13.425781 50.898438 14.101562 45.722656 C 10.5 42.121094 7.050781 38.070312 3.601562 33.796875 L 0 29.296875 L 5.625 27.722656 C 9.375 26.671875 14.625 25.546875 20.773438 24.496094 C 23.625 19.171875 26.476562 14.296875 28.875 10.847656 L 32.101562 6.195312 L 35.324219 10.847656 C 37.726562 14.296875 40.574219 19.171875 43.425781 24.496094 C 49.574219 25.546875 54.75 26.671875 58.574219 27.722656 L 64.199219 29.296875 L 60.523438 33.871094 C 57.148438 38.148438 53.625 42.195312 50.175781 45.796875 C 50.851562 50.972656 51.375 56.222656 51.675781 60.945312 L 52.125 67.472656 Z M 46.125 64.695312 " fill-opacity="1" fill-rule="nonzero"/></g><g clip-path="url(#10687428ab)"><path fill="#fffefe" d="M 123.976562 64.695312 C 121.875 63.722656 119.773438 62.820312 117.523438 61.847656 C 115.050781 60.796875 112.574219 59.671875 109.949219 58.472656 C 107.324219 59.671875 104.851562 60.722656 102.449219 61.773438 C 100.199219 62.746094 98.023438 63.722656 95.925781 64.695312 L 90 67.398438 L 90.449219 60.871094 C 90.75 56.148438 91.273438 50.898438 91.949219 45.722656 C 88.5 42.046875 84.976562 38.070312 81.601562 33.796875 L 78 29.296875 L 83.625 27.722656 C 87.375 26.671875 92.625 25.546875 98.773438 24.496094 C 101.625 19.171875 104.476562 14.296875 106.875 10.847656 L 110.101562 6.195312 L 113.324219 10.847656 C 115.726562 14.296875 118.574219 19.171875 121.425781 24.496094 C 127.574219 25.546875 132.75 26.671875 136.574219 27.722656 L 142.199219 29.296875 L 138.523438 33.871094 C 135.148438 38.148438 131.625 42.195312 128.175781 45.796875 C 128.851562 50.972656 129.375 56.222656 129.675781 60.945312 L 130.125 67.472656 Z M 123.976562 64.695312 " fill-opacity="1" fill-rule="nonzero"/></g><g clip-path="url(#5308ed7ec5)"><path fill="#fffefe" d="M 200.925781 64.695312 C 198.824219 63.722656 196.726562 62.820312 194.476562 61.847656 C 192 60.796875 189.523438 59.671875 186.898438 58.472656 C 184.273438 59.671875 181.800781 60.722656 179.398438 61.773438 C 177.148438 62.746094 174.976562 63.722656 172.875 64.695312 L 166.949219 67.398438 L 167.398438 60.871094 C 167.699219 56.148438 168.226562 50.898438 168.898438 45.722656 C 165.449219 42.046875 161.925781 38.070312 158.550781 33.796875 L 154.949219 29.222656 L 160.574219 27.648438 C 164.324219 26.597656 169.574219 25.472656 175.726562 24.421875 C 178.574219 19.097656 181.425781 14.222656 183.824219 10.773438 L 187.050781 6.121094 L 190.273438 10.773438 C 192.675781 14.222656 195.523438 19.097656 198.375 24.421875 C 204.523438 25.472656 209.699219 26.597656 213.523438 27.648438 L 219.148438 29.222656 L 215.476562 33.796875 C 212.101562 38.070312 208.574219 42.121094 205.125 45.722656 C 205.800781 50.898438 206.324219 56.148438 206.625 60.871094 L 207.074219 67.398438 Z M 200.925781 64.695312 " fill-opacity="1" fill-rule="nonzero"/></g><g clip-path="url(#2d3db37cb0)"><path fill="#fffefe" d="M 278.925781 64.695312 C 276.824219 63.722656 274.726562 62.820312 272.476562 61.847656 C 270 60.796875 267.523438 59.671875 264.898438 58.472656 C 262.273438 59.671875 259.800781 60.722656 257.398438 61.773438 C 255.148438 62.746094 252.976562 63.722656 250.875 64.695312 L 244.949219 67.398438 L 245.398438 60.871094 C 245.699219 56.148438 246.226562 50.898438 246.898438 45.722656 C 243.449219 42.046875 239.925781 38.070312 236.550781 33.796875 L 232.949219 29.222656 L 238.574219 27.648438 C 242.324219 26.597656 247.574219 25.472656 253.726562 24.421875 C 256.574219 19.097656 259.425781 14.222656 261.824219 10.773438 L 265.050781 6.121094 L 268.273438 10.773438 C 270.675781 14.222656 273.523438 19.097656 276.375 24.421875 C 282.523438 25.472656 287.699219 26.597656 291.523438 27.648438 L 297.148438 29.222656 L 293.476562 33.796875 C 290.101562 38.070312 286.574219 42.121094 283.125 45.722656 C 283.800781 50.898438 284.324219 56.148438 284.625 60.871094 L 285.074219 67.398438 Z M 278.925781 64.695312 " fill-opacity="1" fill-rule="nonzero"/></g><g clip-path="url(#853dc9a7aa)"><path fill="#fffefe" d="M 375 29.371094 L 371.851562 28.472656 C 367.5 27.273438 361.351562 25.921875 354.074219 24.722656 C 350.773438 18.421875 347.476562 12.796875 344.699219 8.746094 L 342.898438 6.121094 L 341.101562 8.746094 C 338.324219 12.796875 334.949219 18.421875 331.726562 24.722656 C 324.449219 25.921875 318.375 27.273438 313.949219 28.472656 L 310.800781 29.371094 L 312.824219 31.921875 C 316.800781 36.945312 320.925781 41.671875 325.050781 45.871094 C 324.226562 51.945312 323.625 58.097656 323.25 63.722656 L 323.023438 67.398438 L 326.398438 65.898438 C 328.800781 64.773438 331.199219 63.722656 333.75 62.671875 C 336.75 61.398438 339.75 60.046875 342.976562 58.546875 C 346.199219 60.046875 349.273438 61.398438 352.199219 62.671875 C 354.75 63.796875 357.226562 64.847656 359.550781 65.898438 L 362.925781 67.398438 L 362.699219 63.722656 C 362.324219 58.097656 361.648438 51.945312 360.898438 45.871094 C 365.023438 41.597656 369.074219 36.945312 373.125 31.921875 Z M 357.898438 44.597656 L 357.675781 44.820312 L 357.75 45.195312 C 358.574219 51.121094 359.175781 57.121094 359.625 62.671875 C 357.601562 61.773438 355.5 60.871094 353.398438 59.898438 C 350.175781 58.472656 346.800781 57.046875 343.273438 55.398438 L 342.976562 55.246094 L 342.675781 55.398438 C 339.148438 57.046875 335.773438 58.472656 332.550781 59.898438 C 330.375 60.796875 328.351562 61.695312 326.324219 62.671875 C 326.773438 56.898438 327.375 51.046875 328.199219 45.195312 L 328.273438 44.820312 L 328.050781 44.523438 C 324 40.398438 319.949219 35.820312 316.050781 30.871094 C 320.476562 29.671875 326.476562 28.472656 333.449219 27.273438 L 333.824219 27.195312 L 333.976562 26.898438 C 337.125 20.820312 340.351562 15.273438 343.050781 11.148438 C 345.824219 15.195312 348.976562 20.746094 352.125 26.898438 L 352.273438 27.195312 L 352.648438 27.273438 C 359.625 28.472656 365.625 29.671875 370.050781 30.871094 C 366 35.898438 362.023438 40.472656 357.898438 44.597656 Z M 357.898438 44.597656 " fill-opacity="1" fill-rule="nonzero"/></g></svg>