<svg xmlns="http://www.w3.org/2000/svg" xmlns:xlink="http://www.w3.org/1999/xlink" width="500" zoomAndPan="magnify" viewBox="0 0 375 74.999997" height="100" preserveAspectRatio="xMidYMid meet" version="1.0"><defs><clipPath id="d6c938de5a"><path d="M 7.5 8.023438 L 70 8.023438 L 70 67 L 7.5 67 Z M 7.5 8.023438 " clip-rule="nonzero"/></clipPath><clipPath id="cce6fa1e10"><path d="M 305 8.023438 L 367.5 8.023438 L 367.5 67 L 305 67 Z M 305 8.023438 " clip-rule="nonzero"/></clipPath><clipPath id="43d1ea9498"><path d="M 82 8.023438 L 145 8.023438 L 145 67 L 82 67 Z M 82 8.023438 " clip-rule="nonzero"/></clipPath><clipPath id="67bc61f5a2"><path d="M 231 8.023438 L 293 8.023438 L 293 67 L 231 67 Z M 231 8.023438 " clip-rule="nonzero"/></clipPath><clipPath id="230af7f4c6"><path d="M 156 8.023438 L 218 8.023438 L 218 67 L 156 67 Z M 156 8.023438 " clip-rule="nonzero"/></clipPath></defs><g clip-path="url(#d6c938de5a)"><path fill="#fffefe" d="M 51.78125 64.28125 C 49.765625 63.34375 47.746094 62.480469 45.589844 61.546875 C 43.210938 60.539062 40.835938 59.457031 38.316406 58.304688 C 35.796875 59.457031 33.421875 60.464844 31.117188 61.472656 C 28.957031 62.410156 26.867188 63.34375 24.851562 64.28125 L 19.164062 66.875 L 19.597656 60.609375 C 19.882812 56.074219 20.386719 51.035156 21.035156 46.066406 C 17.578125 42.609375 14.269531 38.722656 10.957031 34.617188 L 7.5 30.296875 L 12.898438 28.785156 C 16.5 27.777344 21.539062 26.699219 27.445312 25.691406 C 30.179688 20.578125 32.914062 15.898438 35.21875 12.585938 L 38.316406 8.121094 L 41.410156 12.585938 C 43.714844 15.898438 46.453125 20.578125 49.1875 25.691406 C 55.09375 26.699219 60.058594 27.777344 63.730469 28.785156 L 69.132812 30.296875 L 65.605469 34.691406 C 62.363281 38.792969 58.980469 42.683594 55.667969 46.136719 C 56.316406 51.105469 56.820312 56.144531 57.109375 60.683594 L 57.539062 66.945312 Z M 51.78125 64.28125 " fill-opacity="1" fill-rule="nonzero"/></g><g clip-path="url(#cce6fa1e10)"><path fill="#fffefe" d="M 367.5 30.371094 L 364.476562 29.503906 C 360.300781 28.355469 354.394531 27.058594 347.410156 25.90625 C 344.242188 19.859375 341.074219 14.457031 338.410156 10.570312 L 336.683594 8.050781 L 334.957031 10.570312 C 332.292969 14.457031 329.050781 19.859375 325.957031 25.90625 C 318.972656 27.058594 313.140625 28.355469 308.890625 29.503906 L 305.867188 30.371094 L 307.8125 32.816406 C 311.628906 37.640625 315.589844 42.175781 319.546875 46.210938 C 318.757812 52.042969 318.179688 57.945312 317.820312 63.34375 L 317.605469 66.875 L 320.84375 65.433594 C 323.148438 64.355469 325.453125 63.34375 327.898438 62.335938 C 330.78125 61.113281 333.660156 59.816406 336.757812 58.378906 C 339.851562 59.816406 342.804688 61.113281 345.613281 62.335938 C 348.058594 63.417969 350.4375 64.425781 352.667969 65.433594 L 355.90625 66.875 L 355.691406 63.34375 C 355.332031 57.945312 354.683594 52.042969 353.964844 46.210938 C 357.925781 42.105469 361.8125 37.640625 365.699219 32.816406 Z M 351.085938 44.984375 L 350.867188 45.203125 L 350.941406 45.5625 C 351.730469 51.25 352.308594 57.007812 352.738281 62.335938 C 350.796875 61.472656 348.78125 60.609375 346.765625 59.671875 C 343.667969 58.304688 340.429688 56.9375 337.042969 55.355469 L 336.757812 55.210938 L 336.46875 55.355469 C 333.085938 56.9375 329.84375 58.304688 326.746094 59.671875 C 324.660156 60.539062 322.714844 61.402344 320.773438 62.335938 C 321.203125 56.792969 321.78125 51.175781 322.570312 45.5625 L 322.644531 45.203125 L 322.429688 44.914062 C 318.539062 40.953125 314.652344 36.5625 310.90625 31.808594 C 315.15625 30.65625 320.917969 29.503906 327.613281 28.355469 L 327.972656 28.28125 L 328.117188 27.992188 C 331.140625 22.160156 334.234375 16.832031 336.828125 12.875 C 339.492188 16.761719 342.515625 22.089844 345.539062 27.992188 L 345.683594 28.28125 L 346.042969 28.355469 C 352.738281 29.503906 358.5 30.65625 362.75 31.808594 C 358.859375 36.632812 355.042969 41.027344 351.085938 44.984375 Z M 351.085938 44.984375 " fill-opacity="1" fill-rule="nonzero"/></g><g clip-path="url(#43d1ea9498)"><path fill="#fffefe" d="M 144.011719 30.441406 L 140.988281 29.578125 C 136.8125 28.425781 130.90625 27.128906 123.925781 25.976562 C 120.757812 19.929688 117.589844 14.53125 114.925781 10.640625 L 113.195312 8.121094 L 111.46875 10.640625 C 108.804688 14.53125 105.5625 19.929688 102.46875 25.976562 C 95.484375 27.128906 89.652344 28.425781 85.402344 29.578125 L 82.378906 30.441406 L 84.324219 32.890625 C 88.140625 37.714844 92.101562 42.25 96.058594 46.28125 C 95.269531 52.113281 94.691406 58.019531 94.332031 63.417969 L 94.117188 66.945312 L 97.355469 65.503906 C 99.660156 64.425781 101.964844 63.417969 104.410156 62.410156 C 107.292969 61.1875 110.171875 59.890625 113.269531 58.449219 C 116.363281 59.890625 119.316406 61.1875 122.125 62.410156 C 124.570312 63.488281 126.949219 64.496094 129.179688 65.503906 L 132.421875 66.945312 L 132.203125 63.417969 C 131.84375 58.019531 131.195312 52.113281 130.476562 46.28125 C 134.4375 42.175781 138.324219 37.714844 142.210938 32.890625 Z M 127.597656 45.058594 L 127.378906 45.273438 L 127.453125 45.632812 C 128.242188 51.320312 128.820312 57.082031 129.253906 62.410156 C 127.308594 61.546875 125.292969 60.679688 123.277344 59.746094 C 120.179688 58.378906 116.941406 57.007812 113.554688 55.425781 L 113.269531 55.28125 L 112.980469 55.425781 C 109.597656 57.007812 106.355469 58.378906 103.261719 59.746094 C 101.171875 60.609375 99.226562 61.472656 97.285156 62.410156 C 97.714844 56.867188 98.292969 51.25 99.085938 45.632812 L 99.15625 45.273438 L 98.941406 44.984375 C 95.050781 41.027344 91.164062 36.632812 87.421875 31.882812 C 91.667969 30.730469 97.429688 29.578125 104.125 28.425781 L 104.484375 28.355469 L 104.628906 28.066406 C 107.652344 22.234375 110.746094 16.90625 113.339844 12.945312 C 116.003906 16.832031 119.027344 22.160156 122.050781 28.066406 L 122.195312 28.355469 L 122.554688 28.425781 C 129.253906 29.578125 135.011719 30.730469 139.261719 31.882812 C 135.371094 36.707031 131.554688 41.097656 127.597656 45.058594 Z M 127.597656 45.058594 " fill-opacity="1" fill-rule="nonzero"/></g><g clip-path="url(#67bc61f5a2)"><path fill="#fffefe" d="M 292.765625 30.371094 L 289.738281 29.503906 C 285.5625 28.355469 279.660156 27.058594 272.675781 25.90625 C 269.507812 19.859375 266.339844 14.457031 263.675781 10.570312 L 261.949219 8.050781 L 260.21875 10.570312 C 257.554688 14.457031 254.316406 19.859375 251.21875 25.90625 C 244.234375 27.058594 238.402344 28.355469 234.15625 29.503906 L 231.132812 30.371094 L 233.074219 32.816406 C 236.890625 37.640625 240.851562 42.175781 244.8125 46.210938 C 244.019531 52.042969 243.445312 57.945312 243.082031 63.34375 L 242.867188 66.875 L 246.109375 65.433594 C 248.410156 64.355469 250.714844 63.34375 253.164062 62.335938 C 256.042969 61.113281 258.925781 59.816406 262.019531 58.378906 C 265.117188 59.816406 268.066406 61.113281 270.875 62.335938 C 273.324219 63.417969 275.699219 64.425781 277.933594 65.433594 L 281.171875 66.875 L 280.957031 63.34375 C 280.597656 57.945312 279.949219 52.042969 279.226562 46.210938 C 283.1875 42.105469 287.074219 37.640625 290.964844 32.816406 Z M 276.347656 44.984375 L 276.132812 45.203125 L 276.203125 45.5625 C 276.996094 51.25 277.570312 57.007812 278.003906 62.335938 C 276.058594 61.472656 274.042969 60.609375 272.027344 59.671875 C 268.933594 58.304688 265.691406 56.9375 262.308594 55.355469 L 262.019531 55.210938 L 261.730469 55.355469 C 258.347656 56.9375 255.109375 58.304688 252.011719 59.671875 C 249.925781 60.539062 247.980469 61.402344 246.035156 62.335938 C 246.46875 56.792969 247.042969 51.175781 247.835938 45.5625 L 247.90625 45.203125 L 247.691406 44.914062 C 243.804688 40.953125 239.917969 36.5625 236.171875 31.808594 C 240.421875 30.65625 246.179688 29.503906 252.875 28.355469 L 253.234375 28.28125 L 253.378906 27.992188 C 256.402344 22.160156 259.5 16.832031 262.09375 12.875 C 264.757812 16.761719 267.78125 22.089844 270.804688 27.992188 L 270.949219 28.28125 L 271.308594 28.355469 C 278.003906 29.503906 283.765625 30.65625 288.011719 31.808594 C 284.125 36.632812 280.308594 41.027344 276.347656 44.984375 Z M 276.347656 44.984375 " fill-opacity="1" fill-rule="nonzero"/></g><g clip-path="url(#230af7f4c6)"><path fill="#fffefe" d="M 217.882812 30.371094 L 214.859375 29.503906 C 210.683594 28.355469 204.78125 27.058594 197.796875 25.90625 C 194.628906 19.859375 191.460938 14.457031 188.796875 10.570312 L 187.066406 8.050781 L 185.339844 10.570312 C 182.675781 14.457031 179.4375 19.859375 176.339844 25.90625 C 169.355469 27.058594 163.523438 28.355469 159.277344 29.503906 L 156.253906 30.371094 L 158.195312 32.816406 C 162.011719 37.640625 165.972656 42.175781 169.933594 46.210938 C 169.140625 52.042969 168.5625 57.945312 168.203125 63.34375 L 167.988281 66.875 L 171.226562 65.433594 C 173.53125 64.355469 175.835938 63.34375 178.285156 62.335938 C 181.164062 61.113281 184.042969 59.816406 187.140625 58.378906 C 190.234375 59.816406 193.1875 61.113281 195.996094 62.335938 C 198.445312 63.417969 200.820312 64.425781 203.050781 65.433594 L 206.292969 66.875 L 206.074219 63.34375 C 205.714844 57.945312 205.066406 52.042969 204.347656 46.210938 C 208.308594 42.105469 212.195312 37.640625 216.085938 32.816406 Z M 201.46875 44.984375 L 201.253906 45.203125 L 201.324219 45.5625 C 202.117188 51.25 202.691406 57.007812 203.125 62.335938 C 201.179688 61.472656 199.164062 60.609375 197.148438 59.671875 C 194.050781 58.304688 190.8125 56.9375 187.429688 55.355469 L 187.140625 55.210938 L 186.851562 55.355469 C 183.46875 56.9375 180.226562 58.304688 177.132812 59.671875 C 175.042969 60.539062 173.101562 61.402344 171.15625 62.335938 C 171.589844 56.792969 172.164062 51.175781 172.957031 45.5625 L 173.027344 45.203125 L 172.8125 44.914062 C 168.925781 40.953125 165.035156 36.5625 161.292969 31.808594 C 165.539062 30.65625 171.300781 29.503906 177.996094 28.355469 L 178.355469 28.28125 L 178.5 27.992188 C 181.523438 22.160156 184.621094 16.832031 187.210938 12.875 C 189.875 16.761719 192.898438 22.089844 195.925781 27.992188 L 196.066406 28.28125 L 196.429688 28.355469 C 203.125 29.503906 208.882812 30.65625 213.132812 31.808594 C 209.242188 36.632812 205.429688 41.027344 201.46875 44.984375 Z M 201.46875 44.984375 " fill-opacity="1" fill-rule="nonzero"/></g></svg>