<svg xmlns="http://www.w3.org/2000/svg" xmlns:xlink="http://www.w3.org/1999/xlink" width="500" zoomAndPan="magnify" viewBox="0 0 375 74.999997" height="100" preserveAspectRatio="xMidYMid meet" version="1.0"><defs><clipPath id="82001ce424"><path d="M 0 7.5 L 65 7.5 L 65 69 L 0 69 Z M 0 7.5 " clip-rule="nonzero"/></clipPath><clipPath id="ea414b1773"><path d="M 310 7.5 L 375 7.5 L 375 69 L 310 69 Z M 310 7.5 " clip-rule="nonzero"/></clipPath><clipPath id="c7cb966311"><path d="M 78 7.5 L 143 7.5 L 143 69 L 78 69 Z M 78 7.5 " clip-rule="nonzero"/></clipPath><clipPath id="205b3b5a3d"><path d="M 232 7.5 L 298 7.5 L 298 69 L 232 69 Z M 232 7.5 " clip-rule="nonzero"/></clipPath><clipPath id="858ae838d2"><path d="M 154 7.5 L 220 7.5 L 220 69 L 154 69 Z M 154 7.5 " clip-rule="nonzero"/></clipPath></defs><g clip-path="url(#82001ce424)"><path fill="#fffefe" d="M 46.125 66.101562 C 44.023438 65.128906 41.925781 64.226562 39.675781 63.253906 C 37.199219 62.203125 34.726562 61.078125 32.101562 59.878906 C 29.476562 61.078125 27 62.128906 24.601562 63.179688 C 22.351562 64.152344 20.175781 65.128906 18.074219 66.101562 L 12.148438 68.804688 L 12.601562 62.277344 C 12.898438 57.554688 13.425781 52.304688 14.101562 47.128906 C 10.5 43.527344 7.050781 39.476562 3.601562 35.203125 L 0 30.703125 L 5.625 29.128906 C 9.375 28.078125 14.625 26.953125 20.773438 25.902344 C 23.625 20.578125 26.476562 15.703125 28.875 12.253906 L 32.101562 7.601562 L 35.324219 12.253906 C 37.726562 15.703125 40.574219 20.578125 43.425781 25.902344 C 49.574219 26.953125 54.75 28.078125 58.574219 29.128906 L 64.199219 30.703125 L 60.523438 35.277344 C 57.148438 39.554688 53.625 43.601562 50.175781 47.203125 C 50.851562 52.378906 51.375 57.628906 51.675781 62.351562 L 52.125 68.878906 Z M 46.125 66.101562 " fill-opacity="1" fill-rule="nonzero"/></g><g clip-path="url(#ea414b1773)"><path fill="#fffefe" d="M 375 30.777344 L 371.851562 29.878906 C 367.5 28.679688 361.351562 27.328125 354.074219 26.128906 C 350.773438 19.828125 347.476562 14.203125 344.699219 10.152344 L 342.898438 7.527344 L 341.101562 10.152344 C 338.324219 14.203125 334.949219 19.828125 331.726562 26.128906 C 324.449219 27.328125 318.375 28.679688 313.949219 29.878906 L 310.800781 30.777344 L 312.824219 33.328125 C 316.800781 38.351562 320.925781 43.078125 325.050781 47.277344 C 324.226562 53.351562 323.625 59.503906 323.25 65.128906 L 323.023438 68.804688 L 326.398438 67.304688 C 328.800781 66.179688 331.199219 65.128906 333.75 64.078125 C 336.75 62.804688 339.75 61.453125 342.976562 59.953125 C 346.199219 61.453125 349.273438 62.804688 352.199219 64.078125 C 354.75 65.203125 357.226562 66.253906 359.550781 67.304688 L 362.925781 68.804688 L 362.699219 65.128906 C 362.324219 59.503906 361.648438 53.351562 360.898438 47.277344 C 365.023438 43.003906 369.074219 38.351562 373.125 33.328125 Z M 357.898438 46.003906 L 357.675781 46.226562 L 357.75 46.601562 C 358.574219 52.527344 359.175781 58.527344 359.625 64.078125 C 357.601562 63.179688 355.5 62.277344 353.398438 61.304688 C 350.175781 59.878906 346.800781 58.453125 343.273438 56.804688 L 342.976562 56.652344 L 342.675781 56.804688 C 339.148438 58.453125 335.773438 59.878906 332.550781 61.304688 C 330.375 62.203125 328.351562 63.101562 326.324219 64.078125 C 326.773438 58.304688 327.375 52.453125 328.199219 46.601562 L 328.273438 46.226562 L 328.050781 45.929688 C 324 41.804688 319.949219 37.226562 316.050781 32.277344 C 320.476562 31.078125 326.476562 29.878906 333.449219 28.679688 L 333.824219 28.601562 L 333.976562 28.304688 C 337.125 22.226562 340.351562 16.679688 343.050781 12.554688 C 345.824219 16.601562 348.976562 22.152344 352.125 28.304688 L 352.273438 28.601562 L 352.648438 28.679688 C 359.625 29.878906 365.625 31.078125 370.050781 32.277344 C 366 37.304688 362.023438 41.878906 357.898438 46.003906 Z M 357.898438 46.003906 " fill-opacity="1" fill-rule="nonzero"/></g><g clip-path="url(#c7cb966311)"><path fill="#fffefe" d="M 142.199219 30.851562 L 139.050781 29.953125 C 134.699219 28.753906 128.550781 27.402344 121.273438 26.203125 C 117.976562 19.902344 114.675781 14.277344 111.898438 10.226562 L 110.101562 7.601562 L 108.300781 10.226562 C 105.523438 14.277344 102.148438 19.902344 98.925781 26.203125 C 91.648438 27.402344 85.574219 28.753906 81.148438 29.953125 L 78 30.851562 L 80.023438 33.402344 C 84 38.429688 88.125 43.152344 92.25 47.351562 C 91.425781 53.429688 90.824219 59.578125 90.449219 65.203125 L 90.226562 68.878906 L 93.601562 67.378906 C 96 66.253906 98.398438 65.203125 100.949219 64.152344 C 103.949219 62.878906 106.949219 61.527344 110.175781 60.027344 C 113.398438 61.527344 116.476562 62.878906 119.398438 64.152344 C 121.949219 65.277344 124.425781 66.328125 126.75 67.378906 L 130.125 68.878906 L 129.898438 65.203125 C 129.523438 59.578125 128.851562 53.429688 128.101562 47.351562 C 132.226562 43.078125 136.273438 38.429688 140.324219 33.402344 Z M 125.101562 46.078125 L 124.875 46.304688 L 124.949219 46.679688 C 125.773438 52.601562 126.375 58.601562 126.824219 64.152344 C 124.800781 63.253906 122.699219 62.351562 120.601562 61.378906 C 117.375 59.953125 114 58.527344 110.476562 56.878906 L 110.175781 56.726562 L 109.875 56.878906 C 106.351562 58.527344 102.976562 59.953125 99.75 61.378906 C 97.574219 62.277344 95.550781 63.179688 93.523438 64.152344 C 93.976562 58.378906 94.574219 52.527344 95.398438 46.679688 L 95.476562 46.304688 L 95.25 46.003906 C 91.199219 41.878906 87.148438 37.304688 83.25 32.351562 C 87.675781 31.152344 93.675781 29.953125 100.648438 28.753906 L 101.023438 28.679688 L 101.175781 28.378906 C 104.324219 22.304688 107.550781 16.753906 110.25 12.628906 C 113.023438 16.679688 116.175781 22.226562 119.324219 28.378906 L 119.476562 28.679688 L 119.851562 28.753906 C 126.824219 29.953125 132.824219 31.152344 137.25 32.351562 C 133.199219 37.378906 129.226562 41.953125 125.101562 46.078125 Z M 125.101562 46.078125 " fill-opacity="1" fill-rule="nonzero"/></g><g clip-path="url(#205b3b5a3d)"><path fill="#fffefe" d="M 297.148438 30.777344 L 294 29.878906 C 289.648438 28.679688 283.5 27.328125 276.226562 26.128906 C 272.925781 19.828125 269.625 14.203125 266.851562 10.152344 L 265.050781 7.527344 L 263.25 10.152344 C 260.476562 14.203125 257.101562 19.828125 253.875 26.128906 C 246.601562 27.328125 240.523438 28.679688 236.101562 29.878906 L 232.949219 30.777344 L 234.976562 33.328125 C 238.949219 38.351562 243.074219 43.078125 247.199219 47.277344 C 246.375 53.351562 245.773438 59.503906 245.398438 65.128906 L 245.175781 68.804688 L 248.550781 67.304688 C 250.949219 66.179688 253.351562 65.128906 255.898438 64.078125 C 258.898438 62.804688 261.898438 61.453125 265.125 59.953125 C 268.351562 61.453125 271.425781 62.804688 274.351562 64.078125 C 276.898438 65.203125 279.375 66.253906 281.699219 67.304688 L 285.074219 68.804688 L 284.851562 65.128906 C 284.476562 59.503906 283.800781 53.351562 283.050781 47.277344 C 287.175781 43.003906 291.226562 38.351562 295.273438 33.328125 Z M 280.050781 46.003906 L 279.824219 46.226562 L 279.898438 46.601562 C 280.726562 52.527344 281.324219 58.527344 281.773438 64.078125 C 279.75 63.179688 277.648438 62.277344 275.550781 61.304688 C 272.324219 59.878906 268.949219 58.453125 265.425781 56.804688 L 265.125 56.652344 L 264.824219 56.804688 C 261.300781 58.453125 257.925781 59.878906 254.699219 61.304688 C 252.523438 62.203125 250.5 63.101562 248.476562 64.078125 C 248.925781 58.304688 249.523438 52.453125 250.351562 46.601562 L 250.425781 46.226562 L 250.199219 45.929688 C 246.148438 41.804688 242.101562 37.226562 238.199219 32.277344 C 242.625 31.078125 248.625 29.878906 255.601562 28.679688 L 255.976562 28.601562 L 256.125 28.304688 C 259.273438 22.226562 262.5 16.679688 265.199219 12.554688 C 267.976562 16.601562 271.125 22.152344 274.273438 28.304688 L 274.425781 28.601562 L 274.800781 28.679688 C 281.773438 29.878906 287.773438 31.078125 292.199219 32.277344 C 288.148438 37.304688 284.175781 41.878906 280.050781 46.003906 Z M 280.050781 46.003906 " fill-opacity="1" fill-rule="nonzero"/></g><g clip-path="url(#858ae838d2)"><path fill="#fffefe" d="M 219.148438 30.777344 L 216 29.878906 C 211.648438 28.679688 205.5 27.328125 198.226562 26.128906 C 194.925781 19.828125 191.625 14.203125 188.851562 10.152344 L 187.050781 7.527344 L 185.25 10.152344 C 182.476562 14.203125 179.101562 19.828125 175.875 26.128906 C 168.601562 27.328125 162.523438 28.679688 158.101562 29.878906 L 154.949219 30.777344 L 156.976562 33.328125 C 160.949219 38.351562 165.074219 43.078125 169.199219 47.277344 C 168.375 53.351562 167.773438 59.503906 167.398438 65.128906 L 167.175781 68.804688 L 170.550781 67.304688 C 172.949219 66.179688 175.351562 65.128906 177.898438 64.078125 C 180.898438 62.804688 183.898438 61.453125 187.125 59.953125 C 190.351562 61.453125 193.425781 62.804688 196.351562 64.078125 C 198.898438 65.203125 201.375 66.253906 203.699219 67.304688 L 207.074219 68.804688 L 206.851562 65.128906 C 206.476562 59.503906 205.800781 53.351562 205.050781 47.277344 C 209.175781 43.003906 213.226562 38.351562 217.273438 33.328125 Z M 202.050781 46.003906 L 201.824219 46.226562 L 201.898438 46.601562 C 202.726562 52.527344 203.324219 58.527344 203.773438 64.078125 C 201.75 63.179688 199.648438 62.277344 197.550781 61.304688 C 194.324219 59.878906 190.949219 58.453125 187.425781 56.804688 L 187.125 56.652344 L 186.824219 56.804688 C 183.300781 58.453125 179.925781 59.878906 176.699219 61.304688 C 174.523438 62.203125 172.5 63.101562 170.476562 64.078125 C 170.925781 58.304688 171.523438 52.453125 172.351562 46.601562 L 172.425781 46.226562 L 172.199219 45.929688 C 168.148438 41.804688 164.101562 37.226562 160.199219 32.277344 C 164.625 31.078125 170.625 29.878906 177.601562 28.679688 L 177.976562 28.601562 L 178.125 28.304688 C 181.273438 22.226562 184.5 16.679688 187.199219 12.554688 C 189.976562 16.601562 193.125 22.152344 196.273438 28.304688 L 196.425781 28.601562 L 196.800781 28.679688 C 203.773438 29.878906 209.773438 31.078125 214.199219 32.277344 C 210.148438 37.304688 206.175781 41.878906 202.050781 46.003906 Z M 202.050781 46.003906 " fill-opacity="1" fill-rule="nonzero"/></g></svg>