<svg xmlns="http://www.w3.org/2000/svg" xmlns:xlink="http://www.w3.org/1999/xlink" width="500" zoomAndPan="magnify" viewBox="0 0 375 74.999997" height="100" preserveAspectRatio="xMidYMid meet" version="1.0"><defs><clipPath id="239ad53208"><path d="M 0 8.84375 L 57 8.84375 L 57 70.34375 L 0 70.34375 Z M 0 8.84375 " clip-rule="nonzero"/></clipPath><clipPath id="acc42029f5"><path d="M 70 8.84375 L 135 8.84375 L 135 70.34375 L 70 70.34375 Z M 70 8.84375 " clip-rule="nonzero"/></clipPath><clipPath id="609345d5ba"><path d="M 147 8.84375 L 212 8.84375 L 212 70.34375 L 147 70.34375 Z M 147 8.84375 " clip-rule="nonzero"/></clipPath><clipPath id="12e168e95f"><path d="M 303 8.84375 L 367.5 8.84375 L 367.5 70.34375 L 303 70.34375 Z M 303 8.84375 " clip-rule="nonzero"/></clipPath><clipPath id="edc27379da"><path d="M 225 8.84375 L 290 8.84375 L 290 70.34375 L 225 70.34375 Z M 225 8.84375 " clip-rule="nonzero"/></clipPath></defs><g clip-path="url(#239ad53208)"><path fill="#fffefe" d="M 38.625 67.410156 C 36.523438 66.433594 34.425781 65.535156 32.175781 64.558594 C 29.699219 63.507812 27.226562 62.382812 24.601562 61.183594 C 21.976562 62.382812 19.5 63.433594 17.101562 64.484375 C 14.851562 65.460938 12.675781 66.433594 10.574219 67.410156 L 4.648438 70.109375 L 5.101562 63.585938 C 5.398438 58.859375 5.925781 53.609375 6.601562 48.433594 C 3 44.835938 -0.449219 40.785156 -3.898438 36.507812 L -7.5 32.007812 L -1.875 30.433594 C 1.875 29.382812 7.125 28.257812 13.273438 27.210938 C 16.125 21.882812 18.976562 17.007812 21.375 13.558594 L 24.601562 8.910156 L 27.824219 13.558594 C 30.226562 17.007812 33.074219 21.882812 35.925781 27.210938 C 42.074219 28.257812 47.25 29.382812 51.074219 30.433594 L 56.699219 32.007812 L 53.023438 36.585938 C 49.648438 40.859375 46.125 44.910156 42.675781 48.507812 C 43.351562 53.683594 43.875 58.933594 44.175781 63.660156 L 44.625 70.183594 Z M 38.625 67.410156 " fill-opacity="1" fill-rule="nonzero"/></g><g clip-path="url(#acc42029f5)"><path fill="#fffefe" d="M 116.476562 67.410156 C 114.375 66.433594 112.273438 65.535156 110.023438 64.558594 C 107.550781 63.507812 105.074219 62.382812 102.449219 61.183594 C 99.824219 62.382812 97.351562 63.433594 94.949219 64.484375 C 92.699219 65.460938 90.523438 66.433594 88.425781 67.410156 L 82.5 70.109375 L 82.949219 63.585938 C 83.25 58.859375 83.773438 53.609375 84.449219 48.433594 C 81 44.757812 77.476562 40.785156 74.101562 36.507812 L 70.5 32.007812 L 76.125 30.433594 C 79.875 29.382812 85.125 28.257812 91.273438 27.210938 C 94.125 21.882812 96.976562 17.007812 99.375 13.558594 L 102.601562 8.910156 L 105.824219 13.558594 C 108.226562 17.007812 111.074219 21.882812 113.925781 27.210938 C 120.074219 28.257812 125.25 29.382812 129.074219 30.433594 L 134.699219 32.007812 L 131.023438 36.585938 C 127.648438 40.859375 124.125 44.910156 120.675781 48.507812 C 121.351562 53.683594 121.875 58.933594 122.175781 63.660156 L 122.625 70.183594 Z M 116.476562 67.410156 " fill-opacity="1" fill-rule="nonzero"/></g><g clip-path="url(#609345d5ba)"><path fill="#fffefe" d="M 193.425781 67.484375 C 191.324219 66.507812 189.226562 65.609375 186.976562 64.632812 C 184.5 63.585938 182.023438 62.460938 179.398438 61.257812 C 176.773438 62.460938 174.300781 63.507812 171.898438 64.558594 C 169.648438 65.535156 167.476562 66.507812 165.375 67.484375 L 159.449219 70.183594 L 159.898438 63.660156 C 160.199219 58.933594 160.726562 53.683594 161.398438 48.507812 C 157.949219 44.835938 154.425781 40.859375 151.050781 36.585938 L 147.449219 32.007812 L 153.074219 30.433594 C 156.824219 29.382812 162.074219 28.257812 168.226562 27.210938 C 171.074219 21.882812 173.925781 17.007812 176.324219 13.558594 L 179.550781 8.910156 L 182.773438 13.558594 C 185.175781 17.007812 188.023438 21.882812 190.875 27.210938 C 197.023438 28.257812 202.199219 29.382812 206.023438 30.433594 L 211.648438 32.007812 L 207.976562 36.585938 C 204.601562 40.859375 201.074219 44.910156 197.625 48.507812 C 198.300781 53.683594 198.824219 58.933594 199.125 63.660156 L 199.574219 70.183594 Z M 193.425781 67.484375 " fill-opacity="1" fill-rule="nonzero"/></g><g clip-path="url(#12e168e95f)"><path fill="#fffefe" d="M 367.5 32.160156 L 364.351562 31.257812 C 360 30.058594 353.851562 28.710938 346.574219 27.507812 C 343.273438 21.210938 339.976562 15.585938 337.199219 11.535156 L 335.398438 8.910156 L 333.601562 11.535156 C 330.824219 15.585938 327.449219 21.210938 324.226562 27.507812 C 316.949219 28.710938 310.875 30.058594 306.449219 31.257812 L 303.300781 32.160156 L 305.324219 34.710938 C 309.300781 39.734375 313.425781 44.460938 317.550781 48.660156 C 316.726562 54.734375 316.125 60.882812 315.75 66.507812 L 315.523438 70.183594 L 318.898438 68.683594 C 321.300781 67.558594 323.699219 66.507812 326.25 65.460938 C 329.25 64.183594 332.25 62.835938 335.476562 61.335938 C 338.699219 62.835938 341.773438 64.183594 344.699219 65.460938 C 347.25 66.585938 349.726562 67.632812 352.050781 68.683594 L 355.425781 70.183594 L 355.199219 66.507812 C 354.824219 60.882812 354.148438 54.734375 353.398438 48.660156 C 357.523438 44.382812 361.574219 39.734375 365.625 34.710938 Z M 350.398438 47.382812 L 350.175781 47.609375 L 350.25 47.984375 C 351.074219 53.910156 351.675781 59.910156 352.125 65.460938 C 350.101562 64.558594 348 63.660156 345.898438 62.683594 C 342.675781 61.257812 339.300781 59.835938 335.773438 58.183594 L 335.476562 58.035156 L 335.175781 58.183594 C 331.648438 59.835938 328.273438 61.257812 325.050781 62.683594 C 322.875 63.585938 320.851562 64.484375 318.824219 65.460938 C 319.273438 59.683594 319.875 53.835938 320.699219 47.984375 L 320.773438 47.609375 L 320.550781 47.308594 C 316.5 43.183594 312.449219 38.609375 308.550781 33.660156 C 312.976562 32.460938 318.976562 31.257812 325.949219 30.058594 L 326.324219 29.984375 L 326.476562 29.683594 C 329.625 23.609375 332.851562 18.058594 335.550781 13.933594 C 338.324219 17.984375 341.476562 23.535156 344.625 29.683594 L 344.773438 29.984375 L 345.148438 30.058594 C 352.125 31.257812 358.125 32.460938 362.550781 33.660156 C 358.5 38.683594 354.523438 43.257812 350.398438 47.382812 Z M 350.398438 47.382812 " fill-opacity="1" fill-rule="nonzero"/></g><g clip-path="url(#edc27379da)"><path fill="#fffefe" d="M 289.648438 32.160156 L 286.5 31.257812 C 282.148438 30.058594 276 28.710938 268.726562 27.507812 C 265.425781 21.210938 262.125 15.585938 259.351562 11.535156 L 257.550781 8.910156 L 255.75 11.535156 C 252.976562 15.585938 249.601562 21.210938 246.375 27.507812 C 239.101562 28.710938 233.023438 30.058594 228.601562 31.257812 L 225.449219 32.160156 L 227.476562 34.710938 C 231.449219 39.734375 235.574219 44.460938 239.699219 48.660156 C 238.875 54.734375 238.273438 60.882812 237.898438 66.507812 L 237.675781 70.183594 L 241.050781 68.683594 C 243.449219 67.558594 245.851562 66.507812 248.398438 65.460938 C 251.398438 64.183594 254.398438 62.835938 257.625 61.335938 C 260.851562 62.835938 263.925781 64.183594 266.851562 65.460938 C 269.398438 66.585938 271.875 67.632812 274.199219 68.683594 L 277.574219 70.183594 L 277.351562 66.507812 C 276.976562 60.882812 276.300781 54.734375 275.550781 48.660156 C 279.675781 44.382812 283.726562 39.734375 287.773438 34.710938 Z M 272.550781 47.382812 L 272.324219 47.609375 L 272.398438 47.984375 C 273.226562 53.910156 273.824219 59.910156 274.273438 65.460938 C 272.25 64.558594 270.148438 63.660156 268.050781 62.683594 C 264.824219 61.257812 261.449219 59.835938 257.925781 58.183594 L 257.625 58.035156 L 257.324219 58.183594 C 253.800781 59.835938 250.425781 61.257812 247.199219 62.683594 C 245.023438 63.585938 243 64.484375 240.976562 65.460938 C 241.425781 59.683594 242.023438 53.835938 242.851562 47.984375 L 242.925781 47.609375 L 242.699219 47.308594 C 238.648438 43.183594 234.601562 38.609375 230.699219 33.660156 C 235.125 32.460938 241.125 31.257812 248.101562 30.058594 L 248.476562 29.984375 L 248.625 29.683594 C 251.773438 23.609375 255 18.058594 257.699219 13.933594 C 260.476562 17.984375 263.625 23.535156 266.773438 29.683594 L 266.925781 29.984375 L 267.300781 30.058594 C 274.273438 31.257812 280.273438 32.460938 284.699219 33.660156 C 280.648438 38.683594 276.675781 43.257812 272.550781 47.382812 Z M 272.550781 47.382812 " fill-opacity="1" fill-rule="nonzero"/></g></svg>