<svg xmlns="http://www.w3.org/2000/svg" xmlns:xlink="http://www.w3.org/1999/xlink" width="500" zoomAndPan="magnify" viewBox="0 0 375 74.999997" height="100" preserveAspectRatio="xMidYMid meet" version="1.0"><defs><clipPath id="4ff01adff0"><path d="M 7.5 8.023438 L 70 8.023438 L 70 67 L 7.5 67 Z M 7.5 8.023438 " clip-rule="nonzero"/></clipPath><clipPath id="e3a67297c3"><path d="M 82 8.023438 L 145 8.023438 L 145 67 L 82 67 Z M 82 8.023438 " clip-rule="nonzero"/></clipPath><clipPath id="9a3abd8d47"><path d="M 156 8.023438 L 218 8.023438 L 218 67 L 156 67 Z M 156 8.023438 " clip-rule="nonzero"/></clipPath><clipPath id="96f8fdf027"><path d="M 305 8.023438 L 367.5 8.023438 L 367.5 67 L 305 67 Z M 305 8.023438 " clip-rule="nonzero"/></clipPath><clipPath id="63e7afb6aa"><path d="M 231 8.023438 L 293 8.023438 L 293 67 L 231 67 Z M 231 8.023438 " clip-rule="nonzero"/></clipPath></defs><g clip-path="url(#4ff01adff0)"><path fill="#fffefe" d="M 51.78125 64.246094 C 49.765625 63.308594 47.746094 62.445312 45.589844 61.507812 C 43.210938 60.5 40.835938 59.421875 38.316406 58.269531 C 35.796875 59.421875 33.421875 60.429688 31.117188 61.4375 C 28.957031 62.375 26.867188 63.308594 24.851562 64.246094 L 19.164062 66.835938 L 19.597656 60.574219 C 19.882812 56.039062 20.386719 50.996094 21.035156 46.03125 C 17.578125 42.574219 14.269531 38.6875 10.957031 34.582031 L 7.5 30.261719 L 12.898438 28.75 C 16.5 27.742188 21.539062 26.660156 27.445312 25.652344 C 30.179688 20.542969 32.914062 15.863281 35.21875 12.550781 L 38.316406 8.085938 L 41.410156 12.550781 C 43.714844 15.863281 46.453125 20.542969 49.1875 25.652344 C 55.09375 26.660156 60.058594 27.742188 63.730469 28.75 L 69.132812 30.261719 L 65.605469 34.652344 C 62.363281 38.757812 58.980469 42.644531 55.667969 46.101562 C 56.316406 51.070312 56.820312 56.109375 57.109375 60.644531 L 57.539062 66.910156 Z M 51.78125 64.246094 " fill-opacity="1" fill-rule="nonzero"/></g><g clip-path="url(#e3a67297c3)"><path fill="#fffefe" d="M 126.515625 64.246094 C 124.5 63.308594 122.484375 62.445312 120.324219 61.507812 C 117.949219 60.5 115.570312 59.421875 113.050781 58.269531 C 110.53125 59.421875 108.15625 60.429688 105.851562 61.4375 C 103.691406 62.375 101.605469 63.308594 99.589844 64.246094 L 93.898438 66.835938 L 94.332031 60.574219 C 94.621094 56.039062 95.125 50.996094 95.773438 46.03125 C 92.460938 42.5 89.074219 38.6875 85.835938 34.582031 L 82.378906 30.261719 L 87.78125 28.75 C 91.378906 27.742188 96.421875 26.660156 102.324219 25.652344 C 105.058594 20.542969 107.796875 15.863281 110.101562 12.550781 L 113.195312 8.085938 L 116.292969 12.550781 C 118.597656 15.863281 121.332031 20.542969 124.066406 25.652344 C 129.972656 26.660156 134.941406 27.742188 138.613281 28.75 L 144.011719 30.261719 L 140.484375 34.652344 C 137.242188 38.757812 133.859375 42.644531 130.546875 46.101562 C 131.195312 51.070312 131.699219 56.109375 131.988281 60.644531 L 132.421875 66.910156 Z M 126.515625 64.246094 " fill-opacity="1" fill-rule="nonzero"/></g><g clip-path="url(#9a3abd8d47)"><path fill="#fffefe" d="M 200.386719 64.316406 C 198.371094 63.382812 196.355469 62.519531 194.195312 61.582031 C 191.820312 60.574219 189.445312 59.492188 186.925781 58.339844 C 184.402344 59.492188 182.027344 60.5 179.722656 61.507812 C 177.5625 62.445312 175.476562 63.382812 173.460938 64.316406 L 167.773438 66.910156 L 168.203125 60.644531 C 168.492188 56.109375 168.996094 51.070312 169.644531 46.101562 C 166.332031 42.574219 162.949219 38.757812 159.707031 34.652344 L 156.253906 30.261719 L 161.652344 28.75 C 165.253906 27.742188 170.292969 26.660156 176.195312 25.652344 C 178.933594 20.542969 181.667969 15.863281 183.972656 12.550781 L 187.066406 8.085938 L 190.164062 12.550781 C 192.46875 15.863281 195.203125 20.542969 197.941406 25.652344 C 203.84375 26.660156 208.8125 27.742188 212.484375 28.75 L 217.882812 30.261719 L 214.355469 34.652344 C 211.117188 38.757812 207.730469 42.644531 204.421875 46.101562 C 205.066406 51.070312 205.570312 56.109375 205.859375 60.644531 L 206.292969 66.910156 Z M 200.386719 64.316406 " fill-opacity="1" fill-rule="nonzero"/></g><g clip-path="url(#96f8fdf027)"><path fill="#fffefe" d="M 367.5 30.40625 L 364.476562 29.542969 C 360.300781 28.390625 354.394531 27.09375 347.410156 25.941406 C 344.242188 19.894531 341.074219 14.492188 338.410156 10.605469 L 336.683594 8.085938 L 334.957031 10.605469 C 332.292969 14.492188 329.050781 19.894531 325.957031 25.941406 C 318.972656 27.09375 313.140625 28.390625 308.890625 29.542969 L 305.867188 30.40625 L 307.8125 32.855469 C 311.628906 37.675781 315.589844 42.214844 319.546875 46.246094 C 318.757812 52.078125 318.179688 57.980469 317.820312 63.382812 L 317.605469 66.910156 L 320.84375 65.46875 C 323.148438 64.390625 325.453125 63.382812 327.898438 62.375 C 330.78125 61.148438 333.660156 59.855469 336.757812 58.414062 C 339.851562 59.855469 342.804688 61.148438 345.613281 62.375 C 348.058594 63.453125 350.4375 64.460938 352.667969 65.46875 L 355.90625 66.910156 L 355.691406 63.382812 C 355.332031 57.980469 354.683594 52.078125 353.964844 46.246094 C 357.925781 42.140625 361.8125 37.675781 365.699219 32.855469 Z M 351.085938 45.023438 L 350.867188 45.238281 L 350.941406 45.597656 C 351.730469 51.285156 352.308594 57.046875 352.738281 62.375 C 350.796875 61.507812 348.78125 60.644531 346.765625 59.710938 C 343.667969 58.339844 340.429688 56.972656 337.042969 55.390625 L 336.757812 55.246094 L 336.46875 55.390625 C 333.085938 56.972656 329.84375 58.339844 326.746094 59.710938 C 324.660156 60.574219 322.714844 61.4375 320.773438 62.375 C 321.203125 56.828125 321.78125 51.214844 322.570312 45.597656 L 322.644531 45.238281 L 322.429688 44.949219 C 318.539062 40.988281 314.652344 36.597656 310.90625 31.84375 C 315.15625 30.695312 320.917969 29.542969 327.613281 28.390625 L 327.972656 28.316406 L 328.117188 28.03125 C 331.140625 22.199219 334.234375 16.871094 336.828125 12.910156 C 339.492188 16.796875 342.515625 22.125 345.539062 28.03125 L 345.683594 28.316406 L 346.042969 28.390625 C 352.738281 29.542969 358.5 30.695312 362.75 31.84375 C 358.859375 36.667969 355.042969 41.0625 351.085938 45.023438 Z M 351.085938 45.023438 " fill-opacity="1" fill-rule="nonzero"/></g><g clip-path="url(#63e7afb6aa)"><path fill="#fffefe" d="M 292.765625 30.40625 L 289.738281 29.542969 C 285.5625 28.390625 279.660156 27.09375 272.675781 25.941406 C 269.507812 19.894531 266.339844 14.492188 263.675781 10.605469 L 261.949219 8.085938 L 260.21875 10.605469 C 257.554688 14.492188 254.316406 19.894531 251.21875 25.941406 C 244.234375 27.09375 238.402344 28.390625 234.15625 29.542969 L 231.132812 30.40625 L 233.074219 32.855469 C 236.890625 37.675781 240.851562 42.214844 244.8125 46.246094 C 244.019531 52.078125 243.445312 57.980469 243.082031 63.382812 L 242.867188 66.910156 L 246.109375 65.46875 C 248.410156 64.390625 250.714844 63.382812 253.164062 62.375 C 256.042969 61.148438 258.925781 59.855469 262.019531 58.414062 C 265.117188 59.855469 268.066406 61.148438 270.875 62.375 C 273.324219 63.453125 275.699219 64.460938 277.933594 65.46875 L 281.171875 66.910156 L 280.957031 63.382812 C 280.597656 57.980469 279.949219 52.078125 279.226562 46.246094 C 283.1875 42.140625 287.074219 37.675781 290.964844 32.855469 Z M 276.347656 45.023438 L 276.132812 45.238281 L 276.203125 45.597656 C 276.996094 51.285156 277.570312 57.046875 278.003906 62.375 C 276.058594 61.507812 274.042969 60.644531 272.027344 59.710938 C 268.933594 58.339844 265.691406 56.972656 262.308594 55.390625 L 262.019531 55.246094 L 261.730469 55.390625 C 258.347656 56.972656 255.109375 58.339844 252.011719 59.710938 C 249.925781 60.574219 247.980469 61.4375 246.035156 62.375 C 246.46875 56.828125 247.042969 51.214844 247.835938 45.597656 L 247.90625 45.238281 L 247.691406 44.949219 C 243.804688 40.988281 239.917969 36.597656 236.171875 31.84375 C 240.421875 30.695312 246.179688 29.542969 252.875 28.390625 L 253.234375 28.316406 L 253.378906 28.03125 C 256.402344 22.199219 259.5 16.871094 262.09375 12.910156 C 264.757812 16.796875 267.78125 22.125 270.804688 28.03125 L 270.949219 28.316406 L 271.308594 28.390625 C 278.003906 29.542969 283.765625 30.695312 288.011719 31.84375 C 284.125 36.667969 280.308594 41.0625 276.347656 45.023438 Z M 276.347656 45.023438 " fill-opacity="1" fill-rule="nonzero"/></g></svg>