<svg xmlns="http://www.w3.org/2000/svg" xmlns:xlink="http://www.w3.org/1999/xlink" width="500" zoomAndPan="magnify" viewBox="0 0 375 74.999997" height="100" preserveAspectRatio="xMidYMid meet" version="1.0"><defs><clipPath id="74a19b953e"><path d="M 7.5 7.5 L 70 7.5 L 70 66.75 L 7.5 66.75 Z M 7.5 7.5 " clip-rule="nonzero"/></clipPath><clipPath id="65fe9e2bee"><path d="M 82 7.5 L 145 7.5 L 145 66.75 L 82 66.75 Z M 82 7.5 " clip-rule="nonzero"/></clipPath><clipPath id="c8e2f75a62"><path d="M 305 7.5 L 367.5 7.5 L 367.5 66.75 L 305 66.75 Z M 305 7.5 " clip-rule="nonzero"/></clipPath><clipPath id="94eda3bdf8"><path d="M 231 7.5 L 293 7.5 L 293 66.75 L 231 66.75 Z M 231 7.5 " clip-rule="nonzero"/></clipPath><clipPath id="ede3f81f4a"><path d="M 156 7.5 L 218 7.5 L 218 66.75 L 156 66.75 Z M 156 7.5 " clip-rule="nonzero"/></clipPath></defs><g clip-path="url(#74a19b953e)"><path fill="#fffefe" d="M 51.78125 63.757812 C 49.765625 62.820312 47.746094 61.957031 45.589844 61.019531 C 43.210938 60.011719 40.835938 58.933594 38.316406 57.78125 C 35.796875 58.933594 33.421875 59.941406 31.117188 60.949219 C 28.957031 61.882812 26.867188 62.820312 24.851562 63.757812 L 19.164062 66.347656 L 19.597656 60.085938 C 19.882812 55.546875 20.386719 50.507812 21.035156 45.539062 C 17.578125 42.085938 14.269531 38.195312 10.957031 34.09375 L 7.5 29.773438 L 12.898438 28.261719 C 16.5 27.253906 21.539062 26.171875 27.445312 25.164062 C 30.179688 20.050781 32.914062 15.371094 35.21875 12.0625 L 38.316406 7.597656 L 41.410156 12.0625 C 43.714844 15.371094 46.453125 20.050781 49.1875 25.164062 C 55.09375 26.171875 60.058594 27.253906 63.730469 28.261719 L 69.132812 29.773438 L 65.605469 34.164062 C 62.363281 38.269531 58.980469 42.15625 55.667969 45.613281 C 56.316406 50.582031 56.820312 55.621094 57.109375 60.15625 L 57.539062 66.421875 Z M 51.78125 63.757812 " fill-opacity="1" fill-rule="nonzero"/></g><g clip-path="url(#65fe9e2bee)"><path fill="#fffefe" d="M 126.515625 63.757812 C 124.5 62.820312 122.484375 61.957031 120.324219 61.019531 C 117.949219 60.011719 115.570312 58.933594 113.050781 57.78125 C 110.53125 58.933594 108.15625 59.941406 105.851562 60.949219 C 103.691406 61.882812 101.605469 62.820312 99.589844 63.757812 L 93.898438 66.347656 L 94.332031 60.085938 C 94.621094 55.546875 95.125 50.507812 95.773438 45.539062 C 92.460938 42.011719 89.074219 38.195312 85.835938 34.09375 L 82.378906 29.773438 L 87.78125 28.261719 C 91.378906 27.253906 96.421875 26.171875 102.324219 25.164062 C 105.058594 20.050781 107.796875 15.371094 110.101562 12.0625 L 113.195312 7.597656 L 116.292969 12.0625 C 118.597656 15.371094 121.332031 20.050781 124.066406 25.164062 C 129.972656 26.171875 134.941406 27.253906 138.613281 28.261719 L 144.011719 29.773438 L 140.484375 34.164062 C 137.242188 38.269531 133.859375 42.15625 130.546875 45.613281 C 131.195312 50.582031 131.699219 55.621094 131.988281 60.15625 L 132.421875 66.421875 Z M 126.515625 63.757812 " fill-opacity="1" fill-rule="nonzero"/></g><g clip-path="url(#c8e2f75a62)"><path fill="#fffefe" d="M 367.5 29.84375 L 364.476562 28.980469 C 360.300781 27.828125 354.394531 26.53125 347.410156 25.378906 C 344.242188 19.332031 341.074219 13.933594 338.410156 10.042969 L 336.683594 7.523438 L 334.957031 10.042969 C 332.292969 13.933594 329.050781 19.332031 325.957031 25.378906 C 318.972656 26.53125 313.140625 27.828125 308.890625 28.980469 L 305.867188 29.84375 L 307.8125 32.292969 C 311.628906 37.117188 315.589844 41.652344 319.546875 45.683594 C 318.757812 51.515625 318.179688 57.421875 317.820312 62.820312 L 317.605469 66.347656 L 320.84375 64.910156 C 323.148438 63.828125 325.453125 62.820312 327.898438 61.8125 C 330.78125 60.589844 333.660156 59.292969 336.757812 57.851562 C 339.851562 59.292969 342.804688 60.589844 345.613281 61.8125 C 348.058594 62.894531 350.4375 63.902344 352.667969 64.910156 L 355.90625 66.347656 L 355.691406 62.820312 C 355.332031 57.421875 354.683594 51.515625 353.964844 45.683594 C 357.925781 41.582031 361.8125 37.117188 365.699219 32.292969 Z M 351.085938 44.460938 L 350.867188 44.675781 L 350.941406 45.035156 C 351.730469 50.726562 352.308594 56.484375 352.738281 61.8125 C 350.796875 60.949219 348.78125 60.085938 346.765625 59.148438 C 343.667969 57.78125 340.429688 56.414062 337.042969 54.828125 L 336.757812 54.683594 L 336.46875 54.828125 C 333.085938 56.414062 329.84375 57.78125 326.746094 59.148438 C 324.660156 60.011719 322.714844 60.875 320.773438 61.8125 C 321.203125 56.269531 321.78125 50.652344 322.570312 45.035156 L 322.644531 44.675781 L 322.429688 44.386719 C 318.539062 40.429688 314.652344 36.035156 310.90625 31.285156 C 315.15625 30.132812 320.917969 28.980469 327.613281 27.828125 L 327.972656 27.757812 L 328.117188 27.46875 C 331.140625 21.636719 334.234375 16.308594 336.828125 12.347656 C 339.492188 16.238281 342.515625 21.566406 345.539062 27.46875 L 345.683594 27.757812 L 346.042969 27.828125 C 352.738281 28.980469 358.5 30.132812 362.75 31.285156 C 358.859375 36.109375 355.042969 40.5 351.085938 44.460938 Z M 351.085938 44.460938 " fill-opacity="1" fill-rule="nonzero"/></g><g clip-path="url(#94eda3bdf8)"><path fill="#fffefe" d="M 292.765625 29.84375 L 289.738281 28.980469 C 285.5625 27.828125 279.660156 26.53125 272.675781 25.378906 C 269.507812 19.332031 266.339844 13.933594 263.675781 10.042969 L 261.949219 7.523438 L 260.21875 10.042969 C 257.554688 13.933594 254.316406 19.332031 251.21875 25.378906 C 244.234375 26.53125 238.402344 27.828125 234.15625 28.980469 L 231.132812 29.84375 L 233.074219 32.292969 C 236.890625 37.117188 240.851562 41.652344 244.8125 45.683594 C 244.019531 51.515625 243.445312 57.421875 243.082031 62.820312 L 242.867188 66.347656 L 246.109375 64.910156 C 248.410156 63.828125 250.714844 62.820312 253.164062 61.8125 C 256.042969 60.589844 258.925781 59.292969 262.019531 57.851562 C 265.117188 59.292969 268.066406 60.589844 270.875 61.8125 C 273.324219 62.894531 275.699219 63.902344 277.933594 64.910156 L 281.171875 66.347656 L 280.957031 62.820312 C 280.597656 57.421875 279.949219 51.515625 279.226562 45.683594 C 283.1875 41.582031 287.074219 37.117188 290.964844 32.292969 Z M 276.347656 44.460938 L 276.132812 44.675781 L 276.203125 45.035156 C 276.996094 50.726562 277.570312 56.484375 278.003906 61.8125 C 276.058594 60.949219 274.042969 60.085938 272.027344 59.148438 C 268.933594 57.78125 265.691406 56.414062 262.308594 54.828125 L 262.019531 54.683594 L 261.730469 54.828125 C 258.347656 56.414062 255.109375 57.78125 252.011719 59.148438 C 249.925781 60.011719 247.980469 60.875 246.035156 61.8125 C 246.46875 56.269531 247.042969 50.652344 247.835938 45.035156 L 247.90625 44.675781 L 247.691406 44.386719 C 243.804688 40.429688 239.917969 36.035156 236.171875 31.285156 C 240.421875 30.132812 246.179688 28.980469 252.875 27.828125 L 253.234375 27.757812 L 253.378906 27.46875 C 256.402344 21.636719 259.5 16.308594 262.09375 12.347656 C 264.757812 16.238281 267.78125 21.566406 270.804688 27.46875 L 270.949219 27.757812 L 271.308594 27.828125 C 278.003906 28.980469 283.765625 30.132812 288.011719 31.285156 C 284.125 36.109375 280.308594 40.5 276.347656 44.460938 Z M 276.347656 44.460938 " fill-opacity="1" fill-rule="nonzero"/></g><g clip-path="url(#ede3f81f4a)"><path fill="#fffefe" d="M 217.882812 29.84375 L 214.859375 28.980469 C 210.683594 27.828125 204.78125 26.53125 197.796875 25.378906 C 194.628906 19.332031 191.460938 13.933594 188.796875 10.042969 L 187.066406 7.523438 L 185.339844 10.042969 C 182.675781 13.933594 179.4375 19.332031 176.339844 25.378906 C 169.355469 26.53125 163.523438 27.828125 159.277344 28.980469 L 156.253906 29.84375 L 158.195312 32.292969 C 162.011719 37.117188 165.972656 41.652344 169.933594 45.683594 C 169.140625 51.515625 168.5625 57.421875 168.203125 62.820312 L 167.988281 66.347656 L 171.226562 64.910156 C 173.53125 63.828125 175.835938 62.820312 178.285156 61.8125 C 181.164062 60.589844 184.042969 59.292969 187.140625 57.851562 C 190.234375 59.292969 193.1875 60.589844 195.996094 61.8125 C 198.445312 62.894531 200.820312 63.902344 203.050781 64.910156 L 206.292969 66.347656 L 206.074219 62.820312 C 205.714844 57.421875 205.066406 51.515625 204.347656 45.683594 C 208.308594 41.582031 212.195312 37.117188 216.085938 32.292969 Z M 201.46875 44.460938 L 201.253906 44.675781 L 201.324219 45.035156 C 202.117188 50.726562 202.691406 56.484375 203.125 61.8125 C 201.179688 60.949219 199.164062 60.085938 197.148438 59.148438 C 194.050781 57.78125 190.8125 56.414062 187.429688 54.828125 L 187.140625 54.683594 L 186.851562 54.828125 C 183.46875 56.414062 180.226562 57.78125 177.132812 59.148438 C 175.042969 60.011719 173.101562 60.875 171.15625 61.8125 C 171.589844 56.269531 172.164062 50.652344 172.957031 45.035156 L 173.027344 44.675781 L 172.8125 44.386719 C 168.925781 40.429688 165.035156 36.035156 161.292969 31.285156 C 165.539062 30.132812 171.300781 28.980469 177.996094 27.828125 L 178.355469 27.757812 L 178.5 27.46875 C 181.523438 21.636719 184.621094 16.308594 187.210938 12.347656 C 189.875 16.238281 192.898438 21.566406 195.925781 27.46875 L 196.066406 27.757812 L 196.429688 27.828125 C 203.125 28.980469 208.882812 30.132812 213.132812 31.285156 C 209.242188 36.109375 205.429688 40.5 201.46875 44.460938 Z M 201.46875 44.460938 " fill-opacity="1" fill-rule="nonzero"/></g></svg>