<svg xmlns="http://www.w3.org/2000/svg" xmlns:xlink="http://www.w3.org/1999/xlink" width="500" zoomAndPan="magnify" viewBox="0 0 375 74.999997" height="100" preserveAspectRatio="xMidYMid meet" version="1.0"><defs><clipPath id="9bcede14bb"><path d="M 1.328125 6.527344 L 66 6.527344 L 66 67.277344 L 1.328125 67.277344 Z M 1.328125 6.527344 " clip-rule="nonzero"/></clipPath><clipPath id="c2dc4046df"><path d="M 78 6.527344 L 143 6.527344 L 143 67.277344 L 78 67.277344 Z M 78 6.527344 " clip-rule="nonzero"/></clipPath><clipPath id="595a248237"><path d="M 309 6.527344 L 373.328125 6.527344 L 373.328125 67.277344 L 309 67.277344 Z M 309 6.527344 " clip-rule="nonzero"/></clipPath><clipPath id="d0573c2725"><path d="M 232 6.527344 L 297 6.527344 L 297 67.277344 L 232 67.277344 Z M 232 6.527344 " clip-rule="nonzero"/></clipPath><clipPath id="4d24dffde3"><path d="M 155 6.527344 L 219 6.527344 L 219 67.277344 L 155 67.277344 Z M 155 6.527344 " clip-rule="nonzero"/></clipPath></defs><g clip-path="url(#9bcede14bb)"><path fill="#fffefe" d="M 47.128906 64.710938 C 45.042969 63.742188 42.957031 62.851562 40.722656 61.882812 C 38.265625 60.839844 35.808594 59.722656 33.203125 58.53125 C 30.597656 59.722656 28.136719 60.765625 25.753906 61.808594 C 23.519531 62.777344 21.363281 63.742188 19.277344 64.710938 L 13.394531 67.394531 L 13.839844 60.914062 C 14.136719 56.222656 14.660156 51.007812 15.328125 45.871094 C 11.753906 42.296875 8.328125 38.277344 4.902344 34.03125 L 1.328125 29.5625 L 6.914062 28 C 10.636719 26.957031 15.851562 25.839844 21.957031 24.796875 C 24.789062 19.507812 27.617188 14.667969 30 11.242188 L 33.203125 6.625 L 36.402344 11.242188 C 38.789062 14.667969 41.617188 19.511719 44.445312 24.796875 C 50.554688 25.839844 55.691406 26.957031 59.488281 28 L 65.074219 29.5625 L 61.425781 34.105469 C 58.074219 38.351562 54.574219 42.371094 51.148438 45.945312 C 51.820312 51.085938 52.339844 56.296875 52.636719 60.988281 L 53.085938 67.46875 Z M 47.128906 64.710938 " fill-opacity="1" fill-rule="nonzero"/></g><g clip-path="url(#c2dc4046df)"><path fill="#fffefe" d="M 124.425781 64.710938 C 122.339844 63.742188 120.253906 62.851562 118.019531 61.882812 C 115.5625 60.839844 113.105469 59.722656 110.5 58.53125 C 107.894531 59.722656 105.4375 60.765625 103.054688 61.808594 C 100.820312 62.777344 98.660156 63.742188 96.574219 64.710938 L 90.691406 67.394531 L 91.136719 60.914062 C 91.4375 56.222656 91.957031 51.007812 92.628906 45.871094 C 89.203125 42.222656 85.703125 38.277344 82.351562 34.03125 L 78.777344 29.5625 L 84.363281 28 C 88.085938 26.957031 93.296875 25.839844 99.402344 24.796875 C 102.234375 19.507812 105.0625 14.667969 107.445312 11.242188 L 110.648438 6.625 L 113.851562 11.242188 C 116.234375 14.667969 119.0625 19.511719 121.894531 24.796875 C 128 25.839844 133.136719 26.957031 136.9375 28 L 142.519531 29.5625 L 138.871094 34.105469 C 135.519531 38.351562 132.019531 42.371094 128.59375 45.945312 C 129.265625 51.085938 129.785156 56.296875 130.085938 60.988281 L 130.53125 67.46875 Z M 124.425781 64.710938 " fill-opacity="1" fill-rule="nonzero"/></g><g clip-path="url(#595a248237)"><path fill="#fffefe" d="M 373.667969 29.636719 L 370.542969 28.742188 C 366.222656 27.550781 360.117188 26.210938 352.894531 25.019531 C 349.617188 18.765625 346.339844 13.179688 343.585938 9.160156 L 341.796875 6.550781 L 340.011719 9.160156 C 337.253906 13.179688 333.902344 18.765625 330.703125 25.019531 C 323.476562 26.210938 317.445312 27.550781 313.050781 28.742188 L 309.925781 29.636719 L 311.9375 32.167969 C 315.882812 37.160156 319.976562 41.851562 324.074219 46.019531 C 323.253906 52.050781 322.660156 58.160156 322.285156 63.742188 L 322.0625 67.394531 L 325.414062 65.902344 C 327.796875 64.785156 330.179688 63.742188 332.710938 62.703125 C 335.691406 61.433594 338.667969 60.09375 341.871094 58.605469 C 345.074219 60.09375 348.128906 61.433594 351.03125 62.703125 C 353.5625 63.816406 356.019531 64.859375 358.328125 65.902344 L 361.679688 67.394531 L 361.457031 63.742188 C 361.085938 58.160156 360.414062 52.050781 359.667969 46.019531 C 363.765625 41.777344 367.785156 37.160156 371.808594 32.167969 Z M 356.691406 44.753906 L 356.46875 44.976562 L 356.542969 45.351562 C 357.359375 51.234375 357.957031 57.191406 358.402344 62.703125 C 356.394531 61.808594 354.308594 60.914062 352.222656 59.945312 C 349.019531 58.53125 345.667969 57.117188 342.167969 55.476562 L 341.871094 55.328125 L 341.574219 55.476562 C 338.074219 57.117188 334.722656 58.53125 331.519531 59.945312 C 329.359375 60.839844 327.351562 61.734375 325.339844 62.703125 C 325.785156 56.96875 326.382812 51.160156 327.203125 45.351562 L 327.277344 44.976562 L 327.054688 44.679688 C 323.03125 40.585938 319.011719 36.042969 315.136719 31.125 C 319.53125 29.933594 325.488281 28.742188 332.414062 27.550781 L 332.785156 27.476562 L 332.9375 27.179688 C 336.0625 21.148438 339.265625 15.636719 341.945312 11.542969 C 344.703125 15.5625 347.828125 21.074219 350.957031 27.179688 L 351.105469 27.476562 L 351.476562 27.550781 C 358.402344 28.742188 364.359375 29.933594 368.753906 31.125 C 364.734375 36.117188 360.785156 40.660156 356.691406 44.753906 Z M 356.691406 44.753906 " fill-opacity="1" fill-rule="nonzero"/></g><g clip-path="url(#d0573c2725)"><path fill="#fffefe" d="M 296.371094 29.636719 L 293.246094 28.742188 C 288.925781 27.550781 282.820312 26.210938 275.59375 25.019531 C 272.320312 18.765625 269.042969 13.179688 266.285156 9.160156 L 264.5 6.550781 L 262.710938 9.160156 C 259.957031 13.179688 256.605469 18.765625 253.402344 25.019531 C 246.179688 26.210938 240.148438 27.550781 235.753906 28.742188 L 232.628906 29.636719 L 234.636719 32.167969 C 238.585938 37.160156 242.679688 41.851562 246.777344 46.019531 C 245.957031 52.050781 245.359375 58.160156 244.988281 63.742188 L 244.765625 67.394531 L 248.117188 65.902344 C 250.5 64.785156 252.882812 63.742188 255.414062 62.703125 C 258.394531 61.433594 261.371094 60.09375 264.574219 58.605469 C 267.777344 60.09375 270.828125 61.433594 273.734375 62.703125 C 276.265625 63.816406 278.722656 64.859375 281.03125 65.902344 L 284.382812 67.394531 L 284.160156 63.742188 C 283.785156 58.160156 283.117188 52.050781 282.371094 46.019531 C 286.46875 41.777344 290.488281 37.160156 294.511719 32.167969 Z M 279.394531 44.753906 L 279.167969 44.976562 L 279.246094 45.351562 C 280.0625 51.234375 280.660156 57.191406 281.105469 62.703125 C 279.09375 61.808594 277.011719 60.914062 274.925781 59.945312 C 271.722656 58.53125 268.371094 57.117188 264.871094 55.476562 L 264.574219 55.328125 L 264.277344 55.476562 C 260.777344 57.117188 257.425781 58.53125 254.222656 59.945312 C 252.0625 60.839844 250.054688 61.734375 248.042969 62.703125 C 248.488281 56.96875 249.085938 51.160156 249.902344 45.351562 L 249.976562 44.976562 L 249.753906 44.679688 C 245.734375 40.585938 241.710938 36.042969 237.839844 31.125 C 242.234375 29.933594 248.191406 28.742188 255.117188 27.550781 L 255.488281 27.476562 L 255.636719 27.179688 C 258.765625 21.148438 261.96875 15.636719 264.648438 11.542969 C 267.402344 15.5625 270.53125 21.074219 273.660156 27.179688 L 273.808594 27.476562 L 274.179688 27.550781 C 281.105469 28.742188 287.0625 29.933594 291.457031 31.125 C 287.4375 36.117188 283.488281 40.660156 279.394531 44.753906 Z M 279.394531 44.753906 " fill-opacity="1" fill-rule="nonzero"/></g><g clip-path="url(#4d24dffde3)"><path fill="#fffefe" d="M 218.925781 29.636719 L 215.796875 28.742188 C 211.476562 27.550781 205.371094 26.210938 198.148438 25.019531 C 194.871094 18.765625 191.59375 13.179688 188.839844 9.160156 L 187.054688 6.550781 L 185.265625 9.160156 C 182.511719 13.179688 179.160156 18.765625 175.957031 25.019531 C 168.734375 26.210938 162.703125 27.550781 158.308594 28.742188 L 155.179688 29.636719 L 157.191406 32.167969 C 161.136719 37.160156 165.234375 41.851562 169.328125 46.019531 C 168.511719 52.050781 167.914062 58.160156 167.542969 63.742188 L 167.320312 67.394531 L 170.671875 65.902344 C 173.054688 64.785156 175.4375 63.742188 177.96875 62.703125 C 180.945312 61.433594 183.925781 60.09375 187.128906 58.605469 C 190.328125 60.09375 193.382812 61.433594 196.285156 62.703125 C 198.820312 63.816406 201.277344 64.859375 203.585938 65.902344 L 206.9375 67.394531 L 206.710938 63.742188 C 206.339844 58.160156 205.667969 52.050781 204.925781 46.019531 C 209.019531 41.777344 213.042969 37.160156 217.0625 32.167969 Z M 201.945312 44.753906 L 201.722656 44.976562 L 201.796875 45.351562 C 202.617188 51.234375 203.210938 57.191406 203.660156 62.703125 C 201.648438 61.808594 199.5625 60.914062 197.476562 59.945312 C 194.277344 58.53125 190.925781 57.117188 187.425781 55.476562 L 187.128906 55.328125 L 186.828125 55.476562 C 183.328125 57.117188 179.976562 58.53125 176.777344 59.945312 C 174.617188 60.839844 172.605469 61.734375 170.59375 62.703125 C 171.042969 56.96875 171.636719 51.160156 172.457031 45.351562 L 172.53125 44.976562 L 172.308594 44.679688 C 168.285156 40.585938 164.265625 36.042969 160.394531 31.125 C 164.785156 29.933594 170.746094 28.742188 177.671875 27.550781 L 178.042969 27.476562 L 178.191406 27.179688 C 181.320312 21.148438 184.519531 15.636719 187.203125 11.542969 C 189.957031 15.5625 193.085938 21.074219 196.210938 27.179688 L 196.363281 27.476562 L 196.734375 27.550781 C 203.660156 28.742188 209.617188 29.933594 214.011719 31.125 C 209.988281 36.117188 206.042969 40.660156 201.945312 44.753906 Z M 201.945312 44.753906 " fill-opacity="1" fill-rule="nonzero"/></g></svg>