<svg xmlns="http://www.w3.org/2000/svg" xmlns:xlink="http://www.w3.org/1999/xlink" width="500" zoomAndPan="magnify" viewBox="0 0 375 374.999991" height="500" preserveAspectRatio="xMidYMid meet" version="1.0"><defs><clipPath id="619938ab75"><path d="M 113 173.4375 L 142 173.4375 L 142 201.9375 L 113 201.9375 Z M 113 173.4375 " clip-rule="nonzero"/></clipPath><clipPath id="89f36183b7"><path d="M 143 173.4375 L 172 173.4375 L 172 201.9375 L 143 201.9375 Z M 143 173.4375 " clip-rule="nonzero"/></clipPath><clipPath id="e767105a36"><path d="M 173 173.4375 L 202 173.4375 L 202 201.9375 L 173 201.9375 Z M 173 173.4375 " clip-rule="nonzero"/></clipPath><clipPath id="32fc85d6af"><path d="M 203 173.4375 L 232 173.4375 L 232 201.9375 L 203 201.9375 Z M 203 173.4375 " clip-rule="nonzero"/></clipPath><clipPath id="e408a760a0"><path d="M 233 173.4375 L 262.5 173.4375 L 262.5 201.9375 L 233 201.9375 Z M 233 173.4375 " clip-rule="nonzero"/></clipPath><clipPath id="737e420760"><path d="M 113 173.4375 L 141 173.4375 L 141 200 L 113 200 Z M 113 173.4375 " clip-rule="nonzero"/></clipPath><clipPath id="c757fbdda9"><path d="M 143 173.4375 L 171 173.4375 L 171 200 L 143 200 Z M 143 173.4375 " clip-rule="nonzero"/></clipPath><clipPath id="f72eb599bf"><path d="M 173 173.4375 L 201 173.4375 L 201 200 L 173 200 Z M 173 173.4375 " clip-rule="nonzero"/></clipPath><clipPath id="f936529bd2"><path d="M 203 173.4375 L 231 173.4375 L 231 200 L 203 200 Z M 203 173.4375 " clip-rule="nonzero"/></clipPath><clipPath id="93a4545a0d"><path d="M 233 173.4375 L 261 173.4375 L 261 200 L 233 200 Z M 233 173.4375 " clip-rule="nonzero"/></clipPath></defs><g clip-path="url(#619938ab75)"><path fill="#ffbe0d" d="M 136.246094 190.800781 C 135.765625 191.269531 135.546875 191.949219 135.664062 192.613281 L 136.734375 198.949219 C 137.019531 200.625 135.28125 201.898438 133.796875 201.109375 L 128.183594 198.117188 C 127.59375 197.804688 126.886719 197.804688 126.296875 198.117188 L 120.683594 201.109375 C 119.347656 201.820312 117.808594 200.859375 117.726562 199.4375 C 117.710938 199.28125 117.722656 199.117188 117.75 198.949219 L 118.820312 192.613281 C 118.933594 191.949219 118.714844 191.269531 118.238281 190.800781 L 113.695312 186.3125 C 112.492188 185.125 113.160156 183.058594 114.820312 182.8125 L 121.09375 181.890625 C 121.753906 181.792969 122.320312 181.375 122.617188 180.769531 L 125.425781 175.003906 C 126.167969 173.476562 128.308594 173.476562 129.054688 175.003906 L 131.863281 180.769531 C 132.15625 181.371094 132.726562 181.792969 133.382812 181.890625 L 139.664062 182.8125 C 139.824219 182.835938 139.972656 182.878906 140.109375 182.933594 C 141.433594 183.445312 141.871094 185.234375 140.785156 186.3125 Z M 136.246094 190.800781 " fill-opacity="1" fill-rule="nonzero"/></g><g clip-path="url(#89f36183b7)"><path fill="#ffbe0d" d="M 166.402344 190.800781 C 165.921875 191.269531 165.707031 191.949219 165.820312 192.613281 L 166.890625 198.949219 C 167.175781 200.625 165.4375 201.898438 163.957031 201.109375 L 158.339844 198.117188 C 157.75 197.804688 157.046875 197.804688 156.457031 198.117188 L 150.839844 201.109375 C 149.503906 201.820312 147.964844 200.859375 147.882812 199.4375 C 147.867188 199.28125 147.878906 199.117188 147.90625 198.949219 L 148.980469 192.613281 C 149.089844 191.949219 148.871094 191.269531 148.394531 190.800781 L 143.851562 186.3125 C 142.648438 185.125 143.316406 183.058594 144.976562 182.8125 L 151.253906 181.890625 C 151.910156 181.792969 152.480469 181.375 152.773438 180.769531 L 155.582031 175.003906 C 156.324219 173.476562 158.46875 173.476562 159.210938 175.003906 L 162.019531 180.769531 C 162.3125 181.371094 162.882812 181.792969 163.539062 181.890625 L 169.820312 182.8125 C 169.980469 182.835938 170.128906 182.878906 170.269531 182.933594 C 171.59375 183.445312 172.027344 185.234375 170.941406 186.3125 Z M 166.402344 190.800781 " fill-opacity="1" fill-rule="nonzero"/></g><g clip-path="url(#e767105a36)"><path fill="#ffbe0d" d="M 196.558594 190.800781 C 196.078125 191.269531 195.859375 191.949219 195.972656 192.613281 L 197.046875 198.949219 C 197.332031 200.625 195.59375 201.898438 194.109375 201.109375 L 188.496094 198.117188 C 187.90625 197.804688 187.199219 197.804688 186.609375 198.117188 L 180.996094 201.109375 C 179.660156 201.820312 178.121094 200.859375 178.035156 199.4375 C 178.023438 199.28125 178.035156 199.117188 178.058594 198.949219 L 179.132812 192.613281 C 179.242188 191.949219 179.027344 191.269531 178.550781 190.800781 L 174.007812 186.3125 C 172.804688 185.125 173.46875 183.058594 175.128906 182.8125 L 181.40625 181.890625 C 182.066406 181.792969 182.632812 181.375 182.929688 180.769531 L 185.738281 175.003906 C 186.480469 173.476562 188.621094 173.476562 189.367188 175.003906 L 192.175781 180.769531 C 192.46875 181.371094 193.035156 181.792969 193.695312 181.890625 L 199.976562 182.8125 C 200.132812 182.835938 200.285156 182.878906 200.421875 182.933594 C 201.746094 183.445312 202.183594 185.234375 201.097656 186.3125 Z M 196.558594 190.800781 " fill-opacity="1" fill-rule="nonzero"/></g><g clip-path="url(#32fc85d6af)"><path fill="#ffbe0d" d="M 226.714844 190.800781 C 226.234375 191.269531 226.015625 191.949219 226.132812 192.613281 L 227.203125 198.949219 C 227.488281 200.625 225.75 201.898438 224.265625 201.109375 L 218.652344 198.117188 C 218.0625 197.804688 217.359375 197.804688 216.765625 198.117188 L 211.152344 201.109375 C 209.816406 201.820312 208.277344 200.859375 208.195312 199.4375 C 208.179688 199.28125 208.191406 199.117188 208.21875 198.949219 L 209.289062 192.613281 C 209.402344 191.949219 209.183594 191.269531 208.707031 190.800781 L 204.164062 186.3125 C 202.960938 185.125 203.628906 183.058594 205.289062 182.8125 L 211.5625 181.890625 C 212.222656 181.792969 212.792969 181.375 213.085938 180.769531 L 215.894531 175.003906 C 216.636719 173.476562 218.777344 173.476562 219.523438 175.003906 L 222.332031 180.769531 C 222.625 181.371094 223.195312 181.792969 223.851562 181.890625 L 230.132812 182.8125 C 230.292969 182.835938 230.441406 182.878906 230.582031 182.933594 C 231.90625 183.445312 232.339844 185.234375 231.253906 186.3125 Z M 226.714844 190.800781 " fill-opacity="1" fill-rule="nonzero"/></g><g clip-path="url(#e408a760a0)"><path fill="#ffbe0d" d="M 256.867188 190.800781 C 256.390625 191.269531 256.171875 191.949219 256.285156 192.613281 L 257.359375 198.949219 C 257.644531 200.625 255.90625 201.898438 254.421875 201.109375 L 248.808594 198.117188 C 248.21875 197.804688 247.511719 197.804688 246.921875 198.117188 L 241.308594 201.109375 C 239.972656 201.820312 238.433594 200.859375 238.347656 199.4375 C 238.335938 199.28125 238.34375 199.117188 238.371094 198.949219 L 239.445312 192.613281 C 239.554688 191.949219 239.335938 191.269531 238.863281 190.800781 L 234.320312 186.3125 C 233.117188 185.125 233.78125 183.058594 235.441406 182.8125 L 241.71875 181.890625 C 242.378906 181.792969 242.945312 181.375 243.242188 180.769531 L 246.050781 175.003906 C 246.792969 173.476562 248.933594 173.476562 249.679688 175.003906 L 252.488281 180.769531 C 252.78125 181.371094 253.347656 181.792969 254.007812 181.890625 L 260.289062 182.8125 C 260.445312 182.835938 260.597656 182.878906 260.734375 182.933594 C 262.058594 183.445312 262.496094 185.234375 261.410156 186.3125 Z M 256.867188 190.800781 " fill-opacity="1" fill-rule="nonzero"/></g><g clip-path="url(#737e420760)"><path fill="#ffce00" d="M 140.113281 182.933594 C 135.140625 191.066406 127.152344 197.105469 117.726562 199.4375 C 117.710938 199.28125 117.722656 199.117188 117.75 198.949219 L 118.820312 192.613281 C 118.933594 191.949219 118.714844 191.269531 118.238281 190.800781 L 113.695312 186.3125 C 112.492188 185.125 113.160156 183.058594 114.820312 182.8125 L 121.09375 181.890625 C 121.753906 181.792969 122.320312 181.375 122.617188 180.769531 L 125.425781 175.003906 C 126.167969 173.476562 128.308594 173.476562 129.054688 175.003906 L 131.863281 180.769531 C 132.15625 181.371094 132.726562 181.792969 133.382812 181.890625 L 139.664062 182.8125 C 139.828125 182.835938 139.972656 182.875 140.113281 182.933594 Z M 140.113281 182.933594 " fill-opacity="1" fill-rule="nonzero"/></g><g clip-path="url(#c757fbdda9)"><path fill="#ffce00" d="M 170.269531 182.933594 C 165.300781 191.066406 157.308594 197.105469 147.882812 199.4375 C 147.867188 199.28125 147.878906 199.117188 147.90625 198.949219 L 148.980469 192.613281 C 149.089844 191.949219 148.871094 191.269531 148.394531 190.800781 L 143.851562 186.3125 C 142.648438 185.125 143.316406 183.058594 144.976562 182.8125 L 151.253906 181.890625 C 151.910156 181.792969 152.480469 181.375 152.773438 180.769531 L 155.582031 175.003906 C 156.324219 173.476562 158.46875 173.476562 159.210938 175.003906 L 162.019531 180.769531 C 162.3125 181.371094 162.882812 181.792969 163.539062 181.890625 L 169.820312 182.8125 C 169.980469 182.835938 170.132812 182.875 170.269531 182.933594 Z M 170.269531 182.933594 " fill-opacity="1" fill-rule="nonzero"/></g><g clip-path="url(#f72eb599bf)"><path fill="#ffce00" d="M 200.425781 182.933594 C 195.453125 191.066406 187.464844 197.105469 178.035156 199.4375 C 178.023438 199.28125 178.035156 199.117188 178.058594 198.949219 L 179.132812 192.613281 C 179.242188 191.949219 179.027344 191.269531 178.550781 190.800781 L 174.007812 186.3125 C 172.804688 185.125 173.46875 183.058594 175.128906 182.8125 L 181.40625 181.890625 C 182.066406 181.792969 182.632812 181.375 182.929688 180.769531 L 185.738281 175.003906 C 186.480469 173.476562 188.621094 173.476562 189.367188 175.003906 L 192.175781 180.769531 C 192.46875 181.371094 193.035156 181.792969 193.695312 181.890625 L 199.976562 182.8125 C 200.136719 182.835938 200.285156 182.875 200.425781 182.933594 Z M 200.425781 182.933594 " fill-opacity="1" fill-rule="nonzero"/></g><g clip-path="url(#f936529bd2)"><path fill="#ffce00" d="M 230.582031 182.933594 C 225.609375 191.066406 217.617188 197.105469 208.191406 199.4375 C 208.179688 199.28125 208.1875 199.117188 208.214844 198.949219 L 209.289062 192.613281 C 209.398438 191.949219 209.179688 191.269531 208.707031 190.800781 L 204.164062 186.3125 C 202.960938 185.125 203.625 183.058594 205.285156 182.8125 L 211.5625 181.890625 C 212.222656 181.792969 212.789062 181.375 213.082031 180.769531 L 215.894531 175.003906 C 216.636719 173.476562 218.777344 173.476562 219.523438 175.003906 L 222.328125 180.769531 C 222.625 181.371094 223.191406 181.792969 223.851562 181.890625 L 230.132812 182.8125 C 230.292969 182.835938 230.441406 182.875 230.582031 182.933594 Z M 230.582031 182.933594 " fill-opacity="1" fill-rule="nonzero"/></g><g clip-path="url(#93a4545a0d)"><path fill="#ffce00" d="M 260.738281 182.933594 C 255.765625 191.066406 247.777344 197.105469 238.347656 199.4375 C 238.335938 199.28125 238.34375 199.117188 238.371094 198.949219 L 239.445312 192.613281 C 239.554688 191.949219 239.335938 191.269531 238.863281 190.800781 L 234.320312 186.3125 C 233.117188 185.125 233.78125 183.058594 235.441406 182.8125 L 241.71875 181.890625 C 242.378906 181.792969 242.945312 181.375 243.242188 180.769531 L 246.050781 175.003906 C 246.792969 173.476562 248.933594 173.476562 249.679688 175.003906 L 252.488281 180.769531 C 252.78125 181.371094 253.347656 181.792969 254.007812 181.890625 L 260.289062 182.8125 C 260.449219 182.835938 260.597656 182.875 260.738281 182.933594 Z M 260.738281 182.933594 " fill-opacity="1" fill-rule="nonzero"/></g></svg>