<svg xmlns="http://www.w3.org/2000/svg" xmlns:xlink="http://www.w3.org/1999/xlink" width="500" zoomAndPan="magnify" viewBox="0 0 375 74.999997" height="100" preserveAspectRatio="xMidYMid meet" version="1.0"><path fill="#ffbe0d" d="M 60.390625 44.785156 C 59.230469 45.90625 58.699219 47.527344 58.976562 49.121094 L 61.582031 64.261719 C 62.273438 68.265625 58.050781 71.3125 54.449219 69.421875 L 40.804688 62.269531 C 39.371094 61.523438 37.65625 61.523438 36.222656 62.269531 L 22.578125 69.421875 C 19.335938 71.125 15.589844 68.828125 15.390625 65.429688 C 15.355469 65.050781 15.378906 64.664062 15.445312 64.261719 L 18.054688 49.121094 C 18.320312 47.527344 17.792969 45.90625 16.636719 44.785156 L 5.597656 34.058594 C 2.675781 31.222656 4.292969 26.285156 8.324219 25.699219 L 23.578125 23.492188 C 25.179688 23.257812 26.558594 22.261719 27.273438 20.816406 L 34.105469 7.035156 C 35.90625 3.390625 41.109375 3.390625 42.921875 7.035156 L 49.742188 20.816406 C 50.457031 22.257812 51.839844 23.257812 53.4375 23.492188 L 68.699219 25.699219 C 69.085938 25.757812 69.449219 25.851562 69.789062 25.984375 C 73.003906 27.207031 74.066406 31.488281 71.421875 34.058594 Z M 60.390625 44.785156 " fill-opacity="1" fill-rule="nonzero"/><path fill="#ffbe0d" d="M 133.675781 44.785156 C 132.511719 45.90625 131.980469 47.527344 132.257812 49.121094 L 134.863281 64.261719 C 135.554688 68.265625 131.332031 71.3125 127.730469 69.421875 L 114.085938 62.269531 C 112.652344 61.523438 110.9375 61.523438 109.503906 62.269531 L 95.859375 69.421875 C 92.617188 71.125 88.871094 68.828125 88.671875 65.429688 C 88.636719 65.050781 88.660156 64.664062 88.726562 64.261719 L 91.335938 49.121094 C 91.601562 47.527344 91.074219 45.90625 89.921875 44.785156 L 78.878906 34.058594 C 75.957031 31.222656 77.574219 26.285156 81.609375 25.699219 L 96.859375 23.492188 C 98.460938 23.257812 99.839844 22.261719 100.554688 20.816406 L 107.386719 7.035156 C 109.1875 3.390625 114.390625 3.390625 116.203125 7.035156 L 123.023438 20.816406 C 123.738281 22.257812 125.121094 23.257812 126.71875 23.492188 L 141.980469 25.699219 C 142.367188 25.757812 142.730469 25.851562 143.070312 25.984375 C 146.289062 27.207031 147.347656 31.488281 144.703125 34.058594 Z M 133.675781 44.785156 " fill-opacity="1" fill-rule="nonzero"/><path fill="#ffbe0d" d="M 206.949219 44.785156 C 205.789062 45.90625 205.257812 47.527344 205.535156 49.121094 L 208.140625 64.261719 C 208.832031 68.265625 204.609375 71.3125 201.007812 69.421875 L 187.363281 62.269531 C 185.929688 61.523438 184.214844 61.523438 182.78125 62.269531 L 169.136719 69.421875 C 165.894531 71.125 162.148438 68.828125 161.949219 65.429688 C 161.914062 65.050781 161.9375 64.664062 162.003906 64.261719 L 164.613281 49.121094 C 164.878906 47.527344 164.351562 45.90625 163.195312 44.785156 L 152.15625 34.058594 C 149.234375 31.222656 150.851562 26.285156 154.882812 25.699219 L 170.136719 23.492188 C 171.738281 23.257812 173.117188 22.261719 173.832031 20.816406 L 180.664062 7.035156 C 182.464844 3.390625 187.667969 3.390625 189.480469 7.035156 L 196.300781 20.816406 C 197.015625 22.257812 198.398438 23.257812 199.996094 23.492188 L 215.257812 25.699219 C 215.644531 25.757812 216.007812 25.851562 216.347656 25.984375 C 219.5625 27.207031 220.625 31.488281 217.980469 34.058594 Z M 206.949219 44.785156 " fill-opacity="1" fill-rule="nonzero"/><path fill="#ffbe0d" d="M 280.230469 44.785156 C 279.070312 45.90625 278.539062 47.527344 278.816406 49.121094 L 281.421875 64.261719 C 282.113281 68.265625 277.890625 71.3125 274.289062 69.421875 L 260.644531 62.269531 C 259.210938 61.523438 257.496094 61.523438 256.0625 62.269531 L 242.417969 69.421875 C 239.175781 71.125 235.429688 68.828125 235.230469 65.429688 C 235.195312 65.050781 235.21875 64.664062 235.285156 64.261719 L 237.894531 49.121094 C 238.160156 47.527344 237.632812 45.90625 236.476562 44.785156 L 225.4375 34.058594 C 222.515625 31.222656 224.132812 26.285156 228.164062 25.699219 L 243.417969 23.492188 C 245.019531 23.257812 246.398438 22.261719 247.113281 20.816406 L 253.945312 7.035156 C 255.746094 3.390625 260.949219 3.390625 262.761719 7.035156 L 269.582031 20.816406 C 270.296875 22.257812 271.679688 23.257812 273.277344 23.492188 L 288.539062 25.699219 C 288.925781 25.757812 289.289062 25.851562 289.628906 25.984375 C 292.84375 27.207031 293.90625 31.488281 291.261719 34.058594 Z M 280.230469 44.785156 " fill-opacity="1" fill-rule="nonzero"/><path fill="#ffbe0d" d="M 353.507812 44.785156 C 352.347656 45.90625 351.816406 47.527344 352.09375 49.121094 L 354.699219 64.261719 C 355.390625 68.265625 351.167969 71.3125 347.566406 69.421875 L 333.921875 62.269531 C 332.488281 61.523438 330.773438 61.523438 329.339844 62.269531 L 315.695312 69.421875 C 312.453125 71.125 308.707031 68.828125 308.507812 65.429688 C 308.472656 65.050781 308.496094 64.664062 308.5625 64.261719 L 311.171875 49.121094 C 311.4375 47.527344 310.910156 45.90625 309.753906 44.785156 L 298.714844 34.058594 C 295.792969 31.222656 297.410156 26.285156 301.441406 25.699219 L 316.695312 23.492188 C 318.296875 23.257812 319.675781 22.261719 320.390625 20.816406 L 327.222656 7.035156 C 329.023438 3.390625 334.226562 3.390625 336.039062 7.035156 L 342.859375 20.816406 C 343.574219 22.257812 344.957031 23.257812 346.554688 23.492188 L 361.816406 25.699219 C 362.203125 25.757812 362.566406 25.851562 362.90625 25.984375 C 366.121094 27.207031 367.183594 31.488281 364.539062 34.058594 Z M 353.507812 44.785156 " fill-opacity="1" fill-rule="nonzero"/><path fill="#ffce00" d="M 69.792969 25.984375 C 57.714844 45.421875 38.296875 59.859375 15.390625 65.429688 C 15.355469 65.050781 15.378906 64.664062 15.445312 64.261719 L 18.054688 49.121094 C 18.320312 47.527344 17.792969 45.90625 16.636719 44.785156 L 5.597656 34.058594 C 2.675781 31.222656 4.292969 26.285156 8.324219 25.699219 L 23.578125 23.492188 C 25.179688 23.257812 26.558594 22.261719 27.273438 20.816406 L 34.105469 7.035156 C 35.90625 3.390625 41.109375 3.390625 42.921875 7.035156 L 49.742188 20.816406 C 50.457031 22.257812 51.839844 23.257812 53.4375 23.492188 L 68.699219 25.699219 C 69.09375 25.757812 69.453125 25.847656 69.792969 25.984375 Z M 69.792969 25.984375 " fill-opacity="1" fill-rule="nonzero"/><path fill="#ffce00" d="M 143.074219 25.984375 C 130.996094 45.421875 111.578125 59.859375 88.671875 65.429688 C 88.636719 65.050781 88.660156 64.664062 88.726562 64.261719 L 91.335938 49.121094 C 91.601562 47.527344 91.074219 45.90625 89.921875 44.785156 L 78.878906 34.058594 C 75.957031 31.222656 77.574219 26.285156 81.609375 25.699219 L 96.859375 23.492188 C 98.460938 23.257812 99.839844 22.261719 100.554688 20.816406 L 107.386719 7.035156 C 109.1875 3.390625 114.390625 3.390625 116.203125 7.035156 L 123.023438 20.816406 C 123.738281 22.257812 125.121094 23.257812 126.71875 23.492188 L 141.980469 25.699219 C 142.371094 25.757812 142.734375 25.847656 143.074219 25.984375 Z M 143.074219 25.984375 " fill-opacity="1" fill-rule="nonzero"/><path fill="#ffce00" d="M 216.351562 25.984375 C 204.273438 45.421875 184.855469 59.859375 161.949219 65.429688 C 161.914062 65.050781 161.9375 64.664062 162.003906 64.261719 L 164.613281 49.121094 C 164.878906 47.527344 164.351562 45.90625 163.195312 44.785156 L 152.15625 34.058594 C 149.234375 31.222656 150.851562 26.285156 154.882812 25.699219 L 170.136719 23.492188 C 171.738281 23.257812 173.117188 22.261719 173.832031 20.816406 L 180.664062 7.035156 C 182.464844 3.390625 187.667969 3.390625 189.480469 7.035156 L 196.300781 20.816406 C 197.015625 22.257812 198.398438 23.257812 199.996094 23.492188 L 215.257812 25.699219 C 215.648438 25.757812 216.011719 25.847656 216.351562 25.984375 Z M 216.351562 25.984375 " fill-opacity="1" fill-rule="nonzero"/><path fill="#ffce00" d="M 289.628906 25.984375 C 277.550781 45.421875 258.132812 59.859375 235.222656 65.429688 C 235.1875 65.050781 235.214844 64.664062 235.28125 64.261719 L 237.890625 49.121094 C 238.15625 47.527344 237.628906 45.90625 236.472656 44.785156 L 225.433594 34.058594 C 222.511719 31.222656 224.128906 26.285156 228.160156 25.699219 L 243.414062 23.492188 C 245.015625 23.257812 246.394531 22.261719 247.109375 20.816406 L 253.941406 7.035156 C 255.742188 3.390625 260.945312 3.390625 262.757812 7.035156 L 269.578125 20.816406 C 270.292969 22.257812 271.675781 23.257812 273.273438 23.492188 L 288.535156 25.699219 C 288.929688 25.757812 289.289062 25.847656 289.628906 25.984375 Z M 289.628906 25.984375 " fill-opacity="1" fill-rule="nonzero"/><path fill="#ffce00" d="M 362.910156 25.984375 C 350.832031 45.421875 331.414062 59.859375 308.507812 65.429688 C 308.472656 65.050781 308.496094 64.664062 308.5625 64.261719 L 311.171875 49.121094 C 311.4375 47.527344 310.910156 45.90625 309.753906 44.785156 L 298.714844 34.058594 C 295.792969 31.222656 297.410156 26.285156 301.441406 25.699219 L 316.695312 23.492188 C 318.296875 23.257812 319.675781 22.261719 320.390625 20.816406 L 327.222656 7.035156 C 329.023438 3.390625 334.226562 3.390625 336.039062 7.035156 L 342.859375 20.816406 C 343.574219 22.257812 344.957031 23.257812 346.554688 23.492188 L 361.816406 25.699219 C 362.207031 25.757812 362.570312 25.847656 362.910156 25.984375 Z M 362.910156 25.984375 " fill-opacity="1" fill-rule="nonzero"/></svg>