<svg xmlns="http://www.w3.org/2000/svg" xmlns:xlink="http://www.w3.org/1999/xlink" width="500" zoomAndPan="magnify" viewBox="0 0 375 374.999991" height="500" preserveAspectRatio="xMidYMid meet" version="1.0"><defs><clipPath id="c4dc93bbf4"><path d="M 113 173.4375 L 142 173.4375 L 142 201.9375 L 113 201.9375 Z M 113 173.4375 " clip-rule="nonzero"/></clipPath><clipPath id="208eef8e8f"><path d="M 143 173.4375 L 172 173.4375 L 172 201.9375 L 143 201.9375 Z M 143 173.4375 " clip-rule="nonzero"/></clipPath><clipPath id="e612f2b7c7"><path d="M 173 173.4375 L 202 173.4375 L 202 201.9375 L 173 201.9375 Z M 173 173.4375 " clip-rule="nonzero"/></clipPath><clipPath id="6ae0587b08"><path d="M 203 173.4375 L 232 173.4375 L 232 201.9375 L 203 201.9375 Z M 203 173.4375 " clip-rule="nonzero"/></clipPath><clipPath id="c50d0d5837"><path d="M 233 173.4375 L 262.5 173.4375 L 262.5 201.9375 L 233 201.9375 Z M 233 173.4375 " clip-rule="nonzero"/></clipPath><clipPath id="bcd44ecc21"><path d="M 113 173.4375 L 141 173.4375 L 141 200 L 113 200 Z M 113 173.4375 " clip-rule="nonzero"/></clipPath><clipPath id="10c54f113a"><path d="M 143 173.4375 L 171 173.4375 L 171 200 L 143 200 Z M 143 173.4375 " clip-rule="nonzero"/></clipPath><clipPath id="9f3c2107d2"><path d="M 173 173.4375 L 201 173.4375 L 201 200 L 173 200 Z M 173 173.4375 " clip-rule="nonzero"/></clipPath><clipPath id="7459d3ed0f"><path d="M 203 173.4375 L 231 173.4375 L 231 200 L 203 200 Z M 203 173.4375 " clip-rule="nonzero"/></clipPath></defs><g clip-path="url(#c4dc93bbf4)"><path fill="#ffbe0d" d="M 136.246094 190.800781 C 135.765625 191.269531 135.546875 191.949219 135.664062 192.617188 L 136.734375 198.953125 C 137.019531 200.625 135.28125 201.902344 133.796875 201.109375 L 128.183594 198.117188 C 127.59375 197.804688 126.886719 197.804688 126.296875 198.117188 L 120.683594 201.109375 C 119.347656 201.824219 117.808594 200.863281 117.726562 199.4375 C 117.710938 199.28125 117.722656 199.121094 117.75 198.953125 L 118.820312 192.617188 C 118.933594 191.949219 118.714844 191.269531 118.238281 190.800781 L 113.695312 186.3125 C 112.492188 185.125 113.160156 183.058594 114.820312 182.816406 L 121.09375 181.890625 C 121.753906 181.792969 122.320312 181.375 122.617188 180.769531 L 125.425781 175.003906 C 126.167969 173.480469 128.308594 173.480469 129.054688 175.003906 L 131.863281 180.769531 C 132.15625 181.375 132.726562 181.792969 133.382812 181.890625 L 139.664062 182.816406 C 139.824219 182.839844 139.972656 182.878906 140.109375 182.933594 C 141.433594 183.445312 141.871094 185.238281 140.785156 186.3125 Z M 136.246094 190.800781 " fill-opacity="1" fill-rule="nonzero"/></g><g clip-path="url(#208eef8e8f)"><path fill="#ffbe0d" d="M 166.402344 190.800781 C 165.921875 191.269531 165.707031 191.949219 165.820312 192.617188 L 166.890625 198.953125 C 167.175781 200.625 165.4375 201.902344 163.957031 201.109375 L 158.339844 198.117188 C 157.75 197.804688 157.046875 197.804688 156.457031 198.117188 L 150.839844 201.109375 C 149.503906 201.824219 147.964844 200.863281 147.882812 199.4375 C 147.867188 199.28125 147.878906 199.121094 147.90625 198.953125 L 148.980469 192.617188 C 149.089844 191.949219 148.871094 191.269531 148.394531 190.800781 L 143.851562 186.3125 C 142.648438 185.125 143.316406 183.058594 144.976562 182.816406 L 151.253906 181.890625 C 151.910156 181.792969 152.480469 181.375 152.773438 180.769531 L 155.582031 175.003906 C 156.324219 173.480469 158.46875 173.480469 159.210938 175.003906 L 162.019531 180.769531 C 162.3125 181.375 162.882812 181.792969 163.539062 181.890625 L 169.820312 182.816406 C 169.980469 182.839844 170.128906 182.878906 170.269531 182.933594 C 171.59375 183.445312 172.027344 185.238281 170.941406 186.3125 Z M 166.402344 190.800781 " fill-opacity="1" fill-rule="nonzero"/></g><g clip-path="url(#e612f2b7c7)"><path fill="#ffbe0d" d="M 196.558594 190.800781 C 196.078125 191.269531 195.859375 191.949219 195.972656 192.617188 L 197.046875 198.953125 C 197.332031 200.625 195.59375 201.902344 194.109375 201.109375 L 188.496094 198.117188 C 187.90625 197.804688 187.199219 197.804688 186.609375 198.117188 L 180.996094 201.109375 C 179.660156 201.824219 178.121094 200.863281 178.035156 199.4375 C 178.023438 199.28125 178.035156 199.121094 178.058594 198.953125 L 179.132812 192.617188 C 179.242188 191.949219 179.027344 191.269531 178.550781 190.800781 L 174.007812 186.3125 C 172.804688 185.125 173.46875 183.058594 175.128906 182.816406 L 181.40625 181.890625 C 182.066406 181.792969 182.632812 181.375 182.929688 180.769531 L 185.738281 175.003906 C 186.480469 173.480469 188.621094 173.480469 189.367188 175.003906 L 192.175781 180.769531 C 192.46875 181.375 193.035156 181.792969 193.695312 181.890625 L 199.976562 182.816406 C 200.132812 182.839844 200.285156 182.878906 200.421875 182.933594 C 201.746094 183.445312 202.183594 185.238281 201.097656 186.3125 Z M 196.558594 190.800781 " fill-opacity="1" fill-rule="nonzero"/></g><g clip-path="url(#6ae0587b08)"><path fill="#ffbe0d" d="M 226.714844 190.800781 C 226.234375 191.269531 226.015625 191.949219 226.132812 192.617188 L 227.203125 198.953125 C 227.488281 200.625 225.75 201.902344 224.265625 201.109375 L 218.652344 198.117188 C 218.0625 197.804688 217.359375 197.804688 216.765625 198.117188 L 211.152344 201.109375 C 209.816406 201.824219 208.277344 200.863281 208.195312 199.4375 C 208.179688 199.28125 208.191406 199.121094 208.21875 198.953125 L 209.289062 192.617188 C 209.402344 191.949219 209.183594 191.269531 208.707031 190.800781 L 204.164062 186.3125 C 202.960938 185.125 203.628906 183.058594 205.289062 182.816406 L 211.5625 181.890625 C 212.222656 181.792969 212.792969 181.375 213.085938 180.769531 L 215.894531 175.003906 C 216.636719 173.480469 218.777344 173.480469 219.523438 175.003906 L 222.332031 180.769531 C 222.625 181.375 223.195312 181.792969 223.851562 181.890625 L 230.132812 182.816406 C 230.292969 182.839844 230.441406 182.878906 230.582031 182.933594 C 231.90625 183.445312 232.339844 185.238281 231.253906 186.3125 Z M 226.714844 190.800781 " fill-opacity="1" fill-rule="nonzero"/></g><g clip-path="url(#c50d0d5837)"><path fill="#ffbe0d" d="M 247.867188 175.265625 C 247.984375 175.265625 248.28125 175.300781 248.4375 175.625 L 251.246094 181.394531 C 251.742188 182.410156 252.699219 183.117188 253.8125 183.285156 L 260.082031 184.203125 C 260.15625 184.214844 260.199219 184.230469 260.222656 184.238281 C 260.230469 184.242188 260.234375 184.246094 260.242188 184.246094 C 260.4375 184.320312 260.582031 184.5 260.625 184.71875 C 260.65625 184.875 260.652344 185.101562 260.441406 185.308594 L 255.902344 189.792969 C 255.09375 190.589844 254.730469 191.734375 254.921875 192.855469 L 255.992188 199.191406 C 256.027344 199.386719 255.980469 199.5625 255.859375 199.707031 C 255.734375 199.859375 255.550781 199.949219 255.367188 199.949219 C 255.265625 199.949219 255.167969 199.921875 255.070312 199.867188 L 249.453125 196.875 C 248.964844 196.617188 248.417969 196.480469 247.867188 196.480469 C 247.316406 196.480469 246.765625 196.617188 246.277344 196.878906 L 240.664062 199.871094 C 240.566406 199.925781 240.464844 199.949219 240.367188 199.949219 C 240.078125 199.949219 239.753906 199.710938 239.734375 199.359375 C 239.734375 199.34375 239.730469 199.332031 239.730469 199.316406 C 239.726562 199.304688 239.726562 199.265625 239.738281 199.191406 L 240.8125 192.851562 C 241 191.730469 240.632812 190.589844 239.832031 189.796875 L 235.289062 185.308594 C 235.039062 185.0625 235.078125 184.789062 235.125 184.648438 C 235.160156 184.53125 235.285156 184.257812 235.640625 184.203125 L 241.917969 183.28125 C 243.027344 183.113281 243.984375 182.410156 244.480469 181.394531 L 247.292969 175.625 C 247.449219 175.3125 247.71875 175.265625 247.867188 175.265625 M 247.867188 173.863281 C 247.144531 173.863281 246.425781 174.242188 246.054688 175.003906 L 243.242188 180.769531 C 242.949219 181.375 242.378906 181.792969 241.722656 181.890625 L 235.445312 182.816406 C 233.785156 183.058594 233.117188 185.125 234.320312 186.3125 L 238.863281 190.800781 C 239.339844 191.269531 239.558594 191.949219 239.449219 192.617188 L 238.375 198.953125 C 238.347656 199.121094 238.335938 199.28125 238.351562 199.4375 C 238.414062 200.53125 239.335938 201.351562 240.367188 201.351562 C 240.679688 201.351562 241 201.277344 241.3125 201.109375 L 246.925781 198.117188 C 247.21875 197.960938 247.546875 197.882812 247.867188 197.882812 C 248.191406 197.882812 248.515625 197.960938 248.808594 198.117188 L 254.425781 201.109375 C 254.734375 201.273438 255.054688 201.351562 255.367188 201.351562 C 256.542969 201.351562 257.582031 200.273438 257.359375 198.949219 L 256.289062 192.613281 C 256.175781 191.949219 256.394531 191.269531 256.871094 190.800781 L 261.410156 186.3125 C 262.5 185.234375 262.0625 183.445312 260.738281 182.933594 C 260.597656 182.875 260.449219 182.835938 260.289062 182.8125 L 254.007812 181.890625 C 253.351562 181.792969 252.78125 181.375 252.488281 180.769531 L 249.679688 175.003906 C 249.308594 174.242188 248.585938 173.863281 247.867188 173.863281 Z M 247.867188 173.863281 " fill-opacity="1" fill-rule="nonzero"/></g><g clip-path="url(#bcd44ecc21)"><path fill="#ffce00" d="M 140.113281 182.933594 C 135.140625 191.066406 127.152344 197.109375 117.726562 199.4375 C 117.710938 199.28125 117.722656 199.121094 117.75 198.953125 L 118.820312 192.617188 C 118.933594 191.949219 118.714844 191.269531 118.238281 190.800781 L 113.695312 186.3125 C 112.492188 185.125 113.160156 183.058594 114.820312 182.816406 L 121.09375 181.890625 C 121.753906 181.792969 122.320312 181.375 122.617188 180.769531 L 125.425781 175.003906 C 126.167969 173.480469 128.308594 173.480469 129.054688 175.003906 L 131.863281 180.769531 C 132.15625 181.375 132.726562 181.792969 133.382812 181.890625 L 139.664062 182.816406 C 139.828125 182.839844 139.972656 182.878906 140.113281 182.933594 Z M 140.113281 182.933594 " fill-opacity="1" fill-rule="nonzero"/></g><g clip-path="url(#10c54f113a)"><path fill="#ffce00" d="M 170.269531 182.933594 C 165.300781 191.066406 157.308594 197.109375 147.882812 199.4375 C 147.867188 199.28125 147.878906 199.121094 147.90625 198.953125 L 148.980469 192.617188 C 149.089844 191.949219 148.871094 191.269531 148.394531 190.800781 L 143.851562 186.3125 C 142.648438 185.125 143.316406 183.058594 144.976562 182.816406 L 151.253906 181.890625 C 151.910156 181.792969 152.480469 181.375 152.773438 180.769531 L 155.582031 175.003906 C 156.324219 173.480469 158.46875 173.480469 159.210938 175.003906 L 162.019531 180.769531 C 162.3125 181.375 162.882812 181.792969 163.539062 181.890625 L 169.820312 182.816406 C 169.980469 182.839844 170.132812 182.878906 170.269531 182.933594 Z M 170.269531 182.933594 " fill-opacity="1" fill-rule="nonzero"/></g><g clip-path="url(#9f3c2107d2)"><path fill="#ffce00" d="M 200.425781 182.933594 C 195.453125 191.066406 187.464844 197.109375 178.035156 199.4375 C 178.023438 199.28125 178.035156 199.121094 178.058594 198.953125 L 179.132812 192.617188 C 179.242188 191.949219 179.027344 191.269531 178.550781 190.800781 L 174.007812 186.3125 C 172.804688 185.125 173.46875 183.058594 175.128906 182.816406 L 181.40625 181.890625 C 182.066406 181.792969 182.632812 181.375 182.929688 180.769531 L 185.738281 175.003906 C 186.480469 173.480469 188.621094 173.480469 189.367188 175.003906 L 192.175781 180.769531 C 192.46875 181.375 193.035156 181.792969 193.695312 181.890625 L 199.976562 182.816406 C 200.136719 182.839844 200.285156 182.878906 200.425781 182.933594 Z M 200.425781 182.933594 " fill-opacity="1" fill-rule="nonzero"/></g><g clip-path="url(#7459d3ed0f)"><path fill="#ffce00" d="M 230.582031 182.933594 C 225.609375 191.066406 217.617188 197.109375 208.191406 199.4375 C 208.179688 199.28125 208.1875 199.121094 208.214844 198.953125 L 209.289062 192.617188 C 209.398438 191.949219 209.179688 191.269531 208.707031 190.800781 L 204.164062 186.3125 C 202.960938 185.125 203.625 183.058594 205.285156 182.816406 L 211.5625 181.890625 C 212.222656 181.792969 212.789062 181.375 213.082031 180.769531 L 215.894531 175.003906 C 216.636719 173.480469 218.777344 173.480469 219.523438 175.003906 L 222.328125 180.769531 C 222.625 181.375 223.191406 181.792969 223.851562 181.890625 L 230.132812 182.816406 C 230.292969 182.839844 230.441406 182.878906 230.582031 182.933594 Z M 230.582031 182.933594 " fill-opacity="1" fill-rule="nonzero"/></g></svg>