<svg xmlns="http://www.w3.org/2000/svg" xmlns:xlink="http://www.w3.org/1999/xlink" width="500" zoomAndPan="magnify" viewBox="0 0 375 74.999997" height="100" preserveAspectRatio="xMidYMid meet" version="1.0"><defs><clipPath id="48094af332"><path d="M 5.097656 3.070312 L 104 3.070312 L 104 72.070312 L 5.097656 72.070312 Z M 5.097656 3.070312 " clip-rule="nonzero"/></clipPath><clipPath id="cd9ecef286"><path d="M 199 3.070312 L 322 3.070312 L 322 72.070312 L 199 72.070312 Z M 199 3.070312 " clip-rule="nonzero"/></clipPath><clipPath id="d3aabdc4f7"><path d="M 126 3.070312 L 249 3.070312 L 249 72.070312 L 126 72.070312 Z M 126 3.070312 " clip-rule="nonzero"/></clipPath><clipPath id="ff4d4eb10c"><path d="M 53 3.070312 L 176 3.070312 L 176 72.070312 L 53 72.070312 Z M 53 3.070312 " clip-rule="nonzero"/></clipPath><clipPath id="d587e9c2e5"><path d="M 271 3.070312 L 369.597656 3.070312 L 369.597656 72.070312 L 271 72.070312 Z M 271 3.070312 " clip-rule="nonzero"/></clipPath></defs><path fill="#ffce00" d="M 45.324219 6.484375 L 53.074219 22.21875 C 53.640625 23.355469 54.585938 24.113281 55.90625 24.300781 L 73.292969 26.765625 C 76.316406 27.144531 77.453125 30.9375 75.375 33.023438 L 62.898438 45.34375 C 61.957031 46.101562 61.578125 47.429688 61.765625 48.566406 L 64.789062 65.816406 C 65.355469 68.847656 62.144531 71.125 59.5 69.796875 L 44 61.644531 C 42.867188 61.078125 41.546875 61.078125 40.601562 61.644531 L 25.105469 69.796875 C 22.457031 71.3125 19.246094 68.847656 19.8125 65.816406 L 22.835938 48.566406 C 23.023438 47.429688 22.648438 46.101562 21.703125 45.34375 L 9.230469 33.023438 C 6.960938 30.9375 8.285156 27.144531 11.308594 26.765625 L 28.695312 24.300781 C 29.828125 24.113281 30.960938 23.355469 31.527344 22.21875 L 39.277344 6.484375 C 40.035156 3.828125 44 3.828125 45.324219 6.484375 Z M 45.324219 6.484375 " fill-opacity="1" fill-rule="nonzero"/><g clip-path="url(#48094af332)"><path stroke-linecap="butt" transform="matrix(1.889839, 0, 0, 1.895604, -1.732182, -152.178694)" fill="none" stroke-linejoin="miter" d="M 24.899684 83.700524 L 29.000562 92.000977 C 29.300273 92.600638 29.800481 93.000411 30.499118 93.099324 L 39.699223 94.399619 C 41.299061 94.599506 41.900551 96.600434 40.80092 97.700842 L 34.199003 104.200254 C 33.700862 104.600027 33.500366 105.300661 33.59958 105.900322 L 35.199419 115.000322 C 35.49913 116.599417 33.800077 117.800798 32.400735 117.100164 L 24.198979 112.799507 C 23.599557 112.500707 22.900919 112.500707 22.400711 112.799507 L 14.201023 117.100164 C 12.799614 117.899711 11.100561 116.599417 11.400272 115.000322 L 13.00011 105.900322 C 13.099325 105.300661 12.900896 104.600027 12.400688 104.200254 L 5.800838 97.700842 C 4.599925 96.600434 5.30063 94.599506 6.900468 94.399619 L 16.100573 93.099324 C 16.699995 93.000411 17.299418 92.600638 17.599129 92.000977 L 21.700007 83.700524 C 22.101 82.299256 24.198979 82.299256 24.899684 83.700524 Z M 24.899684 83.700524 " stroke="#ffbe0d" stroke-width="1" stroke-opacity="1" stroke-miterlimit="10"/></g><g clip-path="url(#cd9ecef286)"><path stroke-linecap="butt" transform="matrix(1.889839, 0, 0, 1.895604, -1.732182, -152.178694)" fill="none" stroke-linejoin="miter" d="M 140.199667 83.700524 L 144.300545 92.000977 C 144.600256 92.600638 145.100464 93.000411 145.799101 93.099324 L 154.999206 94.399619 C 156.599044 94.599506 157.200534 96.600434 156.100903 97.700842 L 149.498986 104.200254 C 149.000845 104.600027 148.800349 105.300661 148.899563 105.900322 L 150.499402 115.000322 C 150.799113 116.599417 149.10006 117.800798 147.700718 117.100164 L 139.501029 112.799507 C 138.89954 112.500707 138.200902 112.500707 137.700694 112.799507 L 129.501006 117.100164 C 128.099597 117.899711 126.400544 116.599417 126.700255 115.000322 L 128.300093 105.900322 C 128.399308 105.300661 128.200879 104.600027 127.700671 104.200254 L 121.100821 97.700842 C 119.899908 96.600434 120.600613 94.599506 122.200451 94.399619 L 131.400556 93.099324 C 131.999978 93.000411 132.599401 92.600638 132.899112 92.000977 L 136.99999 83.700524 C 137.400983 82.299256 139.501029 82.299256 140.199667 83.700524 Z M 140.199667 83.700524 " stroke="#ffbe0d" stroke-width="1" stroke-opacity="1" stroke-miterlimit="10"/></g><g clip-path="url(#d3aabdc4f7)"><path stroke-linecap="butt" transform="matrix(1.889839, 0, 0, 1.895604, -1.732182, -152.178694)" fill="none" stroke-linejoin="miter" d="M 101.799411 83.700524 L 105.900289 92.000977 C 106.2 92.600638 106.700208 93.000411 107.400912 93.099324 L 116.601017 94.399619 C 118.200855 94.599506 118.800278 96.600434 117.700647 97.700842 L 111.100797 104.200254 C 110.600589 104.600027 110.400093 105.300661 110.499307 105.900322 L 112.099146 115.000322 C 112.400924 116.599417 110.699804 117.800798 109.300462 117.100164 L 101.100773 112.799507 C 100.499284 112.500707 99.800646 112.500707 99.300438 112.799507 L 91.10075 117.100164 C 89.699341 117.899711 88.000288 116.599417 88.299999 115.000322 L 89.899837 105.900322 C 89.999052 105.300661 89.800623 104.600027 89.300415 104.200254 L 82.700565 97.700842 C 81.499652 96.600434 82.200357 94.599506 83.800195 94.399619 L 93.000299 93.099324 C 93.599722 93.000411 94.199145 92.600638 94.500923 92.000977 L 98.599734 83.700524 C 99.000727 82.299256 100.999492 82.299256 101.799411 83.700524 Z M 101.799411 83.700524 " stroke="#ffbe0d" stroke-width="1" stroke-opacity="1" stroke-miterlimit="10"/></g><g clip-path="url(#ff4d4eb10c)"><path stroke-linecap="butt" transform="matrix(1.889839, 0, 0, 1.895604, -1.732182, -152.178694)" fill="none" stroke-linejoin="miter" d="M 63.29994 83.700524 L 67.400818 92.000977 C 67.700529 92.600638 68.200737 93.000411 68.899374 93.099324 L 78.099479 94.399619 C 79.699317 94.599506 80.300807 96.600434 79.199109 97.700842 L 72.599259 104.200254 C 72.099051 104.600027 71.900622 105.300661 71.999836 105.900322 L 73.599675 115.000322 C 73.899386 116.599417 72.200333 117.800798 70.800991 117.100164 L 62.599235 112.799507 C 61.999813 112.500707 61.299108 112.500707 60.800968 112.799507 L 52.599212 117.100164 C 51.19987 117.899711 49.500817 116.599417 49.800528 115.000322 L 51.400367 105.900322 C 51.499581 105.300661 51.299085 104.600027 50.800944 104.200254 L 44.000597 97.799755 C 42.799685 96.699347 43.500389 94.700479 45.100228 94.500593 L 54.300332 93.200298 C 54.899755 93.099324 55.499177 92.699551 55.800956 92.099891 L 59.899767 83.799437 C 60.499189 82.299256 62.599235 82.299256 63.29994 83.700524 Z M 63.29994 83.700524 " stroke="#ffbe0d" stroke-width="1" stroke-opacity="1" stroke-miterlimit="10"/></g><g clip-path="url(#d587e9c2e5)"><path stroke-linecap="butt" transform="matrix(1.889839, 0, 0, 1.895604, -1.732182, -152.178694)" fill="none" stroke-linejoin="miter" d="M 178.599923 83.700524 L 182.700801 92.000977 C 183.000512 92.600638 183.50072 93.000411 184.199357 93.099324 L 193.399462 94.399619 C 194.9993 94.599506 195.60079 96.600434 194.499092 97.700842 L 187.899242 104.200254 C 187.399034 104.600027 187.200605 105.300661 187.299819 105.900322 L 188.899658 115.000322 C 189.199369 116.599417 187.500316 117.800798 186.100974 117.100164 L 177.899218 112.799507 C 177.299796 112.500707 176.599091 112.500707 176.10095 112.799507 L 167.899195 117.100164 C 166.499853 117.899711 164.8008 116.599417 165.100511 115.000322 L 166.70035 105.900322 C 166.799564 105.300661 166.599068 104.600027 166.100927 104.200254 L 159.49901 97.700842 C 158.300164 96.600434 159.000869 94.599506 160.600707 94.399619 L 169.800812 93.099324 C 170.400234 93.000411 170.999657 92.600638 171.299368 92.000977 L 175.400246 83.700524 C 175.799172 82.299256 177.899218 82.299256 178.599923 83.700524 Z M 178.599923 83.700524 " stroke="#ffbe0d" stroke-width="1" stroke-opacity="1" stroke-miterlimit="10"/></g></svg>