<svg xmlns="http://www.w3.org/2000/svg" xmlns:xlink="http://www.w3.org/1999/xlink" width="500" zoomAndPan="magnify" viewBox="0 0 375 374.999991" height="500" preserveAspectRatio="xMidYMid meet" version="1.0"><defs><clipPath id="88cb7d9669"><path d="M 113 173.34375 L 142 173.34375 L 142 201.84375 L 113 201.84375 Z M 113 173.34375 " clip-rule="nonzero"/></clipPath><clipPath id="236348cfad"><path d="M 112.5 173.34375 L 153 173.34375 L 153 201.84375 L 112.5 201.84375 Z M 112.5 173.34375 " clip-rule="nonzero"/></clipPath><clipPath id="5f65eeace2"><path d="M 192 173.34375 L 243 173.34375 L 243 201.84375 L 192 201.84375 Z M 192 173.34375 " clip-rule="nonzero"/></clipPath><clipPath id="d310dd6719"><path d="M 162 173.34375 L 213 173.34375 L 213 201.84375 L 162 201.84375 Z M 162 173.34375 " clip-rule="nonzero"/></clipPath><clipPath id="a36014f763"><path d="M 132 173.34375 L 183 173.34375 L 183 201.84375 L 132 201.84375 Z M 132 173.34375 " clip-rule="nonzero"/></clipPath><clipPath id="ec2451bbe8"><path d="M 222 173.34375 L 262.5 173.34375 L 262.5 201.84375 L 222 201.84375 Z M 222 173.34375 " clip-rule="nonzero"/></clipPath></defs><g clip-path="url(#88cb7d9669)"><path fill="#ffce00" d="M 129.046875 174.753906 L 132.234375 181.25 C 132.46875 181.722656 132.859375 182.035156 133.402344 182.113281 L 140.558594 183.128906 C 141.804688 183.289062 142.269531 184.851562 141.414062 185.714844 L 136.28125 190.804688 C 135.890625 191.117188 135.738281 191.664062 135.8125 192.136719 L 137.058594 199.261719 C 137.292969 200.511719 135.96875 201.453125 134.878906 200.902344 L 128.503906 197.539062 C 128.035156 197.300781 127.492188 197.300781 127.101562 197.539062 L 120.722656 200.902344 C 119.636719 201.53125 118.3125 200.511719 118.546875 199.261719 L 119.792969 192.136719 C 119.867188 191.664062 119.714844 191.117188 119.324219 190.804688 L 114.191406 185.714844 C 113.257812 184.851562 113.800781 183.289062 115.046875 183.128906 L 122.203125 182.113281 C 122.667969 182.035156 123.136719 181.722656 123.367188 181.25 L 126.558594 174.753906 C 126.871094 173.65625 128.503906 173.65625 129.046875 174.753906 Z M 129.046875 174.753906 " fill-opacity="1" fill-rule="nonzero"/></g><g clip-path="url(#236348cfad)"><path stroke-linecap="butt" transform="matrix(0.777816, 0, 0, 0.782967, 109.679515, 109.218744)" fill="none" stroke-linejoin="miter" d="M 24.899671 83.701053 L 28.997685 91.997819 C 29.299009 92.601492 29.801217 93.000615 30.499285 93.100396 L 39.699727 94.397545 C 41.301769 94.602095 41.899396 96.597709 40.799561 97.700286 L 34.200554 104.200999 C 33.698347 104.600122 33.502486 105.298587 33.597905 105.90226 L 35.199947 115.002261 C 35.501272 116.598752 33.798788 117.80111 32.397629 117.097656 L 24.201603 112.802096 C 23.598954 112.497765 22.900885 112.497765 22.398678 112.802096 L 14.197629 117.097656 C 12.801492 117.90089 11.099008 116.598752 11.400333 115.002261 L 13.002375 105.90226 C 13.097794 105.298587 12.901933 104.600122 12.399726 104.200999 L 5.800719 97.700286 C 4.600443 96.597709 5.298511 94.602095 6.900553 94.397545 L 16.100995 93.100396 C 16.698622 93.000615 17.301271 92.601492 17.597574 91.997819 L 21.700609 83.701053 C 22.102375 82.299134 24.201603 82.299134 24.899671 83.701053 Z M 24.899671 83.701053 " stroke="#ffbe0d" stroke-width="1" stroke-opacity="1" stroke-miterlimit="10"/></g><g clip-path="url(#5f65eeace2)"><path stroke-linecap="butt" transform="matrix(0.777816, 0, 0, 0.782967, 109.679515, 109.218744)" fill="none" stroke-linejoin="miter" d="M 140.201497 83.701053 L 144.299511 91.997819 C 144.600835 92.601492 145.098021 93.000615 145.801111 93.100396 L 155.001553 94.397545 C 156.598573 94.602095 157.201222 96.597709 156.101387 97.700286 L 149.502381 104.200999 C 149.000173 104.600122 148.79929 105.298587 148.899732 105.90226 L 150.501774 115.002261 C 150.798076 116.598752 149.100615 117.80111 147.699456 117.097656 L 139.498407 112.802096 C 138.90078 112.497765 138.197689 112.497765 137.700504 112.802096 L 129.499455 117.097656 C 128.098296 117.90089 126.400834 116.598752 126.702159 115.002261 L 128.299179 105.90226 C 128.39962 105.298587 128.198737 104.600122 127.701552 104.200999 L 121.097523 97.700286 C 119.902269 96.597709 120.600337 94.602095 122.202379 94.397545 L 131.397799 93.100396 C 132.000448 93.000615 132.598075 92.601492 132.8994 91.997819 L 137.002435 83.701053 C 137.399179 82.299134 139.498407 82.299134 140.201497 83.701053 Z M 140.201497 83.701053 " stroke="#ffbe0d" stroke-width="1" stroke-opacity="1" stroke-miterlimit="10"/></g><g clip-path="url(#d310dd6719)"><path stroke-linecap="butt" transform="matrix(0.777816, 0, 0, 0.782967, 109.679515, 109.218744)" fill="none" stroke-linejoin="miter" d="M 101.797688 83.701053 L 105.900723 91.997819 C 106.202048 92.601492 106.699233 93.000615 107.402324 93.100396 L 116.597743 94.397545 C 118.199785 94.602095 118.802434 96.597709 117.697578 97.700286 L 111.098571 104.200999 C 110.601386 104.600122 110.400503 105.298587 110.500944 105.90226 L 112.097964 115.002261 C 112.399289 116.598752 110.701827 117.80111 109.300668 117.097656 L 101.099619 112.802096 C 100.501992 112.497765 99.798902 112.497765 99.301716 112.802096 L 91.100667 117.097656 C 89.699508 117.90089 88.002047 116.598752 88.298349 115.002261 L 89.900391 105.90226 C 90.000833 105.298587 89.79995 104.600122 89.297742 104.200999 L 82.698735 97.700286 C 81.498459 96.597709 82.20155 94.602095 83.79857 94.397545 L 92.999012 93.100396 C 93.601661 93.000615 94.199288 92.601492 94.500612 91.997819 L 98.598626 83.701053 C 99.000392 82.299134 100.999178 82.299134 101.797688 83.701053 Z M 101.797688 83.701053 " stroke="#ffbe0d" stroke-width="1" stroke-opacity="1" stroke-miterlimit="10"/></g><g clip-path="url(#a36014f763)"><path stroke-linecap="butt" transform="matrix(0.777816, 0, 0, 0.782967, 109.679515, 109.218744)" fill="none" stroke-linejoin="miter" d="M 63.298459 83.701053 L 67.401494 91.997819 C 67.697797 92.601492 68.200004 93.000615 68.898073 93.100396 L 78.098514 94.397545 C 79.700556 94.602095 80.298183 96.597709 79.198349 97.700286 L 72.599342 104.200999 C 72.102157 104.600122 71.901274 105.298587 72.001715 105.90226 L 73.598735 115.002261 C 73.900059 116.598752 72.197576 117.80111 70.801439 117.097656 L 62.60039 112.802096 C 61.997741 112.497765 61.299673 112.497765 60.802487 112.802096 L 52.601438 117.097656 C 51.200279 117.90089 49.497796 116.598752 49.79912 115.002261 L 51.401162 105.90226 C 51.501604 105.298587 51.300721 104.600122 50.798513 104.200999 L 43.998623 97.800067 C 42.798347 96.702479 43.501438 94.701876 45.098458 94.502315 L 54.2989 93.200176 C 54.901549 93.100396 55.499176 92.701273 55.8005 92.0976 L 59.898514 83.800834 C 60.501163 82.299134 62.60039 82.299134 63.298459 83.701053 Z M 63.298459 83.701053 " stroke="#ffbe0d" stroke-width="1" stroke-opacity="1" stroke-miterlimit="10"/></g><g clip-path="url(#ec2451bbe8)"><path stroke-linecap="butt" transform="matrix(0.777816, 0, 0, 0.782967, 109.679515, 109.218744)" fill="none" stroke-linejoin="miter" d="M 178.600285 83.701053 L 182.698298 91.997819 C 182.999623 92.601492 183.50183 93.000615 184.199899 93.100396 L 193.400341 94.397545 C 195.002383 94.602095 195.600009 96.597709 194.500175 97.700286 L 187.901168 104.200999 C 187.398961 104.600122 187.198078 105.298587 187.298519 105.90226 L 188.900561 115.002261 C 189.201886 116.598752 187.499402 117.80111 186.098243 117.097656 L 177.902216 112.802096 C 177.299567 112.497765 176.601499 112.497765 176.099291 112.802096 L 167.898242 117.097656 C 166.502105 117.90089 164.799622 116.598752 165.100946 115.002261 L 166.697966 105.90226 C 166.798408 105.298587 166.597525 104.600122 166.100339 104.200999 L 159.501332 97.700286 C 158.301056 96.597709 158.999125 94.602095 160.601167 94.397545 L 169.801609 93.100396 C 170.399236 93.000615 171.001885 92.601492 171.298187 91.997819 L 175.401223 83.701053 C 175.797967 82.299134 177.902216 82.299134 178.600285 83.701053 Z M 178.600285 83.701053 " stroke="#ffbe0d" stroke-width="1" stroke-opacity="1" stroke-miterlimit="10"/></g></svg>