<svg xmlns="http://www.w3.org/2000/svg" xmlns:xlink="http://www.w3.org/1999/xlink" width="500" zoomAndPan="magnify" viewBox="0 0 375 74.999997" height="100" preserveAspectRatio="xMidYMid meet" version="1.0"><path fill="#ffbe0d" d="M 60.390625 44.878906 C 59.230469 46.003906 58.699219 47.625 58.976562 49.226562 L 61.582031 64.398438 C 62.273438 68.410156 58.050781 71.464844 54.449219 69.570312 L 40.804688 62.402344 C 39.371094 61.652344 37.65625 61.652344 36.222656 62.402344 L 22.578125 69.570312 C 19.335938 71.277344 15.589844 68.972656 15.390625 65.566406 C 15.355469 65.191406 15.378906 64.800781 15.445312 64.398438 L 18.054688 49.226562 C 18.320312 47.625 17.792969 46.003906 16.636719 44.878906 L 5.597656 34.128906 C 2.675781 31.285156 4.292969 26.335938 8.324219 25.75 L 23.578125 23.539062 C 25.179688 23.300781 26.558594 22.304688 27.273438 20.855469 L 34.105469 7.042969 C 35.90625 3.390625 41.109375 3.390625 42.921875 7.042969 L 49.742188 20.855469 C 50.457031 22.300781 51.839844 23.300781 53.4375 23.539062 L 68.699219 25.75 C 69.085938 25.808594 69.449219 25.902344 69.789062 26.035156 C 73.003906 27.261719 74.066406 31.550781 71.421875 34.128906 Z M 60.390625 44.878906 " fill-opacity="1" fill-rule="nonzero"/><path fill="#ffbe0d" d="M 133.675781 44.878906 C 132.511719 46.003906 131.980469 47.625 132.257812 49.226562 L 134.863281 64.398438 C 135.554688 68.410156 131.332031 71.464844 127.730469 69.570312 L 114.085938 62.402344 C 112.652344 61.652344 110.9375 61.652344 109.503906 62.402344 L 95.859375 69.570312 C 92.617188 71.277344 88.871094 68.972656 88.671875 65.566406 C 88.636719 65.191406 88.660156 64.800781 88.726562 64.398438 L 91.335938 49.226562 C 91.601562 47.625 91.074219 46.003906 89.921875 44.878906 L 78.878906 34.128906 C 75.957031 31.285156 77.574219 26.335938 81.609375 25.75 L 96.859375 23.539062 C 98.460938 23.300781 99.839844 22.304688 100.554688 20.855469 L 107.386719 7.042969 C 109.1875 3.390625 114.390625 3.390625 116.203125 7.042969 L 123.023438 20.855469 C 123.738281 22.300781 125.121094 23.300781 126.71875 23.539062 L 141.980469 25.75 C 142.367188 25.808594 142.730469 25.902344 143.070312 26.035156 C 146.289062 27.261719 147.347656 31.550781 144.703125 34.128906 Z M 133.675781 44.878906 " fill-opacity="1" fill-rule="nonzero"/><path fill="#ffbe0d" d="M 206.949219 44.878906 C 205.789062 46.003906 205.257812 47.625 205.535156 49.226562 L 208.140625 64.398438 C 208.832031 68.410156 204.609375 71.464844 201.007812 69.570312 L 187.363281 62.402344 C 185.929688 61.652344 184.214844 61.652344 182.78125 62.402344 L 169.136719 69.570312 C 165.894531 71.277344 162.148438 68.972656 161.949219 65.566406 C 161.914062 65.191406 161.9375 64.800781 162.003906 64.398438 L 164.613281 49.226562 C 164.878906 47.625 164.351562 46.003906 163.195312 44.878906 L 152.15625 34.128906 C 149.234375 31.285156 150.851562 26.335938 154.882812 25.75 L 170.136719 23.539062 C 171.738281 23.300781 173.117188 22.304688 173.832031 20.855469 L 180.664062 7.042969 C 182.464844 3.390625 187.667969 3.390625 189.480469 7.042969 L 196.300781 20.855469 C 197.015625 22.300781 198.398438 23.300781 199.996094 23.539062 L 215.257812 25.75 C 215.644531 25.808594 216.007812 25.902344 216.347656 26.035156 C 219.5625 27.261719 220.625 31.550781 217.980469 34.128906 Z M 206.949219 44.878906 " fill-opacity="1" fill-rule="nonzero"/><path fill="#ffbe0d" d="M 258.351562 7.671875 C 258.640625 7.671875 259.355469 7.753906 259.742188 8.53125 L 266.5625 22.347656 C 267.769531 24.78125 270.097656 26.472656 272.796875 26.871094 L 288.035156 29.078125 C 288.210938 29.105469 288.320312 29.140625 288.378906 29.160156 C 288.394531 29.164062 288.410156 29.175781 288.425781 29.179688 C 288.898438 29.359375 289.246094 29.785156 289.355469 30.308594 C 289.433594 30.679688 289.417969 31.222656 288.910156 31.71875 L 277.882812 42.464844 C 275.917969 44.367188 275.027344 47.109375 275.492188 49.792969 L 278.097656 64.972656 C 278.179688 65.445312 278.070312 65.859375 277.777344 66.207031 C 277.46875 66.570312 277.023438 66.785156 276.574219 66.785156 C 276.335938 66.785156 276.09375 66.722656 275.851562 66.597656 L 262.203125 59.429688 C 261.019531 58.808594 259.6875 58.480469 258.351562 58.480469 C 257.015625 58.480469 255.679688 58.808594 254.492188 59.433594 L 240.84375 66.601562 C 240.609375 66.726562 240.367188 66.789062 240.125 66.789062 C 239.425781 66.789062 238.640625 66.21875 238.585938 65.375 C 238.585938 65.339844 238.582031 65.308594 238.578125 65.273438 C 238.574219 65.242188 238.574219 65.148438 238.601562 64.972656 L 241.214844 49.785156 C 241.664062 47.105469 240.773438 44.367188 238.828125 42.46875 L 227.785156 31.71875 C 227.183594 31.136719 227.28125 30.480469 227.390625 30.136719 C 227.476562 29.863281 227.78125 29.207031 228.644531 29.078125 L 243.902344 26.867188 C 246.59375 26.46875 248.921875 24.777344 250.125 22.34375 L 256.957031 8.527344 C 257.339844 7.78125 257.992188 7.671875 258.351562 7.671875 M 258.351562 4.304688 C 256.597656 4.304688 254.847656 5.214844 253.945312 7.039062 L 247.113281 20.851562 C 246.398438 22.296875 245.019531 23.296875 243.417969 23.535156 L 228.167969 25.746094 C 224.132812 26.332031 222.515625 31.28125 225.4375 34.121094 L 236.476562 44.871094 C 237.632812 45.996094 238.160156 47.621094 237.894531 49.222656 L 235.285156 64.394531 C 235.21875 64.796875 235.195312 65.1875 235.230469 65.5625 C 235.382812 68.175781 237.628906 70.144531 240.128906 70.144531 C 240.890625 70.144531 241.667969 69.964844 242.421875 69.566406 L 256.066406 62.398438 C 256.78125 62.023438 257.570312 61.835938 258.355469 61.835938 C 259.144531 61.835938 259.929688 62.023438 260.644531 62.398438 L 274.289062 69.566406 C 275.042969 69.957031 275.820312 70.136719 276.574219 70.136719 C 279.4375 70.136719 281.964844 67.5625 281.421875 64.390625 L 278.816406 49.214844 C 278.539062 47.617188 279.070312 45.992188 280.230469 44.867188 L 291.261719 34.117188 C 293.90625 31.542969 292.84375 27.257812 289.628906 26.027344 C 289.289062 25.890625 288.929688 25.796875 288.539062 25.742188 L 273.277344 23.53125 C 271.679688 23.292969 270.296875 22.296875 269.582031 20.847656 L 262.761719 7.035156 C 261.859375 5.21875 260.105469 4.304688 258.351562 4.304688 Z M 258.351562 4.304688 " fill-opacity="1" fill-rule="nonzero"/><path fill="#ffbe0d" d="M 331.632812 7.671875 C 331.921875 7.671875 332.636719 7.753906 333.023438 8.53125 L 339.84375 22.347656 C 341.050781 24.78125 343.378906 26.472656 346.078125 26.871094 L 361.316406 29.078125 C 361.492188 29.105469 361.601562 29.140625 361.660156 29.160156 C 361.675781 29.164062 361.691406 29.175781 361.707031 29.179688 C 362.179688 29.359375 362.527344 29.785156 362.636719 30.308594 C 362.714844 30.679688 362.699219 31.222656 362.191406 31.71875 L 351.164062 42.464844 C 349.199219 44.367188 348.308594 47.109375 348.773438 49.792969 L 351.378906 64.972656 C 351.460938 65.445312 351.351562 65.859375 351.058594 66.207031 C 350.75 66.570312 350.304688 66.785156 349.855469 66.785156 C 349.617188 66.785156 349.375 66.722656 349.132812 66.597656 L 335.484375 59.429688 C 334.300781 58.808594 332.96875 58.480469 331.632812 58.480469 C 330.296875 58.480469 328.960938 58.808594 327.773438 59.433594 L 314.125 66.601562 C 313.890625 66.726562 313.648438 66.789062 313.40625 66.789062 C 312.707031 66.789062 311.921875 66.21875 311.867188 65.375 C 311.867188 65.339844 311.863281 65.308594 311.859375 65.273438 C 311.855469 65.242188 311.855469 65.148438 311.882812 64.972656 L 314.496094 49.785156 C 314.945312 47.105469 314.054688 44.367188 312.109375 42.46875 L 301.066406 31.71875 C 300.464844 31.136719 300.5625 30.480469 300.671875 30.136719 C 300.757812 29.863281 301.0625 29.207031 301.925781 29.078125 L 317.183594 26.867188 C 319.875 26.46875 322.203125 24.777344 323.40625 22.34375 L 330.238281 8.527344 C 330.617188 7.78125 331.273438 7.671875 331.632812 7.671875 M 331.632812 4.304688 C 329.878906 4.304688 328.128906 5.214844 327.226562 7.039062 L 320.394531 20.851562 C 319.679688 22.296875 318.300781 23.296875 316.699219 23.535156 L 301.449219 25.746094 C 297.414062 26.332031 295.796875 31.28125 298.71875 34.121094 L 309.761719 44.871094 C 310.914062 45.996094 311.441406 47.621094 311.175781 49.222656 L 308.566406 64.394531 C 308.5 64.796875 308.476562 65.1875 308.511719 65.5625 C 308.664062 68.175781 310.910156 70.144531 313.410156 70.144531 C 314.171875 70.144531 314.949219 69.964844 315.703125 69.566406 L 329.347656 62.398438 C 330.0625 62.023438 330.851562 61.835938 331.636719 61.835938 C 332.421875 61.835938 333.210938 62.023438 333.925781 62.398438 L 347.570312 69.566406 C 348.324219 69.957031 349.101562 70.136719 349.855469 70.136719 C 352.71875 70.136719 355.246094 67.5625 354.703125 64.390625 L 352.097656 49.214844 C 351.820312 47.617188 352.351562 45.992188 353.515625 44.867188 L 364.542969 34.117188 C 367.1875 31.542969 366.128906 27.257812 362.910156 26.027344 C 362.570312 25.890625 362.210938 25.796875 361.820312 25.742188 L 346.558594 23.53125 C 344.960938 23.292969 343.578125 22.296875 342.863281 20.847656 L 336.042969 7.035156 C 335.136719 5.21875 333.382812 4.304688 331.632812 4.304688 Z M 331.632812 4.304688 " fill-opacity="1" fill-rule="nonzero"/><path fill="#ffce00" d="M 69.792969 26.035156 C 57.714844 45.515625 38.296875 59.984375 15.390625 65.566406 C 15.355469 65.191406 15.378906 64.800781 15.445312 64.398438 L 18.054688 49.226562 C 18.320312 47.625 17.792969 46.003906 16.636719 44.878906 L 5.597656 34.128906 C 2.675781 31.285156 4.292969 26.335938 8.324219 25.75 L 23.578125 23.539062 C 25.179688 23.300781 26.558594 22.304688 27.273438 20.855469 L 34.105469 7.042969 C 35.90625 3.390625 41.109375 3.390625 42.921875 7.042969 L 49.742188 20.855469 C 50.457031 22.300781 51.839844 23.300781 53.4375 23.539062 L 68.699219 25.75 C 69.09375 25.808594 69.453125 25.898438 69.792969 26.035156 Z M 69.792969 26.035156 " fill-opacity="1" fill-rule="nonzero"/><path fill="#ffce00" d="M 143.074219 26.035156 C 130.996094 45.515625 111.578125 59.984375 88.671875 65.566406 C 88.636719 65.191406 88.660156 64.800781 88.726562 64.398438 L 91.335938 49.226562 C 91.601562 47.625 91.074219 46.003906 89.921875 44.878906 L 78.878906 34.128906 C 75.957031 31.285156 77.574219 26.335938 81.609375 25.75 L 96.859375 23.539062 C 98.460938 23.300781 99.839844 22.304688 100.554688 20.855469 L 107.386719 7.042969 C 109.1875 3.390625 114.390625 3.390625 116.203125 7.042969 L 123.023438 20.855469 C 123.738281 22.300781 125.121094 23.300781 126.71875 23.539062 L 141.980469 25.75 C 142.371094 25.808594 142.734375 25.898438 143.074219 26.035156 Z M 143.074219 26.035156 " fill-opacity="1" fill-rule="nonzero"/><path fill="#ffce00" d="M 216.351562 26.035156 C 204.273438 45.515625 184.855469 59.984375 161.949219 65.566406 C 161.914062 65.191406 161.9375 64.800781 162.003906 64.398438 L 164.613281 49.226562 C 164.878906 47.625 164.351562 46.003906 163.195312 44.878906 L 152.15625 34.128906 C 149.234375 31.285156 150.851562 26.335938 154.882812 25.75 L 170.136719 23.539062 C 171.738281 23.300781 173.117188 22.304688 173.832031 20.855469 L 180.664062 7.042969 C 182.464844 3.390625 187.667969 3.390625 189.480469 7.042969 L 196.300781 20.855469 C 197.015625 22.300781 198.398438 23.300781 199.996094 23.539062 L 215.257812 25.75 C 215.648438 25.808594 216.011719 25.898438 216.351562 26.035156 Z M 216.351562 26.035156 " fill-opacity="1" fill-rule="nonzero"/></svg>