<svg xmlns="http://www.w3.org/2000/svg" xmlns:xlink="http://www.w3.org/1999/xlink" width="500" zoomAndPan="magnify" viewBox="0 0 375 374.999991" height="500" preserveAspectRatio="xMidYMid meet" version="1.0"><defs><clipPath id="cb245d6e60"><path d="M 112.5 173.8125 L 142 173.8125 L 142 201.5625 L 112.5 201.5625 Z M 112.5 173.8125 " clip-rule="nonzero"/></clipPath><clipPath id="9347a10a0d"><path d="M 142 173.8125 L 172 173.8125 L 172 201.5625 L 142 201.5625 Z M 142 173.8125 " clip-rule="nonzero"/></clipPath><clipPath id="1f87e08a6c"><path d="M 173 173.8125 L 203 173.8125 L 203 201.5625 L 173 201.5625 Z M 173 173.8125 " clip-rule="nonzero"/></clipPath><clipPath id="e9169df621"><path d="M 203 173.8125 L 233 173.8125 L 233 201.5625 L 203 201.5625 Z M 203 173.8125 " clip-rule="nonzero"/></clipPath><clipPath id="16dbbcbdcf"><path d="M 233 173.8125 L 262.5 173.8125 L 262.5 201.5625 L 233 201.5625 Z M 233 173.8125 " clip-rule="nonzero"/></clipPath><clipPath id="467f1e48f3"><path d="M 113 173.4375 L 142 173.4375 L 142 201.9375 L 113 201.9375 Z M 113 173.4375 " clip-rule="nonzero"/></clipPath><clipPath id="68d3baba51"><path d="M 143 173.4375 L 172 173.4375 L 172 201.9375 L 143 201.9375 Z M 143 173.4375 " clip-rule="nonzero"/></clipPath><clipPath id="4491f599e4"><path d="M 173 173.4375 L 202 173.4375 L 202 201.9375 L 173 201.9375 Z M 173 173.4375 " clip-rule="nonzero"/></clipPath><clipPath id="892e0164c9"><path d="M 203 173.4375 L 232 173.4375 L 232 201.9375 L 203 201.9375 Z M 203 173.4375 " clip-rule="nonzero"/></clipPath><clipPath id="2620f51097"><path d="M 233 173.4375 L 262.5 173.4375 L 262.5 201.9375 L 233 201.9375 Z M 233 173.4375 " clip-rule="nonzero"/></clipPath><clipPath id="d50ecebb60"><path d="M 113 173.4375 L 141 173.4375 L 141 200 L 113 200 Z M 113 173.4375 " clip-rule="nonzero"/></clipPath><clipPath id="b9538947ee"><path d="M 143 173.4375 L 171 173.4375 L 171 200 L 143 200 Z M 143 173.4375 " clip-rule="nonzero"/></clipPath><clipPath id="77547cd3ad"><path d="M 173 173.4375 L 201 173.4375 L 201 200 L 173 200 Z M 173 173.4375 " clip-rule="nonzero"/></clipPath></defs><g clip-path="url(#cb245d6e60)"><path fill="#000000" d="M 139.683594 182.886719 L 132.054688 181.777344 L 128.640625 174.863281 C 128.332031 174.238281 127.6875 173.847656 126.957031 173.847656 C 126.226562 173.847656 125.582031 174.238281 125.277344 174.863281 L 121.859375 181.777344 L 114.234375 182.886719 C 113.523438 182.988281 112.941406 183.476562 112.710938 184.175781 C 112.5 184.851562 112.691406 185.605469 113.191406 186.085938 L 118.714844 191.46875 L 117.414062 199.066406 C 117.289062 199.761719 117.582031 200.484375 118.160156 200.90625 C 118.484375 201.136719 118.863281 201.261719 119.261719 201.261719 C 119.5625 201.261719 119.863281 201.1875 120.136719 201.046875 L 126.957031 197.457031 L 133.796875 201.054688 C 134.40625 201.367188 135.160156 201.328125 135.769531 200.898438 C 136.34375 200.476562 136.628906 199.753906 136.503906 199.070312 L 135.203125 191.46875 L 140.707031 186.101562 C 141.226562 185.613281 141.421875 184.855469 141.195312 184.152344 C 140.964844 183.472656 140.386719 182.988281 139.683594 182.886719 Z M 115.777344 185.15625 L 123.5 184.03125 L 126.960938 177.03125 L 130.417969 184.03125 L 138.144531 185.15625 L 132.550781 190.605469 L 133.871094 198.304688 L 126.960938 194.667969 L 120.050781 198.304688 L 121.367188 190.605469 Z M 115.777344 185.15625 " fill-opacity="1" fill-rule="nonzero"/></g><g clip-path="url(#9347a10a0d)"><path fill="#000000" d="M 170.027344 182.886719 L 162.398438 181.777344 L 158.988281 174.863281 C 158.679688 174.238281 158.035156 173.847656 157.304688 173.847656 C 156.574219 173.847656 155.929688 174.238281 155.621094 174.863281 L 152.207031 181.777344 L 144.578125 182.886719 C 143.871094 182.988281 143.292969 183.476562 143.0625 184.164062 C 142.84375 184.84375 143.03125 185.601562 143.539062 186.085938 L 149.058594 191.46875 L 147.753906 199.082031 C 147.640625 199.78125 147.921875 200.476562 148.511719 200.910156 C 148.832031 201.140625 149.210938 201.261719 149.605469 201.261719 C 149.910156 201.261719 150.214844 201.1875 150.476562 201.046875 L 157.300781 197.457031 L 164.136719 201.050781 C 164.75 201.371094 165.515625 201.320312 166.109375 200.898438 C 166.683594 200.480469 166.972656 199.757812 166.847656 199.070312 L 165.546875 191.46875 L 171.058594 186.09375 C 171.578125 185.601562 171.765625 184.839844 171.542969 184.164062 C 171.324219 183.488281 170.726562 182.988281 170.027344 182.886719 Z M 146.121094 185.15625 L 153.847656 184.03125 L 157.304688 177.027344 L 160.761719 184.03125 L 168.484375 185.15625 L 162.894531 190.605469 L 164.210938 198.304688 L 157.300781 194.667969 L 150.390625 198.304688 L 151.710938 190.605469 Z M 146.121094 185.15625 " fill-opacity="1" fill-rule="nonzero"/></g><g clip-path="url(#1f87e08a6c)"><path fill="#000000" d="M 200.6875 182.886719 L 193.058594 181.777344 L 189.648438 174.867188 C 189.339844 174.238281 188.695312 173.847656 187.960938 173.847656 C 187.230469 173.847656 186.585938 174.238281 186.28125 174.863281 L 182.867188 181.777344 L 175.238281 182.886719 C 174.539062 182.988281 173.941406 183.488281 173.722656 184.160156 C 173.5 184.847656 173.691406 185.605469 174.199219 186.085938 L 179.71875 191.46875 L 178.414062 199.074219 C 178.296875 199.773438 178.578125 200.476562 179.160156 200.902344 C 179.484375 201.136719 179.867188 201.261719 180.265625 201.261719 C 180.570312 201.261719 180.871094 201.1875 181.136719 201.046875 L 187.960938 197.457031 L 194.789062 201.046875 C 195.398438 201.371094 196.183594 201.320312 196.773438 200.898438 C 197.34375 200.472656 197.628906 199.753906 197.507812 199.070312 L 196.207031 191.46875 L 201.71875 186.09375 C 202.234375 185.601562 202.425781 184.84375 202.203125 184.160156 C 201.976562 183.476562 201.394531 182.988281 200.6875 182.886719 Z M 176.78125 185.15625 L 184.507812 184.03125 L 187.964844 177.027344 L 191.421875 184.03125 L 199.148438 185.15625 L 193.554688 190.605469 L 194.875 198.304688 L 187.964844 194.667969 L 181.050781 198.304688 L 182.371094 190.605469 Z M 176.78125 185.15625 " fill-opacity="1" fill-rule="nonzero"/></g><g clip-path="url(#e9169df621)"><path fill="#000000" d="M 230.421875 182.886719 L 222.796875 181.777344 L 219.378906 174.859375 C 219.070312 174.234375 218.425781 173.847656 217.699219 173.847656 C 216.96875 173.847656 216.324219 174.238281 216.019531 174.863281 L 212.605469 181.777344 L 204.976562 182.886719 C 204.265625 182.988281 203.6875 183.476562 203.460938 184.160156 C 203.238281 184.839844 203.425781 185.601562 203.929688 186.085938 L 209.457031 191.46875 L 208.148438 199.074219 C 208.03125 199.78125 208.316406 200.480469 208.898438 200.90625 C 209.21875 201.136719 209.601562 201.261719 210 201.261719 C 210.300781 201.261719 210.605469 201.1875 210.871094 201.046875 L 217.699219 197.457031 L 224.535156 201.054688 C 225.152344 201.367188 225.914062 201.320312 226.503906 200.898438 C 227.082031 200.472656 227.363281 199.773438 227.242188 199.070312 L 225.941406 191.46875 L 231.464844 186.085938 C 231.972656 185.59375 232.15625 184.835938 231.9375 184.171875 C 231.722656 183.492188 231.125 182.988281 230.421875 182.886719 Z M 206.511719 185.15625 L 214.242188 184.03125 L 217.699219 177.027344 L 221.15625 184.03125 L 228.882812 185.15625 L 223.289062 190.605469 L 224.609375 198.304688 L 217.699219 194.667969 L 210.785156 198.304688 L 212.105469 190.605469 Z M 206.511719 185.15625 " fill-opacity="1" fill-rule="nonzero"/></g><g clip-path="url(#16dbbcbdcf)"><path fill="#000000" d="M 262.289062 184.160156 C 262.066406 183.488281 261.472656 182.988281 260.773438 182.886719 L 253.144531 181.777344 L 249.730469 174.863281 C 249.421875 174.238281 248.777344 173.847656 248.046875 173.847656 C 247.320312 173.847656 246.675781 174.234375 246.367188 174.863281 L 242.953125 181.777344 L 235.324219 182.886719 C 234.613281 182.988281 234.035156 183.476562 233.808594 184.160156 C 233.582031 184.839844 233.773438 185.601562 234.28125 186.085938 L 239.804688 191.46875 L 238.5 199.074219 C 238.378906 199.78125 238.664062 200.480469 239.25 200.90625 C 239.570312 201.140625 239.953125 201.261719 240.347656 201.261719 C 240.652344 201.261719 240.957031 201.1875 241.21875 201.046875 L 248.042969 197.457031 L 254.882812 201.054688 C 255.496094 201.367188 256.253906 201.324219 256.855469 200.898438 C 257.425781 200.480469 257.714844 199.757812 257.59375 199.070312 L 256.292969 191.46875 L 261.792969 186.101562 C 262.3125 185.613281 262.507812 184.859375 262.289062 184.160156 Z M 236.863281 185.15625 L 244.589844 184.03125 L 248.046875 177.03125 L 251.503906 184.03125 L 259.230469 185.15625 L 253.640625 190.605469 L 254.957031 198.304688 L 248.046875 194.667969 L 241.132812 198.304688 L 242.453125 190.605469 Z M 236.863281 185.15625 " fill-opacity="1" fill-rule="nonzero"/></g><g clip-path="url(#467f1e48f3)"><path fill="#ffbe0d" d="M 136.246094 190.800781 C 135.765625 191.269531 135.546875 191.949219 135.664062 192.613281 L 136.734375 198.949219 C 137.019531 200.625 135.28125 201.898438 133.796875 201.109375 L 128.183594 198.117188 C 127.59375 197.804688 126.886719 197.804688 126.296875 198.117188 L 120.683594 201.109375 C 119.347656 201.820312 117.808594 200.859375 117.726562 199.4375 C 117.710938 199.28125 117.722656 199.117188 117.75 198.949219 L 118.820312 192.613281 C 118.933594 191.949219 118.714844 191.269531 118.238281 190.800781 L 113.695312 186.3125 C 112.492188 185.125 113.160156 183.058594 114.820312 182.8125 L 121.09375 181.890625 C 121.753906 181.792969 122.320312 181.375 122.617188 180.769531 L 125.425781 175.003906 C 126.167969 173.476562 128.308594 173.476562 129.054688 175.003906 L 131.863281 180.769531 C 132.15625 181.371094 132.726562 181.792969 133.382812 181.890625 L 139.664062 182.8125 C 139.824219 182.835938 139.972656 182.878906 140.109375 182.933594 C 141.433594 183.445312 141.871094 185.234375 140.785156 186.3125 Z M 136.246094 190.800781 " fill-opacity="1" fill-rule="nonzero"/></g><g clip-path="url(#68d3baba51)"><path fill="#ffbe0d" d="M 166.402344 190.800781 C 165.921875 191.269531 165.707031 191.949219 165.820312 192.613281 L 166.890625 198.949219 C 167.175781 200.625 165.4375 201.898438 163.957031 201.109375 L 158.339844 198.117188 C 157.75 197.804688 157.046875 197.804688 156.457031 198.117188 L 150.839844 201.109375 C 149.503906 201.820312 147.964844 200.859375 147.882812 199.4375 C 147.867188 199.28125 147.878906 199.117188 147.90625 198.949219 L 148.980469 192.613281 C 149.089844 191.949219 148.871094 191.269531 148.394531 190.800781 L 143.851562 186.3125 C 142.648438 185.125 143.316406 183.058594 144.976562 182.8125 L 151.253906 181.890625 C 151.910156 181.792969 152.480469 181.375 152.773438 180.769531 L 155.582031 175.003906 C 156.324219 173.476562 158.46875 173.476562 159.210938 175.003906 L 162.019531 180.769531 C 162.3125 181.371094 162.882812 181.792969 163.539062 181.890625 L 169.820312 182.8125 C 169.980469 182.835938 170.128906 182.878906 170.269531 182.933594 C 171.59375 183.445312 172.027344 185.234375 170.941406 186.3125 Z M 166.402344 190.800781 " fill-opacity="1" fill-rule="nonzero"/></g><g clip-path="url(#4491f599e4)"><path fill="#ffbe0d" d="M 196.558594 190.800781 C 196.078125 191.269531 195.859375 191.949219 195.972656 192.613281 L 197.046875 198.949219 C 197.332031 200.625 195.59375 201.898438 194.109375 201.109375 L 188.496094 198.117188 C 187.90625 197.804688 187.199219 197.804688 186.609375 198.117188 L 180.996094 201.109375 C 179.660156 201.820312 178.121094 200.859375 178.035156 199.4375 C 178.023438 199.28125 178.035156 199.117188 178.058594 198.949219 L 179.132812 192.613281 C 179.242188 191.949219 179.027344 191.269531 178.550781 190.800781 L 174.007812 186.3125 C 172.804688 185.125 173.46875 183.058594 175.128906 182.8125 L 181.40625 181.890625 C 182.066406 181.792969 182.632812 181.375 182.929688 180.769531 L 185.738281 175.003906 C 186.480469 173.476562 188.621094 173.476562 189.367188 175.003906 L 192.175781 180.769531 C 192.46875 181.371094 193.035156 181.792969 193.695312 181.890625 L 199.976562 182.8125 C 200.132812 182.835938 200.285156 182.878906 200.421875 182.933594 C 201.746094 183.445312 202.183594 185.234375 201.097656 186.3125 Z M 196.558594 190.800781 " fill-opacity="1" fill-rule="nonzero"/></g><g clip-path="url(#892e0164c9)"><path fill="#ffbe0d" d="M 217.710938 175.265625 C 217.828125 175.265625 218.121094 175.300781 218.28125 175.625 L 221.089844 181.394531 C 221.585938 182.410156 222.542969 183.113281 223.652344 183.28125 L 229.925781 184.203125 C 229.996094 184.214844 230.042969 184.226562 230.066406 184.238281 C 230.074219 184.238281 230.078125 184.242188 230.085938 184.246094 C 230.28125 184.320312 230.421875 184.496094 230.46875 184.714844 C 230.5 184.871094 230.492188 185.097656 230.285156 185.304688 L 225.746094 189.792969 C 224.9375 190.585938 224.574219 191.730469 224.761719 192.851562 L 225.835938 199.1875 C 225.871094 199.386719 225.824219 199.558594 225.703125 199.703125 C 225.578125 199.855469 225.394531 199.945312 225.210938 199.945312 C 225.109375 199.945312 225.011719 199.921875 224.910156 199.867188 L 219.296875 196.875 C 218.808594 196.617188 218.257812 196.480469 217.710938 196.480469 C 217.160156 196.480469 216.609375 196.617188 216.121094 196.875 L 210.503906 199.867188 C 210.40625 199.921875 210.308594 199.949219 210.210938 199.949219 C 209.921875 199.949219 209.597656 199.710938 209.574219 199.355469 C 209.574219 199.34375 209.574219 199.328125 209.574219 199.316406 C 209.570312 199.300781 209.570312 199.261719 209.582031 199.1875 L 210.65625 192.847656 C 210.84375 191.730469 210.476562 190.585938 209.675781 189.792969 L 205.128906 185.304688 C 204.882812 185.0625 204.921875 184.789062 204.96875 184.644531 C 205.003906 184.53125 205.128906 184.257812 205.484375 184.203125 L 211.761719 183.28125 C 212.871094 183.113281 213.828125 182.40625 214.324219 181.390625 L 217.136719 175.621094 C 217.292969 175.308594 217.5625 175.265625 217.710938 175.265625 M 217.710938 173.859375 C 216.988281 173.859375 216.269531 174.238281 215.894531 175 L 213.085938 180.769531 C 212.792969 181.371094 212.222656 181.789062 211.5625 181.886719 L 205.289062 182.8125 C 203.628906 183.054688 202.960938 185.121094 204.164062 186.308594 L 208.707031 190.796875 C 209.183594 191.265625 209.402344 191.945312 209.289062 192.613281 L 208.21875 198.949219 C 208.191406 199.117188 208.179688 199.277344 208.195312 199.4375 C 208.257812 200.527344 209.179688 201.347656 210.210938 201.347656 C 210.523438 201.347656 210.84375 201.273438 211.15625 201.105469 L 216.769531 198.113281 C 217.0625 197.957031 217.386719 197.878906 217.710938 197.878906 C 218.035156 197.878906 218.359375 197.957031 218.652344 198.113281 L 224.265625 201.105469 C 224.578125 201.269531 224.898438 201.347656 225.210938 201.347656 C 226.386719 201.347656 227.425781 200.269531 227.203125 198.945312 L 226.132812 192.609375 C 226.015625 191.945312 226.234375 191.265625 226.714844 190.796875 L 231.253906 186.308594 C 232.339844 185.230469 231.90625 183.441406 230.582031 182.929688 C 230.441406 182.871094 230.292969 182.832031 230.132812 182.808594 L 223.851562 181.886719 C 223.195312 181.789062 222.625 181.371094 222.332031 180.765625 L 219.523438 175 C 219.152344 174.242188 218.429688 173.859375 217.710938 173.859375 Z M 217.710938 173.859375 " fill-opacity="1" fill-rule="nonzero"/></g><g clip-path="url(#2620f51097)"><path fill="#ffbe0d" d="M 247.867188 175.265625 C 247.984375 175.265625 248.28125 175.300781 248.4375 175.625 L 251.246094 181.394531 C 251.742188 182.410156 252.699219 183.113281 253.8125 183.28125 L 260.082031 184.203125 C 260.15625 184.214844 260.199219 184.226562 260.222656 184.238281 C 260.230469 184.238281 260.234375 184.242188 260.242188 184.246094 C 260.4375 184.320312 260.582031 184.496094 260.625 184.714844 C 260.65625 184.871094 260.652344 185.097656 260.441406 185.304688 L 255.902344 189.792969 C 255.09375 190.585938 254.730469 191.730469 254.921875 192.851562 L 255.992188 199.1875 C 256.027344 199.386719 255.980469 199.558594 255.859375 199.703125 C 255.734375 199.855469 255.550781 199.945312 255.367188 199.945312 C 255.265625 199.945312 255.167969 199.921875 255.070312 199.867188 L 249.453125 196.875 C 248.964844 196.617188 248.417969 196.480469 247.867188 196.480469 C 247.316406 196.480469 246.765625 196.617188 246.277344 196.875 L 240.664062 199.867188 C 240.566406 199.921875 240.464844 199.949219 240.367188 199.949219 C 240.078125 199.949219 239.753906 199.710938 239.734375 199.355469 C 239.734375 199.34375 239.730469 199.328125 239.730469 199.316406 C 239.726562 199.300781 239.726562 199.261719 239.738281 199.1875 L 240.8125 192.847656 C 241 191.730469 240.632812 190.585938 239.832031 189.792969 L 235.289062 185.304688 C 235.039062 185.0625 235.078125 184.789062 235.125 184.644531 C 235.160156 184.53125 235.285156 184.257812 235.640625 184.203125 L 241.917969 183.28125 C 243.027344 183.113281 243.984375 182.40625 244.480469 181.390625 L 247.292969 175.621094 C 247.449219 175.308594 247.71875 175.265625 247.867188 175.265625 M 247.867188 173.859375 C 247.144531 173.859375 246.425781 174.238281 246.054688 175 L 243.242188 180.769531 C 242.949219 181.371094 242.378906 181.789062 241.722656 181.886719 L 235.445312 182.8125 C 233.785156 183.054688 233.117188 185.121094 234.320312 186.308594 L 238.863281 190.796875 C 239.339844 191.265625 239.558594 191.945312 239.449219 192.613281 L 238.375 198.949219 C 238.347656 199.117188 238.335938 199.277344 238.351562 199.4375 C 238.414062 200.527344 239.335938 201.347656 240.367188 201.347656 C 240.679688 201.347656 241 201.273438 241.3125 201.105469 L 246.925781 198.113281 C 247.21875 197.957031 247.546875 197.878906 247.867188 197.878906 C 248.191406 197.878906 248.515625 197.957031 248.808594 198.113281 L 254.425781 201.105469 C 254.734375 201.269531 255.054688 201.347656 255.367188 201.347656 C 256.542969 201.347656 257.582031 200.269531 257.359375 198.945312 L 256.289062 192.609375 C 256.175781 191.945312 256.394531 191.265625 256.871094 190.796875 L 261.410156 186.308594 C 262.5 185.230469 262.0625 183.441406 260.738281 182.929688 C 260.597656 182.871094 260.449219 182.832031 260.289062 182.808594 L 254.007812 181.886719 C 253.351562 181.789062 252.78125 181.371094 252.488281 180.765625 L 249.679688 175 C 249.308594 174.242188 248.585938 173.859375 247.867188 173.859375 Z M 247.867188 173.859375 " fill-opacity="1" fill-rule="nonzero"/></g><g clip-path="url(#d50ecebb60)"><path fill="#ffce00" d="M 140.113281 182.933594 C 135.140625 191.066406 127.152344 197.105469 117.726562 199.4375 C 117.710938 199.28125 117.722656 199.117188 117.75 198.949219 L 118.820312 192.613281 C 118.933594 191.949219 118.714844 191.269531 118.238281 190.800781 L 113.695312 186.3125 C 112.492188 185.125 113.160156 183.058594 114.820312 182.8125 L 121.09375 181.890625 C 121.753906 181.792969 122.320312 181.375 122.617188 180.769531 L 125.425781 175.003906 C 126.167969 173.476562 128.308594 173.476562 129.054688 175.003906 L 131.863281 180.769531 C 132.15625 181.371094 132.726562 181.792969 133.382812 181.890625 L 139.664062 182.8125 C 139.828125 182.835938 139.972656 182.875 140.113281 182.933594 Z M 140.113281 182.933594 " fill-opacity="1" fill-rule="nonzero"/></g><g clip-path="url(#b9538947ee)"><path fill="#ffce00" d="M 170.269531 182.933594 C 165.300781 191.066406 157.308594 197.105469 147.882812 199.4375 C 147.867188 199.28125 147.878906 199.117188 147.90625 198.949219 L 148.980469 192.613281 C 149.089844 191.949219 148.871094 191.269531 148.394531 190.800781 L 143.851562 186.3125 C 142.648438 185.125 143.316406 183.058594 144.976562 182.8125 L 151.253906 181.890625 C 151.910156 181.792969 152.480469 181.375 152.773438 180.769531 L 155.582031 175.003906 C 156.324219 173.476562 158.46875 173.476562 159.210938 175.003906 L 162.019531 180.769531 C 162.3125 181.371094 162.882812 181.792969 163.539062 181.890625 L 169.820312 182.8125 C 169.980469 182.835938 170.132812 182.875 170.269531 182.933594 Z M 170.269531 182.933594 " fill-opacity="1" fill-rule="nonzero"/></g><g clip-path="url(#77547cd3ad)"><path fill="#ffce00" d="M 200.425781 182.933594 C 195.453125 191.066406 187.464844 197.105469 178.035156 199.4375 C 178.023438 199.28125 178.035156 199.117188 178.058594 198.949219 L 179.132812 192.613281 C 179.242188 191.949219 179.027344 191.269531 178.550781 190.800781 L 174.007812 186.3125 C 172.804688 185.125 173.46875 183.058594 175.128906 182.8125 L 181.40625 181.890625 C 182.066406 181.792969 182.632812 181.375 182.929688 180.769531 L 185.738281 175.003906 C 186.480469 173.476562 188.621094 173.476562 189.367188 175.003906 L 192.175781 180.769531 C 192.46875 181.371094 193.035156 181.792969 193.695312 181.890625 L 199.976562 182.8125 C 200.136719 182.835938 200.285156 182.875 200.425781 182.933594 Z M 200.425781 182.933594 " fill-opacity="1" fill-rule="nonzero"/></g></svg>