<svg xmlns="http://www.w3.org/2000/svg" xmlns:xlink="http://www.w3.org/1999/xlink" width="500" zoomAndPan="magnify" viewBox="0 0 375 374.999991" height="500" preserveAspectRatio="xMidYMid meet" version="1.0"><defs><clipPath id="638410e738"><path d="M 113 173.4375 L 142 173.4375 L 142 201.9375 L 113 201.9375 Z M 113 173.4375 " clip-rule="nonzero"/></clipPath><clipPath id="fe589f880d"><path d="M 143 173.4375 L 172 173.4375 L 172 201.9375 L 143 201.9375 Z M 143 173.4375 " clip-rule="nonzero"/></clipPath><clipPath id="eb97b5ef15"><path d="M 173 173.4375 L 202 173.4375 L 202 201.9375 L 173 201.9375 Z M 173 173.4375 " clip-rule="nonzero"/></clipPath><clipPath id="00d1233803"><path d="M 203 173.4375 L 232 173.4375 L 232 201.9375 L 203 201.9375 Z M 203 173.4375 " clip-rule="nonzero"/></clipPath><clipPath id="b9b3a7492c"><path d="M 233 173.4375 L 262.5 173.4375 L 262.5 201.9375 L 233 201.9375 Z M 233 173.4375 " clip-rule="nonzero"/></clipPath><clipPath id="9ff94112a4"><path d="M 113 173.4375 L 141 173.4375 L 141 200 L 113 200 Z M 113 173.4375 " clip-rule="nonzero"/></clipPath><clipPath id="b128c485e1"><path d="M 143 173.4375 L 171 173.4375 L 171 200 L 143 200 Z M 143 173.4375 " clip-rule="nonzero"/></clipPath></defs><g clip-path="url(#638410e738)"><path fill="#ffbe0d" d="M 136.246094 190.796875 C 135.765625 191.265625 135.546875 191.945312 135.664062 192.609375 L 136.734375 198.945312 C 137.019531 200.621094 135.28125 201.898438 133.796875 201.105469 L 128.183594 198.113281 C 127.59375 197.800781 126.886719 197.800781 126.296875 198.113281 L 120.683594 201.105469 C 119.347656 201.816406 117.808594 200.855469 117.726562 199.433594 C 117.710938 199.277344 117.722656 199.113281 117.75 198.945312 L 118.820312 192.609375 C 118.933594 191.945312 118.714844 191.265625 118.238281 190.796875 L 113.695312 186.308594 C 112.492188 185.121094 113.160156 183.054688 114.820312 182.808594 L 121.09375 181.886719 C 121.753906 181.789062 122.320312 181.371094 122.617188 180.765625 L 125.425781 175 C 126.167969 173.476562 128.308594 173.476562 129.054688 175 L 131.863281 180.765625 C 132.15625 181.367188 132.726562 181.789062 133.382812 181.886719 L 139.664062 182.808594 C 139.824219 182.832031 139.972656 182.875 140.109375 182.929688 C 141.433594 183.441406 141.871094 185.230469 140.785156 186.308594 Z M 136.246094 190.796875 " fill-opacity="1" fill-rule="nonzero"/></g><g clip-path="url(#fe589f880d)"><path fill="#ffbe0d" d="M 166.402344 190.796875 C 165.921875 191.265625 165.707031 191.945312 165.820312 192.609375 L 166.890625 198.945312 C 167.175781 200.621094 165.4375 201.898438 163.957031 201.105469 L 158.339844 198.113281 C 157.75 197.800781 157.046875 197.800781 156.457031 198.113281 L 150.839844 201.105469 C 149.503906 201.816406 147.964844 200.855469 147.882812 199.433594 C 147.867188 199.277344 147.878906 199.113281 147.90625 198.945312 L 148.980469 192.609375 C 149.089844 191.945312 148.871094 191.265625 148.394531 190.796875 L 143.851562 186.308594 C 142.648438 185.121094 143.316406 183.054688 144.976562 182.808594 L 151.253906 181.886719 C 151.910156 181.789062 152.480469 181.371094 152.773438 180.765625 L 155.582031 175 C 156.324219 173.476562 158.46875 173.476562 159.210938 175 L 162.019531 180.765625 C 162.3125 181.367188 162.882812 181.789062 163.539062 181.886719 L 169.820312 182.808594 C 169.980469 182.832031 170.128906 182.875 170.269531 182.929688 C 171.59375 183.441406 172.027344 185.230469 170.941406 186.308594 Z M 166.402344 190.796875 " fill-opacity="1" fill-rule="nonzero"/></g><g clip-path="url(#eb97b5ef15)"><path fill="#ffbe0d" d="M 187.554688 175.261719 C 187.671875 175.261719 187.96875 175.296875 188.125 175.621094 L 190.933594 181.390625 C 191.429688 182.40625 192.386719 183.113281 193.5 183.277344 L 199.769531 184.199219 C 199.84375 184.210938 199.886719 184.226562 199.910156 184.234375 C 199.917969 184.234375 199.921875 184.238281 199.929688 184.242188 C 200.125 184.316406 200.269531 184.492188 200.3125 184.714844 C 200.347656 184.867188 200.339844 185.09375 200.128906 185.300781 L 195.589844 189.789062 C 194.785156 190.582031 194.417969 191.726562 194.609375 192.847656 L 195.679688 199.183594 C 195.710938 199.382812 195.667969 199.554688 195.546875 199.699219 C 195.421875 199.851562 195.238281 199.941406 195.054688 199.941406 C 194.953125 199.941406 194.855469 199.917969 194.757812 199.863281 L 189.140625 196.871094 C 188.65625 196.613281 188.105469 196.476562 187.554688 196.476562 C 187.003906 196.476562 186.457031 196.613281 185.96875 196.871094 L 180.351562 199.867188 C 180.253906 199.917969 180.15625 199.945312 180.054688 199.945312 C 179.765625 199.945312 179.445312 199.707031 179.421875 199.351562 C 179.421875 199.339844 179.421875 199.324219 179.417969 199.3125 C 179.417969 199.296875 179.417969 199.257812 179.429688 199.183594 L 180.503906 192.84375 C 180.6875 191.726562 180.324219 190.582031 179.523438 189.789062 L 174.976562 185.300781 C 174.730469 185.058594 174.769531 184.785156 174.816406 184.640625 C 174.851562 184.527344 174.976562 184.253906 175.332031 184.199219 L 181.609375 183.277344 C 182.71875 183.109375 183.675781 182.402344 184.171875 181.386719 L 186.980469 175.621094 C 187.136719 175.308594 187.40625 175.261719 187.554688 175.261719 M 187.554688 173.855469 C 186.832031 173.855469 186.113281 174.238281 185.742188 175 L 182.929688 180.765625 C 182.636719 181.367188 182.066406 181.789062 181.410156 181.886719 L 175.132812 182.808594 C 173.472656 183.054688 172.808594 185.121094 174.011719 186.308594 L 178.554688 190.796875 C 179.027344 191.265625 179.246094 191.945312 179.136719 192.609375 L 178.0625 198.945312 C 178.035156 199.113281 178.023438 199.277344 178.039062 199.433594 C 178.101562 200.523438 179.027344 201.347656 180.054688 201.347656 C 180.367188 201.347656 180.6875 201.269531 181 201.105469 L 186.613281 198.113281 C 186.910156 197.957031 187.234375 197.878906 187.554688 197.878906 C 187.878906 197.878906 188.203125 197.957031 188.496094 198.113281 L 194.113281 201.105469 C 194.421875 201.269531 194.742188 201.34375 195.054688 201.34375 C 196.230469 201.34375 197.269531 200.269531 197.046875 198.945312 L 195.976562 192.609375 C 195.863281 191.941406 196.082031 191.261719 196.558594 190.792969 L 201.097656 186.304688 C 202.1875 185.230469 201.75 183.441406 200.425781 182.925781 C 200.285156 182.871094 200.136719 182.832031 199.976562 182.808594 L 193.699219 181.882812 C 193.039062 181.785156 192.46875 181.367188 192.175781 180.765625 L 189.367188 174.996094 C 188.996094 174.238281 188.277344 173.855469 187.554688 173.855469 Z M 187.554688 173.855469 " fill-opacity="1" fill-rule="nonzero"/></g><g clip-path="url(#00d1233803)"><path fill="#ffbe0d" d="M 217.710938 175.261719 C 217.828125 175.261719 218.121094 175.296875 218.28125 175.621094 L 221.089844 181.390625 C 221.585938 182.40625 222.542969 183.113281 223.652344 183.277344 L 229.925781 184.199219 C 229.996094 184.210938 230.042969 184.226562 230.066406 184.234375 C 230.074219 184.234375 230.078125 184.238281 230.085938 184.242188 C 230.28125 184.316406 230.421875 184.492188 230.46875 184.714844 C 230.5 184.867188 230.492188 185.09375 230.285156 185.300781 L 225.746094 189.789062 C 224.9375 190.582031 224.574219 191.726562 224.761719 192.847656 L 225.835938 199.183594 C 225.871094 199.382812 225.824219 199.554688 225.703125 199.699219 C 225.578125 199.851562 225.394531 199.941406 225.210938 199.941406 C 225.109375 199.941406 225.011719 199.917969 224.910156 199.863281 L 219.296875 196.871094 C 218.808594 196.613281 218.257812 196.476562 217.710938 196.476562 C 217.160156 196.476562 216.609375 196.613281 216.121094 196.871094 L 210.503906 199.867188 C 210.40625 199.917969 210.308594 199.945312 210.210938 199.945312 C 209.921875 199.945312 209.597656 199.707031 209.574219 199.351562 C 209.574219 199.339844 209.574219 199.324219 209.574219 199.3125 C 209.570312 199.296875 209.570312 199.257812 209.582031 199.183594 L 210.65625 192.84375 C 210.84375 191.726562 210.476562 190.582031 209.675781 189.789062 L 205.128906 185.300781 C 204.882812 185.058594 204.921875 184.785156 204.96875 184.640625 C 205.003906 184.527344 205.128906 184.253906 205.484375 184.199219 L 211.761719 183.277344 C 212.871094 183.109375 213.828125 182.402344 214.324219 181.386719 L 217.136719 175.621094 C 217.292969 175.308594 217.5625 175.261719 217.710938 175.261719 M 217.710938 173.855469 C 216.988281 173.855469 216.269531 174.238281 215.894531 175 L 213.085938 180.765625 C 212.792969 181.367188 212.222656 181.789062 211.5625 181.886719 L 205.289062 182.808594 C 203.628906 183.054688 202.960938 185.121094 204.164062 186.308594 L 208.707031 190.796875 C 209.183594 191.265625 209.402344 191.945312 209.289062 192.609375 L 208.21875 198.945312 C 208.191406 199.113281 208.179688 199.277344 208.195312 199.433594 C 208.257812 200.523438 209.179688 201.347656 210.210938 201.347656 C 210.523438 201.347656 210.84375 201.269531 211.15625 201.105469 L 216.769531 198.113281 C 217.0625 197.957031 217.386719 197.878906 217.710938 197.878906 C 218.035156 197.878906 218.359375 197.957031 218.652344 198.113281 L 224.265625 201.105469 C 224.578125 201.269531 224.898438 201.34375 225.210938 201.34375 C 226.386719 201.34375 227.425781 200.269531 227.203125 198.945312 L 226.132812 192.609375 C 226.015625 191.941406 226.234375 191.261719 226.714844 190.792969 L 231.253906 186.304688 C 232.339844 185.230469 231.90625 183.441406 230.582031 182.925781 C 230.441406 182.871094 230.292969 182.832031 230.132812 182.808594 L 223.851562 181.882812 C 223.195312 181.785156 222.625 181.367188 222.332031 180.765625 L 219.523438 174.996094 C 219.152344 174.238281 218.429688 173.855469 217.710938 173.855469 Z M 217.710938 173.855469 " fill-opacity="1" fill-rule="nonzero"/></g><g clip-path="url(#b9b3a7492c)"><path fill="#ffbe0d" d="M 247.867188 175.261719 C 247.984375 175.261719 248.28125 175.296875 248.4375 175.621094 L 251.246094 181.390625 C 251.742188 182.40625 252.699219 183.113281 253.8125 183.277344 L 260.082031 184.199219 C 260.15625 184.210938 260.199219 184.226562 260.222656 184.234375 C 260.230469 184.234375 260.234375 184.238281 260.242188 184.242188 C 260.4375 184.316406 260.582031 184.492188 260.625 184.714844 C 260.65625 184.867188 260.652344 185.09375 260.441406 185.300781 L 255.902344 189.789062 C 255.09375 190.582031 254.730469 191.726562 254.921875 192.847656 L 255.992188 199.183594 C 256.027344 199.382812 255.980469 199.554688 255.859375 199.699219 C 255.734375 199.851562 255.550781 199.941406 255.367188 199.941406 C 255.265625 199.941406 255.167969 199.917969 255.070312 199.863281 L 249.453125 196.871094 C 248.964844 196.613281 248.417969 196.476562 247.867188 196.476562 C 247.316406 196.476562 246.765625 196.613281 246.277344 196.871094 L 240.664062 199.867188 C 240.566406 199.917969 240.464844 199.945312 240.367188 199.945312 C 240.078125 199.945312 239.753906 199.707031 239.734375 199.351562 C 239.734375 199.339844 239.730469 199.324219 239.730469 199.3125 C 239.726562 199.296875 239.726562 199.257812 239.738281 199.183594 L 240.8125 192.84375 C 241 191.726562 240.632812 190.582031 239.832031 189.789062 L 235.289062 185.300781 C 235.039062 185.058594 235.078125 184.785156 235.125 184.640625 C 235.160156 184.527344 235.285156 184.253906 235.640625 184.199219 L 241.917969 183.277344 C 243.027344 183.109375 243.984375 182.402344 244.480469 181.386719 L 247.292969 175.621094 C 247.449219 175.308594 247.71875 175.261719 247.867188 175.261719 M 247.867188 173.855469 C 247.144531 173.855469 246.425781 174.238281 246.054688 175 L 243.242188 180.765625 C 242.949219 181.367188 242.378906 181.789062 241.722656 181.886719 L 235.445312 182.808594 C 233.785156 183.054688 233.117188 185.121094 234.320312 186.308594 L 238.863281 190.796875 C 239.339844 191.265625 239.558594 191.945312 239.449219 192.609375 L 238.375 198.945312 C 238.347656 199.113281 238.335938 199.277344 238.351562 199.433594 C 238.414062 200.523438 239.335938 201.347656 240.367188 201.347656 C 240.679688 201.347656 241 201.269531 241.3125 201.105469 L 246.925781 198.113281 C 247.21875 197.957031 247.546875 197.878906 247.867188 197.878906 C 248.191406 197.878906 248.515625 197.957031 248.808594 198.113281 L 254.425781 201.105469 C 254.734375 201.269531 255.054688 201.34375 255.367188 201.34375 C 256.542969 201.34375 257.582031 200.269531 257.359375 198.945312 L 256.289062 192.609375 C 256.175781 191.941406 256.394531 191.261719 256.871094 190.792969 L 261.410156 186.304688 C 262.5 185.230469 262.0625 183.441406 260.738281 182.925781 C 260.597656 182.871094 260.449219 182.832031 260.289062 182.808594 L 254.007812 181.882812 C 253.351562 181.785156 252.78125 181.367188 252.488281 180.765625 L 249.679688 174.996094 C 249.308594 174.238281 248.585938 173.855469 247.867188 173.855469 Z M 247.867188 173.855469 " fill-opacity="1" fill-rule="nonzero"/></g><g clip-path="url(#9ff94112a4)"><path fill="#ffce00" d="M 140.113281 182.929688 C 135.140625 191.0625 127.152344 197.101562 117.726562 199.433594 C 117.710938 199.277344 117.722656 199.113281 117.75 198.945312 L 118.820312 192.609375 C 118.933594 191.945312 118.714844 191.265625 118.238281 190.796875 L 113.695312 186.308594 C 112.492188 185.121094 113.160156 183.054688 114.820312 182.808594 L 121.09375 181.886719 C 121.753906 181.789062 122.320312 181.371094 122.617188 180.765625 L 125.425781 175 C 126.167969 173.476562 128.308594 173.476562 129.054688 175 L 131.863281 180.765625 C 132.15625 181.367188 132.726562 181.789062 133.382812 181.886719 L 139.664062 182.808594 C 139.828125 182.835938 139.972656 182.875 140.113281 182.929688 Z M 140.113281 182.929688 " fill-opacity="1" fill-rule="nonzero"/></g><g clip-path="url(#b128c485e1)"><path fill="#ffce00" d="M 170.269531 182.929688 C 165.300781 191.0625 157.308594 197.101562 147.882812 199.433594 C 147.867188 199.277344 147.878906 199.113281 147.90625 198.945312 L 148.980469 192.609375 C 149.089844 191.945312 148.871094 191.265625 148.394531 190.796875 L 143.851562 186.308594 C 142.648438 185.121094 143.316406 183.054688 144.976562 182.808594 L 151.253906 181.886719 C 151.910156 181.789062 152.480469 181.371094 152.773438 180.765625 L 155.582031 175 C 156.324219 173.476562 158.46875 173.476562 159.210938 175 L 162.019531 180.765625 C 162.3125 181.367188 162.882812 181.789062 163.539062 181.886719 L 169.820312 182.808594 C 169.980469 182.835938 170.132812 182.875 170.269531 182.929688 Z M 170.269531 182.929688 " fill-opacity="1" fill-rule="nonzero"/></g></svg>