<svg xmlns="http://www.w3.org/2000/svg" xmlns:xlink="http://www.w3.org/1999/xlink" width="500" zoomAndPan="magnify" viewBox="0 0 375 74.999997" height="100" preserveAspectRatio="xMidYMid meet" version="1.0"><path fill="#ffbe0d" d="M 62.796875 44.867188 C 61.632812 45.992188 61.105469 47.617188 61.378906 49.214844 L 63.984375 64.390625 C 64.675781 68.398438 60.457031 71.457031 56.851562 69.558594 L 43.207031 62.390625 C 41.773438 61.644531 40.058594 61.644531 38.625 62.390625 L 24.984375 69.558594 C 21.738281 71.269531 17.996094 68.964844 17.792969 65.558594 C 17.757812 65.179688 17.785156 64.792969 17.851562 64.390625 L 20.457031 49.214844 C 20.726562 47.617188 20.195312 45.992188 19.042969 44.867188 L 8.003906 34.117188 C 5.078125 31.277344 6.695312 26.328125 10.730469 25.742188 L 25.984375 23.53125 C 27.582031 23.292969 28.964844 22.296875 29.679688 20.847656 L 36.507812 7.035156 C 38.3125 3.382812 43.515625 3.382812 45.324219 7.035156 L 52.148438 20.847656 C 52.863281 22.292969 54.242188 23.292969 55.84375 23.53125 L 71.105469 25.742188 C 71.488281 25.796875 71.855469 25.894531 72.191406 26.027344 C 75.410156 27.253906 76.46875 31.542969 73.828125 34.117188 Z M 62.796875 44.867188 " fill-opacity="1" fill-rule="nonzero"/><path fill="#ffbe0d" d="M 136.078125 44.867188 C 134.914062 45.992188 134.386719 47.617188 134.660156 49.214844 L 137.265625 64.390625 C 137.957031 68.398438 133.738281 71.457031 130.132812 69.558594 L 116.488281 62.390625 C 115.054688 61.644531 113.339844 61.644531 111.90625 62.390625 L 98.265625 69.558594 C 95.019531 71.269531 91.277344 68.964844 91.074219 65.558594 C 91.039062 65.179688 91.066406 64.792969 91.132812 64.390625 L 93.738281 49.214844 C 94.007812 47.617188 93.476562 45.992188 92.324219 44.867188 L 81.285156 34.117188 C 78.359375 31.277344 79.976562 26.328125 84.011719 25.742188 L 99.265625 23.53125 C 100.863281 23.292969 102.246094 22.296875 102.960938 20.847656 L 109.789062 7.035156 C 111.59375 3.382812 116.796875 3.382812 118.605469 7.035156 L 125.429688 20.847656 C 126.144531 22.292969 127.523438 23.292969 129.125 23.53125 L 144.386719 25.742188 C 144.773438 25.796875 145.136719 25.894531 145.472656 26.027344 C 148.691406 27.253906 149.753906 31.542969 147.109375 34.117188 Z M 136.078125 44.867188 " fill-opacity="1" fill-rule="nonzero"/><path fill="#ffbe0d" d="M 187.476562 7.660156 C 187.765625 7.660156 188.480469 7.746094 188.867188 8.523438 L 195.6875 22.339844 C 196.894531 24.773438 199.222656 26.464844 201.921875 26.863281 L 217.164062 29.070312 C 217.339844 29.097656 217.449219 29.128906 217.503906 29.152344 C 217.523438 29.15625 217.535156 29.164062 217.554688 29.171875 C 218.027344 29.351562 218.371094 29.773438 218.484375 30.300781 C 218.5625 30.671875 218.542969 31.214844 218.035156 31.710938 L 207.007812 42.457031 C 205.046875 44.359375 204.15625 47.101562 204.621094 49.785156 L 207.222656 64.960938 C 207.304688 65.433594 207.199219 65.851562 206.902344 66.199219 C 206.597656 66.5625 206.148438 66.777344 205.703125 66.777344 C 205.460938 66.777344 205.21875 66.714844 204.984375 66.585938 L 191.335938 59.417969 C 190.152344 58.800781 188.820312 58.472656 187.480469 58.472656 C 186.144531 58.472656 184.8125 58.800781 183.625 59.421875 L 169.976562 66.589844 C 169.738281 66.71875 169.5 66.78125 169.257812 66.78125 C 168.554688 66.78125 167.769531 66.210938 167.71875 65.367188 C 167.71875 65.332031 167.714844 65.300781 167.710938 65.265625 C 167.707031 65.234375 167.707031 65.136719 167.730469 64.960938 L 170.34375 49.777344 C 170.796875 47.097656 169.90625 44.359375 167.960938 42.460938 L 156.914062 31.710938 C 156.316406 31.128906 156.410156 30.472656 156.519531 30.128906 C 156.609375 29.851562 156.910156 29.195312 157.773438 29.070312 L 173.03125 26.859375 C 175.722656 26.460938 178.050781 24.769531 179.257812 22.335938 L 186.089844 8.519531 C 186.460938 7.773438 187.117188 7.660156 187.476562 7.660156 M 187.476562 4.296875 C 185.722656 4.296875 183.976562 5.210938 183.070312 7.035156 L 176.242188 20.847656 C 175.527344 22.292969 174.144531 23.292969 172.546875 23.53125 L 157.292969 25.742188 C 153.257812 26.328125 151.640625 31.277344 154.566406 34.117188 L 165.605469 44.867188 C 166.757812 45.992188 167.289062 47.617188 167.019531 49.214844 L 164.414062 64.390625 C 164.347656 64.792969 164.320312 65.179688 164.355469 65.558594 C 164.507812 68.171875 166.753906 70.136719 169.257812 70.136719 C 170.015625 70.136719 170.796875 69.957031 171.550781 69.558594 L 185.195312 62.390625 C 185.910156 62.019531 186.699219 61.832031 187.480469 61.832031 C 188.269531 61.832031 189.054688 62.019531 189.769531 62.390625 L 203.414062 69.558594 C 204.167969 69.953125 204.949219 70.132812 205.703125 70.132812 C 208.566406 70.132812 211.089844 67.558594 210.546875 64.382812 L 207.941406 49.210938 C 207.667969 47.613281 208.199219 45.988281 209.359375 44.863281 L 220.390625 34.113281 C 223.035156 31.539062 221.972656 27.253906 218.753906 26.023438 C 218.417969 25.886719 218.058594 25.792969 217.667969 25.738281 L 202.40625 23.527344 C 200.804688 23.289062 199.425781 22.292969 198.710938 20.839844 L 191.886719 7.03125 C 190.984375 5.210938 189.230469 4.296875 187.476562 4.296875 Z M 187.476562 4.296875 " fill-opacity="1" fill-rule="nonzero"/><path fill="#ffbe0d" d="M 260.753906 7.660156 C 261.042969 7.660156 261.757812 7.746094 262.144531 8.523438 L 268.964844 22.339844 C 270.171875 24.773438 272.5 26.464844 275.199219 26.863281 L 290.441406 29.070312 C 290.617188 29.097656 290.726562 29.128906 290.78125 29.152344 C 290.800781 29.15625 290.8125 29.164062 290.832031 29.171875 C 291.304688 29.351562 291.648438 29.773438 291.757812 30.300781 C 291.839844 30.671875 291.820312 31.214844 291.3125 31.710938 L 280.285156 42.457031 C 278.320312 44.359375 277.433594 47.101562 277.898438 49.785156 L 280.5 64.960938 C 280.585938 65.433594 280.476562 65.851562 280.179688 66.199219 C 279.875 66.5625 279.425781 66.777344 278.980469 66.777344 C 278.738281 66.777344 278.496094 66.714844 278.257812 66.585938 L 264.609375 59.417969 C 263.425781 58.800781 262.09375 58.472656 260.753906 58.472656 C 259.417969 58.472656 258.085938 58.800781 256.898438 59.421875 L 243.25 66.589844 C 243.011719 66.71875 242.769531 66.78125 242.53125 66.78125 C 241.828125 66.78125 241.042969 66.210938 240.992188 65.367188 C 240.992188 65.332031 240.988281 65.300781 240.980469 65.265625 C 240.976562 65.234375 240.976562 65.136719 241.003906 64.960938 L 243.617188 49.777344 C 244.070312 47.097656 243.179688 44.359375 241.230469 42.460938 L 230.1875 31.710938 C 229.585938 31.128906 229.683594 30.472656 229.792969 30.128906 C 229.882812 29.851562 230.183594 29.195312 231.046875 29.070312 L 246.304688 26.859375 C 248.996094 26.460938 251.324219 24.769531 252.53125 22.335938 L 259.359375 8.519531 C 259.742188 7.773438 260.394531 7.660156 260.753906 7.660156 M 260.753906 4.296875 C 259 4.296875 257.25 5.210938 256.347656 7.035156 L 249.519531 20.847656 C 248.804688 22.292969 247.421875 23.292969 245.824219 23.53125 L 230.570312 25.742188 C 226.535156 26.328125 224.917969 31.277344 227.84375 34.117188 L 238.882812 44.867188 C 240.035156 45.992188 240.566406 47.617188 240.296875 49.214844 L 237.691406 64.390625 C 237.625 64.792969 237.597656 65.179688 237.632812 65.558594 C 237.785156 68.171875 240.03125 70.136719 242.535156 70.136719 C 243.292969 70.136719 244.074219 69.957031 244.828125 69.558594 L 258.46875 62.390625 C 259.183594 62.019531 259.972656 61.832031 260.757812 61.832031 C 261.546875 61.832031 262.332031 62.019531 263.046875 62.390625 L 276.691406 69.558594 C 277.445312 69.953125 278.226562 70.132812 278.980469 70.132812 C 281.84375 70.132812 284.367188 67.558594 283.824219 64.382812 L 281.21875 49.210938 C 280.945312 47.613281 281.472656 45.988281 282.636719 44.863281 L 293.667969 34.113281 C 296.308594 31.539062 295.25 27.253906 292.03125 26.023438 C 291.695312 25.886719 291.335938 25.792969 290.945312 25.738281 L 275.683594 23.527344 C 274.082031 23.289062 272.703125 22.292969 271.988281 20.839844 L 265.164062 7.03125 C 264.261719 5.210938 262.507812 4.296875 260.753906 4.296875 Z M 260.753906 4.296875 " fill-opacity="1" fill-rule="nonzero"/><path fill="#ffbe0d" d="M 334.035156 7.660156 C 334.324219 7.660156 335.039062 7.746094 335.425781 8.523438 L 342.246094 22.339844 C 343.453125 24.773438 345.78125 26.464844 348.480469 26.863281 L 363.722656 29.070312 C 363.898438 29.097656 364.007812 29.128906 364.0625 29.152344 C 364.082031 29.15625 364.09375 29.164062 364.113281 29.171875 C 364.585938 29.351562 364.929688 29.773438 365.042969 30.300781 C 365.121094 30.671875 365.101562 31.214844 364.59375 31.710938 L 353.566406 42.457031 C 351.605469 44.359375 350.714844 47.101562 351.179688 49.785156 L 353.78125 64.960938 C 353.867188 65.433594 353.757812 65.851562 353.460938 66.199219 C 353.15625 66.5625 352.707031 66.777344 352.261719 66.777344 C 352.019531 66.777344 351.777344 66.714844 351.539062 66.585938 L 337.890625 59.417969 C 336.707031 58.800781 335.375 58.472656 334.035156 58.472656 C 332.699219 58.472656 331.367188 58.800781 330.179688 59.421875 L 316.53125 66.589844 C 316.292969 66.71875 316.050781 66.78125 315.8125 66.78125 C 315.109375 66.78125 314.324219 66.210938 314.273438 65.367188 C 314.273438 65.332031 314.269531 65.300781 314.261719 65.265625 C 314.257812 65.234375 314.257812 65.136719 314.285156 64.960938 L 316.898438 49.777344 C 317.351562 47.097656 316.460938 44.359375 314.511719 42.460938 L 303.46875 31.710938 C 302.867188 31.128906 302.964844 30.472656 303.074219 30.128906 C 303.164062 29.851562 303.464844 29.195312 304.328125 29.070312 L 319.585938 26.859375 C 322.277344 26.460938 324.605469 24.769531 325.8125 22.335938 L 332.640625 8.519531 C 333.019531 7.773438 333.675781 7.660156 334.035156 7.660156 M 334.035156 4.296875 C 332.28125 4.296875 330.535156 5.210938 329.628906 7.035156 L 322.800781 20.847656 C 322.085938 22.292969 320.703125 23.292969 319.105469 23.53125 L 303.851562 25.742188 C 299.816406 26.328125 298.199219 31.277344 301.125 34.117188 L 312.164062 44.867188 C 313.316406 45.992188 313.847656 47.617188 313.578125 49.214844 L 310.972656 64.390625 C 310.90625 64.792969 310.878906 65.179688 310.914062 65.558594 C 311.066406 68.171875 313.3125 70.136719 315.816406 70.136719 C 316.574219 70.136719 317.355469 69.957031 318.109375 69.558594 L 331.753906 62.390625 C 332.464844 62.019531 333.253906 61.832031 334.039062 61.832031 C 334.824219 61.832031 335.613281 62.019531 336.328125 62.390625 L 349.972656 69.558594 C 350.726562 69.953125 351.507812 70.132812 352.261719 70.132812 C 355.125 70.132812 357.648438 67.558594 357.105469 64.382812 L 354.5 49.210938 C 354.226562 47.613281 354.753906 45.988281 355.917969 44.863281 L 366.949219 34.113281 C 369.589844 31.539062 368.53125 27.253906 365.3125 26.023438 C 364.976562 25.886719 364.617188 25.792969 364.226562 25.738281 L 348.964844 23.527344 C 347.363281 23.289062 345.984375 22.292969 345.269531 20.839844 L 338.445312 7.03125 C 337.539062 5.210938 335.785156 4.296875 334.035156 4.296875 Z M 334.035156 4.296875 " fill-opacity="1" fill-rule="nonzero"/><path fill="#ffce00" d="M 72.195312 26.027344 C 60.117188 45.507812 40.699219 59.976562 17.792969 65.558594 C 17.757812 65.179688 17.785156 64.792969 17.851562 64.390625 L 20.457031 49.214844 C 20.726562 47.617188 20.195312 45.992188 19.042969 44.867188 L 8.003906 34.117188 C 5.078125 31.277344 6.695312 26.328125 10.730469 25.742188 L 25.984375 23.53125 C 27.582031 23.292969 28.964844 22.296875 29.679688 20.847656 L 36.507812 7.035156 C 38.3125 3.382812 43.515625 3.382812 45.324219 7.035156 L 52.148438 20.847656 C 52.863281 22.292969 54.242188 23.292969 55.84375 23.53125 L 71.105469 25.742188 C 71.5 25.804688 71.859375 25.894531 72.195312 26.027344 Z M 72.195312 26.027344 " fill-opacity="1" fill-rule="nonzero"/><path fill="#ffce00" d="M 145.476562 26.027344 C 133.398438 45.507812 113.980469 59.976562 91.074219 65.558594 C 91.039062 65.179688 91.066406 64.792969 91.132812 64.390625 L 93.738281 49.214844 C 94.007812 47.617188 93.476562 45.992188 92.324219 44.867188 L 81.285156 34.117188 C 78.359375 31.277344 79.976562 26.328125 84.011719 25.742188 L 99.265625 23.53125 C 100.863281 23.292969 102.246094 22.296875 102.960938 20.847656 L 109.789062 7.035156 C 111.59375 3.382812 116.796875 3.382812 118.605469 7.035156 L 125.429688 20.847656 C 126.144531 22.292969 127.523438 23.292969 129.125 23.53125 L 144.386719 25.742188 C 144.777344 25.804688 145.140625 25.894531 145.476562 26.027344 Z M 145.476562 26.027344 " fill-opacity="1" fill-rule="nonzero"/></svg>