<svg xmlns="http://www.w3.org/2000/svg" xmlns:xlink="http://www.w3.org/1999/xlink" width="500" zoomAndPan="magnify" viewBox="0 0 375 374.999991" height="500" preserveAspectRatio="xMidYMid meet" version="1.0"><defs><clipPath id="0befcc53f9"><path d="M 171 173.4375 L 204 173.4375 L 204 201.9375 L 171 201.9375 Z M 171 173.4375 " clip-rule="nonzero"/></clipPath></defs><g clip-path="url(#0befcc53f9)"><path fill="#ffffff" d="M 200.539062 189.707031 L 187.726562 201.355469 L 187.5 201.5625 L 187.273438 201.355469 L 174.460938 189.707031 C 170.75 186.332031 170.371094 180.46875 173.613281 176.609375 C 175.378906 174.511719 177.851562 173.4375 180.335938 173.4375 C 182.417969 173.4375 184.511719 174.195312 186.203125 175.730469 L 187.5 176.90625 L 188.792969 175.730469 C 190.484375 174.195312 192.578125 173.4375 194.660156 173.4375 C 197.148438 173.4375 199.621094 174.511719 201.382812 176.609375 C 204.628906 180.46875 204.25 186.332031 200.539062 189.707031 Z M 200.539062 189.707031 " fill-opacity="1" fill-rule="nonzero"/></g></svg>