<svg xmlns="http://www.w3.org/2000/svg" xmlns:xlink="http://www.w3.org/1999/xlink" width="500" zoomAndPan="magnify" viewBox="0 0 375 374.999991" height="500" preserveAspectRatio="xMidYMid meet" version="1.0"><defs><clipPath id="2d142ab016"><path d="M 172.8125 185 L 182 185 L 182 201.9375 L 172.8125 201.9375 Z M 172.8125 185 " clip-rule="nonzero"/></clipPath><clipPath id="69e159d1ba"><path d="M 182 173.4375 L 202.0625 173.4375 L 202.0625 201 L 182 201 Z M 182 173.4375 " clip-rule="nonzero"/></clipPath></defs><g clip-path="url(#2d142ab016)"><path fill="#ffffff" d="M 181.34375 200.898438 C 180.832031 201.28125 180.203125 201.511719 179.515625 201.511719 L 175.859375 201.511719 C 174.179688 201.511719 172.8125 200.144531 172.8125 198.46875 L 172.8125 188.71875 C 172.8125 187.039062 174.179688 185.671875 175.859375 185.671875 L 181.34375 185.671875 Z M 181.34375 200.898438 " fill-opacity="1" fill-rule="nonzero"/></g><g clip-path="url(#69e159d1ba)"><path fill="#ffffff" d="M 202.058594 190.242188 C 202.058594 191.296875 201.453125 192.226562 200.554688 192.679688 C 200.742188 193.054688 200.839844 193.464844 200.839844 193.898438 C 200.839844 194.957031 200.234375 195.882812 199.332031 196.335938 C 199.613281 196.890625 199.695312 197.53125 199.554688 198.164062 C 199.28125 199.402344 198.121094 200.292969 196.792969 200.292969 L 185.609375 200.292969 C 184.808594 200.292969 183.554688 200.042969 182.5625 199.574219 L 182.5625 186.515625 L 182.707031 186.441406 L 186.21875 178.835938 L 186.21875 174.707031 C 186.21875 174.519531 186.300781 174.34375 186.445312 174.230469 C 186.484375 174.199219 187.386719 173.488281 188.65625 173.488281 C 190.0625 173.488281 192.308594 175.71875 192.308594 178.359375 C 192.308594 180.027344 191.714844 182.101562 191.339844 183.234375 L 198.867188 183.234375 C 200.507812 183.234375 201.902344 184.449219 202.046875 185.996094 C 202.125 186.867188 201.835938 187.699219 201.265625 188.324219 C 201.769531 188.828125 202.058594 189.507812 202.058594 190.242188 Z M 202.058594 190.242188 " fill-opacity="1" fill-rule="nonzero"/></g></svg>