<svg xmlns="http://www.w3.org/2000/svg" xmlns:xlink="http://www.w3.org/1999/xlink" width="500" zoomAndPan="magnify" viewBox="0 0 375 374.999991" height="500" preserveAspectRatio="xMidYMid meet" version="1.0"><defs><clipPath id="5033d14255"><path d="M 174.84375 173.4375 L 200.34375 173.4375 L 200.34375 201.9375 L 174.84375 201.9375 Z M 174.84375 173.4375 " clip-rule="nonzero"/></clipPath></defs><g clip-path="url(#5033d14255)"><path fill="#ffffff" d="M 195.9375 193.316406 C 194.867188 193.316406 193.90625 193.730469 193.175781 194.398438 L 183.15625 188.554688 C 183.230469 188.238281 183.28125 187.90625 183.28125 187.570312 C 183.28125 187.234375 183.230469 186.902344 183.15625 186.585938 L 193.070312 180.800781 C 193.820312 181.503906 194.828125 181.9375 195.9375 181.9375 C 198.265625 181.9375 200.15625 180.046875 200.15625 177.71875 C 200.15625 175.390625 198.265625 173.5 195.9375 173.5 C 193.609375 173.5 191.71875 175.390625 191.71875 177.71875 C 191.71875 178.058594 191.769531 178.386719 191.84375 178.703125 L 181.929688 184.492188 C 181.179688 183.789062 180.171875 183.351562 179.0625 183.351562 C 176.734375 183.351562 174.84375 185.242188 174.84375 187.570312 C 174.84375 189.898438 176.734375 191.789062 179.0625 191.789062 C 180.171875 191.789062 181.179688 191.351562 181.929688 190.648438 L 191.949219 196.492188 C 191.878906 196.789062 191.839844 197.097656 191.839844 197.414062 C 191.839844 199.679688 193.671875 201.511719 195.9375 201.511719 C 198.203125 201.511719 200.035156 199.679688 200.035156 197.414062 C 200.035156 195.148438 198.203125 193.316406 195.9375 193.316406 Z M 195.9375 193.316406 " fill-opacity="1" fill-rule="nonzero"/></g></svg>