<svg xmlns="http://www.w3.org/2000/svg" xmlns:xlink="http://www.w3.org/1999/xlink" width="500" zoomAndPan="magnify" viewBox="0 0 375 374.999991" height="500" preserveAspectRatio="xMidYMid meet" version="1.0"><defs><clipPath id="e2318a15fd"><path d="M 173.757812 173.4375 L 201.507812 173.4375 L 201.507812 201.9375 L 173.757812 201.9375 Z M 173.757812 173.4375 " clip-rule="nonzero"/></clipPath></defs><g clip-path="url(#e2318a15fd)"><path fill="#ffffff" d="M 184.753906 173.441406 C 178.6875 173.441406 173.757812 178.386719 173.757812 184.472656 C 173.757812 190.558594 178.6875 195.507812 184.753906 195.507812 C 187.152344 195.507812 189.371094 194.730469 191.179688 193.417969 L 199.6875 201.933594 L 201.507812 200.109375 L 193.101562 191.652344 C 194.753906 189.71875 195.746094 187.214844 195.746094 184.472656 C 195.746094 178.386719 190.820312 173.441406 184.753906 173.441406 Z M 184.753906 174.738281 C 190.117188 174.738281 194.453125 179.089844 194.453125 184.472656 C 194.453125 189.855469 190.117188 194.207031 184.753906 194.207031 C 179.386719 194.207031 175.050781 189.855469 175.050781 184.472656 C 175.050781 179.089844 179.386719 174.738281 184.753906 174.738281 Z M 184.753906 174.738281 " fill-opacity="1" fill-rule="nonzero"/></g></svg>