<svg xmlns="http://www.w3.org/2000/svg" xmlns:xlink="http://www.w3.org/1999/xlink" width="500" zoomAndPan="magnify" viewBox="0 0 375 374.999991" height="500" preserveAspectRatio="xMidYMid meet" version="1.0"><defs><clipPath id="17a22b3fba"><path d="M 173.757812 173.4375 L 201.507812 173.4375 L 201.507812 201.9375 L 173.757812 201.9375 Z M 173.757812 173.4375 " clip-rule="nonzero"/></clipPath></defs><g clip-path="url(#17a22b3fba)"><path fill="#000000" d="M 184.644531 173.441406 C 178.640625 173.441406 173.757812 178.320312 173.757812 184.328125 C 173.757812 190.335938 178.640625 195.214844 184.644531 195.214844 C 187.023438 195.214844 189.21875 194.449219 191.011719 193.152344 L 199.4375 201.558594 L 201.238281 199.757812 L 192.910156 191.414062 C 194.546875 189.507812 195.535156 187.03125 195.535156 184.328125 C 195.535156 178.320312 190.652344 173.441406 184.644531 173.441406 Z M 184.644531 174.71875 C 189.960938 174.71875 194.253906 179.011719 194.253906 184.328125 C 194.253906 189.640625 189.960938 193.933594 184.644531 193.933594 C 179.332031 193.933594 175.039062 189.640625 175.039062 184.328125 C 175.039062 179.011719 179.332031 174.71875 184.644531 174.71875 Z M 184.644531 174.71875 " fill-opacity="1" fill-rule="nonzero"/></g></svg>