<svg xmlns="http://www.w3.org/2000/svg" xmlns:xlink="http://www.w3.org/1999/xlink" width="500" zoomAndPan="magnify" viewBox="0 0 375 374.999991" height="500" preserveAspectRatio="xMidYMid meet" version="1.0"><defs><clipPath id="bb88bd2376"><path d="M 170.875 173.761719 L 203.875 173.761719 L 203.875 179.28125 L 170.875 179.28125 Z M 170.875 173.761719 " clip-rule="nonzero"/></clipPath><clipPath id="e7de20d01a"><path d="M 170.875 184.667969 L 203.875 184.667969 L 203.875 190.3125 L 170.875 190.3125 Z M 170.875 184.667969 " clip-rule="nonzero"/></clipPath><clipPath id="27f6fec9cf"><path d="M 170.875 195.703125 L 203.875 195.703125 L 203.875 201.238281 L 170.875 201.238281 Z M 170.875 195.703125 " clip-rule="nonzero"/></clipPath></defs><g clip-path="url(#bb88bd2376)"><path fill="#ffffff" d="M 201.371094 179.257812 L 173.625 179.257812 C 172.105469 179.257812 170.875 178.027344 170.875 176.511719 C 170.875 174.992188 172.105469 173.761719 173.625 173.761719 L 201.371094 173.761719 C 202.890625 173.761719 204.117188 174.992188 204.117188 176.511719 C 204.117188 178.027344 202.890625 179.257812 201.371094 179.257812 " fill-opacity="1" fill-rule="nonzero"/></g><g clip-path="url(#e7de20d01a)"><path fill="#ffffff" d="M 201.371094 190.246094 L 173.625 190.246094 C 172.105469 190.246094 170.875 189.015625 170.875 187.5 C 170.875 185.980469 172.105469 184.753906 173.625 184.753906 L 201.371094 184.753906 C 202.890625 184.753906 204.117188 185.980469 204.117188 187.5 C 204.117188 189.015625 202.890625 190.246094 201.371094 190.246094 " fill-opacity="1" fill-rule="nonzero"/></g><g clip-path="url(#27f6fec9cf)"><path fill="#ffffff" d="M 201.371094 201.238281 L 173.625 201.238281 C 172.105469 201.238281 170.875 200.007812 170.875 198.488281 C 170.875 196.972656 172.105469 195.742188 173.625 195.742188 L 201.371094 195.742188 C 202.890625 195.742188 204.117188 196.972656 204.117188 198.488281 C 204.117188 200.007812 202.890625 201.238281 201.371094 201.238281 " fill-opacity="1" fill-rule="nonzero"/></g></svg>