<svg xmlns="http://www.w3.org/2000/svg" xmlns:xlink="http://www.w3.org/1999/xlink" width="500" zoomAndPan="magnify" viewBox="0 0 375 74.999997" height="100" preserveAspectRatio="xMidYMid meet" version="1.0"><defs><clipPath id="1df1c29fa6"><path d="M 7.5 8.023438 L 70 8.023438 L 70 67 L 7.5 67 Z M 7.5 8.023438 " clip-rule="nonzero"/></clipPath><clipPath id="1b8883d6cc"><path d="M 82 8.023438 L 145 8.023438 L 145 67 L 82 67 Z M 82 8.023438 " clip-rule="nonzero"/></clipPath><clipPath id="90d02b5f42"><path d="M 156 8.023438 L 218 8.023438 L 218 67 L 156 67 Z M 156 8.023438 " clip-rule="nonzero"/></clipPath><clipPath id="81a16d38b6"><path d="M 231 8.023438 L 293 8.023438 L 293 67 L 231 67 Z M 231 8.023438 " clip-rule="nonzero"/></clipPath><clipPath id="3d26149f8e"><path d="M 305 8.023438 L 367.5 8.023438 L 367.5 67 L 305 67 Z M 305 8.023438 " clip-rule="nonzero"/></clipPath></defs><g clip-path="url(#1df1c29fa6)"><path fill="#fffefe" d="M 51.78125 64.28125 C 49.765625 63.34375 47.746094 62.480469 45.589844 61.546875 C 43.210938 60.539062 40.835938 59.457031 38.316406 58.304688 C 35.796875 59.457031 33.421875 60.464844 31.117188 61.472656 C 28.957031 62.410156 26.867188 63.34375 24.851562 64.28125 L 19.164062 66.875 L 19.597656 60.609375 C 19.882812 56.074219 20.386719 51.035156 21.035156 46.066406 C 17.578125 42.609375 14.269531 38.722656 10.957031 34.617188 L 7.5 30.296875 L 12.898438 28.785156 C 16.5 27.777344 21.539062 26.699219 27.445312 25.691406 C 30.179688 20.578125 32.914062 15.898438 35.21875 12.585938 L 38.316406 8.121094 L 41.410156 12.585938 C 43.714844 15.898438 46.453125 20.578125 49.1875 25.691406 C 55.09375 26.699219 60.058594 27.777344 63.730469 28.785156 L 69.132812 30.296875 L 65.605469 34.691406 C 62.363281 38.792969 58.980469 42.683594 55.667969 46.136719 C 56.316406 51.105469 56.820312 56.144531 57.109375 60.683594 L 57.539062 66.945312 Z M 51.78125 64.28125 " fill-opacity="1" fill-rule="nonzero"/></g><g clip-path="url(#1b8883d6cc)"><path fill="#fffefe" d="M 126.515625 64.28125 C 124.5 63.34375 122.484375 62.480469 120.324219 61.546875 C 117.949219 60.539062 115.570312 59.457031 113.050781 58.304688 C 110.53125 59.457031 108.15625 60.464844 105.851562 61.472656 C 103.691406 62.410156 101.605469 63.34375 99.589844 64.28125 L 93.898438 66.875 L 94.332031 60.609375 C 94.621094 56.074219 95.125 51.035156 95.773438 46.066406 C 92.460938 42.539062 89.074219 38.722656 85.835938 34.617188 L 82.378906 30.296875 L 87.78125 28.785156 C 91.378906 27.777344 96.421875 26.699219 102.324219 25.691406 C 105.058594 20.578125 107.796875 15.898438 110.101562 12.585938 L 113.195312 8.121094 L 116.292969 12.585938 C 118.597656 15.898438 121.332031 20.578125 124.066406 25.691406 C 129.972656 26.699219 134.941406 27.777344 138.613281 28.785156 L 144.011719 30.296875 L 140.484375 34.691406 C 137.242188 38.792969 133.859375 42.683594 130.546875 46.136719 C 131.195312 51.105469 131.699219 56.144531 131.988281 60.683594 L 132.421875 66.945312 Z M 126.515625 64.28125 " fill-opacity="1" fill-rule="nonzero"/></g><g clip-path="url(#90d02b5f42)"><path fill="#fffefe" d="M 200.386719 64.28125 C 198.371094 63.34375 196.355469 62.480469 194.195312 61.546875 C 191.820312 60.539062 189.445312 59.457031 186.925781 58.304688 C 184.402344 59.457031 182.027344 60.464844 179.722656 61.472656 C 177.5625 62.410156 175.476562 63.34375 173.460938 64.28125 L 167.773438 66.875 L 168.203125 60.609375 C 168.492188 56.074219 168.996094 51.035156 169.644531 46.066406 C 166.332031 42.539062 162.949219 38.722656 159.707031 34.617188 L 156.253906 30.226562 L 161.652344 28.714844 C 165.253906 27.707031 170.292969 26.625 176.195312 25.617188 C 178.933594 20.503906 181.667969 15.824219 183.972656 12.511719 L 187.066406 8.050781 L 190.164062 12.511719 C 192.46875 15.824219 195.203125 20.503906 197.941406 25.617188 C 203.84375 26.625 208.8125 27.707031 212.484375 28.714844 L 217.882812 30.226562 L 214.355469 34.617188 C 211.117188 38.722656 207.730469 42.609375 204.421875 46.066406 C 205.066406 51.035156 205.570312 56.074219 205.859375 60.609375 L 206.292969 66.875 Z M 200.386719 64.28125 " fill-opacity="1" fill-rule="nonzero"/></g><g clip-path="url(#81a16d38b6)"><path fill="#fffefe" d="M 275.269531 64.28125 C 273.253906 63.34375 271.234375 62.480469 269.074219 61.546875 C 266.699219 60.539062 264.324219 59.457031 261.804688 58.304688 C 259.285156 59.457031 256.90625 60.464844 254.605469 61.472656 C 252.445312 62.410156 250.355469 63.34375 248.339844 64.28125 L 242.652344 66.875 L 243.082031 60.609375 C 243.371094 56.074219 243.875 51.035156 244.523438 46.066406 C 241.210938 42.539062 237.828125 38.722656 234.589844 34.617188 L 231.132812 30.226562 L 236.53125 28.714844 C 240.132812 27.707031 245.171875 26.625 251.074219 25.617188 C 253.8125 20.503906 256.546875 15.824219 258.851562 12.511719 L 261.949219 8.050781 L 265.042969 12.511719 C 267.347656 15.824219 270.082031 20.503906 272.820312 25.617188 C 278.722656 26.625 283.691406 27.707031 287.363281 28.714844 L 292.765625 30.226562 L 289.234375 34.617188 C 285.996094 38.722656 282.613281 42.609375 279.300781 46.066406 C 279.949219 51.035156 280.453125 56.074219 280.738281 60.609375 L 281.171875 66.875 Z M 275.269531 64.28125 " fill-opacity="1" fill-rule="nonzero"/></g><g clip-path="url(#3d26149f8e)"><path fill="#fffefe" d="M 367.5 30.371094 L 364.476562 29.503906 C 360.300781 28.355469 354.394531 27.058594 347.410156 25.90625 C 344.242188 19.859375 341.074219 14.457031 338.410156 10.570312 L 336.683594 8.050781 L 334.957031 10.570312 C 332.292969 14.457031 329.050781 19.859375 325.957031 25.90625 C 318.972656 27.058594 313.140625 28.355469 308.890625 29.503906 L 305.867188 30.371094 L 307.8125 32.816406 C 311.628906 37.640625 315.589844 42.175781 319.546875 46.210938 C 318.757812 52.042969 318.179688 57.945312 317.820312 63.34375 L 317.605469 66.875 L 320.84375 65.433594 C 323.148438 64.355469 325.453125 63.34375 327.898438 62.335938 C 330.78125 61.113281 333.660156 59.816406 336.757812 58.378906 C 339.851562 59.816406 342.804688 61.113281 345.613281 62.335938 C 348.058594 63.417969 350.4375 64.425781 352.667969 65.433594 L 355.90625 66.875 L 355.691406 63.34375 C 355.332031 57.945312 354.683594 52.042969 353.964844 46.210938 C 357.925781 42.105469 361.8125 37.640625 365.699219 32.816406 Z M 351.085938 44.984375 L 350.867188 45.203125 L 350.941406 45.5625 C 351.730469 51.25 352.308594 57.007812 352.738281 62.335938 C 350.796875 61.472656 348.78125 60.609375 346.765625 59.671875 C 343.667969 58.304688 340.429688 56.9375 337.042969 55.355469 L 336.757812 55.210938 L 336.46875 55.355469 C 333.085938 56.9375 329.84375 58.304688 326.746094 59.671875 C 324.660156 60.539062 322.714844 61.402344 320.773438 62.335938 C 321.203125 56.792969 321.78125 51.175781 322.570312 45.5625 L 322.644531 45.203125 L 322.429688 44.914062 C 318.539062 40.953125 314.652344 36.5625 310.90625 31.808594 C 315.15625 30.65625 320.917969 29.503906 327.613281 28.355469 L 327.972656 28.28125 L 328.117188 27.992188 C 331.140625 22.160156 334.234375 16.832031 336.828125 12.875 C 339.492188 16.761719 342.515625 22.089844 345.539062 27.992188 L 345.683594 28.28125 L 346.042969 28.355469 C 352.738281 29.503906 358.5 30.65625 362.75 31.808594 C 358.859375 36.632812 355.042969 41.027344 351.085938 44.984375 Z M 351.085938 44.984375 " fill-opacity="1" fill-rule="nonzero"/></g></svg>