<svg xmlns="http://www.w3.org/2000/svg" xmlns:xlink="http://www.w3.org/1999/xlink" width="120" zoomAndPan="magnify" viewBox="0 0 90 89.999999" height="120" preserveAspectRatio="xMidYMid meet" version="1.0"><defs><g/><clipPath id="178b1c0164"><path d="M 22 46 L 26 46 L 26 50 L 22 50 Z M 22 46 " clip-rule="nonzero"/></clipPath><clipPath id="59c8b1ea77"><path d="M 21.953125 43.550781 L 30.441406 52.035156 L 24.074219 58.398438 L 15.589844 49.914062 Z M 21.953125 43.550781 " clip-rule="nonzero"/></clipPath><clipPath id="ca77826c3f"><path d="M 21.953125 43.550781 L 30.441406 52.035156 L 24.074219 58.398438 L 15.589844 49.914062 Z M 21.953125 43.550781 " clip-rule="nonzero"/></clipPath><clipPath id="5a2bfa3e74"><path d="M 24 49 L 28 49 L 28 53 L 24 53 Z M 24 49 " clip-rule="nonzero"/></clipPath><clipPath id="1b283ca3ee"><path d="M 21.953125 43.550781 L 30.441406 52.035156 L 24.074219 58.398438 L 15.589844 49.914062 Z M 21.953125 43.550781 " clip-rule="nonzero"/></clipPath><clipPath id="1b308552ee"><path d="M 21.953125 43.550781 L 30.441406 52.035156 L 24.074219 58.398438 L 15.589844 49.914062 Z M 21.953125 43.550781 " clip-rule="nonzero"/></clipPath><clipPath id="32a081fb6f"><path d="M 18 46 L 22 46 L 22 50 L 18 50 Z M 18 46 " clip-rule="nonzero"/></clipPath><clipPath id="6fc3ea3eb2"><path d="M 21.953125 43.550781 L 30.441406 52.035156 L 24.074219 58.398438 L 15.589844 49.914062 Z M 21.953125 43.550781 " clip-rule="nonzero"/></clipPath><clipPath id="fb59f8ca57"><path d="M 21.953125 43.550781 L 30.441406 52.035156 L 24.074219 58.398438 L 15.589844 49.914062 Z M 21.953125 43.550781 " clip-rule="nonzero"/></clipPath><clipPath id="1aaccae0b6"><path d="M 24 52 L 28 52 L 28 56 L 24 56 Z M 24 52 " clip-rule="nonzero"/></clipPath><clipPath id="f64c88f6ed"><path d="M 21.953125 43.550781 L 30.441406 52.035156 L 24.074219 58.398438 L 15.589844 49.914062 Z M 21.953125 43.550781 " clip-rule="nonzero"/></clipPath><clipPath id="55cb6a8d76"><path d="M 21.953125 43.550781 L 30.441406 52.035156 L 24.074219 58.398438 L 15.589844 49.914062 Z M 21.953125 43.550781 " clip-rule="nonzero"/></clipPath><clipPath id="75cc0106f3"><path d="M 26.125 51.660156 L 28.410156 53.949219 L 26.085938 56.269531 L 23.800781 53.984375 Z M 26.125 51.660156 " clip-rule="nonzero"/></clipPath><clipPath id="064286787d"><path d="M 18 50 L 24 50 L 24 56 L 18 56 Z M 18 50 " clip-rule="nonzero"/></clipPath><clipPath id="8824cad615"><path d="M 21.953125 43.550781 L 30.441406 52.035156 L 24.074219 58.398438 L 15.589844 49.914062 Z M 21.953125 43.550781 " clip-rule="nonzero"/></clipPath><clipPath id="9e56085f33"><path d="M 21.953125 43.550781 L 30.441406 52.035156 L 24.074219 58.398438 L 15.589844 49.914062 Z M 21.953125 43.550781 " clip-rule="nonzero"/></clipPath><clipPath id="53ec6d035f"><path d="M 21.113281 49.03125 L 25.058594 52.976562 L 21.757812 56.28125 L 17.8125 52.332031 Z M 21.113281 49.03125 " clip-rule="nonzero"/></clipPath><clipPath id="39f420dbd3"><path d="M 69 44 L 73 44 L 73 49 L 69 49 Z M 69 44 " clip-rule="nonzero"/></clipPath><clipPath id="5e698a9760"><path d="M 68.972656 41.445312 L 78.519531 50.992188 L 71.09375 58.414062 L 61.546875 48.871094 Z M 68.972656 41.445312 " clip-rule="nonzero"/></clipPath><clipPath id="5ceb420f28"><path d="M 68.972656 41.445312 L 78.519531 50.992188 L 71.09375 58.414062 L 61.546875 48.871094 Z M 68.972656 41.445312 " clip-rule="nonzero"/></clipPath><clipPath id="74c2fcb68a"><path d="M 71 47 L 76 47 L 76 52 L 71 52 Z M 71 47 " clip-rule="nonzero"/></clipPath><clipPath id="cb21140b1e"><path d="M 68.972656 41.445312 L 78.519531 50.992188 L 71.09375 58.414062 L 61.546875 48.871094 Z M 68.972656 41.445312 " clip-rule="nonzero"/></clipPath><clipPath id="47523d9e88"><path d="M 68.972656 41.445312 L 78.519531 50.992188 L 71.09375 58.414062 L 61.546875 48.871094 Z M 68.972656 41.445312 " clip-rule="nonzero"/></clipPath><clipPath id="fc0894304b"><path d="M 65 44 L 69 44 L 69 49 L 65 49 Z M 65 44 " clip-rule="nonzero"/></clipPath><clipPath id="d97aa5cf6c"><path d="M 68.972656 41.445312 L 78.519531 50.992188 L 71.09375 58.414062 L 61.546875 48.871094 Z M 68.972656 41.445312 " clip-rule="nonzero"/></clipPath><clipPath id="4e4c12d018"><path d="M 68.972656 41.445312 L 78.519531 50.992188 L 71.09375 58.414062 L 61.546875 48.871094 Z M 68.972656 41.445312 " clip-rule="nonzero"/></clipPath><clipPath id="f4c55a45f0"><path d="M 71 51 L 76 51 L 76 56 L 71 56 Z M 71 51 " clip-rule="nonzero"/></clipPath><clipPath id="6b18cc6474"><path d="M 68.972656 41.445312 L 78.519531 50.992188 L 71.09375 58.414062 L 61.546875 48.871094 Z M 68.972656 41.445312 " clip-rule="nonzero"/></clipPath><clipPath id="07f282dee2"><path d="M 68.972656 41.445312 L 78.519531 50.992188 L 71.09375 58.414062 L 61.546875 48.871094 Z M 68.972656 41.445312 " clip-rule="nonzero"/></clipPath><clipPath id="cf35dd61a0"><path d="M 73.730469 50.707031 L 76.339844 53.316406 L 73.691406 55.96875 L 71.078125 53.359375 Z M 73.730469 50.707031 " clip-rule="nonzero"/></clipPath><clipPath id="e5bdbe05dd"><path d="M 64 48 L 72 48 L 72 56 L 64 56 Z M 64 48 " clip-rule="nonzero"/></clipPath><clipPath id="3bd56fc083"><path d="M 68.972656 41.445312 L 78.519531 50.992188 L 71.09375 58.414062 L 61.546875 48.871094 Z M 68.972656 41.445312 " clip-rule="nonzero"/></clipPath><clipPath id="5db2fc72b3"><path d="M 68.972656 41.445312 L 78.519531 50.992188 L 71.09375 58.414062 L 61.546875 48.871094 Z M 68.972656 41.445312 " clip-rule="nonzero"/></clipPath><clipPath id="0fb92c7640"><path d="M 68.007812 47.703125 L 72.515625 52.210938 L 68.746094 55.980469 L 64.238281 51.472656 Z M 68.007812 47.703125 " clip-rule="nonzero"/></clipPath></defs><g fill="#4b96d5" fill-opacity="1"><g transform="translate(6.676037, 61.677594)"><g><path d="M 13.21875 -5.515625 L 0.9375 -5.515625 L 0.9375 -16.734375 L 9.546875 -35 L 19.828125 -35 L 9.921875 -13.90625 L 13.90625 -13.90625 L 13.90625 -18.109375 L 21.984375 -20.671875 L 21.984375 -13.90625 L 24.8125 -13.90625 L 23.03125 -5.515625 L 21.984375 -5.515625 L 21.984375 0 L 13.21875 0 Z M 13.21875 -5.515625 "/></g></g></g><g fill="#4b96d5" fill-opacity="1"><g transform="translate(31.749784, 61.677594)"><g><path d="M 13.28125 -35.671875 C 21.21875 -35.671875 25.1875 -29.65625 25.1875 -17.625 C 25.1875 -11.570312 24.179688 -7.003906 22.171875 -3.921875 C 20.160156 -0.847656 17.175781 0.6875 13.21875 0.6875 C 10.769531 0.6875 8.65625 0.078125 6.875 -1.140625 C 5.09375 -2.367188 3.796875 -4.125 2.984375 -6.40625 C 2.429688 -7.90625 2.015625 -9.609375 1.734375 -11.515625 C 1.453125 -13.421875 1.3125 -15.40625 1.3125 -17.46875 C 1.3125 -19.851562 1.507812 -22.109375 1.90625 -24.234375 C 2.3125 -26.367188 2.863281 -28.222656 3.5625 -29.796875 C 4.476562 -31.691406 5.773438 -33.144531 7.453125 -34.15625 C 9.128906 -35.164062 11.070312 -35.671875 13.28125 -35.671875 Z M 13.28125 -25.921875 C 12.789062 -25.921875 12.394531 -25.78125 12.09375 -25.5 C 11.789062 -25.21875 11.546875 -24.726562 11.359375 -24.03125 C 11.171875 -23.332031 11.039062 -22.394531 10.96875 -21.21875 C 10.894531 -20.050781 10.859375 -18.578125 10.859375 -16.796875 C 10.859375 -14.898438 10.898438 -13.488281 10.984375 -12.5625 C 11.078125 -11.632812 11.242188 -10.894531 11.484375 -10.34375 C 11.660156 -9.957031 11.90625 -9.648438 12.21875 -9.421875 C 12.539062 -9.191406 12.875 -9.078125 13.21875 -9.078125 C 13.675781 -9.078125 14.0625 -9.21875 14.375 -9.5 C 14.6875 -9.78125 14.9375 -10.269531 15.125 -10.96875 C 15.320312 -11.664062 15.457031 -12.609375 15.53125 -13.796875 C 15.601562 -14.984375 15.640625 -16.488281 15.640625 -18.3125 C 15.640625 -19.394531 15.628906 -20.300781 15.609375 -21.03125 C 15.585938 -21.769531 15.539062 -22.390625 15.46875 -22.890625 C 15.40625 -23.398438 15.3125 -23.820312 15.1875 -24.15625 C 15.0625 -24.488281 14.914062 -24.796875 14.75 -25.078125 C 14.601562 -25.359375 14.390625 -25.566406 14.109375 -25.703125 C 13.828125 -25.847656 13.550781 -25.921875 13.28125 -25.921875 Z M 13.28125 -25.921875 "/></g></g></g><g fill="#4b96d5" fill-opacity="1"><g transform="translate(58.239829, 61.677594)"><g><path d="M 13.21875 -5.515625 L 0.9375 -5.515625 L 0.9375 -16.734375 L 9.546875 -35 L 19.828125 -35 L 9.921875 -13.90625 L 13.90625 -13.90625 L 13.90625 -18.109375 L 21.984375 -20.671875 L 21.984375 -13.90625 L 24.8125 -13.90625 L 23.03125 -5.515625 L 21.984375 -5.515625 L 21.984375 0 L 13.21875 0 Z M 13.21875 -5.515625 "/></g></g></g><g clip-path="url(#178b1c0164)"><g clip-path="url(#59c8b1ea77)"><g clip-path="url(#ca77826c3f)"><path fill="#ffffff" d="M 24.515625 46.832031 C 26.226562 48.121094 23.660156 50.929688 22.339844 49.476562 C 21.277344 48.308594 23.03125 45.710938 24.515625 46.832031 " fill-opacity="1" fill-rule="evenodd"/></g></g></g><g clip-path="url(#5a2bfa3e74)"><g clip-path="url(#1b283ca3ee)"><g clip-path="url(#1b308552ee)"><path fill="#ffffff" d="M 26.925781 49.242188 C 28.9375 50.535156 25.8125 53.273438 24.4375 51.574219 C 23.351562 50.230469 25.640625 48.417969 26.925781 49.242188 " fill-opacity="1" fill-rule="evenodd"/></g></g></g><g clip-path="url(#32a081fb6f)"><g clip-path="url(#6fc3ea3eb2)"><g clip-path="url(#fb59f8ca57)"><path fill="#ffffff" d="M 20.746094 49.515625 C 18.878906 50.210938 17.992188 47.515625 19.464844 46.445312 C 21.011719 45.316406 22.722656 48.390625 20.746094 49.515625 " fill-opacity="1" fill-rule="evenodd"/></g></g></g><g clip-path="url(#1aaccae0b6)"><g clip-path="url(#f64c88f6ed)"><g clip-path="url(#55cb6a8d76)"><g clip-path="url(#75cc0106f3)"><path fill="#ffffff" d="M 27.199219 52.78125 C 27.660156 53.089844 28.003906 53.710938 27.859375 54.21875 C 27.457031 55.613281 25.441406 55.796875 24.632812 54.800781 C 24.191406 54.253906 24.324219 53.546875 24.671875 53.128906 C 25.414062 52.238281 26.507812 52.3125 27.199219 52.78125 " fill-opacity="1" fill-rule="evenodd"/></g></g></g></g><g clip-path="url(#064286787d)"><g clip-path="url(#8824cad615)"><g clip-path="url(#9e56085f33)"><g clip-path="url(#53ec6d035f)"><path fill="#ffffff" d="M 22.652344 50.640625 C 24.246094 51.769531 24.515625 54 22.574219 55.382812 C 22.171875 55.671875 21.386719 55.859375 20.941406 55.460938 C 20.578125 55.140625 20.511719 54.40625 20.085938 53.984375 C 19.554688 53.460938 18.671875 53.511719 18.414062 52.78125 C 18.199219 52.164062 18.835938 51.191406 19.503906 50.679688 C 20.460938 49.945312 21.6875 49.960938 22.652344 50.640625 " fill-opacity="1" fill-rule="evenodd"/></g></g></g></g><g clip-path="url(#39f420dbd3)"><g clip-path="url(#5e698a9760)"><g clip-path="url(#5ceb420f28)"><path fill="#ffffff" d="M 71.894531 45.191406 C 73.847656 46.664062 70.917969 49.871094 69.410156 48.210938 C 68.195312 46.878906 70.199219 43.914062 71.894531 45.191406 " fill-opacity="1" fill-rule="evenodd"/></g></g></g><g clip-path="url(#74c2fcb68a)"><g clip-path="url(#cb21140b1e)"><g clip-path="url(#47523d9e88)"><path fill="#ffffff" d="M 74.648438 47.945312 C 76.945312 49.417969 73.375 52.546875 71.804688 50.609375 C 70.566406 49.070312 73.175781 47 74.648438 47.945312 " fill-opacity="1" fill-rule="evenodd"/></g></g></g><g clip-path="url(#fc0894304b)"><g clip-path="url(#d97aa5cf6c)"><g clip-path="url(#4e4c12d018)"><path fill="#ffffff" d="M 67.589844 48.253906 C 65.457031 49.046875 64.445312 45.972656 66.125 44.75 C 67.894531 43.460938 69.847656 46.972656 67.589844 48.253906 " fill-opacity="1" fill-rule="evenodd"/></g></g></g><g clip-path="url(#f4c55a45f0)"><g clip-path="url(#6b18cc6474)"><g clip-path="url(#07f282dee2)"><g clip-path="url(#cf35dd61a0)"><path fill="#ffffff" d="M 74.957031 51.984375 C 75.484375 52.339844 75.878906 53.046875 75.710938 53.625 C 75.253906 55.222656 72.949219 55.429688 72.027344 54.292969 C 71.523438 53.667969 71.675781 52.859375 72.074219 52.382812 C 72.921875 51.367188 74.167969 51.449219 74.957031 51.984375 " fill-opacity="1" fill-rule="evenodd"/></g></g></g></g><g clip-path="url(#e5bdbe05dd)"><g clip-path="url(#3bd56fc083)"><g clip-path="url(#5db2fc72b3)"><g clip-path="url(#0fb92c7640)"><path fill="#ffffff" d="M 69.765625 49.542969 C 71.589844 50.828125 71.894531 53.378906 69.675781 54.957031 C 69.214844 55.285156 68.324219 55.5 67.8125 55.046875 C 67.398438 54.679688 67.324219 53.84375 66.835938 53.359375 C 66.230469 52.757812 65.21875 52.820312 64.925781 51.984375 C 64.679688 51.28125 65.410156 50.167969 66.167969 49.585938 C 67.261719 48.746094 68.667969 48.765625 69.765625 49.542969 " fill-opacity="1" fill-rule="evenodd"/></g></g></g></g></svg>