<svg xmlns="http://www.w3.org/2000/svg" xmlns:xlink="http://www.w3.org/1999/xlink" width="200" zoomAndPan="magnify" viewBox="0 0 150 149.999998" height="200" preserveAspectRatio="xMidYMid meet" version="1.0"><defs><g/><clipPath id="dce5c88e6b"><path d="M 121.179688 102.011719 L 136 102.011719 L 136 117 L 121.179688 117 Z M 121.179688 102.011719 " clip-rule="nonzero"/></clipPath><clipPath id="efdd18c322"><path d="M 59.792969 102.011719 L 71.792969 102.011719 L 71.792969 117 L 59.792969 117 Z M 59.792969 102.011719 " clip-rule="nonzero"/></clipPath><clipPath id="f187548be4"><path d="M 48 60 L 52 60 L 52 65 L 48 65 Z M 48 60 " clip-rule="nonzero"/></clipPath><clipPath id="ae36a740ed"><path d="M 48.183594 56.75 L 57.730469 66.296875 L 50.304688 73.722656 L 40.757812 64.175781 Z M 48.183594 56.75 " clip-rule="nonzero"/></clipPath><clipPath id="0c9ede23bc"><path d="M 48.183594 56.75 L 57.730469 66.296875 L 50.304688 73.722656 L 40.757812 64.175781 Z M 48.183594 56.75 " clip-rule="nonzero"/></clipPath><clipPath id="61cd3e457f"><path d="M 50 63 L 55 63 L 55 67 L 50 67 Z M 50 63 " clip-rule="nonzero"/></clipPath><clipPath id="6a1bb69c00"><path d="M 48.183594 56.75 L 57.730469 66.296875 L 50.304688 73.722656 L 40.757812 64.175781 Z M 48.183594 56.75 " clip-rule="nonzero"/></clipPath><clipPath id="9e5138bf08"><path d="M 48.183594 56.75 L 57.730469 66.296875 L 50.304688 73.722656 L 40.757812 64.175781 Z M 48.183594 56.75 " clip-rule="nonzero"/></clipPath><clipPath id="52b027a13d"><path d="M 44 59 L 48 59 L 48 64 L 44 64 Z M 44 59 " clip-rule="nonzero"/></clipPath><clipPath id="8b7a7b28e8"><path d="M 48.183594 56.75 L 57.730469 66.296875 L 50.304688 73.722656 L 40.757812 64.175781 Z M 48.183594 56.75 " clip-rule="nonzero"/></clipPath><clipPath id="882093dd1d"><path d="M 48.183594 56.75 L 57.730469 66.296875 L 50.304688 73.722656 L 40.757812 64.175781 Z M 48.183594 56.75 " clip-rule="nonzero"/></clipPath><clipPath id="8d894e3670"><path d="M 50 67 L 56 67 L 56 71 L 50 71 Z M 50 67 " clip-rule="nonzero"/></clipPath><clipPath id="e4910f5d0a"><path d="M 48.183594 56.75 L 57.730469 66.296875 L 50.304688 73.722656 L 40.757812 64.175781 Z M 48.183594 56.75 " clip-rule="nonzero"/></clipPath><clipPath id="41a03a8576"><path d="M 48.183594 56.75 L 57.730469 66.296875 L 50.304688 73.722656 L 40.757812 64.175781 Z M 48.183594 56.75 " clip-rule="nonzero"/></clipPath><clipPath id="1015ce1c43"><path d="M 52.984375 66.101562 L 55.621094 68.738281 L 52.945312 71.414062 L 50.308594 68.78125 Z M 52.984375 66.101562 " clip-rule="nonzero"/></clipPath><clipPath id="4b4839455e"><path d="M 44 64 L 51 64 L 51 71 L 44 71 Z M 44 64 " clip-rule="nonzero"/></clipPath><clipPath id="e536ea95e9"><path d="M 48.183594 56.75 L 57.730469 66.296875 L 50.304688 73.722656 L 40.757812 64.175781 Z M 48.183594 56.75 " clip-rule="nonzero"/></clipPath><clipPath id="d2c87ebe6a"><path d="M 48.183594 56.75 L 57.730469 66.296875 L 50.304688 73.722656 L 40.757812 64.175781 Z M 48.183594 56.75 " clip-rule="nonzero"/></clipPath><clipPath id="0fc00fba9a"><path d="M 47.210938 63.070312 L 51.757812 67.621094 L 47.953125 71.425781 L 43.402344 66.878906 Z M 47.210938 63.070312 " clip-rule="nonzero"/></clipPath><clipPath id="aa15e8a7fe"><path d="M 74 50 L 79 50 L 79 56 L 74 56 Z M 74 50 " clip-rule="nonzero"/></clipPath><clipPath id="cf4adb3c47"><path d="M 74.246094 46.945312 L 85.382812 58.082031 L 76.898438 66.566406 L 65.761719 55.429688 Z M 74.246094 46.945312 " clip-rule="nonzero"/></clipPath><clipPath id="cbb0087f63"><path d="M 74.246094 46.945312 L 85.382812 58.082031 L 76.898438 66.566406 L 65.761719 55.429688 Z M 74.246094 46.945312 " clip-rule="nonzero"/></clipPath><clipPath id="76d4208b92"><path d="M 77 54 L 82 54 L 82 59 L 77 59 Z M 77 54 " clip-rule="nonzero"/></clipPath><clipPath id="2d73b1678c"><path d="M 74.246094 46.945312 L 85.382812 58.082031 L 76.898438 66.566406 L 65.761719 55.429688 Z M 74.246094 46.945312 " clip-rule="nonzero"/></clipPath><clipPath id="69d31f0d9c"><path d="M 74.246094 46.945312 L 85.382812 58.082031 L 76.898438 66.566406 L 65.761719 55.429688 Z M 74.246094 46.945312 " clip-rule="nonzero"/></clipPath><clipPath id="e36da2a42e"><path d="M 69 50 L 74 50 L 74 55 L 69 55 Z M 69 50 " clip-rule="nonzero"/></clipPath><clipPath id="cadcb36bbd"><path d="M 74.246094 46.945312 L 85.382812 58.082031 L 76.898438 66.566406 L 65.761719 55.429688 Z M 74.246094 46.945312 " clip-rule="nonzero"/></clipPath><clipPath id="33c7532204"><path d="M 74.246094 46.945312 L 85.382812 58.082031 L 76.898438 66.566406 L 65.761719 55.429688 Z M 74.246094 46.945312 " clip-rule="nonzero"/></clipPath><clipPath id="8632482119"><path d="M 77 58 L 83 58 L 83 63 L 77 63 Z M 77 58 " clip-rule="nonzero"/></clipPath><clipPath id="798e2d60e9"><path d="M 74.246094 46.945312 L 85.382812 58.082031 L 76.898438 66.566406 L 65.761719 55.429688 Z M 74.246094 46.945312 " clip-rule="nonzero"/></clipPath><clipPath id="32097d94fd"><path d="M 74.246094 46.945312 L 85.382812 58.082031 L 76.898438 66.566406 L 65.761719 55.429688 Z M 74.246094 46.945312 " clip-rule="nonzero"/></clipPath><clipPath id="853c4d1e6e"><path d="M 79.730469 57.621094 L 82.738281 60.628906 L 79.679688 63.683594 L 76.671875 60.675781 Z M 79.730469 57.621094 " clip-rule="nonzero"/></clipPath><clipPath id="6fa73dff75"><path d="M 69 55 L 77 55 L 77 63 L 69 63 Z M 69 55 " clip-rule="nonzero"/></clipPath><clipPath id="2aa1eb879d"><path d="M 74.246094 46.945312 L 85.382812 58.082031 L 76.898438 66.566406 L 65.761719 55.429688 Z M 74.246094 46.945312 " clip-rule="nonzero"/></clipPath><clipPath id="effaabaeb9"><path d="M 74.246094 46.945312 L 85.382812 58.082031 L 76.898438 66.566406 L 65.761719 55.429688 Z M 74.246094 46.945312 " clip-rule="nonzero"/></clipPath><clipPath id="4f92db3b40"><path d="M 73.136719 54.160156 L 78.328125 59.351562 L 73.984375 63.699219 L 68.789062 58.503906 Z M 73.136719 54.160156 " clip-rule="nonzero"/></clipPath></defs><g fill="#4b96d5" fill-opacity="1"><g transform="translate(60.384682, 115.708269)"><g><path d="M 2.65625 -28.6875 L 0.296875 -28.6875 L 2.65625 -39.28125 L 13.25 -39.28125 C 14.539062 -39.28125 15.664062 -39.238281 16.625 -39.15625 C 17.59375 -39.082031 18.445312 -38.9375 19.1875 -38.71875 C 19.9375 -38.5 20.601562 -38.222656 21.1875 -37.890625 C 21.78125 -37.554688 22.375 -37.132812 22.96875 -36.625 C 24.5 -35.25 25.6875 -33.484375 26.53125 -31.328125 C 27.375 -29.171875 27.796875 -26.796875 27.796875 -24.203125 C 27.796875 -21.179688 27.242188 -18.453125 26.140625 -16.015625 C 25.046875 -13.578125 23.554688 -11.769531 21.671875 -10.59375 C 19.785156 -9.34375 16.976562 -8.71875 13.25 -8.71875 L 13.25 0 L 2.65625 0 Z M 13.65625 -18.90625 C 14.757812 -18.90625 15.664062 -19.382812 16.375 -20.34375 C 17.082031 -21.3125 17.4375 -22.539062 17.4375 -24.03125 C 17.4375 -27.25 16.039062 -28.9375 13.25 -29.09375 L 13.25 -18.90625 Z M 13.65625 -18.90625 "/></g></g></g><g fill="#4b96d5" fill-opacity="1"><g transform="translate(89.29987, 115.708269)"><g><path d="M 2.65625 -28.6875 L 0.296875 -28.6875 L 2.65625 -39.28125 L 16.078125 -39.28125 L 16.078125 -40.640625 L 25.4375 -40.640625 L 22.796875 -28.6875 L 13.25 -28.6875 L 13.25 -23.96875 L 24.609375 -23.96875 L 22.796875 -15.3125 L 13.25 -15.3125 L 13.25 -10.59375 L 24.609375 -10.59375 L 22.265625 0 L 2.65625 0 Z M 2.65625 -28.6875 "/></g></g></g><g fill="#4b96d5" fill-opacity="1"><g transform="translate(116.036111, 115.708269)"><g><path d="M 5.765625 -28.6875 L 0.234375 -28.6875 L 2.59375 -39.28125 L 14.71875 -39.28125 L 15.078125 -40.640625 L 24.265625 -40.640625 L 21.609375 -28.6875 L 16.375 -28.6875 L 16.375 0 L 5.765625 0 Z M 5.765625 -28.6875 "/></g></g></g><g clip-path="url(#dce5c88e6b)"><path fill="#fff6e4" d="M 130.402344 113.398438 C 130.402344 113.398438 132.210938 107.796875 127.675781 106.609375 C 127.675781 106.609375 127.027344 106.183594 126.988281 106.035156 C 126.949219 105.886719 126.507812 105.386719 126.210938 105.257812 C 126.210938 105.257812 125.949219 104.457031 125.785156 104.347656 C 125.785156 104.347656 126.136719 102.417969 125.707031 102.214844 C 125.28125 102.011719 124.671875 103.199219 124.671875 103.199219 C 124.671875 103.199219 123.613281 103.308594 123.484375 103.253906 C 123.351562 103.199219 122.296875 102.140625 122.09375 102.308594 C 121.890625 102.476562 121.90625 102.828125 122.183594 104.3125 C 122.183594 104.3125 121.183594 105.441406 122.832031 107.074219 C 122.832031 107.074219 122.925781 107.257812 123.019531 107.59375 C 123.109375 107.925781 122.871094 108.140625 123.222656 108.90625 C 123.574219 109.671875 124.277344 110.820312 124.167969 111.042969 C 124.167969 111.042969 124.242188 113.601562 123.980469 113.710938 C 123.71875 113.824219 123.230469 114.304688 123.8125 114.582031 C 123.8125 114.582031 123.816406 114.917969 124.015625 115.007812 C 124.453125 115.210938 124.90625 115.175781 125.109375 115.007812 C 125.3125 114.839844 125.445312 114.804688 125.628906 114.375 L 126.074219 114.453125 C 126.046875 114.519531 125.972656 114.714844 126.054688 114.90625 C 126.054688 114.90625 126.121094 115.0625 126.316406 115.175781 C 126.632812 115.351562 127.636719 115.246094 128.914062 114.898438 C 128.914062 114.898438 129.503906 115.304688 130.46875 114.785156 C 131.433594 114.265625 133.773438 114.25 134.382812 114.898438 C 134.996094 115.542969 132.570312 115.921875 132.570312 115.921875 C 132.570312 115.921875 131.734375 116.566406 132.828125 116.679688 C 133.921875 116.789062 136.628906 115.679688 135.535156 114.566406 C 134.4375 113.453125 132.253906 113.007812 130.402344 113.398438 Z M 130.402344 113.398438 " fill-opacity="1" fill-rule="nonzero"/></g><g clip-path="url(#efdd18c322)"><path fill="#fff6e4" d="M 63.332031 114.8125 C 63.515625 114.875 63.703125 114.933594 63.898438 114.925781 C 64.273438 114.90625 64.578125 115.066406 64.863281 115.285156 C 64.929688 115.335938 64.933594 115.347656 64.925781 115.394531 L 65.121094 115.617188 L 65.035156 115.621094 L 65.023438 115.699219 C 64.941406 115.636719 64.890625 115.695312 64.835938 115.742188 C 64.734375 115.820312 64.628906 115.871094 64.496094 115.84375 C 64.476562 115.839844 64.457031 115.855469 64.4375 115.855469 C 64.417969 115.859375 64.382812 115.863281 64.375 115.855469 C 64.335938 115.800781 64.300781 115.832031 64.265625 115.859375 C 64.207031 115.910156 64.144531 115.910156 64.082031 115.867188 C 64.054688 115.847656 64.015625 115.839844 63.984375 115.824219 C 63.953125 115.804688 63.921875 115.789062 63.894531 115.765625 C 63.835938 115.730469 63.789062 115.683594 63.726562 115.65625 C 63.628906 115.605469 63.523438 115.5625 63.417969 115.53125 C 63.289062 115.492188 63.15625 115.472656 63.023438 115.441406 C 62.835938 115.390625 62.648438 115.34375 62.460938 115.285156 C 62.34375 115.25 62.226562 115.203125 62.117188 115.144531 C 62.054688 115.113281 61.996094 115.066406 61.949219 115.011719 C 61.875 114.921875 61.886719 114.824219 61.964844 114.738281 C 62.066406 114.628906 62.171875 114.519531 62.28125 114.410156 C 62.332031 114.367188 62.34375 114.316406 62.320312 114.253906 C 62.296875 114.179688 62.28125 114.105469 62.261719 114.035156 C 62.226562 113.898438 62.125 113.863281 62.007812 113.945312 C 62 113.949219 61.996094 113.953125 61.992188 113.960938 C 61.847656 114.128906 61.660156 114.144531 61.460938 114.101562 C 61.03125 114.011719 60.609375 113.890625 60.195312 113.738281 C 60.078125 113.699219 59.964844 113.644531 59.851562 113.597656 C 59.808594 113.582031 59.796875 113.5625 59.808594 113.523438 C 59.863281 113.363281 59.9375 113.222656 60.070312 113.113281 C 60.148438 113.050781 60.242188 113.019531 60.34375 113.027344 C 60.648438 113.046875 60.949219 113.082031 61.234375 113.214844 C 61.316406 113.257812 61.398438 113.253906 61.476562 113.199219 C 61.621094 113.109375 61.757812 113.015625 61.894531 112.917969 C 61.921875 112.894531 61.933594 112.863281 61.933594 112.828125 C 61.878906 112.417969 61.921875 112.015625 62.058594 111.621094 C 62.128906 111.425781 62.253906 111.246094 62.382812 111.078125 C 62.664062 110.714844 62.917969 110.332031 63.175781 109.949219 C 63.414062 109.59375 63.683594 109.261719 63.9375 108.917969 C 64.207031 108.546875 64.472656 108.179688 64.738281 107.808594 C 64.917969 107.546875 65.125 107.304688 65.355469 107.085938 C 65.472656 106.976562 65.613281 106.894531 65.742188 106.800781 C 65.804688 106.757812 65.867188 106.710938 65.925781 106.65625 C 66.105469 106.488281 66.304688 106.339844 66.386719 106.089844 C 66.414062 106.015625 66.4375 105.941406 66.46875 105.867188 C 66.507812 105.777344 66.574219 105.71875 66.679688 105.722656 C 66.730469 105.726562 66.761719 105.703125 66.773438 105.65625 C 66.804688 105.578125 66.84375 105.5 66.878906 105.421875 C 66.90625 105.371094 66.902344 105.3125 66.878906 105.238281 C 66.875 105.226562 66.894531 105.207031 66.902344 105.1875 C 66.835938 105.144531 66.828125 105.078125 66.890625 105 L 66.8125 104.941406 L 66.890625 104.871094 L 66.832031 104.863281 L 66.882812 104.785156 L 66.816406 104.777344 C 66.816406 104.773438 66.8125 104.765625 66.816406 104.761719 C 66.867188 104.703125 66.820312 104.628906 66.835938 104.5625 C 66.835938 104.550781 66.839844 104.535156 66.835938 104.519531 L 66.8125 104.503906 L 66.886719 104.367188 L 66.839844 104.347656 C 66.894531 104.28125 66.957031 104.222656 66.960938 104.117188 C 66.96875 104.109375 66.980469 104.101562 66.988281 104.09375 C 67.027344 104.054688 67.101562 104.011719 67.097656 103.976562 C 67.09375 103.886719 67.070312 103.804688 67.035156 103.726562 C 67.011719 103.675781 66.96875 103.636719 66.921875 103.582031 C 66.828125 103.886719 66.734375 104.171875 66.550781 104.410156 L 66.527344 104.40625 C 66.519531 104.285156 66.507812 104.167969 66.496094 104.050781 C 66.492188 104.003906 66.480469 103.960938 66.464844 103.917969 C 66.390625 103.789062 66.300781 103.667969 66.230469 103.539062 C 66.164062 103.425781 66.09375 103.304688 66.058594 103.179688 C 65.996094 102.976562 66.082031 102.808594 66.269531 102.703125 C 66.421875 102.617188 66.589844 102.574219 66.753906 102.519531 C 66.945312 102.457031 67.132812 102.375 67.320312 102.3125 C 67.398438 102.285156 67.488281 102.277344 67.570312 102.265625 C 67.585938 102.261719 67.605469 102.269531 67.621094 102.265625 C 67.675781 102.242188 67.710938 102.261719 67.746094 102.304688 C 67.804688 102.378906 67.890625 102.390625 67.972656 102.367188 C 68.199219 102.304688 68.433594 102.304688 68.664062 102.296875 C 68.734375 102.292969 68.808594 102.304688 68.882812 102.308594 C 69.085938 102.3125 69.292969 102.308594 69.496094 102.316406 C 69.597656 102.320312 69.636719 102.257812 69.675781 102.183594 C 69.695312 102.140625 69.714844 102.109375 69.765625 102.140625 C 69.777344 102.144531 69.808594 102.128906 69.824219 102.117188 C 69.894531 102.074219 69.96875 102.0625 70.050781 102.078125 C 70.09375 102.089844 70.136719 102.085938 70.179688 102.070312 C 70.308594 102.007812 70.433594 102.011719 70.558594 102.085938 C 70.722656 102.179688 70.90625 102.199219 71.082031 102.246094 C 71.230469 102.285156 71.378906 102.328125 71.523438 102.375 C 71.65625 102.417969 71.671875 102.464844 71.644531 102.601562 C 71.582031 102.890625 71.5 103.179688 71.511719 103.480469 C 71.507812 103.496094 71.503906 103.515625 71.5 103.53125 C 71.464844 103.515625 71.429688 103.496094 71.398438 103.476562 C 71.328125 103.417969 71.257812 103.355469 71.191406 103.292969 C 71.160156 103.261719 71.136719 103.253906 71.097656 103.277344 C 70.953125 103.375 70.804688 103.46875 70.660156 103.570312 C 70.59375 103.617188 70.570312 103.6875 70.566406 103.773438 C 70.558594 103.980469 70.535156 104.1875 70.527344 104.394531 C 70.515625 104.605469 70.410156 104.777344 70.296875 104.945312 C 70.242188 105.027344 70.171875 105.101562 70.113281 105.183594 C 70.089844 105.210938 70.0625 105.261719 70.074219 105.289062 C 70.140625 105.472656 70.113281 105.65625 70.089844 105.839844 C 70.0625 106.070312 70.03125 106.300781 70 106.53125 C 69.984375 106.652344 70.003906 106.769531 70.058594 106.878906 C 70.210938 107.183594 70.304688 107.503906 70.351562 107.839844 C 70.386719 108.109375 70.464844 108.367188 70.515625 108.636719 C 70.558594 108.847656 70.574219 109.066406 70.539062 109.28125 C 70.519531 109.398438 70.472656 109.5 70.402344 109.59375 C 70.226562 109.835938 70.085938 110.101562 70.019531 110.394531 C 69.992188 110.519531 69.988281 110.648438 69.976562 110.777344 C 69.957031 111.046875 69.902344 111.308594 69.8125 111.566406 C 69.726562 111.828125 69.679688 112.101562 69.679688 112.378906 C 69.671875 112.789062 69.664062 113.199219 69.660156 113.609375 C 69.660156 113.84375 69.730469 114.066406 69.804688 114.289062 C 69.804688 114.300781 69.8125 114.308594 69.820312 114.320312 C 69.894531 114.371094 69.917969 114.460938 69.964844 114.53125 C 70.035156 114.628906 70.121094 114.707031 70.226562 114.769531 C 70.355469 114.855469 70.503906 114.914062 70.640625 114.992188 C 70.734375 115.035156 70.789062 115.109375 70.804688 115.210938 C 70.8125 115.25 70.84375 115.285156 70.859375 115.324219 C 70.875 115.347656 70.886719 115.375 70.898438 115.402344 L 70.878906 115.421875 L 70.773438 115.355469 C 70.667969 115.398438 70.570312 115.4375 70.472656 115.472656 C 70.425781 115.488281 70.375 115.5 70.324219 115.5 C 70.289062 115.503906 70.25 115.488281 70.210938 115.484375 C 70.160156 115.480469 70.109375 115.480469 70.058594 115.488281 C 69.910156 115.507812 69.769531 115.484375 69.640625 115.410156 C 69.570312 115.371094 69.503906 115.324219 69.445312 115.269531 C 69.402344 115.234375 69.375 115.195312 69.355469 115.144531 C 69.304688 114.992188 69.261719 114.835938 69.222656 114.679688 C 69.1875 114.542969 69.164062 114.402344 69.132812 114.265625 C 69.105469 114.140625 69.078125 114.011719 69.035156 113.890625 C 69.015625 113.839844 68.984375 113.800781 68.9375 113.773438 C 68.867188 113.726562 68.835938 113.699219 68.871094 113.625 C 68.984375 113.390625 68.941406 113.15625 68.910156 112.917969 C 68.867188 112.542969 68.832031 112.167969 68.792969 111.796875 C 68.78125 111.6875 68.769531 111.578125 68.753906 111.46875 L 68.726562 111.445312 C 68.71875 111.46875 68.710938 111.488281 68.699219 111.503906 C 68.375 111.863281 67.976562 112.089844 67.496094 112.144531 C 67.378906 112.160156 67.3125 112.183594 67.292969 112.308594 C 67.28125 112.386719 67.21875 112.457031 67.1875 112.53125 C 67.160156 112.59375 67.132812 112.65625 67.136719 112.71875 C 67.148438 113.007812 67.167969 113.296875 67.1875 113.589844 C 67.191406 113.667969 67.179688 113.765625 67.21875 113.824219 C 67.257812 113.882812 67.355469 113.898438 67.429688 113.9375 C 67.488281 113.972656 67.546875 114.007812 67.601562 114.046875 C 67.640625 114.078125 67.691406 114.109375 67.671875 114.179688 C 67.667969 114.199219 67.699219 114.226562 67.714844 114.25 C 67.746094 114.296875 67.769531 114.34375 67.804688 114.394531 C 67.753906 114.394531 67.714844 114.40625 67.691406 114.394531 C 67.621094 114.355469 67.585938 114.40625 67.53125 114.433594 C 67.453125 114.46875 67.375 114.5 67.292969 114.519531 C 67.257812 114.527344 67.226562 114.53125 67.191406 114.535156 C 67.203125 114.761719 67.210938 114.984375 67.28125 115.199219 C 67.40625 115.578125 67.644531 115.871094 67.949219 116.113281 C 68 116.15625 68.046875 116.203125 68.089844 116.25 C 68.136719 116.300781 68.179688 116.347656 68.164062 116.425781 C 68.160156 116.449219 68.179688 116.476562 68.191406 116.5 C 68.203125 116.542969 68.214844 116.582031 68.222656 116.609375 L 68.0625 116.683594 C 68.054688 116.691406 68.042969 116.695312 68.035156 116.695312 C 67.984375 116.695312 67.929688 116.691406 67.878906 116.691406 C 67.867188 116.6875 67.855469 116.691406 67.847656 116.699219 C 67.78125 116.789062 67.691406 116.765625 67.605469 116.757812 C 67.539062 116.753906 67.472656 116.699219 67.40625 116.761719 C 67.398438 116.769531 67.367188 116.757812 67.359375 116.746094 C 67.3125 116.671875 67.234375 116.691406 67.164062 116.675781 C 67.113281 116.664062 67.0625 116.664062 67.011719 116.652344 C 66.851562 116.609375 66.757812 116.503906 66.691406 116.351562 C 66.59375 116.125 66.585938 115.882812 66.554688 115.644531 C 66.523438 115.390625 66.453125 115.15625 66.304688 114.949219 C 66.226562 114.84375 66.21875 114.730469 66.234375 114.609375 C 66.246094 114.546875 66.25 114.484375 66.261719 114.421875 C 66.269531 114.367188 66.25 114.347656 66.195312 114.34375 C 65.886719 114.316406 65.578125 114.285156 65.269531 114.257812 C 65.234375 114.25 65.199219 114.242188 65.164062 114.242188 C 65.132812 114.246094 65.085938 114.265625 65.082031 114.285156 C 65.066406 114.347656 65.039062 114.359375 64.980469 114.320312 L 64.960938 114.429688 L 64.910156 114.410156 C 64.835938 114.453125 64.777344 114.519531 64.714844 114.523438 C 64.636719 114.53125 64.550781 114.503906 64.476562 114.472656 C 64.378906 114.429688 64.335938 114.425781 64.277344 114.515625 C 64.207031 114.625 64.105469 114.648438 63.992188 114.632812 C 63.914062 114.625 63.839844 114.640625 63.769531 114.675781 C 63.628906 114.734375 63.476562 114.769531 63.332031 114.8125 Z M 66.15625 113.597656 L 65.976562 113.710938 L 65.984375 113.738281 C 66.046875 113.75 66.109375 113.757812 66.171875 113.761719 C 66.183594 113.761719 66.210938 113.722656 66.207031 113.703125 C 66.195312 113.667969 66.175781 113.632812 66.15625 113.597656 Z M 66.15625 113.597656 " fill-opacity="1" fill-rule="nonzero"/></g><g fill="#4b96d5" fill-opacity="1"><g transform="translate(3.122793, 70.26988)"><g><path d="M 20.5 -25.34375 L 34.953125 -25.34375 C 34.921875 -23.25 34.875 -21.472656 34.8125 -20.015625 C 34.75 -18.566406 34.65625 -17.296875 34.53125 -16.203125 C 34.414062 -15.117188 34.253906 -14.148438 34.046875 -13.296875 C 33.847656 -12.453125 33.609375 -11.609375 33.328125 -10.765625 C 32.722656 -9.066406 31.894531 -7.519531 30.84375 -6.125 C 29.800781 -4.738281 28.613281 -3.539062 27.28125 -2.53125 C 25.945312 -1.53125 24.492188 -0.753906 22.921875 -0.203125 C 21.347656 0.335938 19.734375 0.609375 18.078125 0.609375 C 15.578125 0.609375 13.300781 0.09375 11.25 -0.9375 C 9.195312 -1.96875 7.421875 -3.398438 5.921875 -5.234375 C 4.429688 -7.066406 3.269531 -9.265625 2.4375 -11.828125 C 1.613281 -14.390625 1.203125 -17.203125 1.203125 -20.265625 C 1.203125 -23.242188 1.601562 -25.992188 2.40625 -28.515625 C 3.21875 -31.035156 4.328125 -33.222656 5.734375 -35.078125 C 7.148438 -36.929688 8.835938 -38.375 10.796875 -39.40625 C 12.753906 -40.4375 14.878906 -40.953125 17.171875 -40.953125 C 18.097656 -40.953125 18.953125 -40.867188 19.734375 -40.703125 C 20.523438 -40.546875 21.523438 -40.242188 22.734375 -39.796875 L 23.765625 -41.125 L 31.03125 -35.75 L 23.40625 -26.4375 C 22.476562 -27.726562 21.640625 -28.625 20.890625 -29.125 C 20.148438 -29.625 19.253906 -29.875 18.203125 -29.875 C 16.472656 -29.875 15.125 -29.035156 14.15625 -27.359375 C 13.1875 -25.691406 12.703125 -23.347656 12.703125 -20.328125 C 12.703125 -17.054688 13.195312 -14.53125 14.1875 -12.75 C 15.175781 -10.976562 16.617188 -10.09375 18.515625 -10.09375 C 20.003906 -10.09375 21.203125 -10.628906 22.109375 -11.703125 C 23.015625 -12.773438 23.566406 -14.273438 23.765625 -16.203125 L 18.515625 -16.203125 Z M 20.5 -25.34375 "/></g></g></g><g fill="#4b96d5" fill-opacity="1"><g transform="translate(38.681291, 70.26988)"><g><path d="M 2.71875 -29.453125 L 0.296875 -29.453125 L 2.71875 -40.34375 L 16.515625 -40.34375 L 16.515625 -41.734375 L 26.125 -41.734375 L 23.40625 -29.453125 L 13.609375 -29.453125 L 13.609375 -24.609375 L 25.28125 -24.609375 L 23.40625 -15.71875 L 13.609375 -15.71875 L 13.609375 -10.890625 L 25.28125 -10.890625 L 22.859375 0 L 2.71875 0 Z M 2.71875 -29.453125 "/></g></g></g><g fill="#4b96d5" fill-opacity="1"><g transform="translate(66.136327, 70.26988)"><g><path d="M 5.921875 -29.453125 L 0.234375 -29.453125 L 2.65625 -40.34375 L 15.125 -40.34375 L 15.484375 -41.734375 L 24.921875 -41.734375 L 22.203125 -29.453125 L 16.8125 -29.453125 L 16.8125 0 L 5.921875 0 Z M 5.921875 -29.453125 "/></g></g></g><g clip-path="url(#f187548be4)"><g clip-path="url(#ae36a740ed)"><g clip-path="url(#0c9ede23bc)"><path fill="#fff6e4" d="M 51.132812 60.535156 C 53.101562 62.023438 50.148438 65.257812 48.625 63.582031 C 47.398438 62.238281 49.417969 59.246094 51.132812 60.535156 " fill-opacity="1" fill-rule="evenodd"/></g></g></g><g clip-path="url(#61cd3e457f)"><g clip-path="url(#6a1bb69c00)"><g clip-path="url(#9e5138bf08)"><path fill="#fff6e4" d="M 53.910156 63.3125 C 56.230469 64.800781 52.625 67.960938 51.042969 66.003906 C 49.789062 64.453125 52.425781 62.363281 53.910156 63.3125 " fill-opacity="1" fill-rule="evenodd"/></g></g></g><g clip-path="url(#52b027a13d)"><g clip-path="url(#8b7a7b28e8)"><g clip-path="url(#882093dd1d)"><path fill="#fff6e4" d="M 46.785156 63.628906 C 44.632812 64.429688 43.613281 61.320312 45.308594 60.089844 C 47.09375 58.789062 49.066406 62.332031 46.785156 63.628906 " fill-opacity="1" fill-rule="evenodd"/></g></g></g><g clip-path="url(#8d894e3670)"><g clip-path="url(#e4910f5d0a)"><g clip-path="url(#41a03a8576)"><g clip-path="url(#1015ce1c43)"><path fill="#fff6e4" d="M 54.222656 67.390625 C 54.753906 67.75 55.152344 68.464844 54.984375 69.050781 C 54.523438 70.660156 52.199219 70.871094 51.265625 69.722656 C 50.753906 69.089844 50.914062 68.273438 51.3125 67.792969 C 52.167969 66.769531 53.425781 66.851562 54.222656 67.390625 " fill-opacity="1" fill-rule="evenodd"/></g></g></g></g><g clip-path="url(#4b4839455e)"><g clip-path="url(#e536ea95e9)"><g clip-path="url(#d2c87ebe6a)"><g clip-path="url(#0fc00fba9a)"><path fill="#fff6e4" d="M 48.980469 64.925781 C 50.824219 66.226562 51.132812 68.796875 48.890625 70.394531 C 48.429688 70.722656 47.527344 70.941406 47.011719 70.484375 C 46.59375 70.113281 46.515625 69.269531 46.023438 68.78125 C 45.414062 68.175781 44.394531 68.234375 44.097656 67.390625 C 43.851562 66.683594 44.585938 65.558594 45.351562 64.972656 C 46.457031 64.125 47.871094 64.144531 48.980469 64.925781 " fill-opacity="1" fill-rule="evenodd"/></g></g></g></g><g clip-path="url(#aa15e8a7fe)"><g clip-path="url(#cf4adb3c47)"><g clip-path="url(#cbb0087f63)"><path fill="#fff6e4" d="M 77.613281 51.265625 C 79.863281 52.960938 76.488281 56.65625 74.75 54.742188 C 73.351562 53.207031 75.65625 49.792969 77.613281 51.265625 " fill-opacity="1" fill-rule="evenodd"/></g></g></g><g clip-path="url(#76d4208b92)"><g clip-path="url(#2d73b1678c)"><g clip-path="url(#69d31f0d9c)"><path fill="#fff6e4" d="M 80.785156 54.4375 C 83.433594 56.136719 79.316406 59.742188 77.511719 57.507812 C 76.082031 55.734375 79.089844 53.351562 80.785156 54.4375 " fill-opacity="1" fill-rule="evenodd"/></g></g></g><g clip-path="url(#e36da2a42e)"><g clip-path="url(#cadcb36bbd)"><g clip-path="url(#33c7532204)"><path fill="#fff6e4" d="M 72.652344 54.796875 C 70.191406 55.710938 69.027344 52.164062 70.964844 50.753906 C 73 49.269531 75.253906 53.316406 72.652344 54.796875 " fill-opacity="1" fill-rule="evenodd"/></g></g></g><g clip-path="url(#8632482119)"><g clip-path="url(#798e2d60e9)"><g clip-path="url(#32097d94fd)"><g clip-path="url(#853c4d1e6e)"><path fill="#fff6e4" d="M 81.144531 59.09375 C 81.75 59.503906 82.203125 60.316406 82.011719 60.984375 C 81.484375 62.824219 78.828125 63.066406 77.765625 61.75 C 77.183594 61.03125 77.363281 60.097656 77.816406 59.550781 C 78.796875 58.382812 80.234375 58.476562 81.144531 59.09375 " fill-opacity="1" fill-rule="evenodd"/></g></g></g></g><g clip-path="url(#6fa73dff75)"><g clip-path="url(#2aa1eb879d)"><g clip-path="url(#effaabaeb9)"><g clip-path="url(#4f92db3b40)"><path fill="#fff6e4" d="M 75.15625 56.277344 C 77.257812 57.761719 77.613281 60.699219 75.054688 62.519531 C 74.527344 62.894531 73.496094 63.148438 72.90625 62.621094 C 72.433594 62.199219 72.34375 61.234375 71.78125 60.679688 C 71.085938 59.988281 69.921875 60.054688 69.582031 59.09375 C 69.300781 58.285156 70.140625 57 71.015625 56.332031 C 72.277344 55.363281 73.890625 55.386719 75.15625 56.277344 " fill-opacity="1" fill-rule="evenodd"/></g></g></g></g></svg>