<svg xmlns="http://www.w3.org/2000/svg" xmlns:xlink="http://www.w3.org/1999/xlink" width="500" zoomAndPan="magnify" viewBox="0 0 375 374.999991" height="500" preserveAspectRatio="xMidYMid meet" version="1.0"><metadata><ContainsAiGeneratedContent>Yes</ContainsAiGeneratedContent></metadata><defs><filter x="0%" y="0%" width="100%" height="100%" id="c4375dc14a"><feColorMatrix values="0 0 0 0 1 0 0 0 0 1 0 0 0 0 1 0 0 0 1 0" color-interpolation-filters="sRGB"/></filter><mask id="35077a9f5b"><g filter="url(#c4375dc14a)"><rect x="-37.5" width="450" fill="#000000" y="-37.499999" height="449.999989" fill-opacity="0.05"/></g></mask><clipPath id="c5aff1300b"><path d="M 22 21 L 110 21 L 110 130 L 22 130 Z M 22 21 " clip-rule="nonzero"/></clipPath><clipPath id="8daab6a4d9"><path d="M -1.007812 41.128906 L 175.515625 -7.128906 L 226.144531 178.078125 L 49.621094 226.332031 Z M -1.007812 41.128906 " clip-rule="nonzero"/></clipPath><clipPath id="0bcafa6f90"><path d="M -1.007812 41.128906 L 175.515625 -7.128906 L 226.144531 178.078125 L 49.621094 226.332031 Z M -1.007812 41.128906 " clip-rule="nonzero"/></clipPath><clipPath id="2ad3527e9c"><path d="M 21 21 L 110 21 L 110 131 L 21 131 Z M 21 21 " clip-rule="nonzero"/></clipPath><clipPath id="5c8ba9a81c"><path d="M -1.007812 41.128906 L 175.515625 -7.128906 L 226.144531 178.078125 L 49.621094 226.332031 Z M -1.007812 41.128906 " clip-rule="nonzero"/></clipPath><clipPath id="65417b1a16"><path d="M -1.007812 41.128906 L 175.515625 -7.128906 L 226.144531 178.078125 L 49.621094 226.332031 Z M -1.007812 41.128906 " clip-rule="nonzero"/></clipPath><clipPath id="775283d90f"><path d="M 28 98 L 110 98 L 110 206 L 28 206 Z M 28 98 " clip-rule="nonzero"/></clipPath><clipPath id="bcc6cbdd28"><path d="M -1.007812 41.128906 L 175.515625 -7.128906 L 226.144531 178.078125 L 49.621094 226.332031 Z M -1.007812 41.128906 " clip-rule="nonzero"/></clipPath><clipPath id="ce5892699e"><path d="M -1.007812 41.128906 L 175.515625 -7.128906 L 226.144531 178.078125 L 49.621094 226.332031 Z M -1.007812 41.128906 " clip-rule="nonzero"/></clipPath><clipPath id="b763ea6389"><path d="M 27 98 L 110 98 L 110 206 L 27 206 Z M 27 98 " clip-rule="nonzero"/></clipPath><clipPath id="2e53ac32f0"><path d="M -1.007812 41.128906 L 175.515625 -7.128906 L 226.144531 178.078125 L 49.621094 226.332031 Z M -1.007812 41.128906 " clip-rule="nonzero"/></clipPath><clipPath id="1e26a19d16"><path d="M -1.007812 41.128906 L 175.515625 -7.128906 L 226.144531 178.078125 L 49.621094 226.332031 Z M -1.007812 41.128906 " clip-rule="nonzero"/></clipPath><clipPath id="b64b33c083"><path d="M 92 92 L 110 92 L 110 135 L 92 135 Z M 92 92 " clip-rule="nonzero"/></clipPath><clipPath id="d7849a87a5"><path d="M -1.007812 41.128906 L 175.515625 -7.128906 L 226.144531 178.078125 L 49.621094 226.332031 Z M -1.007812 41.128906 " clip-rule="nonzero"/></clipPath><clipPath id="60f34fab49"><path d="M -1.007812 41.128906 L 175.515625 -7.128906 L 226.144531 178.078125 L 49.621094 226.332031 Z M -1.007812 41.128906 " clip-rule="nonzero"/></clipPath><clipPath id="86dcee580c"><rect x="0" width="110" y="0" height="227"/></clipPath></defs><rect x="-37.5" width="450" fill="#ffffff" y="-37.499999" height="449.999989" fill-opacity="1"/><rect x="-37.5" width="450" fill="#111111" y="-37.499999" height="449.999989" fill-opacity="1"/><g mask="url(#35077a9f5b)"><g transform="matrix(1, 0, 0, 1, 265, 78)"><g clip-path="url(#86dcee580c)"><g clip-path="url(#c5aff1300b)"><g clip-path="url(#8daab6a4d9)"><g clip-path="url(#0bcafa6f90)"><path fill="#ffffff" d="M 199.722656 81.835938 L 147.804688 96.03125 C 139.746094 80.1875 121.429688 71.632812 103.613281 76.5 C 85.796875 81.371094 74.382812 98.058594 75.503906 115.792969 L 23.585938 129.988281 C 15.011719 83.644531 43.257812 37.6875 89.542969 25.03125 C 135.828125 12.378906 183.53125 37.578125 199.722656 81.835938 Z M 199.722656 81.835938 " fill-opacity="1" fill-rule="nonzero"/></g></g></g><g clip-path="url(#2ad3527e9c)"><g clip-path="url(#5c8ba9a81c)"><g clip-path="url(#65417b1a16)"><path fill="#ffffff" d="M 200.027344 81.996094 L 147.679688 96.304688 L 147.59375 96.136719 C 139.46875 80.152344 120.996094 71.992188 103.675781 76.726562 C 86.351562 81.460938 74.605469 97.886719 75.738281 115.777344 L 75.75 115.96875 L 23.402344 130.277344 L 23.355469 130.03125 C 19.183594 107.472656 23.597656 84.289062 35.792969 64.753906 C 36.550781 63.542969 37.335938 62.351562 38.144531 61.175781 C 38.957031 60.003906 39.796875 58.847656 40.660156 57.714844 C 41.527344 56.578125 42.417969 55.464844 43.335938 54.371094 C 44.253906 53.277344 45.195312 52.207031 46.164062 51.15625 C 47.128906 50.109375 48.121094 49.082031 49.136719 48.078125 C 50.152344 47.074219 51.191406 46.097656 52.25 45.140625 C 53.3125 44.1875 54.394531 43.257812 55.496094 42.351562 C 56.601562 41.449219 57.726562 40.570312 58.871094 39.71875 C 60.015625 38.867188 61.179688 38.042969 62.363281 37.242188 C 63.546875 36.445312 64.75 35.675781 65.96875 34.933594 C 67.1875 34.191406 68.425781 33.480469 69.675781 32.796875 C 70.929688 32.113281 72.199219 31.457031 73.480469 30.832031 C 74.761719 30.207031 76.058594 29.613281 77.371094 29.046875 C 78.683594 28.484375 80.003906 27.949219 81.339844 27.445312 C 82.675781 26.945312 84.023438 26.472656 85.382812 26.03125 C 86.738281 25.59375 88.105469 25.183594 89.484375 24.808594 C 90.859375 24.433594 92.246094 24.085938 93.636719 23.777344 C 95.03125 23.464844 96.429688 23.183594 97.835938 22.9375 C 99.242188 22.691406 100.652344 22.476562 102.066406 22.296875 C 103.484375 22.117188 104.902344 21.96875 106.324219 21.855469 C 107.746094 21.738281 109.171875 21.65625 110.597656 21.609375 C 112.023438 21.5625 113.449219 21.546875 114.878906 21.5625 C 116.304688 21.582031 117.730469 21.632812 119.15625 21.71875 C 120.582031 21.804688 122.003906 21.921875 123.421875 22.070312 C 124.839844 22.222656 126.253906 22.40625 127.667969 22.625 C 129.078125 22.839844 130.480469 23.089844 131.878906 23.371094 C 133.28125 23.65625 134.671875 23.96875 136.054688 24.316406 C 137.441406 24.664062 138.816406 25.042969 140.183594 25.457031 C 141.550781 25.867188 142.90625 26.308594 144.25 26.785156 C 145.597656 27.257812 146.929688 27.765625 148.253906 28.300781 C 149.578125 28.835938 150.886719 29.40625 152.179688 30.003906 C 153.476562 30.601562 154.757812 31.226562 156.027344 31.886719 C 176.460938 42.5 192.058594 60.210938 199.941406 81.757812 Z M 147.925781 95.753906 L 199.414062 81.679688 C 183.160156 37.628906 134.980469 12.855469 89.605469 25.257812 C 44.230469 37.664062 15.355469 83.5 23.769531 129.695312 L 75.261719 115.617188 C 75.199219 114.527344 75.183594 113.4375 75.210938 112.34375 C 75.242188 111.253906 75.320312 110.164062 75.445312 109.078125 C 75.566406 107.992188 75.734375 106.914062 75.949219 105.84375 C 76.167969 104.773438 76.425781 103.710938 76.730469 102.664062 C 77.039062 101.613281 77.386719 100.578125 77.78125 99.558594 C 78.171875 98.542969 78.609375 97.539062 79.085938 96.558594 C 79.566406 95.574219 80.085938 94.617188 80.644531 93.679688 C 81.207031 92.738281 81.804688 91.828125 82.441406 90.941406 C 83.082031 90.054688 83.753906 89.195312 84.464844 88.367188 C 85.175781 87.535156 85.921875 86.738281 86.699219 85.972656 C 87.480469 85.207031 88.289062 84.472656 89.132812 83.777344 C 89.972656 83.078125 90.839844 82.417969 91.738281 81.796875 C 92.636719 81.171875 93.558594 80.589844 94.503906 80.042969 C 95.453125 79.5 96.421875 78.996094 97.410156 78.535156 C 98.398438 78.070312 99.40625 77.652344 100.433594 77.273438 C 101.460938 76.898438 102.5 76.566406 103.554688 76.277344 C 104.605469 75.988281 105.671875 75.746094 106.746094 75.550781 C 107.820312 75.351562 108.902344 75.199219 109.988281 75.09375 C 111.074219 74.988281 112.164062 74.929688 113.257812 74.917969 C 114.351562 74.90625 115.441406 74.9375 116.53125 75.019531 C 117.621094 75.097656 118.707031 75.226562 119.785156 75.398438 C 120.863281 75.570312 121.933594 75.789062 122.992188 76.050781 C 124.054688 76.316406 125.101562 76.621094 126.132812 76.976562 C 127.167969 77.328125 128.1875 77.722656 129.1875 78.164062 C 130.1875 78.601562 131.167969 79.082031 132.125 79.605469 C 133.085938 80.128906 134.019531 80.691406 134.933594 81.292969 C 135.84375 81.894531 136.730469 82.535156 137.585938 83.210938 C 138.441406 83.890625 139.269531 84.601562 140.066406 85.347656 C 140.863281 86.097656 141.625 86.878906 142.355469 87.691406 C 143.085938 88.503906 143.78125 89.34375 144.4375 90.21875 C 145.097656 91.089844 145.71875 91.988281 146.300781 92.910156 C 146.882812 93.835938 147.421875 94.785156 147.925781 95.753906 Z M 147.925781 95.753906 " fill-opacity="1" fill-rule="nonzero"/></g></g></g><g clip-path="url(#775283d90f)"><g clip-path="url(#bcc6cbdd28)"><g clip-path="url(#ce5892699e)"><path fill="#ffffff" d="M 204.09375 98.382812 C 211.773438 144.199219 183.636719 189.285156 137.867188 201.796875 C 92.09375 214.308594 44.9375 189.804688 28.238281 146.453125 L 80.359375 132.207031 C 88.761719 147.140625 106.515625 155.050781 123.796875 150.328125 C 141.074219 145.605469 152.335938 129.761719 151.972656 112.628906 Z M 204.09375 98.382812 " fill-opacity="1" fill-rule="nonzero"/></g></g></g><g clip-path="url(#b763ea6389)"><g clip-path="url(#2e53ac32f0)"><g clip-path="url(#1e26a19d16)"><path fill="#ffffff" d="M 137.925781 202.023438 C 136.570312 202.390625 135.207031 202.730469 133.835938 203.039062 C 132.464844 203.347656 131.085938 203.625 129.703125 203.867188 C 128.316406 204.113281 126.929688 204.328125 125.535156 204.507812 C 124.140625 204.6875 122.742188 204.835938 121.34375 204.953125 C 119.941406 205.070312 118.539062 205.15625 117.132812 205.207031 C 115.730469 205.261719 114.324219 205.28125 112.917969 205.269531 C 111.511719 205.257812 110.109375 205.210938 108.707031 205.136719 C 107.300781 205.058594 105.902344 204.949219 104.503906 204.808594 C 103.105469 204.667969 101.707031 204.496094 100.316406 204.292969 C 98.925781 204.085938 97.542969 203.851562 96.164062 203.582031 C 94.78125 203.3125 93.410156 203.011719 92.042969 202.683594 C 90.679688 202.351562 89.320312 201.988281 87.972656 201.59375 C 86.621094 201.199219 85.28125 200.777344 83.953125 200.320312 C 82.621094 199.867188 81.304688 199.378906 79.996094 198.863281 C 78.6875 198.347656 77.394531 197.804688 76.109375 197.226562 C 74.828125 196.652344 73.558594 196.046875 72.304688 195.414062 C 71.050781 194.78125 69.808594 194.121094 68.585938 193.429688 C 67.359375 192.738281 66.152344 192.019531 64.960938 191.273438 C 63.769531 190.527344 62.597656 189.757812 61.441406 188.957031 C 60.285156 188.15625 59.148438 187.332031 58.027344 186.480469 C 56.910156 185.628906 55.8125 184.75 54.734375 183.847656 C 53.65625 182.945312 52.601562 182.019531 51.566406 181.066406 C 50.53125 180.117188 49.515625 179.144531 48.527344 178.144531 C 47.535156 177.148438 46.570312 176.128906 45.625 175.085938 C 44.679688 174.046875 43.761719 172.984375 42.867188 171.898438 C 41.972656 170.816406 41.101562 169.710938 40.257812 168.589844 C 39.414062 167.464844 38.59375 166.320312 37.804688 165.160156 C 37.011719 164 36.246094 162.820312 35.507812 161.625 C 34.769531 160.425781 34.058594 159.214844 33.378906 157.984375 C 32.695312 156.757812 32.042969 155.511719 31.417969 154.253906 C 30.792969 152.992188 30.195312 151.722656 29.628906 150.433594 C 29.0625 149.148438 28.527344 147.851562 28.019531 146.539062 L 27.925781 146.296875 L 80.472656 131.933594 L 80.5625 132.09375 C 81.078125 133.007812 81.632812 133.898438 82.222656 134.765625 C 82.8125 135.636719 83.4375 136.480469 84.09375 137.296875 C 84.753906 138.113281 85.445312 138.902344 86.171875 139.664062 C 86.898438 140.421875 87.652344 141.152344 88.4375 141.847656 C 89.222656 142.546875 90.035156 143.210938 90.875 143.839844 C 91.714844 144.46875 92.578125 145.0625 93.46875 145.621094 C 94.359375 146.179688 95.269531 146.703125 96.199219 147.183594 C 97.132812 147.667969 98.085938 148.113281 99.054688 148.515625 C 100.023438 148.921875 101.007812 149.285156 102.007812 149.605469 C 103.003906 149.929688 104.015625 150.210938 105.039062 150.449219 C 106.0625 150.6875 107.09375 150.886719 108.132812 151.039062 C 109.167969 151.191406 110.214844 151.304688 111.261719 151.371094 C 112.308594 151.4375 113.359375 151.460938 114.410156 151.441406 C 115.457031 151.421875 116.503906 151.359375 117.550781 151.253906 C 118.59375 151.148438 119.632812 151 120.667969 150.808594 C 121.699219 150.613281 122.722656 150.378906 123.734375 150.101562 C 124.746094 149.828125 125.746094 149.507812 126.734375 149.148438 C 127.71875 148.789062 128.691406 148.386719 129.644531 147.949219 C 130.597656 147.507812 131.53125 147.03125 132.445312 146.511719 C 133.359375 145.996094 134.25 145.441406 135.117188 144.851562 C 135.984375 144.257812 136.828125 143.632812 137.644531 142.972656 C 138.460938 142.3125 139.246094 141.617188 140.007812 140.890625 C 140.765625 140.164062 141.492188 139.410156 142.1875 138.621094 C 142.882812 137.835938 143.546875 137.023438 144.175781 136.179688 C 144.804688 135.339844 145.398438 134.476562 145.953125 133.585938 C 146.511719 132.695312 147.03125 131.78125 147.511719 130.847656 C 147.992188 129.914062 148.433594 128.964844 148.835938 127.996094 C 149.242188 127.023438 149.601562 126.039062 149.921875 125.039062 C 150.246094 124.039062 150.523438 123.027344 150.761719 122.003906 C 151 120.984375 151.195312 119.953125 151.34375 118.914062 C 151.496094 117.875 151.605469 116.832031 151.671875 115.78125 C 151.738281 114.734375 151.761719 113.683594 151.738281 112.636719 L 151.734375 112.453125 L 204.28125 98.089844 L 204.324219 98.34375 C 204.554688 99.730469 204.753906 101.121094 204.921875 102.515625 C 205.085938 103.914062 205.222656 105.3125 205.324219 106.714844 C 205.425781 108.113281 205.496094 109.519531 205.535156 110.921875 C 205.570312 112.328125 205.578125 113.734375 205.550781 115.140625 C 205.523438 116.542969 205.464844 117.949219 205.375 119.351562 C 205.285156 120.753906 205.160156 122.152344 205.003906 123.550781 C 204.851562 124.949219 204.664062 126.339844 204.445312 127.730469 C 204.226562 129.117188 203.972656 130.5 203.691406 131.878906 C 203.410156 133.253906 203.09375 134.625 202.75 135.988281 C 202.402344 137.347656 202.027344 138.703125 201.621094 140.046875 C 201.210938 141.394531 200.773438 142.730469 200.304688 144.054688 C 199.835938 145.378906 199.335938 146.691406 198.808594 147.996094 C 198.277344 149.296875 197.71875 150.585938 197.128906 151.863281 C 196.542969 153.140625 195.925781 154.402344 195.277344 155.652344 C 194.632812 156.898438 193.957031 158.132812 193.253906 159.347656 C 192.550781 160.566406 191.820312 161.765625 191.0625 162.949219 C 190.304688 164.132812 189.519531 165.300781 188.707031 166.449219 C 187.898438 167.59375 187.058594 168.722656 186.195312 169.832031 C 185.332031 170.941406 184.445312 172.03125 183.53125 173.097656 C 182.617188 174.167969 181.679688 175.214844 180.71875 176.242188 C 179.757812 177.265625 178.773438 178.269531 177.765625 179.25 C 176.757812 180.230469 175.726562 181.1875 174.675781 182.117188 C 173.625 183.050781 172.554688 183.960938 171.460938 184.84375 C 170.367188 185.726562 169.253906 186.585938 168.121094 187.417969 C 166.988281 188.25 165.839844 189.058594 164.667969 189.835938 C 163.5 190.617188 162.3125 191.371094 161.109375 192.09375 C 159.90625 192.820312 158.683594 193.519531 157.449219 194.1875 C 156.210938 194.855469 154.960938 195.496094 153.695312 196.109375 C 152.429688 196.722656 151.152344 197.304688 149.859375 197.859375 C 148.566406 198.410156 147.261719 198.933594 145.949219 199.429688 C 144.632812 199.921875 143.304688 200.382812 141.96875 200.816406 C 140.628906 201.25 139.28125 201.652344 137.925781 202.023438 Z M 28.546875 146.613281 C 45.53125 190.347656 92.453125 213.96875 137.804688 201.570312 C 183.152344 189.175781 211.53125 144.96875 203.90625 98.675781 L 152.207031 112.808594 C 152.265625 117.023438 151.652344 121.136719 150.367188 125.152344 C 149.078125 129.167969 147.1875 132.875 144.6875 136.269531 C 144.050781 137.132812 143.378906 137.96875 142.671875 138.777344 C 141.96875 139.582031 141.226562 140.359375 140.457031 141.105469 C 139.683594 141.851562 138.882812 142.5625 138.050781 143.242188 C 137.222656 143.917969 136.363281 144.5625 135.476562 145.167969 C 134.59375 145.773438 133.683594 146.34375 132.753906 146.875 C 131.820312 147.40625 130.867188 147.894531 129.894531 148.347656 C 128.917969 148.796875 127.929688 149.207031 126.921875 149.578125 C 125.914062 149.945312 124.894531 150.269531 123.859375 150.554688 C 122.824219 150.835938 121.777344 151.074219 120.722656 151.269531 C 119.667969 151.464844 118.605469 151.617188 117.539062 151.722656 C 116.472656 151.832031 115.402344 151.894531 114.328125 151.910156 C 113.257812 151.929688 112.183594 151.902344 111.113281 151.828125 C 110.042969 151.757812 108.980469 151.640625 107.917969 151.476562 C 106.855469 151.316406 105.804688 151.113281 104.761719 150.863281 C 103.71875 150.613281 102.6875 150.320312 101.667969 149.984375 C 100.648438 149.652344 99.644531 149.273438 98.65625 148.855469 C 94.78125 147.199219 91.265625 144.972656 88.113281 142.171875 C 84.964844 139.367188 82.34375 136.136719 80.246094 132.480469 Z M 28.546875 146.613281 " fill-opacity="1" fill-rule="nonzero"/></g></g></g><g clip-path="url(#b64b33c083)"><g clip-path="url(#d7849a87a5)"><g clip-path="url(#60f34fab49)"><path fill="#ffffff" d="M 133.8125 107.917969 C 134.035156 108.742188 134.210938 109.578125 134.332031 110.421875 C 134.453125 111.269531 134.523438 112.121094 134.539062 112.972656 C 134.558594 113.828125 134.523438 114.679688 134.433594 115.53125 C 134.347656 116.378906 134.207031 117.222656 134.015625 118.054688 C 133.824219 118.886719 133.582031 119.703125 133.292969 120.507812 C 133 121.3125 132.660156 122.09375 132.269531 122.855469 C 131.882812 123.617188 131.449219 124.351562 130.972656 125.058594 C 130.492188 125.765625 129.972656 126.441406 129.410156 127.085938 C 128.847656 127.730469 128.25 128.335938 127.613281 128.90625 C 126.976562 129.476562 126.308594 130.003906 125.605469 130.492188 C 124.902344 130.980469 124.175781 131.421875 123.417969 131.820312 C 122.664062 132.21875 121.886719 132.570312 121.085938 132.871094 C 120.285156 133.175781 119.472656 133.425781 118.640625 133.628906 C 117.8125 133.832031 116.972656 133.980469 116.125 134.078125 C 115.273438 134.179688 114.421875 134.226562 113.570312 134.21875 C 112.714844 134.210938 111.863281 134.152344 111.015625 134.042969 C 110.167969 133.933594 109.332031 133.769531 108.503906 133.554688 C 107.675781 133.34375 106.867188 133.078125 106.070312 132.765625 C 105.277344 132.453125 104.503906 132.089844 103.753906 131.679688 C 103.003906 131.273438 102.28125 130.820312 101.585938 130.320312 C 100.890625 129.824219 100.230469 129.285156 99.601562 128.707031 C 98.972656 128.128906 98.382812 127.511719 97.832031 126.859375 C 97.277344 126.207031 96.769531 125.523438 96.300781 124.808594 C 95.832031 124.09375 95.40625 123.355469 95.03125 122.589844 C 94.652344 121.820312 94.324219 121.035156 94.042969 120.226562 C 93.765625 119.421875 93.535156 118.597656 93.355469 117.765625 C 93.175781 116.929688 93.046875 116.085938 92.972656 115.234375 C 92.898438 114.382812 92.875 113.53125 92.902344 112.675781 C 92.933594 111.820312 93.015625 110.972656 93.148438 110.128906 C 93.28125 109.285156 93.46875 108.453125 93.703125 107.632812 C 93.941406 106.8125 94.226562 106.007812 94.5625 105.222656 C 94.894531 104.433594 95.277344 103.671875 95.707031 102.933594 C 96.136719 102.195312 96.609375 101.484375 97.125 100.804688 C 97.640625 100.125 98.199219 99.476562 98.792969 98.863281 C 99.390625 98.253906 100.023438 97.679688 100.6875 97.144531 C 101.355469 96.609375 102.050781 96.117188 102.777344 95.667969 C 103.507812 95.222656 104.257812 94.816406 105.035156 94.460938 C 105.8125 94.105469 106.605469 93.796875 107.421875 93.539062 C 108.234375 93.28125 109.0625 93.074219 109.902344 92.917969 C 110.742188 92.761719 111.589844 92.65625 112.441406 92.605469 C 113.296875 92.550781 114.148438 92.550781 115 92.605469 C 115.855469 92.65625 116.699219 92.761719 117.539062 92.917969 C 118.378906 93.078125 119.207031 93.285156 120.023438 93.542969 C 120.835938 93.800781 121.632812 94.109375 122.40625 94.464844 C 123.183594 94.820312 123.9375 95.226562 124.664062 95.675781 C 125.390625 96.121094 126.085938 96.613281 126.753906 97.148438 C 127.417969 97.683594 128.050781 98.257812 128.648438 98.871094 C 129.242188 99.484375 129.796875 100.128906 130.316406 100.8125 C 131.941406 102.953125 133.105469 105.324219 133.8125 107.917969 Z M 133.8125 107.917969 " fill-opacity="1" fill-rule="nonzero"/><path fill="#ffffff" d="M 119.261719 133.746094 C 118.453125 133.96875 117.636719 134.140625 116.804688 134.261719 C 115.976562 134.386719 115.144531 134.457031 114.304688 134.480469 C 113.46875 134.507812 112.632812 134.480469 111.796875 134.402344 C 110.960938 134.328125 110.136719 134.203125 109.316406 134.027344 C 108.496094 133.851562 107.6875 133.628906 106.894531 133.355469 C 106.101562 133.085938 105.328125 132.769531 104.574219 132.40625 C 103.816406 132.039062 103.085938 131.632812 102.378906 131.183594 C 101.675781 130.730469 100.996094 130.242188 100.347656 129.707031 C 99.699219 129.175781 99.085938 128.609375 98.507812 128.003906 C 97.925781 127.398438 97.382812 126.761719 96.878906 126.089844 C 96.375 125.421875 95.914062 124.726562 95.492188 124 C 95.070312 123.273438 94.695312 122.527344 94.363281 121.757812 C 94.03125 120.988281 93.746094 120.199219 93.507812 119.398438 C 93.273438 118.59375 93.082031 117.777344 92.941406 116.953125 C 92.800781 116.125 92.710938 115.292969 92.667969 114.457031 C 92.628906 113.621094 92.636719 112.78125 92.695312 111.945312 C 92.753906 111.109375 92.863281 110.28125 93.019531 109.457031 C 93.175781 108.632812 93.382812 107.824219 93.636719 107.023438 C 93.890625 106.226562 94.191406 105.445312 94.539062 104.683594 C 94.886719 103.917969 95.28125 103.179688 95.714844 102.464844 C 96.152344 101.75 96.628906 101.0625 97.144531 100.402344 C 97.664062 99.742188 98.21875 99.117188 98.8125 98.523438 C 99.40625 97.929688 100.03125 97.375 100.6875 96.855469 C 101.347656 96.339844 102.035156 95.863281 102.75 95.425781 C 103.46875 94.988281 104.207031 94.597656 104.96875 94.25 C 105.730469 93.902344 106.511719 93.601562 107.3125 93.347656 C 108.109375 93.089844 108.921875 92.882812 109.742188 92.726562 C 110.566406 92.570312 111.394531 92.460938 112.230469 92.402344 C 113.070312 92.34375 113.90625 92.332031 114.742188 92.375 C 115.578125 92.414062 116.410156 92.503906 117.238281 92.644531 C 118.0625 92.785156 118.878906 92.972656 119.683594 93.210938 C 120.488281 93.449219 121.273438 93.734375 122.042969 94.066406 C 122.8125 94.394531 123.5625 94.773438 124.285156 95.191406 C 125.011719 95.613281 125.710938 96.074219 126.378906 96.578125 C 127.050781 97.082031 127.6875 97.625 128.292969 98.203125 C 128.898438 98.785156 129.464844 99.398438 129.996094 100.046875 C 130.53125 100.695312 131.019531 101.371094 131.472656 102.078125 C 131.921875 102.785156 132.332031 103.515625 132.695312 104.269531 C 133.058594 105.023438 133.378906 105.800781 133.648438 106.59375 C 133.921875 107.386719 134.144531 108.191406 134.320312 109.011719 C 134.496094 109.832031 134.621094 110.65625 134.699219 111.492188 C 134.773438 112.328125 134.800781 113.164062 134.777344 114 C 134.753906 114.839844 134.679688 115.671875 134.558594 116.5 C 134.4375 117.332031 134.265625 118.148438 134.042969 118.957031 C 133.824219 119.765625 133.554688 120.558594 133.242188 121.335938 C 132.925781 122.113281 132.566406 122.871094 132.160156 123.601562 C 131.757812 124.335938 131.308594 125.042969 130.820312 125.722656 C 130.332031 126.40625 129.800781 127.054688 129.234375 127.671875 C 127.894531 129.132812 126.375 130.382812 124.679688 131.414062 C 122.984375 132.449219 121.179688 133.226562 119.261719 133.746094 Z M 108.269531 93.53125 C 107.566406 93.726562 106.875 93.957031 106.195312 94.222656 C 105.519531 94.488281 104.855469 94.789062 104.207031 95.125 C 103.5625 95.460938 102.933594 95.832031 102.328125 96.234375 C 101.71875 96.640625 101.136719 97.074219 100.574219 97.539062 C 100.011719 98.003906 99.476562 98.496094 98.96875 99.019531 C 98.460938 99.542969 97.980469 100.089844 97.53125 100.664062 C 97.078125 101.234375 96.660156 101.832031 96.273438 102.449219 C 95.886719 103.066406 95.53125 103.703125 95.210938 104.359375 C 94.890625 105.011719 94.605469 105.683594 94.359375 106.367188 C 94.109375 107.054688 93.898438 107.75 93.722656 108.457031 C 93.546875 109.167969 93.410156 109.882812 93.3125 110.605469 C 93.214844 111.324219 93.152344 112.050781 93.132812 112.78125 C 93.109375 113.507812 93.128906 114.238281 93.183594 114.964844 C 93.238281 115.691406 93.332031 116.414062 93.464844 117.128906 C 93.597656 117.847656 93.765625 118.554688 93.976562 119.253906 C 94.183594 119.953125 94.425781 120.640625 94.707031 121.3125 C 94.988281 121.984375 95.300781 122.640625 95.652344 123.28125 C 96.003906 123.921875 96.386719 124.539062 96.800781 125.136719 C 97.21875 125.738281 97.664062 126.3125 98.140625 126.863281 C 98.617188 127.414062 99.121094 127.941406 99.65625 128.4375 C 100.1875 128.9375 100.746094 129.402344 101.328125 129.84375 C 101.910156 130.28125 102.511719 130.6875 103.140625 131.0625 C 103.765625 131.4375 104.40625 131.777344 105.070312 132.082031 C 105.730469 132.390625 106.40625 132.660156 107.097656 132.894531 C 107.789062 133.128906 108.488281 133.324219 109.199219 133.484375 C 109.910156 133.644531 110.628906 133.765625 111.355469 133.851562 C 112.078125 133.933594 112.804688 133.980469 113.535156 133.984375 C 114.261719 133.992188 114.992188 133.960938 115.714844 133.890625 C 116.441406 133.820312 117.160156 133.710938 117.875 133.5625 C 118.589844 133.414062 119.292969 133.230469 119.988281 133.007812 C 120.683594 132.785156 121.363281 132.527344 122.03125 132.234375 C 122.699219 131.941406 123.347656 131.609375 123.980469 131.246094 C 124.613281 130.882812 125.222656 130.488281 125.8125 130.058594 C 126.402344 129.632812 126.96875 129.175781 127.511719 128.6875 C 128.050781 128.199219 128.566406 127.683594 129.050781 127.140625 C 129.539062 126.597656 129.996094 126.027344 130.421875 125.4375 C 130.847656 124.847656 131.242188 124.234375 131.605469 123.601562 C 131.964844 122.96875 132.292969 122.316406 132.585938 121.648438 C 132.875 120.980469 133.132812 120.300781 133.351562 119.605469 C 133.570312 118.910156 133.753906 118.203125 133.898438 117.488281 C 134.042969 116.773438 134.152344 116.054688 134.21875 115.328125 C 134.289062 114.601562 134.320312 113.875 134.308594 113.144531 C 134.300781 112.417969 134.253906 111.691406 134.167969 110.96875 C 134.082031 110.242188 133.957031 109.527344 133.796875 108.816406 C 133.632812 108.105469 133.433594 107.402344 133.199219 106.714844 C 132.960938 106.023438 132.6875 105.347656 132.382812 104.6875 C 132.074219 104.027344 131.730469 103.382812 131.355469 102.761719 C 130.976562 102.136719 130.570312 101.535156 130.128906 100.953125 C 129.511719 100.136719 128.839844 99.367188 128.105469 98.652344 C 127.375 97.9375 126.597656 97.277344 125.765625 96.679688 C 124.9375 96.082031 124.066406 95.546875 123.160156 95.078125 C 122.25 94.605469 121.308594 94.207031 120.339844 93.878906 C 119.371094 93.550781 118.382812 93.296875 117.375 93.113281 C 116.371094 92.933594 115.355469 92.828125 114.332031 92.796875 C 113.308594 92.769531 112.289062 92.816406 111.273438 92.9375 C 110.257812 93.0625 109.257812 93.261719 108.269531 93.53125 Z M 108.269531 93.53125 " fill-opacity="1" fill-rule="nonzero"/></g></g></g></g></g></g></svg>