<svg xmlns="http://www.w3.org/2000/svg" xmlns:xlink="http://www.w3.org/1999/xlink" width="250" zoomAndPan="magnify" viewBox="0 0 187.5 74.999997" height="100" preserveAspectRatio="xMidYMid meet" version="1.0"><defs><g/><clipPath id="052049e946"><path d="M 69.125 19.355469 L 105.777344 19.355469 L 105.777344 57.503906 L 69.125 57.503906 Z M 69.125 19.355469 " clip-rule="nonzero"/></clipPath></defs><g fill="#000000" fill-opacity="1"><g transform="translate(21.160771, 50.646635)"><g><path d="M 13.78125 -25.703125 C 15.207031 -25.703125 16.617188 -25.539062 18.015625 -25.21875 C 19.410156 -24.894531 20.445312 -24.570312 21.125 -24.25 L 22.15625 -23.765625 L 19.328125 -18.109375 C 17.378906 -19.148438 15.53125 -19.671875 13.78125 -19.671875 C 12.800781 -19.671875 12.109375 -19.5625 11.703125 -19.34375 C 11.296875 -19.132812 11.09375 -18.738281 11.09375 -18.15625 C 11.09375 -18.03125 11.109375 -17.898438 11.140625 -17.765625 C 11.179688 -17.640625 11.25 -17.519531 11.34375 -17.40625 C 11.4375 -17.289062 11.523438 -17.191406 11.609375 -17.109375 C 11.691406 -17.023438 11.828125 -16.9375 12.015625 -16.84375 C 12.210938 -16.75 12.367188 -16.675781 12.484375 -16.625 C 12.597656 -16.570312 12.785156 -16.5 13.046875 -16.40625 C 13.304688 -16.3125 13.5 -16.238281 13.625 -16.1875 C 13.757812 -16.132812 13.976562 -16.0625 14.28125 -15.96875 C 14.59375 -15.875 14.832031 -15.8125 15 -15.78125 C 16 -15.488281 16.875 -15.160156 17.625 -14.796875 C 18.375 -14.441406 19.160156 -13.957031 19.984375 -13.34375 C 20.816406 -12.726562 21.457031 -11.945312 21.90625 -11 C 22.363281 -10.0625 22.59375 -8.992188 22.59375 -7.796875 C 22.59375 -2.109375 18.648438 0.734375 10.765625 0.734375 C 8.972656 0.734375 7.273438 0.457031 5.671875 -0.09375 C 4.066406 -0.644531 2.90625 -1.195312 2.1875 -1.75 L 1.125 -2.625 L 4.625 -8.515625 C 4.882812 -8.285156 5.222656 -8.015625 5.640625 -7.703125 C 6.066406 -7.398438 6.832031 -6.976562 7.9375 -6.4375 C 9.039062 -5.90625 10 -5.640625 10.8125 -5.640625 C 12.59375 -5.640625 13.484375 -6.242188 13.484375 -7.453125 C 13.484375 -8.003906 13.253906 -8.429688 12.796875 -8.734375 C 12.347656 -9.046875 11.578125 -9.394531 10.484375 -9.78125 C 9.398438 -10.175781 8.550781 -10.535156 7.9375 -10.859375 C 6.375 -11.671875 5.140625 -12.585938 4.234375 -13.609375 C 3.328125 -14.628906 2.875 -15.984375 2.875 -17.671875 C 2.875 -20.203125 3.851562 -22.171875 5.8125 -23.578125 C 7.78125 -24.992188 10.4375 -25.703125 13.78125 -25.703125 Z M 13.78125 -25.703125 "/></g></g></g><g fill="#000000" fill-opacity="1"><g transform="translate(41.314712, 50.646635)"><g><path d="M 28.625 -21.875 C 30.96875 -19.332031 32.140625 -16.210938 32.140625 -12.515625 C 32.140625 -8.816406 30.96875 -5.679688 28.625 -3.109375 C 26.289062 -0.546875 23.320312 0.734375 19.71875 0.734375 C 16.40625 0.734375 13.675781 -0.304688 11.53125 -2.390625 L 11.53125 12.65625 L 2.921875 12.65625 L 2.921875 -24.984375 L 11.4375 -24.984375 L 11.4375 -22.15625 L 11.53125 -22.15625 C 13.675781 -24.519531 16.40625 -25.703125 19.71875 -25.703125 C 23.320312 -25.703125 26.289062 -24.425781 28.625 -21.875 Z M 21.296875 -8.28125 C 22.421875 -9.382812 22.984375 -10.796875 22.984375 -12.515625 C 22.984375 -14.234375 22.445312 -15.632812 21.375 -16.71875 C 20.300781 -17.8125 18.890625 -18.359375 17.140625 -18.359375 C 15.453125 -18.359375 14.0625 -17.804688 12.96875 -16.703125 C 11.882812 -15.597656 11.34375 -14.203125 11.34375 -12.515625 C 11.34375 -10.796875 11.898438 -9.382812 13.015625 -8.28125 C 14.140625 -7.175781 15.515625 -6.625 17.140625 -6.625 C 18.796875 -6.625 20.179688 -7.175781 21.296875 -8.28125 Z M 21.296875 -8.28125 "/></g></g></g><g fill="#000000" fill-opacity="1"><g transform="translate(70.766934, 50.646635)"><g><path d="M 4.625 -3.078125 C 2.289062 -5.628906 1.125 -8.753906 1.125 -12.453125 C 1.125 -16.160156 2.289062 -19.296875 4.625 -21.859375 C 6.957031 -24.421875 9.925781 -25.703125 13.53125 -25.703125 C 16.84375 -25.703125 19.570312 -24.664062 21.71875 -22.59375 L 21.71875 -24.984375 L 30.328125 -24.984375 L 30.328125 0 L 21.8125 0 L 21.8125 -2.828125 L 21.71875 -2.828125 C 19.570312 -0.453125 16.84375 0.734375 13.53125 0.734375 C 9.925781 0.734375 6.957031 -0.535156 4.625 -3.078125 Z M 11.9375 -16.703125 C 10.820312 -15.597656 10.265625 -14.1875 10.265625 -12.46875 C 10.265625 -10.75 10.800781 -9.34375 11.875 -8.25 C 12.945312 -7.164062 14.359375 -6.625 16.109375 -6.625 C 17.796875 -6.625 19.179688 -7.175781 20.265625 -8.28125 C 21.359375 -9.382812 21.90625 -10.78125 21.90625 -12.46875 C 21.90625 -14.1875 21.34375 -15.597656 20.21875 -16.703125 C 19.101562 -17.804688 17.734375 -18.359375 16.109375 -18.359375 C 14.453125 -18.359375 13.0625 -17.804688 11.9375 -16.703125 Z M 11.9375 -16.703125 "/></g></g></g><g fill="#000000" fill-opacity="1"><g transform="translate(100.219157, 50.646635)"><g><path d="M 2.921875 0 L 2.921875 -24.984375 L 11.53125 -24.984375 L 11.53125 -21.375 L 11.640625 -21.375 C 11.703125 -21.5 11.804688 -21.660156 11.953125 -21.859375 C 12.097656 -22.054688 12.410156 -22.394531 12.890625 -22.875 C 13.378906 -23.363281 13.898438 -23.800781 14.453125 -24.1875 C 15.003906 -24.582031 15.71875 -24.929688 16.59375 -25.234375 C 17.476562 -25.546875 18.375 -25.703125 19.28125 -25.703125 C 20.21875 -25.703125 21.140625 -25.570312 22.046875 -25.3125 C 22.960938 -25.050781 23.628906 -24.789062 24.046875 -24.53125 L 24.734375 -24.15625 L 21.125 -16.84375 C 20.0625 -17.75 18.570312 -18.203125 16.65625 -18.203125 C 15.613281 -18.203125 14.71875 -17.972656 13.96875 -17.515625 C 13.226562 -17.066406 12.703125 -16.515625 12.390625 -15.859375 C 12.078125 -15.210938 11.851562 -14.660156 11.71875 -14.203125 C 11.59375 -13.753906 11.53125 -13.398438 11.53125 -13.140625 L 11.53125 0 Z M 2.921875 0 "/></g></g></g><g fill="#000000" fill-opacity="1"><g transform="translate(120.665192, 50.646635)"><g><path d="M 31.453125 -24.984375 L 19.578125 -13.046875 L 32.625 0 L 21.515625 0 L 11.53125 -9.984375 L 11.53125 0 L 2.921875 0 L 2.921875 -41.875 L 11.53125 -41.875 L 11.53125 -16.265625 L 20.25 -24.984375 Z M 31.453125 -24.984375 "/></g></g></g><g fill="#000000" fill-opacity="1"><g transform="translate(148.316173, 50.646635)"><g><path d="M 8.46875 -10.421875 C 10.03125 -10.421875 11.351562 -9.875 12.4375 -8.78125 C 13.53125 -7.695312 14.078125 -6.375 14.078125 -4.8125 C 14.078125 -3.289062 13.53125 -1.984375 12.4375 -0.890625 C 11.351562 0.191406 10.03125 0.734375 8.46875 0.734375 C 6.945312 0.734375 5.640625 0.191406 4.546875 -0.890625 C 3.460938 -1.984375 2.921875 -3.289062 2.921875 -4.8125 C 2.921875 -6.375 3.460938 -7.695312 4.546875 -8.78125 C 5.640625 -9.875 6.945312 -10.421875 8.46875 -10.421875 Z M 8.46875 -10.421875 "/></g></g></g><g clip-path="url(#052049e946)"><path fill="#ffffff" d="M 106.003906 38 L 100.566406 38 C 91.253906 35.988281 89.183594 33.910156 87.167969 24.585938 L 87.167969 19.359375 L 86.480469 19.359375 L 86.480469 24.640625 C 84.46875 33.917969 82.390625 35.992188 73.097656 38 L 69.128906 38 L 69.128906 38.6875 L 73.097656 38.6875 C 82.390625 40.699219 84.46875 42.773438 86.480469 52.050781 L 86.480469 57.234375 L 87.167969 57.234375 L 87.167969 52.105469 C 89.183594 42.78125 91.253906 40.703125 100.566406 38.691406 L 106.003906 38.691406 Z M 106.003906 38 " fill-opacity="1" fill-rule="nonzero"/></g><g fill="#000000" fill-opacity="1"><g transform="translate(81.444126, 62.054487)"><g><path d="M 0.640625 -4.734375 L 1.6875 -4.734375 C 1.90625 -4.734375 2.109375 -4.703125 2.296875 -4.640625 C 2.484375 -4.578125 2.640625 -4.488281 2.765625 -4.375 C 2.898438 -4.269531 3.003906 -4.140625 3.078125 -3.984375 C 3.148438 -3.835938 3.1875 -3.675781 3.1875 -3.5 C 3.1875 -3.28125 3.132812 -3.082031 3.03125 -2.90625 C 2.925781 -2.738281 2.773438 -2.601562 2.578125 -2.5 C 2.847656 -2.40625 3.0625 -2.253906 3.21875 -2.046875 C 3.375 -1.835938 3.453125 -1.597656 3.453125 -1.328125 C 3.453125 -1.128906 3.410156 -0.953125 3.328125 -0.796875 C 3.253906 -0.640625 3.144531 -0.5 3 -0.375 C 2.863281 -0.257812 2.691406 -0.164062 2.484375 -0.09375 C 2.285156 -0.03125 2.070312 0 1.84375 0 L 0.640625 0 Z M 1.84375 -0.453125 C 2.175781 -0.453125 2.445312 -0.535156 2.65625 -0.703125 C 2.863281 -0.867188 2.96875 -1.085938 2.96875 -1.359375 C 2.96875 -1.628906 2.863281 -1.84375 2.65625 -2 C 2.445312 -2.164062 2.175781 -2.25 1.84375 -2.25 L 1.125 -2.25 L 1.125 -0.453125 Z M 1.6875 -2.6875 C 2 -2.6875 2.242188 -2.753906 2.421875 -2.890625 C 2.609375 -3.035156 2.703125 -3.226562 2.703125 -3.46875 C 2.703125 -3.707031 2.609375 -3.898438 2.421875 -4.046875 C 2.234375 -4.191406 1.988281 -4.265625 1.6875 -4.265625 L 1.125 -4.265625 L 1.125 -2.6875 Z M 1.6875 -2.6875 "/></g></g></g><g fill="#000000" fill-opacity="1"><g transform="translate(87.440948, 62.054487)"><g><path d="M 0.640625 -4.734375 L 1.125 -4.734375 L 1.125 -0.453125 L 3.03125 -0.453125 L 3.03125 0 L 0.640625 0 Z M 0.640625 -4.734375 "/></g></g></g><g fill="#000000" fill-opacity="1"><g transform="translate(92.908648, 62.054487)"><g><path d="M 2.71875 0.078125 C 2.394531 0.078125 2.085938 0.015625 1.796875 -0.109375 C 1.515625 -0.242188 1.265625 -0.421875 1.046875 -0.640625 C 0.835938 -0.859375 0.671875 -1.113281 0.546875 -1.40625 C 0.421875 -1.707031 0.359375 -2.023438 0.359375 -2.359375 C 0.359375 -2.703125 0.421875 -3.019531 0.546875 -3.3125 C 0.671875 -3.601562 0.835938 -3.859375 1.046875 -4.078125 C 1.265625 -4.304688 1.515625 -4.484375 1.796875 -4.609375 C 2.085938 -4.734375 2.394531 -4.796875 2.71875 -4.796875 C 3.039062 -4.796875 3.34375 -4.734375 3.625 -4.609375 C 3.914062 -4.484375 4.164062 -4.304688 4.375 -4.078125 C 4.59375 -3.859375 4.765625 -3.601562 4.890625 -3.3125 C 5.015625 -3.019531 5.078125 -2.703125 5.078125 -2.359375 C 5.078125 -2.023438 5.015625 -1.710938 4.890625 -1.421875 C 4.765625 -1.128906 4.59375 -0.867188 4.375 -0.640625 C 4.164062 -0.421875 3.914062 -0.242188 3.625 -0.109375 C 3.34375 0.015625 3.039062 0.078125 2.71875 0.078125 Z M 2.71875 -0.421875 C 2.976562 -0.421875 3.21875 -0.46875 3.4375 -0.5625 C 3.664062 -0.664062 3.859375 -0.800781 4.015625 -0.96875 C 4.179688 -1.144531 4.3125 -1.351562 4.40625 -1.59375 C 4.507812 -1.832031 4.5625 -2.085938 4.5625 -2.359375 C 4.5625 -2.640625 4.507812 -2.898438 4.40625 -3.140625 C 4.3125 -3.378906 4.179688 -3.582031 4.015625 -3.75 C 3.859375 -3.925781 3.664062 -4.0625 3.4375 -4.15625 C 3.21875 -4.257812 2.976562 -4.3125 2.71875 -4.3125 C 2.457031 -4.3125 2.210938 -4.257812 1.984375 -4.15625 C 1.765625 -4.0625 1.570312 -3.925781 1.40625 -3.75 C 1.25 -3.582031 1.117188 -3.378906 1.015625 -3.140625 C 0.921875 -2.898438 0.875 -2.640625 0.875 -2.359375 C 0.875 -2.085938 0.921875 -1.832031 1.015625 -1.59375 C 1.117188 -1.351562 1.25 -1.144531 1.40625 -0.96875 C 1.570312 -0.800781 1.765625 -0.664062 1.984375 -0.5625 C 2.210938 -0.46875 2.457031 -0.421875 2.71875 -0.421875 Z M 2.71875 -0.421875 "/></g></g></g><g fill="#000000" fill-opacity="1"><g transform="translate(100.457569, 62.054487)"><g><path d="M 2.703125 0.078125 C 2.367188 0.078125 2.0625 0.015625 1.78125 -0.109375 C 1.5 -0.234375 1.25 -0.40625 1.03125 -0.625 C 0.820312 -0.84375 0.65625 -1.097656 0.53125 -1.390625 C 0.414062 -1.691406 0.359375 -2.007812 0.359375 -2.34375 C 0.359375 -2.6875 0.421875 -3.003906 0.546875 -3.296875 C 0.671875 -3.597656 0.835938 -3.859375 1.046875 -4.078125 C 1.265625 -4.304688 1.515625 -4.484375 1.796875 -4.609375 C 2.085938 -4.734375 2.394531 -4.796875 2.71875 -4.796875 C 3.070312 -4.796875 3.398438 -4.722656 3.703125 -4.578125 C 4.015625 -4.429688 4.28125 -4.226562 4.5 -3.96875 L 4.125 -3.65625 C 3.9375 -3.863281 3.722656 -4.023438 3.484375 -4.140625 C 3.242188 -4.253906 2.988281 -4.3125 2.71875 -4.3125 C 2.445312 -4.3125 2.203125 -4.257812 1.984375 -4.15625 C 1.765625 -4.0625 1.570312 -3.925781 1.40625 -3.75 C 1.238281 -3.582031 1.109375 -3.378906 1.015625 -3.140625 C 0.921875 -2.898438 0.875 -2.640625 0.875 -2.359375 C 0.875 -2.085938 0.921875 -1.832031 1.015625 -1.59375 C 1.109375 -1.351562 1.238281 -1.144531 1.40625 -0.96875 C 1.570312 -0.800781 1.765625 -0.664062 1.984375 -0.5625 C 2.210938 -0.46875 2.457031 -0.421875 2.71875 -0.421875 C 3.019531 -0.421875 3.289062 -0.476562 3.53125 -0.59375 C 3.78125 -0.707031 3.984375 -0.863281 4.140625 -1.0625 L 4.140625 -2.078125 L 2.71875 -2.078125 L 2.71875 -2.546875 L 4.640625 -2.546875 L 4.640625 -0.96875 C 4.410156 -0.632812 4.125 -0.375 3.78125 -0.1875 C 3.445312 -0.0078125 3.085938 0.078125 2.703125 0.078125 Z M 2.703125 0.078125 "/></g></g></g></svg>