<svg xmlns="http://www.w3.org/2000/svg" xmlns:xlink="http://www.w3.org/1999/xlink" width="350" zoomAndPan="magnify" viewBox="0 0 262.5 149.999998" height="200" preserveAspectRatio="xMidYMid meet" version="1.0"><defs><clipPath id="31d8b75c0b"><path d="M 0 0.144531 L 262 0.144531 L 262 149.855469 L 0 149.855469 Z M 0 0.144531 " clip-rule="nonzero"/></clipPath><clipPath id="e045d55bcf"><path d="M 79.859375 51.464844 L 126.867188 51.464844 L 126.867188 101.238281 L 79.859375 101.238281 Z M 79.859375 51.464844 " clip-rule="nonzero"/></clipPath><clipPath id="431499d65f"><path d="M 41 51 L 78 51 L 78 101.398438 L 41 101.398438 Z M 41 51 " clip-rule="nonzero"/></clipPath><clipPath id="6979d08e86"><path d="M 178.546875 50.800781 L 220.648438 50.800781 L 220.648438 101 L 178.546875 101 Z M 178.546875 50.800781 " clip-rule="nonzero"/></clipPath></defs><g clip-path="url(#31d8b75c0b)"><path fill="#ffffff" d="M 0 0.144531 L 262 0.144531 L 262 149.855469 L 0 149.855469 Z M 0 0.144531 " fill-opacity="1" fill-rule="nonzero"/><path fill="#ffffff" d="M 0 0.144531 L 262 0.144531 L 262 149.855469 L 0 149.855469 Z M 0 0.144531 " fill-opacity="1" fill-rule="nonzero"/></g><path fill="#ee2d21" d="M 206.75 54.148438 C 194 48.246094 180.148438 53.167969 180.148438 53.167969 C 180.148438 53.167969 178.828125 91.535156 179.929688 96.566406 C 179.929688 96.566406 184.324219 101.046875 200.703125 99.40625 C 217.082031 97.765625 219.171875 83.226562 219.722656 77.542969 C 220.269531 71.859375 219.5 60.050781 206.75 54.148438 Z M 201.472656 79.730469 C 198.175781 82.355469 194.988281 79.621094 194.988281 79.621094 L 195.589844 70.164062 C 198.394531 69.398438 202.023438 70.4375 203.34375 71.859375 C 204.660156 73.28125 204.769531 77.105469 201.472656 79.730469 " fill-opacity="1" fill-rule="nonzero"/><path fill="#66cbba" d="M 42.195312 52.945312 C 42.195312 52.945312 41.867188 99.1875 42.085938 99.84375 C 42.304688 100.5 61.210938 99.515625 61.210938 99.515625 L 61.871094 86.398438 L 74.402344 86.289062 L 74.402344 72.625 L 61.542969 71.96875 L 61.871094 69.125 L 76.820312 69.015625 L 77.042969 53.054688 C 77.042969 53.054688 43.625 52.726562 42.195312 52.945312 " fill-opacity="1" fill-rule="nonzero"/><path fill="#fab44a" d="M 103.140625 52.507812 C 96.695312 52.507812 91.390625 55.445312 87.257812 60.050781 C 83.355469 64.398438 80.441406 70.230469 80.441406 76.722656 C 80.441406 90.097656 90.605469 100.9375 103.140625 100.9375 C 108.171875 100.9375 112.953125 99.628906 116.71875 96.671875 C 122.332031 92.265625 125.839844 84.730469 125.839844 76.722656 C 125.839844 63.351562 115.679688 52.507812 103.140625 52.507812 Z M 103.582031 82.679688 C 99.910156 82.679688 96.929688 79.71875 96.929688 76.066406 C 96.929688 72.414062 99.910156 69.453125 103.582031 69.453125 C 107.253906 69.453125 110.230469 72.414062 110.230469 76.066406 C 110.230469 79.71875 107.253906 82.679688 103.582031 82.679688 " fill-opacity="1" fill-rule="nonzero"/><g clip-path="url(#e045d55bcf)"><path fill="#000000" d="M 102.464844 101.238281 C 101.023438 101.238281 99.625 101.171875 98.320312 101.039062 C 97.71875 100.980469 97.101562 100.808594 96.554688 100.652344 C 96.324219 100.589844 96.109375 100.53125 95.921875 100.484375 C 92.761719 99.738281 89.941406 98.226562 87.757812 96.105469 C 84.394531 92.835938 82.292969 89.207031 81.140625 84.6875 C 81.039062 84.292969 80.914062 83.890625 80.785156 83.488281 C 80.585938 82.84375 80.378906 82.175781 80.265625 81.523438 C 79.695312 78.175781 79.84375 74.027344 80.664062 70.433594 C 81.191406 68.113281 81.859375 66.398438 82.824219 64.863281 C 83.789062 63.339844 84.777344 62.207031 85.921875 60.898438 L 86.324219 60.433594 C 88.1875 58.292969 90.136719 56.542969 92.644531 54.765625 C 93.011719 54.5 93.28125 54.339844 93.582031 54.160156 C 93.902344 53.960938 94.269531 53.742188 94.84375 53.34375 C 95.246094 53.0625 96.105469 52.78125 96.933594 52.507812 C 97.207031 52.417969 97.457031 52.332031 97.695312 52.246094 C 98.785156 51.871094 99.644531 51.570312 101.265625 51.554688 L 101.589844 51.550781 C 103.449219 51.550781 104.992188 51.710938 106.296875 52.03125 L 107.171875 52.246094 C 108.097656 52.46875 109.050781 52.699219 110.066406 52.988281 C 114.351562 54.214844 118.367188 56.917969 121.371094 60.59375 C 122.386719 61.835938 123.335938 63.457031 124.136719 64.882812 C 124.988281 66.402344 125.5625 69.125 125.90625 70.75 C 126.320312 72.714844 126.550781 74.273438 126.578125 76.886719 C 126.601562 79.210938 126.140625 82.257812 125.425781 84.460938 C 125.191406 85.183594 124.824219 86.039062 124.304688 87.085938 C 123.988281 87.71875 123.691406 88.367188 123.394531 89.011719 C 122.546875 90.84375 121.671875 92.742188 120.40625 94.28125 C 119.1875 95.769531 115.886719 99.34375 111.601562 100.40625 C 110.785156 100.605469 109.828125 100.71875 108.898438 100.824219 L 108.414062 100.882812 C 106.457031 101.113281 104.398438 101.238281 102.464844 101.238281 Z M 101.90625 53 C 101.589844 53 101.273438 53.007812 100.960938 53.027344 C 99.6875 53.101562 98.917969 53.199219 97.988281 53.558594 L 97.722656 53.660156 C 96.21875 54.238281 95.863281 54.375 94.5 55.183594 C 93.960938 55.503906 93.394531 55.921875 92.851562 56.332031 C 92.46875 56.613281 92.109375 56.882812 91.792969 57.089844 C 90.085938 58.207031 88.074219 60.121094 86.535156 62.085938 L 86.074219 62.667969 C 84.714844 64.386719 83.175781 66.335938 82.53125 68.402344 C 81.308594 72.300781 80.972656 76.601562 81.585938 80.519531 C 82.210938 84.507812 83.4375 88.09375 84.960938 90.363281 C 85.132812 90.621094 85.308594 90.886719 85.480469 91.15625 C 85.964844 91.898438 86.46875 92.667969 87.007812 93.339844 C 88.574219 95.292969 90.792969 96.902344 93.984375 98.402344 C 95.761719 99.238281 97.453125 99.492188 99.773438 99.644531 C 100.199219 99.671875 100.628906 99.707031 101.058594 99.742188 C 102.070312 99.828125 103.117188 99.910156 104.171875 99.910156 C 104.851562 99.910156 105.472656 99.875 106.070312 99.804688 C 106.59375 99.738281 107.128906 99.652344 107.65625 99.5625 C 108.160156 99.480469 108.660156 99.394531 109.15625 99.332031 C 113.480469 98.78125 116.984375 96.59375 119.871094 92.636719 C 120.871094 91.273438 121.691406 89.789062 122.382812 88.113281 C 122.632812 87.503906 122.933594 86.890625 123.226562 86.300781 C 123.75 85.238281 124.289062 84.140625 124.511719 83.105469 C 125.15625 80.050781 125.222656 78.714844 125.105469 75.695312 C 124.882812 69.964844 123.296875 66.417969 121.941406 63.96875 C 121.449219 63.085938 120.996094 62.496094 120.511719 61.875 C 120.207031 61.484375 119.894531 61.082031 119.550781 60.582031 C 118.796875 59.46875 117.441406 58.355469 115.417969 57.175781 C 114.96875 56.914062 114.585938 56.65625 114.214844 56.40625 C 113.429688 55.882812 112.753906 55.429688 111.714844 55.09375 C 111.40625 54.992188 110.992188 54.863281 110.546875 54.726562 C 109.886719 54.519531 109.167969 54.296875 108.6875 54.128906 C 106.613281 53.421875 104.078125 53 101.90625 53 " fill-opacity="1" fill-rule="evenodd"/></g><g clip-path="url(#431499d65f)"><path fill="#000000" d="M 49.671875 101.015625 C 47.085938 101.015625 44.257812 100.832031 41.496094 100.488281 L 41.359375 100.46875 L 41.335938 100.339844 C 41.195312 99.597656 41.34375 98.851562 41.492188 98.128906 C 41.554688 97.8125 41.617188 97.503906 41.648438 97.214844 C 41.828125 95.566406 41.675781 93.789062 41.53125 92.074219 C 41.429688 90.890625 41.328125 89.667969 41.332031 88.496094 C 41.335938 86.898438 41.308594 85.261719 41.28125 83.679688 C 41.246094 81.480469 41.207031 79.207031 41.253906 76.921875 C 41.308594 74.0625 41.269531 71.171875 41.234375 68.375 C 41.1875 65.054688 41.140625 61.621094 41.253906 58.109375 C 41.269531 57.574219 41.324219 57.035156 41.375 56.507812 C 41.421875 56.046875 41.46875 55.582031 41.488281 55.117188 C 41.5 54.90625 41.496094 54.6875 41.492188 54.46875 C 41.476562 53.695312 41.460938 52.898438 42.007812 52.25 L 42.050781 52.199219 L 42.117188 52.1875 C 42.433594 52.132812 42.777344 52.105469 43.179688 52.105469 C 43.59375 52.105469 44.023438 52.132812 44.46875 52.164062 C 44.945312 52.191406 45.4375 52.222656 45.953125 52.222656 C 46.253906 52.222656 46.566406 52.210938 46.882812 52.183594 C 47.058594 52.167969 47.226562 52.121094 47.40625 52.074219 C 47.589844 52.023438 47.777344 51.972656 47.988281 51.949219 C 48.859375 51.851562 49.839844 51.808594 51.078125 51.808594 C 51.800781 51.808594 52.535156 51.824219 53.265625 51.835938 C 53.992188 51.851562 53.402344 51.867188 54.117188 51.867188 C 55.394531 51.867188 56.398438 51.816406 57.273438 51.714844 C 57.636719 51.671875 58.015625 51.648438 58.433594 51.648438 C 59.128906 51.648438 59.808594 51.707031 60.527344 51.765625 C 61.253906 51.828125 62.007812 51.890625 62.785156 51.890625 C 63.035156 51.890625 63.285156 51.882812 63.535156 51.871094 C 63.789062 51.855469 64.050781 51.828125 64.320312 51.796875 C 64.78125 51.75 65.257812 51.699219 65.792969 51.699219 C 65.941406 51.699219 66.09375 51.703125 66.25 51.710938 C 68.15625 51.824219 69.78125 51.867188 71.351562 51.90625 C 72.535156 51.9375 73.683594 51.96875 74.875 52.027344 L 75.207031 52.042969 C 76.308594 52.089844 77.257812 52.128906 77.640625 52.832031 C 77.871094 53.253906 77.792969 53.929688 77.71875 54.585938 C 77.695312 54.777344 77.675781 54.964844 77.664062 55.136719 C 77.554688 56.757812 77.589844 58.023438 77.625 59.363281 C 77.644531 60.097656 77.664062 60.859375 77.664062 61.734375 C 77.664062 62.3125 77.640625 62.890625 77.617188 63.464844 C 77.589844 64.21875 77.558594 65 77.585938 65.742188 C 77.59375 66.007812 77.613281 66.269531 77.628906 66.53125 C 77.699219 67.605469 77.773438 68.71875 77.242188 69.621094 L 77.195312 69.703125 L 77.105469 69.714844 C 76.0625 69.851562 74.914062 69.921875 73.597656 69.921875 C 72.148438 69.921875 70.652344 69.835938 69.203125 69.757812 C 67.769531 69.679688 66.289062 69.597656 64.867188 69.597656 C 63.945312 69.597656 63.125 69.632812 62.359375 69.699219 C 62.265625 70.21875 62.183594 70.832031 62.277344 71.324219 L 63.378906 71.417969 C 65.769531 71.628906 68.480469 71.867188 71.015625 71.867188 C 72.230469 71.867188 73.300781 71.8125 74.289062 71.703125 L 74.375 71.695312 L 74.441406 71.753906 C 75.175781 72.453125 75.09375 73.453125 75.015625 74.417969 C 75 74.601562 74.984375 74.785156 74.972656 74.96875 C 74.878906 76.617188 74.96875 78.457031 75.054688 80.238281 C 75.171875 82.636719 75.28125 84.902344 74.96875 86.640625 L 74.949219 86.753906 L 74.835938 86.785156 C 73.867188 87.070312 72.734375 87.207031 71.378906 87.207031 C 70.179688 87.207031 68.921875 87.101562 67.699219 87 C 66.480469 86.898438 65.222656 86.792969 64.027344 86.792969 C 63.46875 86.792969 62.964844 86.816406 62.488281 86.859375 C 62.203125 87.53125 62.222656 88.28125 62.242188 89.070312 C 62.25 89.476562 62.261719 89.898438 62.230469 90.320312 C 62.191406 90.851562 62.136719 91.429688 62.078125 92.039062 C 61.867188 94.234375 61.628906 96.726562 61.988281 98.933594 L 62.007812 99.039062 L 61.925781 99.109375 C 61.792969 99.21875 61.714844 99.410156 61.632812 99.613281 C 61.550781 99.820312 61.464844 100.03125 61.308594 100.195312 L 61.265625 100.238281 L 61.203125 100.25 C 58.746094 100.679688 57.386719 100.773438 54.554688 100.867188 C 53.722656 100.894531 52.886719 100.925781 52.054688 100.960938 C 51.28125 100.996094 50.480469 101.015625 49.671875 101.015625 Z M 42.519531 99.113281 C 45.269531 99.339844 48.136719 99.460938 50.828125 99.460938 C 54.980469 99.460938 57.363281 99.1875 60.511719 98.652344 C 60.507812 96.660156 60.675781 94.476562 60.835938 92.363281 C 60.984375 90.457031 61.125 88.652344 61.144531 87 C 61.144531 86.777344 61.109375 86.589844 61.078125 86.425781 C 61.027344 86.140625 60.972656 85.871094 61.1875 85.621094 C 61.363281 85.414062 61.746094 85.316406 62.382812 85.316406 C 62.886719 85.316406 63.464844 85.378906 63.925781 85.425781 C 64.15625 85.449219 64.359375 85.46875 64.507812 85.480469 L 65.308594 85.527344 C 67.015625 85.625 68.957031 85.742188 70.75 85.742188 C 71.984375 85.742188 73.011719 85.6875 73.890625 85.578125 C 73.949219 82.605469 73.902344 79.660156 73.855469 76.808594 C 73.839844 75.597656 73.820312 74.398438 73.808594 73.21875 C 73.632812 73.183594 73.414062 73.167969 73.144531 73.167969 C 72.808594 73.167969 72.433594 73.191406 72.035156 73.21875 C 71.589844 73.246094 71.121094 73.277344 70.65625 73.277344 C 70.441406 73.277344 70.230469 73.273438 70.023438 73.253906 L 69.480469 73.214844 C 68.074219 73.109375 66.597656 73 65.035156 72.863281 C 64.710938 72.835938 64.308594 72.832031 63.886719 72.828125 C 62.734375 72.816406 61.546875 72.804688 61.179688 72.316406 C 60.871094 71.902344 60.941406 71.359375 61.011719 70.835938 C 61.042969 70.597656 61.070312 70.371094 61.066406 70.164062 C 61.058594 69.980469 61.023438 69.808594 60.988281 69.636719 C 60.925781 69.3125 60.859375 68.976562 60.996094 68.597656 L 61.011719 68.554688 L 61.046875 68.523438 C 61.269531 68.324219 61.550781 68.230469 61.9375 68.230469 C 62.128906 68.230469 62.328125 68.253906 62.523438 68.277344 C 62.703125 68.296875 62.882812 68.320312 63.054688 68.320312 L 63.761719 68.316406 C 65.035156 68.316406 66.386719 68.347656 67.695312 68.375 C 69.039062 68.40625 70.421875 68.4375 71.765625 68.4375 C 73.597656 68.4375 75.058594 68.378906 76.355469 68.257812 C 76.5 66.414062 76.417969 64.390625 76.339844 62.433594 C 76.273438 60.820312 76.207031 59.152344 76.261719 57.558594 C 76.28125 57.003906 76.378906 56.464844 76.476562 55.945312 C 76.621094 55.164062 76.757812 54.421875 76.609375 53.703125 C 75.710938 53.472656 74.710938 53.367188 73.472656 53.367188 C 72.746094 53.367188 71.992188 53.40625 71.261719 53.4375 C 70.515625 53.472656 69.742188 53.511719 68.972656 53.511719 C 68.746094 53.511719 68.515625 53.507812 68.289062 53.5 C 67.976562 53.488281 67.652344 53.433594 67.339844 53.375 C 67.0625 53.328125 66.796875 53.28125 66.542969 53.261719 C 66.308594 53.25 66.066406 53.242188 65.820312 53.242188 C 65.3125 53.242188 64.78125 53.269531 64.25 53.292969 C 63.703125 53.316406 63.152344 53.34375 62.617188 53.34375 L 62.519531 53.34375 C 61.941406 53.339844 61.363281 53.304688 60.800781 53.273438 C 60.222656 53.238281 59.675781 53.207031 59.144531 53.207031 C 58.753906 53.207031 58.414062 53.226562 58.109375 53.261719 C 57.175781 53.375 56.125 53.425781 54.804688 53.425781 C 53.929688 53.425781 54.355469 53.40625 53.460938 53.382812 C 52.566406 53.359375 51.667969 53.335938 50.78125 53.335938 C 49.820312 53.335938 48.996094 53.363281 48.257812 53.421875 C 47.894531 53.449219 47.5 53.496094 47.085938 53.542969 C 46.285156 53.636719 45.453125 53.730469 44.648438 53.730469 C 43.933594 53.730469 43.34375 53.652344 42.859375 53.492188 C 42.222656 58.273438 42.257812 64.308594 42.335938 69.605469 C 42.347656 70.15625 42.382812 70.710938 42.417969 71.265625 C 42.46875 72.019531 42.519531 72.800781 42.496094 73.550781 C 42.484375 73.882812 42.429688 74.214844 42.375 74.535156 C 42.316406 74.894531 42.257812 75.238281 42.257812 75.589844 C 42.257812 76.09375 42.257812 76.59375 42.257812 77.097656 C 42.25 78.734375 42.242188 80.433594 42.335938 82.113281 C 42.421875 83.597656 42.394531 85.019531 42.371094 86.394531 C 42.34375 87.828125 42.316406 89.308594 42.417969 90.847656 L 42.460938 91.523438 C 42.636719 94.171875 42.800781 96.675781 42.519531 99.113281 " fill-opacity="1" fill-rule="evenodd"/></g><path fill="#000000" d="M 198.179688 81.832031 C 196.660156 81.832031 195.570312 81.203125 194.414062 80.542969 L 194.082031 80.351562 L 194.09375 80.230469 C 194.207031 79.171875 194.191406 77.921875 194.175781 76.714844 C 194.164062 75.800781 194.152344 74.851562 194.195312 73.992188 C 194.210938 73.707031 194.285156 73.414062 194.363281 73.132812 C 194.453125 72.796875 194.539062 72.472656 194.5 72.21875 C 194.445312 71.882812 194.554688 71.226562 194.65625 70.59375 C 194.714844 70.246094 194.765625 69.921875 194.773438 69.746094 C 194.800781 69.082031 195.851562 68.839844 196.554688 68.839844 C 196.734375 68.839844 197.367188 68.714844 197.515625 68.746094 C 197.984375 68.832031 198.769531 68.746094 199.246094 68.824219 C 200.929688 69.109375 201.746094 69.6875 202.789062 70.316406 C 204.246094 71.199219 205.054688 73.058594 205.007812 75.417969 C 204.945312 78.269531 202.152344 81.054688 199.695312 81.640625 C 199.160156 81.769531 198.664062 81.832031 198.179688 81.832031 Z M 197.484375 79.945312 C 197.699219 79.945312 197.898438 79.949219 198.113281 79.953125 C 198.367188 79.960938 198.636719 79.964844 198.980469 79.964844 C 202.042969 78.773438 203.664062 76.714844 203.417969 74.324219 C 203.144531 71.6875 200.242188 70.484375 197.660156 70.484375 C 197.308594 70.484375 196.960938 70.507812 196.617188 70.546875 C 196.109375 71.292969 195.972656 72.519531 195.882812 73.613281 C 195.707031 75.835938 195.679688 78.078125 195.683594 79.261719 C 195.820312 79.386719 196 79.480469 196.183594 79.578125 C 196.394531 79.6875 196.609375 79.796875 196.785156 79.960938 C 197.050781 79.949219 197.273438 79.945312 197.484375 79.945312 " fill-opacity="1" fill-rule="evenodd"/><path fill="#000000" d="M 103.898438 83.640625 C 101.214844 83.640625 98.511719 82.441406 97.335938 80.722656 C 96.410156 79.375 95.730469 76.753906 96.425781 74.179688 C 96.496094 73.917969 96.652344 73.625 96.816406 73.316406 C 96.960938 73.046875 97.109375 72.773438 97.210938 72.5 C 97.394531 72.019531 98.039062 71.386719 98.507812 70.925781 C 98.707031 70.730469 98.894531 70.546875 98.953125 70.460938 C 99.699219 69.386719 101.402344 68.773438 103.632812 68.773438 C 105.664062 68.773438 107.71875 69.320312 108.746094 70.132812 C 109.792969 71.648438 111.375 74.613281 110.621094 77.90625 C 110.445312 78.664062 110.226562 79.058594 109.789062 79.851562 L 109.574219 80.238281 C 108.941406 81.386719 108.445312 82.296875 107.320312 82.871094 C 106.34375 83.375 105.160156 83.640625 103.898438 83.640625 Z M 103.964844 70.332031 C 102.605469 70.332031 101.1875 70.660156 100.164062 71.214844 C 98.976562 72.25 98.410156 72.90625 98.0625 74.226562 C 97.328125 77.011719 98.101562 78.792969 98.882812 79.796875 C 99.925781 81.144531 101.605469 81.914062 103.488281 81.914062 C 104.875 81.914062 106.246094 81.496094 107.453125 80.703125 C 108.878906 79.175781 109.589844 76.539062 109.148438 74.320312 C 108.824219 72.683594 107.90625 71.445312 106.566406 70.832031 C 105.851562 70.503906 104.953125 70.332031 103.964844 70.332031 " fill-opacity="1" fill-rule="evenodd"/><path fill="#f57e33" d="M 173.617188 74.03125 C 173.617188 74.03125 168.667969 74.953125 167.644531 72.125 C 166.617188 69.296875 166.742188 68.261719 166.742188 68.261719 C 166.742188 68.261719 162.347656 65.789062 162.390625 64.136719 C 162.4375 62.488281 162.445312 61.136719 162.445312 61.136719 C 162.445312 61.136719 158.386719 58.402344 158.21875 55.980469 C 158.054688 53.554688 158.054688 53.554688 158.054688 53.554688 C 158.054688 53.554688 146.292969 49.464844 139.875 56.378906 C 133.457031 63.296875 129.488281 71.25 129.902344 80.472656 C 130.316406 89.695312 136.34375 96.269531 141.871094 98.121094 C 147.394531 99.976562 156.976562 100.800781 165.164062 94.242188 C 173.355469 87.6875 175.773438 78.796875 173.617188 74.03125 Z M 149.53125 82.628906 C 144.714844 82.0625 142.957031 78.796875 143.496094 74.25 C 144.035156 69.703125 147.605469 66.011719 152.421875 66.574219 C 157.242188 67.144531 159.777344 70.878906 159.234375 75.425781 C 158.695312 79.96875 154.351562 83.195312 149.53125 82.628906 " fill-opacity="1" fill-rule="nonzero"/><path fill="#66cbba" d="M 166.742188 68.261719 C 166.742188 68.261719 161.660156 66.460938 162.445312 61.136719 C 162.445312 61.136719 159.542969 58.839844 158.21875 55.980469 C 158.21875 55.980469 155.175781 54.871094 153.097656 55.828125 C 151.015625 56.789062 148.164062 59.15625 147.339844 58.460938 C 146.515625 57.761719 144.214844 56.738281 143.136719 59.46875 C 142.054688 62.199219 141.753906 64.722656 137.585938 65.433594 C 133.417969 66.148438 134.917969 72.640625 135.207031 74.027344 C 135.207031 74.027344 135.746094 77.097656 135.359375 80.363281 C 134.972656 83.625 134.222656 88.652344 136.554688 89.378906 C 138.890625 90.101562 139.988281 89.78125 140.960938 90.496094 C 141.933594 91.210938 142.722656 94.765625 144.679688 94.84375 C 146.636719 94.921875 152.453125 93.050781 154.410156 93.128906 C 156.367188 93.207031 158.121094 93.714844 160.402344 89.773438 C 162.6875 85.832031 165.628906 85.273438 166.996094 83.929688 C 168.367188 82.589844 170.839844 79.570312 171.441406 74.527344 C 171.441406 74.527344 167.316406 73.59375 166.742188 68.261719 Z M 150.390625 83.03125 C 146.066406 82.523438 143.007812 78.359375 143.558594 73.730469 C 144.109375 69.101562 148.058594 65.765625 152.382812 66.273438 C 156.707031 66.78125 159.769531 70.945312 159.21875 75.570312 C 158.667969 80.199219 154.714844 83.539062 150.390625 83.03125 " fill-opacity="1" fill-rule="nonzero"/><path fill="#4b958a" d="M 160.535156 69.617188 C 159.617188 67.820312 157.300781 65.859375 155.417969 65.074219 C 153.527344 64.289062 149.34375 63.796875 146.707031 65.738281 C 146.300781 66.039062 142.628906 67.933594 142.167969 71.816406 C 141.703125 75.703125 141.398438 79.464844 142.59375 81.292969 C 143.792969 83.121094 147.75 85.554688 152.582031 84.15625 C 157.417969 82.753906 158.878906 79.972656 160.269531 76.617188 C 161.65625 73.265625 161.453125 71.410156 160.535156 69.617188 Z M 158.125 76.664062 C 157.066406 79.144531 155.949219 81.199219 152.222656 82.21875 C 148.5 83.238281 145.441406 81.417969 144.507812 80.0625 C 143.578125 78.703125 143.800781 75.917969 144.140625 73.042969 C 144.484375 70.171875 147.3125 68.78125 147.625 68.5625 C 149.648438 67.136719 152.878906 67.515625 154.339844 68.101562 C 155.796875 68.691406 157.589844 70.148438 158.304688 71.484375 C 159.019531 72.816406 159.183594 74.1875 158.125 76.664062 " fill-opacity="1" fill-rule="nonzero"/><path fill="#cb682a" d="M 156.945312 54.820312 C 156.945312 54.820312 152.472656 53.722656 150.046875 53.78125 C 147.621094 53.839844 141.4375 56.433594 138.214844 60.292969 C 134.992188 64.152344 133.859375 65.964844 133.253906 69.101562 C 132.652344 72.238281 131.945312 77.195312 132.238281 80.550781 C 132.53125 83.90625 134.1875 87.421875 135.589844 89.1875 C 136.992188 90.957031 140.398438 95.253906 144.785156 96.109375 C 149.175781 96.96875 149.777344 97.726562 154.152344 96.753906 C 158.53125 95.777344 162.304688 94.046875 164.859375 91.941406 C 167.410156 89.835938 169.191406 88.445312 170.5 85.160156 C 171.8125 81.878906 173.4375 76.917969 172.363281 75.300781 C 172.363281 75.300781 172.605469 73.269531 174.25 74.949219 C 175.890625 76.632812 174.152344 81.582031 173.152344 85.128906 C 172.15625 88.679688 166.535156 94.316406 162.222656 96.671875 C 157.914062 99.027344 146.921875 101.402344 141.285156 98.449219 C 135.644531 95.496094 130.550781 88.941406 130 82.917969 C 129.449219 76.898438 131.164062 68.28125 132.527344 64.550781 C 133.894531 60.816406 139.363281 55.503906 141.609375 54.050781 C 143.851562 52.59375 153.824219 50.101562 158.460938 53.738281 L 156.945312 54.820312 " fill-opacity="1" fill-rule="evenodd"/><path fill="#000000" d="M 150.964844 100.539062 C 145.511719 100.539062 140.828125 99.132812 137.597656 96.566406 C 137.066406 96.144531 135.832031 95.328125 135.328125 94.71875 C 135.082031 94.421875 134.835938 94.121094 134.585938 93.847656 C 132.449219 91.476562 130.617188 89.261719 129.8125 86.1875 C 129.207031 83.871094 129.273438 80.863281 129.335938 77.953125 L 129.335938 77.875 C 129.441406 73.070312 130.601562 67.679688 132.230469 64.457031 C 134.5625 59.851562 139.792969 53.988281 144.898438 52.203125 C 146.253906 51.730469 147.800781 51.492188 149.507812 51.492188 C 152.167969 51.492188 155.195312 52.039062 159.039062 53.21875 C 159.550781 53.914062 159.386719 54.632812 159.210938 55.386719 C 159.109375 55.820312 159.007812 56.269531 159.050781 56.703125 C 159.253906 58.734375 161.746094 59.636719 163.425781 60.234375 C 163.898438 61.027344 163.683594 61.601562 163.429688 62.261719 C 163.25 62.734375 163.066406 63.222656 163.105469 63.839844 C 163.199219 65.363281 164.601562 66.0625 165.957031 66.734375 C 166.632812 67.070312 167.328125 67.417969 167.863281 67.867188 L 167.878906 68.246094 C 167.96875 70.804688 168.066406 73.449219 171.25 73.519531 C 171.800781 73.519531 172.222656 73.324219 172.628906 73.132812 C 172.976562 72.972656 173.304688 72.824219 173.644531 72.824219 C 173.734375 72.824219 173.824219 72.835938 173.914062 72.855469 C 174.976562 73.125 175.042969 74.109375 175.117188 75.253906 C 175.167969 75.980469 175.21875 76.734375 175.546875 77.34375 C 174.648438 81.769531 173.574219 85.132812 172.179688 87.917969 C 171.117188 90.039062 169.503906 91.574219 167.949219 93.054688 C 167.179688 93.785156 166.457031 94.476562 165.789062 95.230469 C 163.976562 96.34375 163.421875 96.539062 162 97.441406 C 160.433594 98.429688 158.105469 99.503906 156.28125 99.949219 C 154.671875 100.339844 152.882812 100.539062 150.964844 100.539062 Z M 150.894531 52.617188 C 147.671875 52.617188 144.351562 53.199219 142.433594 54.695312 C 139.9375 56.296875 137.125 59.285156 134.847656 62.566406 C 130.949219 68.183594 129.277344 78.128906 131.546875 86.617188 C 131.769531 87.820312 132.300781 88.488281 132.648438 89.242188 C 133.015625 90.027344 134.273438 91.292969 134.769531 92.003906 C 135.503906 92.628906 136.066406 93.566406 136.714844 94.160156 C 139.121094 96.347656 140.445312 97.335938 144.082031 98.203125 C 145.800781 98.617188 148.71875 99.078125 150.457031 99.078125 C 156.832031 99.078125 159.785156 97.195312 164.636719 94 C 169.117188 91.054688 172.363281 86.429688 173.546875 81.308594 C 174.289062 78.09375 174.003906 76.121094 172.617188 74.902344 L 172.53125 74.828125 L 172.445312 74.902344 C 171.925781 75.347656 171.839844 76.136719 171.757812 76.898438 C 171.710938 77.316406 171.664062 77.753906 171.542969 78.105469 C 170.605469 80.828125 168.6875 83.175781 166.964844 85.164062 L 166.355469 85.472656 C 164.371094 86.503906 162.492188 87.480469 161.183594 89.703125 C 161.003906 90.011719 160.882812 90.363281 160.757812 90.734375 C 160.625 91.125 160.488281 91.527344 160.273438 91.867188 C 158.867188 94.105469 156.691406 94.15625 154.175781 94.210938 C 153.121094 94.234375 152.03125 94.257812 150.898438 94.4375 C 150.023438 94.574219 149.160156 94.8125 148.328125 95.042969 C 147.011719 95.410156 145.769531 95.753906 144.441406 95.753906 C 143.984375 95.753906 143.554688 95.714844 143.121094 95.632812 C 142.324219 95.167969 142.148438 94.367188 141.964844 93.519531 C 141.839844 92.953125 141.710938 92.367188 141.367188 91.890625 C 140.722656 91.007812 140.101562 90.941406 139.15625 90.84375 C 138.691406 90.796875 138.171875 90.742188 137.519531 90.582031 C 133.277344 89.558594 133.914062 86.136719 134.585938 82.511719 C 134.800781 81.359375 135.023438 80.164062 135.082031 79.042969 C 135.171875 77.332031 134.761719 75.710938 134.363281 74.140625 C 133.929688 72.4375 133.484375 70.679688 133.683594 68.808594 C 133.945312 68.417969 134.171875 67.988281 134.390625 67.570312 C 135.019531 66.367188 135.5625 65.332031 137.035156 64.769531 C 137.355469 64.648438 137.726562 64.609375 138.117188 64.566406 C 138.601562 64.515625 139.105469 64.460938 139.558594 64.246094 C 140.644531 63.734375 141.289062 62.234375 141.972656 60.648438 C 142.8125 58.691406 143.683594 56.671875 145.402344 56.671875 C 145.863281 56.683594 146.269531 56.953125 146.664062 57.210938 C 147.078125 57.480469 147.5 57.757812 147.949219 57.777344 L 148.039062 57.78125 C 149.019531 57.78125 149.875 57.113281 150.78125 56.40625 C 151.679688 55.710938 152.605469 54.988281 153.707031 54.875 C 153.84375 54.863281 153.972656 54.855469 154.09375 54.855469 C 154.457031 54.855469 154.773438 54.90625 155.078125 54.957031 C 155.371094 55.003906 155.648438 55.050781 155.957031 55.050781 C 156.535156 55.050781 157.078125 54.886719 157.71875 54.511719 L 157.9375 54.386719 L 157.710938 54.28125 C 155.542969 53.289062 153.421875 52.617188 150.894531 52.617188 Z M 145.703125 58.324219 C 145.597656 58.324219 145.488281 58.335938 145.378906 58.355469 C 144.058594 58.613281 143.671875 59.886719 143.269531 61.238281 C 143.007812 62.105469 142.738281 63.003906 142.210938 63.734375 C 141.15625 65.199219 138.953125 65.722656 137.34375 66.101562 L 137.035156 66.175781 L 137.007812 66.222656 C 136.859375 66.46875 136.644531 66.707031 136.421875 66.957031 C 136.035156 67.382812 135.601562 67.867188 135.417969 68.503906 C 134.902344 70.332031 135.375 72.335938 135.753906 73.945312 C 135.894531 74.535156 136.015625 75.042969 136.066406 75.460938 C 136.253906 76.980469 135.953125 79.023438 135.660156 81 C 135.21875 83.976562 134.800781 86.785156 135.921875 88.023438 C 136.632812 88.8125 137.632812 88.839844 138.691406 88.871094 C 139.324219 88.890625 139.976562 88.910156 140.597656 89.09375 C 141.988281 89.5 142.335938 90.542969 142.742188 91.746094 C 143.027344 92.589844 143.320312 93.46875 144.019531 94.179688 L 144.058594 94.21875 L 144.117188 94.21875 C 146.011719 94.1875 148.058594 93.75 150.042969 93.320312 C 151.78125 92.945312 153.582031 92.558594 155.28125 92.445312 C 155.328125 92.441406 155.375 92.441406 155.421875 92.441406 C 155.660156 92.441406 155.910156 92.476562 156.152344 92.511719 C 156.402344 92.546875 156.660156 92.585938 156.917969 92.585938 C 157.101562 92.585938 157.265625 92.566406 157.421875 92.527344 C 158.875 92.144531 159.429688 90.765625 159.964844 89.429688 C 160.304688 88.582031 160.65625 87.707031 161.234375 87.078125 C 161.890625 86.621094 162.613281 86.175781 163.308594 85.742188 C 166.71875 83.628906 170.242188 81.445312 170.507812 75.242188 L 170.511719 75.167969 L 170.449219 75.125 C 170.203125 74.972656 169.957031 74.820312 169.710938 74.667969 C 167.640625 73.402344 165.683594 72.207031 166.515625 68.949219 L 166.539062 68.859375 L 166.460938 68.808594 C 166.132812 68.585938 165.792969 68.375 165.453125 68.164062 C 163.15625 66.722656 160.980469 65.363281 161.660156 61.703125 L 161.667969 61.640625 L 161.625 61.59375 C 161.175781 61.097656 160.648438 60.648438 160.140625 60.214844 C 158.863281 59.125 157.65625 58.09375 157.394531 56.285156 L 157.382812 56.199219 L 157.300781 56.175781 C 156.640625 56.003906 156.003906 55.914062 155.398438 55.914062 C 153.390625 55.914062 151.941406 56.878906 150.535156 57.816406 C 149.710938 58.367188 148.863281 58.933594 147.910156 59.289062 C 147.640625 59.160156 147.398438 59.015625 147.164062 58.875 C 146.6875 58.59375 146.238281 58.324219 145.703125 58.324219 " fill-opacity="1" fill-rule="evenodd"/><path fill="#000000" d="M 157.511719 59.746094 C 156.671875 60.449219 154.800781 61.046875 153.832031 60.453125 C 153.863281 60.183594 153.894531 59.917969 153.925781 59.648438 C 155.0625 59.703125 157.03125 58.246094 157.511719 59.746094 " fill-opacity="1" fill-rule="evenodd"/><path fill="#000000" d="M 150.320312 59.714844 C 151.957031 59.835938 152.1875 61.0625 153.015625 61.816406 C 152.972656 62.5 152.570312 62.726562 152.074219 62.84375 C 151.265625 61.976562 150.53125 61.050781 150.320312 59.714844 " fill-opacity="1" fill-rule="evenodd"/><path fill="#000000" d="M 159.964844 62.472656 C 159.828125 63.484375 158.710938 65.617188 157.222656 64.914062 C 157.828125 63.710938 158.394531 62.453125 159.964844 62.472656 " fill-opacity="1" fill-rule="evenodd"/><path fill="#000000" d="M 146.957031 61.917969 C 146.953125 63.25 145.910156 64.667969 144.953125 63.632812 C 145.402344 62.785156 145.761719 61.824219 146.957031 61.917969 " fill-opacity="1" fill-rule="evenodd"/><path fill="#000000" d="M 143.945312 80.015625 C 143.480469 80.152344 143.222656 80.546875 142.695312 80.601562 C 141.949219 80.050781 140.53125 80.027344 140.542969 78.882812 C 141.285156 78.65625 142.519531 79.046875 143.464844 79.078125 C 142.894531 76.167969 142.605469 72.460938 144.515625 70.261719 C 145.046875 69.652344 146.152344 68.675781 146.828125 68.253906 C 149.035156 66.878906 150.296875 65.679688 153.589844 67.078125 C 155.878906 68.050781 158.777344 70.777344 159.203125 73.160156 C 159.980469 77.511719 157.820312 81.042969 153.785156 82.785156 C 151.308594 83.800781 146.996094 83.84375 144.902344 81.886719 C 144.625 81.230469 144.214844 80.679688 143.945312 80.015625 Z M 147.074219 80.96875 C 149.265625 82.3125 152.71875 81.519531 153.847656 81.035156 C 156.25 79.992188 158.101562 76.863281 157.921875 74.039062 C 157.691406 70.457031 151.664062 66.613281 148.148438 69.671875 C 144.082031 71.3125 143.773438 78.953125 147.074219 80.96875 " fill-opacity="1" fill-rule="evenodd"/><path fill="#000000" d="M 144.734375 66.855469 C 143.980469 67.347656 142.78125 66.585938 141.492188 66.636719 C 141.503906 66.335938 141.449219 66.089844 141.246094 65.960938 C 141.746094 64.644531 145.171875 65.046875 144.734375 66.855469 " fill-opacity="1" fill-rule="evenodd"/><path fill="#000000" d="M 163.222656 70.820312 C 162 70.320312 160.996094 69.65625 160.730469 68.414062 C 162.402344 67.875 164.550781 69.460938 163.222656 70.820312 " fill-opacity="1" fill-rule="evenodd"/><path fill="#000000" d="M 139.386719 67.855469 C 139.347656 68.972656 139.011719 69.714844 138.3125 70.003906 C 137.035156 69.703125 138.003906 66.480469 139.386719 67.855469 " fill-opacity="1" fill-rule="evenodd"/><path fill="#000000" d="M 139.144531 70.382812 C 139.414062 70.414062 139.683594 70.445312 139.953125 70.476562 C 140.152344 71.429688 140.367188 72.378906 140.414062 73.457031 C 140.058594 73.558594 139.878906 73.886719 139.390625 73.824219 C 138.554688 73.339844 138.828125 71.292969 139.144531 70.382812 " fill-opacity="1" fill-rule="evenodd"/><path fill="#000000" d="M 166.339844 73.460938 C 166.121094 75.027344 164.597656 74.949219 163.492188 75.402344 C 163.433594 75.160156 163.289062 74.980469 163.066406 74.863281 C 163.636719 73.839844 164.964844 72.863281 166.339844 73.460938 " fill-opacity="1" fill-rule="evenodd"/><path fill="#000000" d="M 139.621094 75.523438 C 139.316406 76.617188 138.796875 77.433594 137.597656 77.398438 C 136.808594 76.183594 138.464844 75.449219 139.621094 75.523438 " fill-opacity="1" fill-rule="evenodd"/><path fill="#000000" d="M 165.191406 79.011719 C 164.59375 80.351562 164.183594 81.925781 163.40625 83.03125 C 161.835938 82.332031 163.957031 77.898438 165.191406 79.011719 " fill-opacity="1" fill-rule="evenodd"/><path fill="#000000" d="M 159.308594 81.734375 C 159.6875 81.78125 160.0625 81.824219 160.4375 81.871094 C 160.519531 83.160156 160.855469 84.253906 160.804688 85.648438 C 160.402344 85.753906 160.300781 86.246094 159.621094 86 C 159.636719 84.480469 159.296875 83.25 159.308594 81.734375 " fill-opacity="1" fill-rule="evenodd"/><path fill="#000000" d="M 155.183594 84.824219 C 155.390625 85.664062 155.929688 86.746094 155.503906 87.625 C 154.234375 87.472656 153 84.695312 155.183594 84.824219 " fill-opacity="1" fill-rule="evenodd"/><path fill="#000000" d="M 142.304688 85.914062 C 142.199219 86.210938 141.910156 86.273438 141.886719 86.679688 C 140.097656 86.875 138.464844 85.808594 138.609375 84.015625 C 140.144531 83.398438 141.34375 85.15625 142.304688 85.914062 " fill-opacity="1" fill-rule="evenodd"/><path fill="#000000" d="M 147.253906 85.519531 C 147.523438 85.503906 147.515625 85.703125 147.722656 85.738281 C 147.257812 87.429688 146.679688 88.972656 145.878906 90.234375 C 144.65625 89.042969 146.585938 86.644531 147.253906 85.519531 " fill-opacity="1" fill-rule="evenodd"/><path fill="#000000" d="M 152.382812 90.511719 C 152.21875 91.039062 151.464844 90.828125 150.875 90.820312 C 150.359375 89.917969 149.289062 89.449219 149.046875 88.332031 C 150.523438 88.113281 152.371094 89.585938 152.382812 90.511719 " fill-opacity="1" fill-rule="evenodd"/><g clip-path="url(#6979d08e86)"><path fill="#000000" d="M 194.511719 100.921875 C 194.007812 100.921875 193.550781 100.898438 193.117188 100.847656 C 190.925781 100.585938 189.207031 100.285156 187.710938 99.898438 C 186.824219 99.667969 185.914062 99.542969 185.03125 99.421875 C 184.160156 99.300781 183.257812 99.175781 182.40625 98.953125 C 182.164062 98.890625 180.023438 98.304688 179.515625 97.28125 C 179.183594 96.609375 179.039062 95.078125 179.023438 94.210938 C 179.007812 93.507812 179.035156 92.78125 179.0625 92.078125 C 179.085938 91.382812 179.113281 90.667969 179.101562 89.960938 C 179.070312 87.886719 179.003906 85.792969 178.9375 83.578125 C 178.78125 78.550781 178.621094 73.351562 178.863281 68.304688 L 178.878906 68.035156 C 178.941406 66.726562 179 65.488281 179.023438 64.214844 C 179.035156 63.53125 179.027344 62.84375 179.019531 62.160156 C 179.011719 61.421875 179.007812 60.683594 179.023438 59.964844 C 179.039062 59.261719 179.140625 58.570312 179.242188 57.902344 C 179.3125 57.414062 179.382812 56.953125 179.417969 56.492188 C 179.457031 56.03125 179.445312 55.585938 179.4375 55.152344 C 179.414062 54.230469 179.394531 53.363281 179.835938 52.558594 L 179.882812 52.480469 L 179.972656 52.464844 C 181.128906 52.289062 182.246094 52.109375 183.34375 51.933594 C 185.757812 51.542969 188.042969 51.175781 190.503906 50.890625 C 190.609375 50.847656 190.667969 50.8125 190.761719 50.8125 C 191.078125 50.804688 191.402344 50.800781 191.726562 50.800781 C 194.355469 50.800781 196.90625 51.023438 199.109375 51.445312 C 199.6875 51.554688 200.277344 51.652344 200.863281 51.746094 C 202.859375 52.078125 204.921875 52.417969 206.449219 53.273438 C 206.785156 53.464844 209.070312 54.285156 210.707031 55.460938 C 212.6875 56.882812 214.847656 59.097656 215.769531 60.414062 C 217.132812 62.363281 218.738281 64.457031 219.390625 66.503906 C 219.828125 67.871094 220.492188 69.890625 220.628906 71.523438 C 220.671875 72.039062 220.636719 72.636719 220.597656 73.269531 C 220.578125 73.535156 220.5625 73.800781 220.550781 74.066406 C 220.480469 75.78125 220.261719 77.703125 220.050781 79.5625 C 219.976562 80.214844 219.902344 80.859375 219.839844 81.476562 C 219.601562 83.71875 218.925781 85.464844 218.207031 87.316406 L 218.164062 87.425781 C 217.382812 89.449219 216.683594 90.699219 215.292969 92.585938 C 214.046875 94.269531 212.945312 95.667969 211.058594 97.035156 C 209.28125 98.316406 207.949219 99.195312 205.683594 99.664062 C 204.507812 99.90625 201.816406 100.566406 200.375 100.71875 C 199.652344 100.796875 195.882812 100.921875 194.511719 100.921875 Z M 196.132812 99.375 C 197.238281 99.292969 198.292969 99.097656 199.3125 98.910156 C 200.15625 98.757812 201.03125 98.597656 201.90625 98.507812 C 202.171875 98.480469 202.4375 98.472656 202.695312 98.472656 L 203.457031 98.480469 C 203.699219 98.480469 203.988281 98.476562 204.269531 98.429688 C 206.890625 98.019531 208.6875 96.882812 210.601562 95.550781 C 212.164062 94.464844 213 93.355469 214.195312 91.660156 C 214.402344 91.367188 214.621094 91.085938 214.835938 90.8125 C 215.195312 90.347656 215.535156 89.90625 215.769531 89.476562 C 216.167969 88.730469 216.488281 87.878906 216.828125 86.976562 C 216.992188 86.53125 217.160156 86.082031 217.34375 85.636719 C 217.925781 84.203125 218.324219 82.789062 218.519531 81.429688 C 218.621094 80.710938 218.671875 79.960938 218.726562 79.167969 C 218.789062 78.28125 218.851562 77.367188 218.992188 76.46875 C 219.246094 74.875 219.523438 73.125 219.386719 71.636719 C 219.269531 70.328125 218.675781 68.96875 218.105469 67.652344 C 217.921875 67.238281 217.742188 66.824219 217.578125 66.414062 C 216.367188 63.394531 215.210938 61.199219 213.203125 59.5625 C 212.0625 58.636719 211.324219 57.503906 209.9375 56.664062 C 209.207031 56.222656 207.378906 55.160156 207.078125 54.914062 C 206.554688 54.480469 205.089844 53.996094 204.472656 53.769531 C 203.757812 53.503906 202.773438 53.359375 201.730469 53.210938 C 201.421875 53.167969 201.105469 53.121094 200.785156 53.070312 C 200.207031 52.976562 199.601562 52.871094 198.988281 52.761719 C 197.140625 52.4375 195.226562 52.097656 193.464844 52.097656 C 193.171875 52.097656 192.882812 52.105469 192.597656 52.125 C 187.976562 52.464844 184.574219 52.929688 181.253906 53.671875 C 181.109375 54.097656 180.878906 54.425781 180.671875 54.671875 C 180.8125 55.699219 180.664062 56.742188 180.523438 57.753906 C 180.453125 58.257812 180.378906 58.777344 180.34375 59.273438 C 180.285156 60.179688 180.328125 61.148438 180.375 62.082031 C 180.414062 62.890625 180.449219 63.726562 180.425781 64.539062 C 180.398438 65.351562 180.335938 66.179688 180.273438 66.980469 C 180.179688 68.160156 180.085938 69.378906 180.109375 70.59375 C 180.15625 72.996094 180.152344 75.394531 180.148438 77.714844 C 180.140625 81.019531 180.132812 84.136719 180.265625 87.273438 C 180.3125 88.296875 180.324219 89.332031 180.335938 90.328125 C 180.363281 92.546875 180.390625 94.644531 180.722656 96.679688 C 180.921875 96.777344 181.113281 96.890625 181.3125 97.003906 C 181.691406 97.222656 182.082031 97.445312 182.507812 97.570312 C 183.28125 97.796875 184.230469 97.914062 185.230469 98.039062 C 186.070312 98.144531 186.9375 98.253906 187.796875 98.433594 C 189.25 98.738281 191.390625 99.160156 193.152344 99.296875 C 193.195312 99.300781 193.277344 99.300781 193.277344 99.300781 C 193.441406 99.300781 196.023438 99.382812 196.132812 99.375 " fill-opacity="1" fill-rule="evenodd"/></g></svg>