<svg xmlns="http://www.w3.org/2000/svg" xmlns:xlink="http://www.w3.org/1999/xlink" width="125" zoomAndPan="magnify" viewBox="0 0 93.75 149.999998" height="200" preserveAspectRatio="xMidYMid meet" version="1.0"><defs><clipPath id="bf13fa856f"><path d="M 0 0.199219 L 93.5 0.199219 L 93.5 149.800781 L 0 149.800781 Z M 0 0.199219 " clip-rule="nonzero"/></clipPath><clipPath id="d1e7bbad6b"><path d="M 10 38 L 93.5 38 L 93.5 149.800781 L 10 149.800781 Z M 10 38 " clip-rule="nonzero"/></clipPath><clipPath id="fdf72b5f7b"><path d="M 10 93 L 75 93 L 75 149.800781 L 10 149.800781 Z M 10 93 " clip-rule="nonzero"/></clipPath><clipPath id="b67531cf3f"><path d="M 0 56 L 78 56 L 78 149.800781 L 0 149.800781 Z M 0 56 " clip-rule="nonzero"/></clipPath></defs><g clip-path="url(#bf13fa856f)"><path fill="#ffffff" d="M 0 0.199219 L 93.5 0.199219 L 93.5 149.800781 L 0 149.800781 Z M 0 0.199219 " fill-opacity="1" fill-rule="nonzero"/><path fill="#ffffff" d="M 0 0.199219 L 93.5 0.199219 L 93.5 149.800781 L 0 149.800781 Z M 0 0.199219 " fill-opacity="1" fill-rule="nonzero"/><path fill="#c2dff6" d="M 138.363281 149.726562 L -44.894531 149.726562 L -44.894531 0.261719 L 138.363281 0.261719 L 138.363281 149.726562 " fill-opacity="1" fill-rule="nonzero"/></g><g clip-path="url(#d1e7bbad6b)"><path fill="#00ccb3" d="M 138.363281 81.742188 L 98.183594 38.578125 L 10.964844 149.726562 L 138.363281 149.726562 L 138.363281 81.742188 " fill-opacity="1" fill-rule="nonzero"/></g><g clip-path="url(#fdf72b5f7b)"><path fill="#00bfb3" d="M 74.664062 149.726562 L 55.378906 93.128906 L 10.964844 149.726562 Z M 74.664062 149.726562 " fill-opacity="1" fill-rule="nonzero"/></g><g clip-path="url(#b67531cf3f)"><path fill="#00ccb3" d="M -44.894531 149.726562 L -44.894531 106.324219 L 1.164062 56.34375 L 77.605469 149.726562 L -44.894531 149.726562 " fill-opacity="1" fill-rule="nonzero"/></g><path fill="#ffd008" d="M 52.734375 31.296875 C 52.734375 21.25 44.59375 13.105469 34.546875 13.105469 C 24.5 13.105469 16.355469 21.25 16.355469 31.296875 C 16.355469 41.34375 24.5 49.488281 34.546875 49.488281 C 44.59375 49.488281 52.734375 41.34375 52.734375 31.296875 " fill-opacity="1" fill-rule="nonzero"/></svg>