<svg xmlns="http://www.w3.org/2000/svg" xmlns:xlink="http://www.w3.org/1999/xlink" width="300" zoomAndPan="magnify" viewBox="0 0 224.87999 225" height="300" preserveAspectRatio="xMidYMid meet" version="1.0"><defs><g/><clipPath id="6f19176ba4"><path d="M 0 0.0585938 L 224.761719 0.0585938 L 224.761719 224.9375 L 0 224.9375 Z M 0 0.0585938 " clip-rule="nonzero"/></clipPath><clipPath id="83c88f094c"><path d="M 0 0.0585938 L 224.761719 0.0585938 L 224.761719 224.9375 L 0 224.9375 Z M 0 0.0585938 " clip-rule="nonzero"/></clipPath><clipPath id="70e163f304"><path d="M 84 57 L 224.761719 57 L 224.761719 224.9375 L 84 224.9375 Z M 84 57 " clip-rule="nonzero"/></clipPath><clipPath id="e5a029fa4e"><path d="M 84 139 L 180 139 L 180 224.9375 L 84 224.9375 Z M 84 139 " clip-rule="nonzero"/></clipPath><clipPath id="2e1d3677cd"><path d="M 0 84 L 185 84 L 185 224.9375 L 0 224.9375 Z M 0 84 " clip-rule="nonzero"/></clipPath></defs><g clip-path="url(#6f19176ba4)"><path fill="#ffffff" d="M 0 0.0585938 L 224.878906 0.0585938 L 224.878906 224.941406 L 0 224.941406 Z M 0 0.0585938 " fill-opacity="1" fill-rule="nonzero"/><path fill="#ffffff" d="M 0 0.0585938 L 224.878906 0.0585938 L 224.878906 224.941406 L 0 224.941406 Z M 0 0.0585938 " fill-opacity="1" fill-rule="nonzero"/></g><g fill="#ffffff" fill-opacity="1"><g transform="translate(154.960695, 130.248672)"><g><path d="M 0.28125 -1.1875 C 0.28125 -1.28125 0.304688 -1.351562 0.359375 -1.40625 C 0.421875 -1.457031 0.515625 -1.484375 0.640625 -1.484375 C 0.671875 -1.484375 0.738281 -1.472656 0.84375 -1.453125 C 0.945312 -1.441406 1.046875 -1.4375 1.140625 -1.4375 C 1.203125 -1.4375 1.253906 -1.429688 1.296875 -1.421875 C 1.347656 -1.421875 1.398438 -1.410156 1.453125 -1.390625 C 1.503906 -1.378906 1.546875 -1.359375 1.578125 -1.328125 C 1.617188 -1.296875 1.648438 -1.253906 1.671875 -1.203125 C 1.703125 -1.148438 1.726562 -1.082031 1.75 -1 C 1.75 -0.945312 1.75 -0.898438 1.75 -0.859375 C 1.757812 -0.816406 1.765625 -0.765625 1.765625 -0.703125 C 1.765625 -0.648438 1.765625 -0.601562 1.765625 -0.5625 C 1.765625 -0.539062 1.765625 -0.507812 1.765625 -0.46875 C 1.773438 -0.4375 1.78125 -0.40625 1.78125 -0.375 C 1.78125 -0.34375 1.78125 -0.304688 1.78125 -0.265625 C 1.78125 -0.179688 1.753906 -0.109375 1.703125 -0.046875 C 1.660156 0.00390625 1.59375 0.03125 1.5 0.03125 C 1.414062 0.03125 1.351562 0.00390625 1.3125 -0.046875 C 1.269531 -0.0976562 1.25 -0.164062 1.25 -0.25 C 1.25 -0.3125 1.253906 -0.394531 1.265625 -0.5 C 1.273438 -0.601562 1.28125 -0.6875 1.28125 -0.75 C 1.28125 -0.832031 1.265625 -0.898438 1.234375 -0.953125 C 1.203125 -1.015625 1.15625 -1.046875 1.09375 -1.046875 C 1 -1.046875 0.929688 -1.015625 0.890625 -0.953125 C 0.859375 -0.890625 0.84375 -0.816406 0.84375 -0.734375 C 0.84375 -0.691406 0.84375 -0.632812 0.84375 -0.5625 C 0.851562 -0.5 0.859375 -0.453125 0.859375 -0.421875 C 0.859375 -0.304688 0.816406 -0.203125 0.734375 -0.109375 C 0.648438 -0.015625 0.539062 0.03125 0.40625 0.03125 C 0.289062 0.03125 0.210938 0.015625 0.171875 -0.015625 C 0.109375 -0.0546875 0.078125 -0.117188 0.078125 -0.203125 C 0.078125 -0.265625 0.09375 -0.316406 0.125 -0.359375 C 0.164062 -0.398438 0.210938 -0.425781 0.265625 -0.4375 C 0.335938 -0.457031 0.390625 -0.484375 0.421875 -0.515625 C 0.453125 -0.554688 0.46875 -0.609375 0.46875 -0.671875 C 0.46875 -0.765625 0.429688 -0.859375 0.359375 -0.953125 C 0.304688 -1.035156 0.28125 -1.113281 0.28125 -1.1875 Z M 0.28125 -1.1875 "/></g></g></g><g fill="#ffffff" fill-opacity="1"><g transform="translate(156.815975, 130.248672)"><g><path d="M 0.796875 -1.46875 C 0.921875 -1.46875 1.023438 -1.453125 1.109375 -1.421875 C 1.203125 -1.398438 1.273438 -1.367188 1.328125 -1.328125 C 1.390625 -1.285156 1.4375 -1.226562 1.46875 -1.15625 C 1.507812 -1.09375 1.535156 -1.023438 1.546875 -0.953125 C 1.566406 -0.878906 1.578125 -0.789062 1.578125 -0.6875 C 1.578125 -0.59375 1.570312 -0.507812 1.5625 -0.4375 C 1.5625 -0.375 1.550781 -0.300781 1.53125 -0.21875 C 1.507812 -0.144531 1.476562 -0.0820312 1.4375 -0.03125 C 1.394531 0.0078125 1.34375 0.03125 1.28125 0.03125 C 1.207031 0.03125 1.144531 0.00390625 1.09375 -0.046875 C 1.050781 -0.109375 1.03125 -0.1875 1.03125 -0.28125 C 1.03125 -0.34375 1.039062 -0.410156 1.0625 -0.484375 C 1.082031 -0.554688 1.09375 -0.617188 1.09375 -0.671875 C 1.09375 -0.773438 1.0625 -0.851562 1 -0.90625 C 0.9375 -0.957031 0.851562 -0.984375 0.75 -0.984375 C 0.695312 -0.984375 0.625 -0.960938 0.53125 -0.921875 C 0.445312 -0.890625 0.378906 -0.875 0.328125 -0.875 C 0.253906 -0.875 0.191406 -0.894531 0.140625 -0.9375 C 0.0976562 -0.988281 0.078125 -1.050781 0.078125 -1.125 C 0.078125 -1.21875 0.125 -1.300781 0.21875 -1.375 C 0.269531 -1.414062 0.34375 -1.441406 0.4375 -1.453125 C 0.53125 -1.460938 0.648438 -1.46875 0.796875 -1.46875 Z M 0.796875 -1.46875 "/></g></g></g><g fill="#ffffff" fill-opacity="1"><g transform="translate(158.461132, 130.248672)"><g><path d="M 0.28125 -1.1875 C 0.28125 -1.28125 0.304688 -1.351562 0.359375 -1.40625 C 0.421875 -1.457031 0.515625 -1.484375 0.640625 -1.484375 C 0.671875 -1.484375 0.738281 -1.472656 0.84375 -1.453125 C 0.945312 -1.441406 1.046875 -1.4375 1.140625 -1.4375 C 1.203125 -1.4375 1.253906 -1.429688 1.296875 -1.421875 C 1.347656 -1.421875 1.398438 -1.410156 1.453125 -1.390625 C 1.503906 -1.378906 1.546875 -1.359375 1.578125 -1.328125 C 1.617188 -1.296875 1.648438 -1.253906 1.671875 -1.203125 C 1.703125 -1.148438 1.726562 -1.082031 1.75 -1 C 1.75 -0.945312 1.75 -0.898438 1.75 -0.859375 C 1.757812 -0.816406 1.765625 -0.765625 1.765625 -0.703125 C 1.765625 -0.648438 1.765625 -0.601562 1.765625 -0.5625 C 1.765625 -0.539062 1.765625 -0.507812 1.765625 -0.46875 C 1.773438 -0.4375 1.78125 -0.40625 1.78125 -0.375 C 1.78125 -0.34375 1.78125 -0.304688 1.78125 -0.265625 C 1.78125 -0.179688 1.753906 -0.109375 1.703125 -0.046875 C 1.660156 0.00390625 1.59375 0.03125 1.5 0.03125 C 1.414062 0.03125 1.351562 0.00390625 1.3125 -0.046875 C 1.269531 -0.0976562 1.25 -0.164062 1.25 -0.25 C 1.25 -0.3125 1.253906 -0.394531 1.265625 -0.5 C 1.273438 -0.601562 1.28125 -0.6875 1.28125 -0.75 C 1.28125 -0.832031 1.265625 -0.898438 1.234375 -0.953125 C 1.203125 -1.015625 1.15625 -1.046875 1.09375 -1.046875 C 1 -1.046875 0.929688 -1.015625 0.890625 -0.953125 C 0.859375 -0.890625 0.84375 -0.816406 0.84375 -0.734375 C 0.84375 -0.691406 0.84375 -0.632812 0.84375 -0.5625 C 0.851562 -0.5 0.859375 -0.453125 0.859375 -0.421875 C 0.859375 -0.304688 0.816406 -0.203125 0.734375 -0.109375 C 0.648438 -0.015625 0.539062 0.03125 0.40625 0.03125 C 0.289062 0.03125 0.210938 0.015625 0.171875 -0.015625 C 0.109375 -0.0546875 0.078125 -0.117188 0.078125 -0.203125 C 0.078125 -0.265625 0.09375 -0.316406 0.125 -0.359375 C 0.164062 -0.398438 0.210938 -0.425781 0.265625 -0.4375 C 0.335938 -0.457031 0.390625 -0.484375 0.421875 -0.515625 C 0.453125 -0.554688 0.46875 -0.609375 0.46875 -0.671875 C 0.46875 -0.765625 0.429688 -0.859375 0.359375 -0.953125 C 0.304688 -1.035156 0.28125 -1.113281 0.28125 -1.1875 Z M 0.28125 -1.1875 "/></g></g></g><g fill="#ffffff" fill-opacity="1"><g transform="translate(160.316412, 130.248672)"><g><path d="M 0.359375 -1.46875 C 0.492188 -1.46875 0.585938 -1.394531 0.640625 -1.25 C 0.671875 -1.15625 0.6875 -1 0.6875 -0.78125 C 0.6875 -0.570312 0.671875 -0.390625 0.640625 -0.234375 C 0.597656 -0.0546875 0.519531 0.03125 0.40625 0.03125 C 0.3125 0.03125 0.25 0.00390625 0.21875 -0.046875 C 0.1875 -0.0976562 0.171875 -0.160156 0.171875 -0.234375 C 0.160156 -0.285156 0.15625 -0.359375 0.15625 -0.453125 C 0.164062 -0.546875 0.171875 -0.613281 0.171875 -0.65625 C 0.160156 -0.75 0.140625 -0.84375 0.109375 -0.9375 C 0.0859375 -1.039062 0.078125 -1.117188 0.078125 -1.171875 C 0.078125 -1.242188 0.0976562 -1.3125 0.140625 -1.375 C 0.191406 -1.4375 0.265625 -1.46875 0.359375 -1.46875 Z M 0.359375 -1.46875 "/></g></g></g><g fill="#ffffff" fill-opacity="1"><g transform="translate(161.078103, 130.248672)"><g><path d="M 0.09375 -1.140625 C 0.09375 -1.210938 0.125 -1.273438 0.1875 -1.328125 C 0.25 -1.378906 0.320312 -1.414062 0.40625 -1.4375 C 0.488281 -1.46875 0.566406 -1.484375 0.640625 -1.484375 C 0.878906 -1.484375 1.066406 -1.410156 1.203125 -1.265625 C 1.347656 -1.117188 1.421875 -0.941406 1.421875 -0.734375 C 1.421875 -0.484375 1.347656 -0.289062 1.203125 -0.15625 C 1.054688 -0.03125 0.851562 0.03125 0.59375 0.03125 C 0.25 0.03125 0.078125 -0.0625 0.078125 -0.25 C 0.078125 -0.3125 0.101562 -0.363281 0.15625 -0.40625 C 0.207031 -0.445312 0.265625 -0.46875 0.328125 -0.46875 C 0.367188 -0.46875 0.421875 -0.457031 0.484375 -0.4375 C 0.546875 -0.425781 0.601562 -0.421875 0.65625 -0.421875 C 0.769531 -0.421875 0.851562 -0.445312 0.90625 -0.5 C 0.96875 -0.550781 1 -0.625 1 -0.71875 C 1 -0.8125 0.96875 -0.882812 0.90625 -0.9375 C 0.84375 -0.988281 0.765625 -1.015625 0.671875 -1.015625 C 0.617188 -1.015625 0.554688 -1 0.484375 -0.96875 C 0.421875 -0.9375 0.367188 -0.921875 0.328125 -0.921875 C 0.265625 -0.921875 0.207031 -0.9375 0.15625 -0.96875 C 0.113281 -1.007812 0.09375 -1.066406 0.09375 -1.140625 Z M 0.09375 -1.140625 "/></g></g></g><g clip-path="url(#83c88f094c)"><path fill="#c2dff6" d="M 275.84375 224.828125 L -0.00390625 224.828125 L -0.00390625 0.152344 L 275.84375 0.152344 L 275.84375 224.828125 " fill-opacity="1" fill-rule="nonzero"/></g><g clip-path="url(#70e163f304)"><path fill="#00ccb3" d="M 275.84375 122.632812 L 215.367188 57.746094 L 84.078125 224.828125 L 275.84375 224.828125 L 275.84375 122.632812 " fill-opacity="1" fill-rule="nonzero"/></g><g clip-path="url(#e5a029fa4e)"><path fill="#00bfb3" d="M 179.960938 224.828125 L 150.929688 139.753906 L 84.078125 224.828125 Z M 179.960938 224.828125 " fill-opacity="1" fill-rule="nonzero"/></g><g clip-path="url(#2e1d3677cd)"><path fill="#00ccb3" d="M -0.00390625 224.828125 L -0.00390625 159.589844 L 69.328125 84.453125 L 184.386719 224.828125 L -0.00390625 224.828125 " fill-opacity="1" fill-rule="nonzero"/></g><path fill="#ffd008" d="M 146.953125 46.804688 C 146.953125 31.699219 134.695312 19.457031 119.570312 19.457031 C 104.453125 19.457031 92.191406 31.699219 92.191406 46.804688 C 92.191406 61.910156 104.453125 74.152344 119.570312 74.152344 C 134.695312 74.152344 146.953125 61.910156 146.953125 46.804688 " fill-opacity="1" fill-rule="nonzero"/></svg>